<svg width="36" height="36" viewBox="0 0 36 36" xmlns="http://www.w3.org/2000/svg"><title>Icon</title><g fill="none" fill-rule="evenodd"><rect fill="#0045FF" width="36" height="36" rx="18"/><path d="M20.148 20.863v-1.431c.322-.16 1.244-1.257 1.34-2.114.254-.02.652-.252.77-1.17.062-.494-.188-.77-.34-.858 0 0 .378-.718.378-1.585 0-1.739-.682-3.222-2.148-3.222 0 0-.509-1.074-2.148-1.074-3.037 0-4.295 1.948-4.295 4.296 0 .79.378 1.585.378 1.585-.152.087-.403.365-.34.858.118.918.516 1.15.77 1.17.096.857 1.017 1.954 1.34 2.114v1.431c-.716 2.148-6.444.716-6.444 5.728h17.183c0-5.012-5.728-3.58-6.444-5.728z" fill="#FFF"/></g></svg>