<svg fill="none" height="26" viewBox="0 0 26 26" width="26" xmlns="http://www.w3.org/2000/svg"><path clip-rule="evenodd" d="M22.75 23.563H3.25a.813.813 0 0 1-.813-.813V10.562h3.25c-.423.61-.566 1.747-.566 2.468 0 4.351 3.548 7.891 7.91 7.891 4.36 0 7.909-3.54 7.909-7.89 0-.722-.103-1.842-.627-2.468h3.25V22.75a.813.813 0 0 1-.813.813zM18.03 13.03a4.994 4.994 0 0 1-5 4.989c-2.76 0-5-2.234-5-4.989a4.994 4.994 0 0 1 5-4.988c2.762 0 5 2.234 5 4.988zm3.907-9.78c.449 0 .813.364.813.813V6.5a.813.813 0 0 1-.813.813H19.5a.813.813 0 0 1-.813-.813V4.062c0-.448.364-.812.813-.812zM3.091 0A3.087 3.087 0 0 0 0 3.083v19.834A3.087 3.087 0 0 0 3.09 26h19.82c1.706 0 3.09-1.38 3.09-3.083V3.083A3.087 3.087 0 0 0 22.91 0z" fill="#000" fill-rule="evenodd"/></svg>