<svg height="211.873" viewBox="0 0 191.233536 211.873001" width="191.234" xmlns="http://www.w3.org/2000/svg"><clipPath id="a"><path d="M31.029 31.027c-41.372 41.372-41.372 108.448 0 149.817 41.373 41.372 108.449 41.372 149.818 0 12.337-12.337 12.337-32.342 0-44.679-12.338-12.338-32.343-12.338-44.684 0-16.693 16.693-43.757 16.693-60.454 0-16.698-16.694-16.693-43.762 0-60.459 16.697-16.694 43.761-16.694 60.454 0l1.131 1.135c12.342 12.333 32.346 12.333 44.683 0 12.342-12.342 12.342-32.345 0-44.684-.385-.385-.844-.655-1.245-1.016l.115-.114C160.162 10.342 133.053 0 105.94 0 78.826 0 51.714 10.342 31.029 31.027"/></clipPath><linearGradient id="b" gradientTransform="scale(-330.9402 330.9402) rotate(48.2 336.142 1330.144)" x1="-880.012" x2="-879.012" y1="694.567" y2="694.567"><stop offset="0" stop-color="#f05752"/><stop offset=".16" stop-color="#f0554f"/><stop offset=".295" stop-color="#f04f44"/><stop offset=".42" stop-color="#ef4533"/><stop offset=".488" stop-color="#ef3d26"/><stop offset="1" stop-color="#f9cc21"/></linearGradient><linearGradient id="c" gradientTransform="scale(104.45387 -104.45387) rotate(45 400.712 1409.07)" x1="-880.012" x2="-879.012" y1="694.588" y2="694.588"><stop offset="0" stop-color="#f9cc21"/><stop offset=".08" stop-color="#f7b022"/><stop offset=".2" stop-color="#f58d23"/><stop offset=".327" stop-color="#f37024"/><stop offset=".462" stop-color="#f15925"/><stop offset=".609" stop-color="#f04926"/><stop offset=".774" stop-color="#ef4026"/><stop offset="1" stop-color="#ef3d26"/></linearGradient><path clip-path="url(#a)" d="M304.735 98.725L103.393 323.909l-224.152-200.418L80.583-101.693z" fill="url(#b)"/><path d="M105.969 177.824c-.074.053-.144.127-.246.127-.336 0-.492-.308-.758-.664l-35.022-46.863c-4.97-6.937-7.908-15.369-7.908-24.486 0-11.498 4.663-21.91 12.21-29.597-.421.398-.831.799-1.236 1.209L6.543 142.586c5.134 13.955 13.279 27.051 24.486 38.258 12.916 12.915 28.33 21.794 44.688 26.65 15.464-15.111 27.695-27.097 30.252-29.67z" fill="url(#c)"/><path d="M105.723 63.193c-24.126 0-43.688 19.135-43.688 42.741 0 9.117 2.938 17.55 7.91 24.487l35.02 46.867c.262.352.418.664.758.664.332 0 .46-.324.758-.664l34.513-46.183c.164-.234.35-.45.508-.684 4.971-6.937 7.913-15.37 7.913-24.487 0-23.606-19.566-42.74-43.692-42.74zm.003 61.26c-10.457 0-18.927-8.29-18.927-18.516 0-10.227 8.47-18.517 18.927-18.517 10.452 0 18.922 8.29 18.922 18.517s-8.47 18.517-18.922 18.517z" fill="#222220"/></svg>