<svg viewBox="0 0 559.572571 211.873001" xmlns="http://www.w3.org/2000/svg" xmlns:xlink="http://www.w3.org/1999/xlink"><clipPath id="b"><path d="M31.386 31.027c-41.372 41.372-41.372 108.448 0 149.817 41.373 41.372 108.449 41.372 149.818 0 12.337-12.337 12.337-32.342 0-44.679-12.338-12.338-32.343-12.338-44.684 0-16.693 16.693-43.757 16.693-60.454 0-16.698-16.694-16.693-43.762 0-60.459 16.697-16.694 43.76-16.694 60.454 0l1.13 1.135c12.343 12.333 32.347 12.333 44.684 0 12.342-12.342 12.342-32.345 0-44.684-.385-.385-.844-.655-1.245-1.016l.115-.114C160.519 10.342 133.41 0 106.297 0 79.183 0 52.07 10.342 31.386 31.027"/></clipPath><linearGradient id="c" gradientTransform="scale(-330.9402 330.9402) rotate(48.2 1204.321 536.804)" x1=".904" x2="1.904" y1="1077.221" y2="1077.221"><stop offset="0" stop-color="#f05752"/><stop offset=".16" stop-color="#f0554f"/><stop offset=".295" stop-color="#f04f44"/><stop offset=".42" stop-color="#ef4533"/><stop offset=".488" stop-color="#ef3d26"/><stop offset="1" stop-color="#f9cc21"/></linearGradient><clipPath id="d"><path d="M106.132 63.197c-.016-.001-.036-.005-.052-.005-.414 0-.373.005.052.005"/></clipPath><linearGradient id="a"><stop offset="0" stop-color="#f9cc21"/><stop offset=".08" stop-color="#f7b022"/><stop offset=".2" stop-color="#f58d23"/><stop offset=".327" stop-color="#f37024"/><stop offset=".462" stop-color="#f15925"/><stop offset=".609" stop-color="#f04926"/><stop offset=".774" stop-color="#ef4026"/><stop offset="1" stop-color="#ef3d26"/></linearGradient><linearGradient id="e" gradientTransform="scale(.24222 -.24222) rotate(45 5574.17 4525.258)" x1="-1442.852" x2="-1441.852" xlink:href="#a" y1="4773.314" y2="4773.314"/><clipPath id="f"><path d="M73.366 77.55L6.9 142.586c5.134 13.955 13.279 27.051 24.486 38.258 12.916 12.915 28.33 21.794 44.688 26.65 15.464-15.111 27.695-27.097 30.252-29.67-.074.053-.144.127-.246.127-.336 0-.492-.308-.758-.664L70.3 130.424c-4.97-6.937-7.908-15.369-7.908-24.486 0-11.498 4.663-21.91 12.21-29.597-.421.398-.831.799-1.236 1.209"/></clipPath><linearGradient id="g" gradientTransform="scale(104.45387 -104.45387) rotate(45 1314.618 547.833)" x1="-3.346" x2="-2.346" xlink:href="#a" y1="1088.688" y2="1088.688"/><path clip-path="url(#b)" d="M305.091 98.725L103.75 323.909l-224.152-200.418L80.94-101.693z" fill="url(#c)"/><path clip-path="url(#d)" d="M105.663 63.195l.236-.236.235.236-.235.235z" fill="url(#e)"/><path clip-path="url(#f)" d="M-58.677 141.918l115.29-115.29 115.29 115.29-115.29 115.289z" fill="url(#g)"/><path d="M106.838 177.288c-.299.34-.426.664-.758.664-.34 0-.496-.312-.758-.664l-35.021-46.867c-4.971-6.937-7.909-15.37-7.909-24.487 0-23.606 19.562-42.74 43.688-42.74s43.692 19.134 43.692 42.74c0 9.117-2.942 17.55-7.913 24.487-.159.233-.344.45-.508.684z" fill="#222220"/><path d="M125.005 105.937c0 10.227-8.47 18.517-18.922 18.517-10.457 0-18.927-8.29-18.927-18.517s8.47-18.517 18.927-18.517c10.452 0 18.922 8.29 18.922 18.517" fill="#fff"/><g fill="#222220"><path d="M319.602 76.8c-16.095 0-29.142 13.047-29.142 29.144 0 16.102 13.047 29.15 29.142 29.15 4.73 0 9.179-1.152 13.126-3.157 1.683 1.92 4.113 3.156 6.865 3.156 5.055 0 9.158-4.105 9.158-9.158v-19.991c0-16.097-13.054-29.144-29.149-29.144m0 40.903c-6.491 0-11.761-5.26-11.761-11.76s5.27-11.76 11.761-11.76c6.498 0 11.768 5.26 11.768 11.76s-5.27 11.76-11.768 11.76M276.326 85.334c-11.379-11.38-29.833-11.38-41.22 0-11.378 11.379-11.378 29.833 0 41.22 11.387 11.378 29.841 11.378 41.22 0 3.4-3.394 3.4-8.9 0-12.294-3.393-3.393-8.9-3.393-12.293 0-4.593 4.595-12.04 4.595-16.633 0-4.595-4.593-4.595-12.04 0-16.633 4.593-4.595 12.04-4.595 16.633 0l.03-.03c.1.109.172.23.279.339 3.402 3.4 8.9 3.4 12.293 0 3.4-3.393 3.4-8.893 0-12.293-.1-.107-.23-.18-.337-.281zM487.938 90.627c.984-1.697 1.717-3.205 1.717-5.14 0-4.802-3.894-8.692-8.698-8.692-3.737 0-6.649 2.58-8.13 5.709l-13.815 25.691-13.825-25.691c-1.618-3.047-4.391-5.709-8.13-5.709-4.802 0-8.698 3.89-8.698 8.691 0 1.936 2.731 7.032 1.717 5.14l20.804 38.762c1.554 3.35 4.379 5.707 8.132 5.707 3.744 0 6.628-2.58 8.13-5.707zM415.196 92.344c-4.895-9.223-14.514-15.55-25.67-15.55a28.97 28.97 0 0 0-14.399 3.825c-1.568-1.488-3.674-2.416-6.01-2.416a8.739 8.739 0 0 0-8.743 8.742v38.983c0 5.061 4.099 9.167 9.153 9.167 5.067 0 8.295-4.106 8.295-9.167l-.065-19.984c0-6.499 5.263-11.76 11.761-11.76 7.807 0 10.862 7.132 10.869 7.124 1.466 2.76 4.328 4.658 7.663 4.658a8.69 8.69 0 0 0 8.691-8.69c0-1.834-.575-3.53-1.545-4.932M551.548 111.361a20.254 20.254 0 0 0 4.069-.438c2.416-.504 3.882-1.934 3.926-4.255.05-2.768.121-5.637-.568-8.29-2.933-11.385-10.258-18.983-22.716-21.248-10.834-1.964-20.172 1.135-27.353 9.072-6.124 6.772-8.195 14.83-7.498 23.628.856 10.826 8.375 20.114 19.323 23.572 9.123 2.882 18.173 2.444 27.074-.87 3.479-1.293 6.728-2.969 9.172-5.758 2.026-2.321 2.306-5.355.696-7.778-1.739-2.652-4.837-3.933-7.972-3.04-1.882.539-3.665 1.423-5.456 2.221-3.156 1.409-6.318 2.739-9.927 2.839-6.579.187-11.638-2.516-14.177-9.583.39-.02.698-.049 1.007-.049 10.128 0 20.272.014 30.4-.023m-31.5-9.158c0-4.198 5.118-7.605 11.43-7.605 6.32 0 11.437 3.407 11.437 7.605z"/></g></svg>