<svg xmlns="http://www.w3.org/2000/svg" xmlns:xlink="http://www.w3.org/1999/xlink" viewBox="0 0 533.4 226.8"><style>._x005B_Default_x005D_{fill:#fff;stroke:#000;stroke-miterlimit:10}.st0{clip-path:url(#SVGID_2_);fill:url(#SVGID_3_)}.st1{clip-path:url(#SVGID_5_);fill:url(#SVGID_6_)}.st2{clip-path:url(#SVGID_8_);fill:url(#SVGID_9_)}.st3{fill:#222220}.st4{fill:#fff}</style><g id="Layer_1"><defs><path id="SVGID_1_" d="M31 31c-41.4 41.4-41.4 108.4 0 149.8 41.4 41.4 108.4 41.4 149.8 0 12.3-12.3 12.3-32.3 0-44.7-12.3-12.3-32.3-12.3-44.7 0-16.7 16.7-43.8 16.7-60.5 0-16.6-16.6-16.6-43.7.1-60.4 16.7-16.7 43.8-16.7 60.5 0l1.1 1.1c12.3 12.3 32.3 12.3 44.7 0 12.3-12.3 12.3-32.3 0-44.7-.4-.4-.8-.7-1.2-1l.1-.1C160.2 10.3 133.1 0 106 0 78.8 0 51.7 10.3 31 31"/></defs><clipPath id="SVGID_2_"><use xlink:href="#SVGID_1_" overflow="visible"/></clipPath><linearGradient id="SVGID_3_" gradientUnits="userSpaceOnUse" x1=".904" y1="1077.221" x2="1.904" y2="1077.221" gradientTransform="scale(-330.9402 330.9402) rotate(48.2 1204.321 536.804)"><stop offset="0" stop-color="#f05752"/><stop offset=".16" stop-color="#f0554f"/><stop offset=".295" stop-color="#f04f44"/><stop offset=".42" stop-color="#ef4533"/><stop offset=".488" stop-color="#ef3d26"/><stop offset="1" stop-color="#f9cc21"/></linearGradient><path class="st0" d="M304.7 98.7L103.4 323.9l-224.2-200.4L80.6-101.7z"/><defs><path id="SVGID_4_" d="M105.8 63.2s-.1 0 0 0c-.5 0-.5 0 0 0"/></defs><clipPath id="SVGID_5_"><use xlink:href="#SVGID_4_" overflow="visible"/></clipPath><linearGradient id="SVGID_6_" gradientUnits="userSpaceOnUse" x1="-1443.894" y1="4774.355" x2="-1442.894" y2="4774.355" gradientTransform="scale(.2423 -.2423) rotate(45 5573.29 4524.545)"><stop offset="0" stop-color="#f9cc21"/><stop offset=".08" stop-color="#f7b022"/><stop offset=".2" stop-color="#f58d23"/><stop offset=".327" stop-color="#f37024"/><stop offset=".462" stop-color="#f15925"/><stop offset=".609" stop-color="#f04926"/><stop offset=".774" stop-color="#ef4026"/><stop offset="1" stop-color="#ef3d26"/></linearGradient><path class="st1" d="M105.3 63.2l.2-.2.3.2-.3.2z"/><g><defs><path id="SVGID_7_" d="M73 77.5l-66.5 65c5.1 14 13.3 27.1 24.5 38.3 12.9 12.9 28.3 21.8 44.7 26.7 15.5-15.1 27.7-27.1 30.3-29.7-.1.1-.1.1-.2.1-.3 0-.5-.3-.8-.7l-35-46.9c-5-6.9-7.9-15.4-7.9-24.5 0-11.5 4.7-21.9 12.2-29.6L73 77.5"/></defs><clipPath id="SVGID_8_"><use xlink:href="#SVGID_7_" overflow="visible"/></clipPath><linearGradient id="SVGID_9_" gradientUnits="userSpaceOnUse" x1="-3.348" y1="1088.69" x2="-2.348" y2="1088.69" gradientTransform="scale(104.45 -104.45) rotate(45 1314.618 547.834)"><stop offset="0" stop-color="#f9cc21"/><stop offset=".08" stop-color="#f7b022"/><stop offset=".2" stop-color="#f58d23"/><stop offset=".327" stop-color="#f37024"/><stop offset=".462" stop-color="#f15925"/><stop offset=".609" stop-color="#f04926"/><stop offset=".774" stop-color="#ef4026"/><stop offset="1" stop-color="#ef3d26"/></linearGradient><path class="st2" d="M-59 141.9L56.3 26.6l115.2 115.3L56.3 257.2z"/></g><g><path class="st3" d="M106.5 177.3c-.3.3-.4.7-.8.7-.3 0-.5-.3-.8-.7l-35-46.9c-5-6.9-7.9-15.4-7.9-24.5 0-23.6 19.6-42.7 43.7-42.7s43.7 19.1 43.7 42.7c0 9.1-2.9 17.5-7.9 24.5-.2.2-.3.4-.5.7l-34.5 46.2z"/><path class="st4" d="M124.6 105.9c0 10.2-8.5 18.5-18.9 18.5-10.5 0-18.9-8.3-18.9-18.5s8.5-18.5 18.9-18.5c10.5 0 18.9 8.3 18.9 18.5"/></g><g><path class="st3" d="M315.9 80.7c-13.9 0-25.2 11.3-25.2 25.2 0 13.9 11.3 25.2 25.2 25.2 4.1 0 7.9-1 11.4-2.7 1.5 1.7 3.6 2.7 5.9 2.7 4.4 0 7.9-3.6 7.9-7.9v-17.3c0-13.9-11.3-25.2-25.2-25.2m0 35.4c-5.6 0-10.2-4.6-10.2-10.2s4.6-10.2 10.2-10.2 10.2 4.6 10.2 10.2c0 5.7-4.6 10.2-10.2 10.2M278.5 88.1c-9.8-9.8-25.8-9.8-35.6 0s-9.8 25.8 0 35.6 25.8 9.8 35.6 0c2.9-2.9 2.9-7.7 0-10.6-2.9-2.9-7.7-2.9-10.6 0-4 4-10.4 4-14.4 0s-4-10.4 0-14.4 10.4-4 14.4 0c.1.1.1.2.2.3 2.9 2.9 7.7 2.9 10.6 0 2.9-2.9 2.9-7.7 0-10.6-.1-.1-.2-.2-.2-.3zM461.5 92.7c.9-1.5 1.5-2.8 1.5-4.4 0-4.2-3.4-7.5-7.5-7.5-3.2 0-5.8 2.2-7 4.9l-11.9 22.2-12-22.2c-1.4-2.6-3.8-4.9-7-4.9-4.2 0-7.5 3.4-7.5 7.5 0 1.7 2.4 6.1 1.5 4.4l18 33.5c1.3 2.9 3.8 4.9 7 4.9s5.7-2.2 7-4.9l17.9-33.5zM398.6 94.2c-4.2-8-12.6-13.4-22.2-13.4-4.5 0-8.8 1.2-12.5 3.3-1.4-1.3-3.2-2.1-5.2-2.1-4.2 0-7.6 3.4-7.6 7.6V123.3c0 4.4 3.5 7.9 7.9 7.9s7.2-3.6 7.2-7.9l-.1-17.3c0-5.6 4.6-10.2 10.2-10.2 6.8 0 9.4 6.2 9.4 6.2 1.3 2.4 3.7 4 6.6 4 4.2 0 7.5-3.4 7.5-7.5.1-1.6-.4-3.1-1.2-4.3M516.5 110.6c1.2 0 2.4-.1 3.5-.4 2.1-.4 3.4-1.7 3.4-3.7 0-2.4.1-4.9-.5-7.2-2.5-9.7-8.9-16.3-19.6-18.3-9.4-1.7-17.4 1-23.7 7.8-5.3 5.9-7.1 12.8-6.5 20.4.7 9.4 7.2 17.4 16.7 20.4 7.9 2.5 15.7 2.1 23.4-.8 3-1.1 5.8-2.6 7.9-5 1.8-2 2-4.6.6-6.7-1.5-2.3-4.2-3.4-6.9-2.6-1.6.5-3.2 1.2-4.7 1.9-2.7 1.2-5.5 2.4-8.6 2.5-5.7.2-10.1-2.2-12.3-8.3h.9c8.9 0 17.6.1 26.4 0m-27.3-7.9c0-3.6 4.4-6.6 9.9-6.6s9.9 2.9 9.9 6.6h-19.8z"/></g></g></svg>