<svg width="253" height="37" viewBox="0 0 253 37" fill="none" xmlns="http://www.w3.org/2000/svg"><path fill-rule="evenodd" clip-rule="evenodd" d="M47.799 12.4h23.2V.4h-23.2v12zM.6.4v12.001h11.733v24h11.733v-24H35.8v-12H.6z" fill="#231F20"/><path fill-rule="evenodd" clip-rule="evenodd" d="M35.799 12.4v24h35.2v-12H47.532v-12H35.799zM101.399 9.2h-17.6v5.022h5.887V30h5.827V14.222h5.886V9.2zM105.844 20.396c.178-1.512.856-2.326 2.064-2.326 1.562 0 2.094.785 2.358 2.326h-4.422zm2.211-6.193c-4.068 0-7.075 2.704-7.075 7.967 0 4.68 2.564 7.937 7.222 7.937 2.418 0 4.394-.64 6.31-1.744l-2.034-3.344c-1.534.785-2.653 1.076-4.009 1.076-1.445 0-2.447-.756-2.625-2.442h9.081c.029-.262.029-.582.029-1.018 0-5.67-2.653-8.432-6.899-8.432zM125.007 25.862c-1.444 0-2.181-1.25-2.181-3.663s.678-3.75 2.034-3.75c1.149 0 1.651.639 2.388 1.976l3.655-2.733c-1.356-2.15-3.037-3.489-5.955-3.489-4.952 0-7.37 3.227-7.37 7.908 0 5.147 2.713 7.997 7.252 7.997 2.743 0 4.422-1.018 6.221-3.635l-3.361-2.588c-.973 1.425-1.681 1.977-2.683 1.977zM143.286 14.203c-1.829 0-2.92.61-3.892 1.338v-6.95l-5.306 2.094v19.103h5.306v-8.723c0-1.92.678-2.442 1.799-2.442 1.091 0 1.769.523 1.769 2.5v8.665h5.335v-9.334c0-4.012-1.621-6.251-5.011-6.251zM161.092 25.193c-2.476 0-3.478-2.47-3.478-5.583 0-3.227 1.03-5.581 3.42-5.581 1.887 0 2.593 1.192 3.331 3.081l5.189-2.005c-1.416-3.838-3.42-5.99-8.491-5.99-5.543 0-9.434 3.954-9.434 10.495 0 6.02 3.272 10.498 9.405 10.498 4.893 0 7.193-2.589 8.578-5.263l-4.835-2.53c-1.12 1.92-1.886 2.878-3.685 2.878zM178.131 15.628v-1.105h-5.307v15.265h5.307v-8.316c0-1.861.796-2.472 2.093-2.472 1.032 0 1.798.553 2.477 1.28l1.238-5.437c-.62-.379-1.386-.64-2.506-.64-1.356 0-2.388.552-3.302 1.425zM195.346 23.245c0 1.92-.677 2.443-1.768 2.443s-1.769-.523-1.769-2.5v-8.665h-5.336v9.333c0 4.013 1.621 6.252 5.012 6.252 1.799 0 2.919-.611 3.861-1.338v1.018h5.337V14.523h-5.337v8.723zM213.743 14.203c-1.828 0-2.918.611-3.891 1.338v-1.018h-5.307v15.265h5.307v-8.723c0-1.92.678-2.442 1.798-2.442 1.092 0 1.769.523 1.769 2.5v8.665h5.336v-9.334c0-4.012-1.621-6.25-5.012-6.25zM229.309 25.862c-1.444 0-2.182-1.25-2.182-3.663s.677-3.75 2.034-3.75c1.15 0 1.652.639 2.388 1.976l3.655-2.733c-1.356-2.15-3.036-3.489-5.954-3.489-4.953 0-7.371 3.227-7.371 7.908 0 5.147 2.713 7.997 7.253 7.997 2.742 0 4.422-1.018 6.221-3.635l-3.362-2.588c-.972 1.425-1.68 1.977-2.682 1.977zM247.586 14.203c-1.827 0-2.918.61-3.89 1.338v-6.95l-5.307 2.094v19.103h5.307v-8.723c0-1.92.677-2.442 1.797-2.442 1.092 0 1.769.523 1.769 2.5v8.665h5.336v-9.334c0-4.012-1.62-6.251-5.012-6.251z" fill="#231F20"/></svg>