<svg width="184" height="39" viewBox="0 0 184 39" fill="none" xmlns="http://www.w3.org/2000/svg"><mask id="a" maskUnits="userSpaceOnUse" x="0" y="0" width="38" height="39"><path fill-rule="evenodd" clip-rule="evenodd" d="M0 .4h37.95v37.95H0V.4z" fill="#fff"/></mask><path fill-rule="evenodd" clip-rule="evenodd" d="M14.168 9.635l3.795 7.716c0 .127.127.253.253.38.127.126.127.253.253.506l.127.126v.127c.126.253.126.38.253.632.126.127.126.38.253.506.126-.38.379-.632.506-1.138.126-.38.379-.76.632-1.139l3.795-7.716h2.783L20.24 22.032v7.843h-2.53v-7.97l-6.578-12.27h3.036zM0 38.35h37.95V.4H0v37.95z" fill="#000" mask="url(#a)"/><path fill-rule="evenodd" clip-rule="evenodd" d="M55.533 25.447c-2.53 0-4.174-1.138-5.186-3.542-.38-1.012-.633-2.403-.633-4.048 0-2.15.254-3.795.76-5.06.885-2.15 2.53-3.289 4.68-3.289 1.391 0 2.53.506 3.668 1.265l1.265-1.518c-1.265-1.012-2.909-1.518-4.806-1.518-2.277 0-4.175 1.012-5.566 2.657-1.519 1.897-2.278 4.174-2.278 7.084 0 2.91.633 5.313 2.151 7.084 1.518 1.897 3.416 2.783 5.693 2.783 1.897 0 3.668-.506 5.313-1.518l-1.266-1.645c-1.138.886-2.403 1.265-3.795 1.265zM71.978 20.767c0 1.265-.127 2.277-.38 3.036-.506 1.391-1.518 2.15-3.036 2.15-1.265 0-2.15-.506-2.783-1.391-.632-.886-.885-2.404-.885-4.554 0-1.645.126-2.91.632-3.669.633-1.012 1.518-1.518 2.91-1.518 1.391 0 2.277.633 2.91 1.771.505.886.758 2.277.632 4.175zm-3.542-7.843c-1.771 0-3.163.759-4.301 2.024-1.139 1.265-1.645 3.036-1.645 5.313 0 2.277.506 4.174 1.645 5.44 1.138 1.39 2.53 2.023 4.427 2.023 1.518 0 2.783-.506 3.795-1.391 1.392-1.265 2.15-3.29 2.15-5.82 0-2.15-.379-3.92-1.264-5.186-1.139-1.644-2.783-2.403-4.807-2.403zM92.598 12.924c-1.518 0-2.91.759-4.427 2.277-.127-.253-.38-.633-.506-.886-.633-.885-1.645-1.391-2.783-1.391-.76 0-1.518.253-2.404.759-.759.38-1.265.885-1.77 1.391v-.126c0-.633-.127-1.392-.507-2.024l-2.15.506c.38.885.506 2.024.506 3.415v10.373h2.15V16.845c1.392-1.265 2.53-1.897 3.542-1.897.633 0 1.012.126 1.392.506.253.253.38.885.38 1.77v9.868h2.403V16.845l.253-.253c.632-.506 1.138-.885 1.391-1.138.633-.506 1.392-.76 2.024-.76 1.139 0 1.771.633 1.771 2.025v10.373h2.277v-10.5c0-1.012-.38-1.897-1.012-2.656-.632-.633-1.518-1.012-2.53-1.012zM108.664 24.436c-.506.885-1.393 1.265-2.53 1.265-1.393 0-2.53-.506-3.416-1.645v-7.21c.253-.38.633-.76 1.012-1.012.758-.633 1.644-.886 2.404-.76 1.265 0 2.149.38 2.656 1.14.633.758.886 2.023.886 3.794 0 2.024-.38 3.416-1.012 4.428zm-1.898-11.385c-1.392 0-2.783.632-4.048 1.897v-4.68c0-1.392-.127-2.53-.379-3.542l-2.278.506c.38.632.507 1.77.632 3.289v13.282c0 1.771-.125 2.91-.379 3.542h2.151c.126-.38.253-.885.379-1.518.379.506.886.886 1.644 1.265.76.38 1.393.506 2.151.506 1.644 0 3.037-.632 4.049-2.024 1.011-1.391 1.518-3.162 1.518-5.44 0-2.15-.507-3.92-1.518-5.186-.887-1.265-2.277-1.897-3.922-1.897zM116 27.218h2.277V12.924l-2.277.38v13.914zM117.265 7.231c-.506 0-.885.127-1.265.506-.379.38-.506.76-.506 1.265 0 .506.127.886.506 1.265.38.38.759.506 1.265.506.505 0 .886-.126 1.265-.506.38-.379.505-.759.505-1.265 0-.506-.125-.885-.505-1.265-.379-.38-.76-.506-1.265-.506zM131.687 13.43c-.633-.38-1.265-.506-2.024-.506-1.518 0-3.036.759-4.428 2.15 0-.759-.125-1.391-.506-2.15l-2.149.632c.252.633.505 1.012.505 1.392.128.253.128.885.128 1.897v10.373h2.149V16.845a7.367 7.367 0 0 1 1.897-1.391c.761-.38 1.518-.633 2.026-.633.632 0 1.137.253 1.518.633.379.38.504 1.138.504 2.277v9.487h2.151V16.592c0-.632-.125-1.138-.378-1.644-.255-.633-.761-1.139-1.393-1.518zM145.222 23.803c-.759 1.391-1.898 2.15-3.416 2.277-1.644 0-2.403-.886-2.403-2.53 0-1.012.254-1.771.759-2.277.76-.76 2.025-1.139 4.048-1.139h1.139l-.127 3.669zm2.15 1.265c-.125-.38-.125-.886-.125-1.645v-.632l.125-4.554v-.76c0-1.138 0-1.897-.253-2.403-.632-1.391-1.897-2.15-3.921-2.15s-3.922.632-5.819 1.897l1.138 1.518c.633-.38 1.14-.759 1.518-1.012 1.012-.38 1.898-.632 2.657-.632.885 0 1.392.253 1.897.759.38.253.506 1.012.506 2.15v1.012h-1.011c-2.278 0-4.175.38-5.44 1.265-1.265.886-1.898 2.024-1.898 3.669 0 1.265.381 2.277 1.139 2.91.885.758 2.024 1.138 3.415 1.138 1.392 0 2.784-.633 4.049-1.898.252 1.012.885 1.645 1.898 2.024l1.137-1.518c-.505-.253-.885-.632-1.012-1.138zM157.493 15.074l.632-1.771h-3.542c0-1.139 0-2.53.253-4.048l-2.277.506v.38c-.126 1.644-.253 2.656-.253 2.909v.253h-1.771v1.77h1.898v9.615c0 2.15 1.012 3.162 3.162 3.162.886 0 1.645-.126 2.404-.506l-.253-1.391c-.38.126-.886.253-1.392.253-.632 0-1.138-.253-1.391-.506-.253-.38-.38-.886-.38-1.645v-8.981h2.91zM169.637 23.803c-.505 1.391-1.517 2.15-3.035 2.15-1.265 0-2.152-.506-2.784-1.391-.633-.886-.886-2.404-.886-4.554 0-1.645.128-2.91.633-3.669.632-1.012 1.518-1.518 2.909-1.518 1.393 0 2.279.633 2.911 1.771.38.886.633 2.277.633 4.175 0 1.265-.128 2.277-.381 3.036zm-3.289-10.88c-1.771 0-3.288.76-4.301 2.025-1.137 1.265-1.645 3.036-1.645 5.313 0 2.277.633 4.174 1.645 5.44 1.138 1.39 2.53 2.023 4.427 2.023 1.518 0 2.783-.506 3.795-1.391 1.393-1.265 2.151-3.29 2.151-5.82 0-2.15-.38-3.92-1.265-5.186-1.137-1.644-2.783-2.403-4.807-2.403z" fill="#000"/><mask id="b" maskUnits="userSpaceOnUse" x="176" y="12" width="8" height="16"><path fill-rule="evenodd" clip-rule="evenodd" d="M176.09 12.924h7.336V27.47h-7.336V12.924z" fill="#fff"/></mask><path fill-rule="evenodd" clip-rule="evenodd" d="M182.668 13.05c-1.518 0-2.783.76-3.923 2.277v-.253c0-.759-.125-1.391-.505-2.15l-2.15.632c.379.76.505 1.771.505 3.036v10.88h2.15v-8.73c0-.632.128-1.138.254-1.517.253-.506.758-.886 1.265-1.265.506-.38 1.139-.506 1.644-.506.127 0 .379 0 .632.126l.887-2.403c-.254-.127-.507-.127-.759-.127z" fill="#000" mask="url(#b)"/></svg>