<svg width="185" height="44" viewBox="0 0 185 44" fill="none" xmlns="http://www.w3.org/2000/svg"><path fill-rule="evenodd" clip-rule="evenodd" d="M24.48 15.12h-6.12v6.48h6.12a3.24 3.24 0 0 0 0-6.48z" fill="#000"/><path fill-rule="evenodd" clip-rule="evenodd" d="M24.48 25.92h-6.12v6.48h-4.32V10.8h10.44a7.56 7.56 0 1 1 0 15.12zM21.6 0C9.67 0 0 9.67 0 21.6c0 11.93 9.67 21.6 21.6 21.6 11.93 0 21.6-9.67 21.6-21.6C43.2 9.67 33.53 0 21.6 0zM65.892 18.96c0-1.188-.914-1.909-2.1-1.909h-3.18v3.797h3.18c1.186 0 2.1-.721 2.1-1.888zM57.6 28.8V14.4h6.615c3.076 0 4.75 2.079 4.75 4.56 0 2.46-1.695 4.538-4.75 4.538h-3.604V28.8H57.6zM70.799 28.8V18.302h2.692v1.379c.743-.891 1.995-1.633 3.267-1.633v2.629a3.463 3.463 0 0 0-.742-.063c-.891 0-2.08.508-2.525 1.166v7.02H70.8zM85.816 23.413c0-1.59-.934-2.97-2.63-2.97-1.677 0-2.61 1.38-2.61 2.97 0 1.612.933 2.99 2.61 2.99 1.696 0 2.63-1.378 2.63-2.99zm-8.039 0c0-2.905 2.036-5.365 5.409-5.365 3.393 0 5.429 2.46 5.429 5.365 0 2.905-2.036 5.387-5.43 5.387-3.372 0-5.408-2.482-5.408-5.387zM97.679 25.237v-3.626c-.446-.679-1.422-1.167-2.313-1.167-1.547 0-2.607 1.209-2.607 2.97 0 1.78 1.06 2.99 2.607 2.99.891 0 1.867-.488 2.313-1.167zm0 3.563v-1.57c-.807 1.018-1.909 1.57-3.16 1.57-2.567 0-4.538-1.951-4.538-5.387 0-3.329 1.93-5.365 4.537-5.365 1.21 0 2.354.509 3.16 1.57V14.4h2.715v14.4h-2.714zM109.985 28.8v-1.548a4.87 4.87 0 0 1-3.604 1.548c-2.249 0-3.309-1.23-3.309-3.224v-7.274h2.692v6.214c0 1.421.743 1.887 1.888 1.887 1.039 0 1.866-.572 2.333-1.166v-6.935h2.694V28.8h-2.694zM114.701 23.413c0-3.138 2.29-5.365 5.429-5.365 2.1 0 3.373.912 4.051 1.845l-1.761 1.653c-.487-.72-1.229-1.102-2.162-1.102-1.634 0-2.778 1.188-2.778 2.97 0 1.78 1.144 2.99 2.778 2.99.933 0 1.675-.425 2.162-1.125l1.761 1.654c-.678.933-1.951 1.867-4.051 1.867-3.139 0-5.429-2.227-5.429-5.387zM126.497 25.98v-5.323h-1.696v-2.355h1.696v-2.8h2.693v2.8h2.078v2.355h-2.078v4.602c0 .657.339 1.145.933 1.145.402 0 .786-.149.932-.318l.574 2.056c-.403.361-1.124.658-2.249.658-1.887 0-2.883-.975-2.883-2.82zM148.519 28.8v-6.214h-6.681V28.8h-3.01V14.4h3.01v5.556h6.681V14.4h3.032v14.4h-3.032zM161.19 28.8v-1.548a4.87 4.87 0 0 1-3.604 1.548c-2.248 0-3.309-1.23-3.309-3.224v-7.274h2.692v6.214c0 1.421.743 1.887 1.888 1.887 1.039 0 1.867-.572 2.333-1.166v-6.935h2.694V28.8h-2.694zM173.475 28.8v-6.447c0-1.421-.741-1.91-1.887-1.91-1.061 0-1.866.595-2.333 1.189V28.8h-2.693V18.302h2.693v1.315c.657-.764 1.93-1.57 3.584-1.57 2.269 0 3.35 1.273 3.35 3.266V28.8h-2.714z" fill="#000"/><mask id="a" maskUnits="userSpaceOnUse" x="177" y="15" width="8" height="14"><path fill-rule="evenodd" clip-rule="evenodd" d="M177.703 15.503h6.828V28.8h-6.828V15.503z" fill="#fff"/></mask><path fill-rule="evenodd" clip-rule="evenodd" d="M179.399 25.98v-5.323h-1.696v-2.355h1.696v-2.8h2.694v2.8h2.077v2.355h-2.077v4.602c0 .657.338 1.145.932 1.145.403 0 .786-.149.935-.318l.571 2.056c-.402.361-1.124.658-2.248.658-1.888 0-2.884-.975-2.884-2.82z" fill="#000" mask="url(#a)"/></svg>