<svg width="824" height="521" viewBox="0 0 824 521" xmlns="http://www.w3.org/2000/svg" xmlns:xlink="http://www.w3.org/1999/xlink"><title>pi-icon-4</title><defs><path d="M109.05 0l26.92 142.505c-12.237 6.817-23.876 10.225-34.917 10.225-16.561 0-16.34-7.674-33.068-10.225-16.727-2.55-17.195 10.225-34.19 10.225-11.332 0-22.596-3.408-33.795-10.225L24.939 0h84.111z" id="a"/><circle id="c" cx="31.49" cy="31.49" r="31.49"/></defs><g fill="none" fill-rule="evenodd"><path d="M52.037 521C40.982 363.482 74.929 292.189 153.879 307.12c118.423 22.396 252.456 47.709 375.173-131.578C651.769-3.744 812.29 145.037 812.29 281.612c0 91.049-13.313 169.889-39.938 236.518L52.037 521z" fill="#FFD9A3" opacity=".1"/><g transform="translate(1.407 182.744)"><path d="M187.759 155.188l-19.893 1.221c-8.03.494-14.29 7.15-14.29 15.195 0 7.907 6.41 14.317 14.317 14.317h51.353a3.326 3.326 0 0 0 3.325-3.326v-26.01a3.326 3.326 0 0 0-3.53-3.319" stroke-opacity=".85" stroke="#000" stroke-width="1.5" fill="#FFF"/><path d="M186.253 194.834l77.675-84.43a14.5 14.5 0 0 1 10.671-4.683h234.035a14.5 14.5 0 0 1 12.731 7.559l67.867 124.475-402.979-42.92z" fill="#FFD9A3"/><ellipse stroke-opacity=".85" stroke="#000" stroke-width="1.5" fill="#FFF" cx="324.567" cy="283.507" rx="48.622" ry="51.704"/><g transform="translate(81.633 231.804)" fill="#FFF" stroke="#000" stroke-opacity=".85" stroke-width="1.5"><ellipse cx="48.622" cy="51.704" rx="48.622" ry="51.704"/><ellipse cx="57.867" cy="51.704" rx="39.377" ry="51.704"/></g><g transform="translate(339.976 231.804)" fill="#FFF" stroke="#000" stroke-opacity=".85" stroke-width="1.5"><ellipse cx="48.622" cy="51.704" rx="48.622" ry="51.704"/><ellipse cx="57.867" cy="51.704" rx="39.377" ry="51.704"/></g><path d="M172.99 188.883l81.768-95.15a14.5 14.5 0 0 1 10.997-5.049h246.138a14.5 14.5 0 0 1 12.821 7.727l71.529 135.393-423.253-42.92z" stroke-opacity=".85" stroke="#000" stroke-width="1.5"/><path d="M179.838 201.21l81.768-95.15a14.5 14.5 0 0 1 10.997-5.05h91.781a8 8 0 0 1 7.28 11.318l-56.932 124.947-134.894-36.065zM486.002 200.301l17.625-81.734c1.688-7.828-3.29-15.542-11.117-17.23a14.5 14.5 0 0 0-3.057-.326h-91.076a14.5 14.5 0 0 0-13.3 8.722L333.813 227.73l152.19-27.429z" stroke-opacity=".85" stroke="#000" stroke-width="1.5" fill="#FFF"/><ellipse stroke-opacity=".85" stroke="#000" stroke-width="1.5" fill="#FFF" cx="523.164" cy="283.507" rx="48.622" ry="51.704"/><path d="M141.716 172.91h463.218a23.805 23.805 0 0 1 22.859 17.16l20.4 70.178c3.67 12.625-3.588 25.834-16.213 29.504-2.159.627-4.396.946-6.645.946H107.071c-15.967 0-29.401-11.963-31.246-27.823l-7.373-63.411" stroke-opacity=".85" stroke="#000" stroke-width="1.5" fill="#FFF"/><path d="M72.585 181.411h531.208a14 14 0 0 1 13.444 10.092l26.1 89.788c2.16 7.425-2.11 15.194-9.535 17.352a14 14 0 0 1-3.908.556H87.032c-9.39 0-17.291-7.035-18.376-16.363l-9.978-85.808c-.893-7.68 4.61-14.63 12.29-15.523a14 14 0 0 1 1.617-.094z" fill="#FFA320"/><path d="M344.18 185.078l-10.368 42.652M482.601 1.383a24.655 24.655 0 0 0-2.637-.142M488.389 172.91l-12.492 86.952a11 11 0 0 1-10.888 9.436H350.292" stroke-opacity=".85" stroke="#000" stroke-width="1.5"/><path d="M71.233 181.411H237.22c19.883 0 36 16.118 36 36a36 36 0 0 1-.41 5.42l-9.82 64.476a14 14 0 0 1-13.84 11.892H44.833c-10.217 0-18.5-8.282-18.5-18.5 0-.845.058-1.69.174-2.528l9.063-65.68c2.458-17.813 17.681-31.08 35.662-31.08z" fill="#F68B0F"/><path d="M609.828 192.769h31.375a4 4 0 0 1 4 4v23.502a4 4 0 0 1-4 4h-25.911a18.997 18.997 0 0 1-18.718-15.751c-1.27-7.32 3.635-14.283 10.955-15.553.76-.132 1.528-.198 2.299-.198z" fill="#FEDB3D"/><path d="M605.577 192.769h31.375a4 4 0 0 1 4 4v23.502a4 4 0 0 1-4 4h-25.911a18.997 18.997 0 0 1-18.718-15.751c-1.27-7.32 3.635-14.283 10.955-15.553.76-.132 1.528-.198 2.299-.198zM62.079 172.91h157.865c19.882 0 36 16.117 36 36a36 36 0 0 1-.448 5.66L242.57 295.76H11.797l14.73-92.51c2.783-17.477 17.855-30.34 35.552-30.34z" stroke-opacity=".85" stroke="#000" stroke-width="1.5"/><g transform="translate(201.391 245.665)"><rect fill="#FEDB3D" x="3.401" width="26.355" height="10.202" rx="3"/><rect stroke-opacity=".85" stroke="#000" stroke-width="1.5" width="26.355" height="10.202" rx="3"/></g><g transform="translate(65.364 245.665)"><rect fill="#FEDB3D" x="3.401" width="26.355" height="10.202" rx="3"/><rect stroke-opacity=".85" stroke="#000" stroke-width="1.5" width="26.355" height="10.202" rx="3"/></g><g stroke="#000" stroke-opacity=".85" stroke-width="1.5"><path d="M99.308 194.164h90.422c6.075 0 11 4.924 11 11a11 11 0 0 1-.425 3.025l-5.514 19.274a11 11 0 0 1-10.576 7.974h-78.511a11 11 0 0 1-10.44-7.536l-6.396-19.273c-1.914-5.766 1.21-11.991 6.976-13.905a11 11 0 0 1 3.464-.56z" fill="#FFF"/><path d="M110.11 194.164h80.144c6.075 0 11 4.924 11 11a11 11 0 0 1-.324 2.65l-4.783 19.273a11 11 0 0 1-10.676 8.35h-69.813a11 11 0 0 1-10.57-7.957l-5.549-19.273c-1.68-5.839 1.69-11.934 7.528-13.614a11 11 0 0 1 3.043-.43z" fill="#FFF"/><path d="M100.334 203.419h100.15M105.784 227.223l89.519.507M101.184 215.321h97.038"/></g><path d="M9 276.246h248.443a9 9 0 0 1 9 9v6.654a9 9 0 0 1-9 9H9a9 9 0 0 1-9-9v-6.654a9 9 0 0 1 9-9zM619.478 276.246h42.949a9 9 0 0 1 9 9v6.654a9 9 0 0 1-9 9h-42.95a9 9 0 0 1-9-9v-6.654a9 9 0 0 1 9-9z" stroke-opacity=".85" stroke="#000" stroke-width="1.5" fill="#FFF"/><ellipse stroke-opacity=".85" stroke="#000" stroke-width="1.5" fill="#FFF" cx="333.812" cy="283.507" rx="39.377" ry="51.704"/><ellipse stroke-opacity=".85" stroke="#000" stroke-width="1.5" fill="#9598B4" cx="333.812" cy="283.507" rx="22.014" ry="28.906"/><ellipse stroke-opacity=".85" stroke="#000" stroke-width="1.5" fill="#FFF" cx="329.896" cy="283.507" rx="18.279" ry="28.906"/><ellipse stroke-opacity=".85" stroke="#000" stroke-width="1.5" fill="#FFF" cx="532.409" cy="283.507" rx="39.377" ry="51.704"/><ellipse stroke-opacity=".85" stroke="#000" stroke-width="1.5" fill="#9598B4" cx="533.587" cy="283.507" rx="22.014" ry="28.906"/><ellipse stroke-opacity=".85" stroke="#000" stroke-width="1.5" fill="#FFF" cx="529.851" cy="283.507" rx="18.279" ry="28.906"/><ellipse stroke-opacity=".85" stroke="#000" stroke-width="1.5" fill="#FFF" cx="65.775" cy="208.52" rx="16.093" ry="17.12"/><ellipse stroke-opacity=".85" stroke="#000" stroke-width="1.5" fill="#FFF" cx="70.391" cy="208.52" rx="11.477" ry="17.12"/><ellipse stroke-opacity=".85" stroke="#000" stroke-width="1.5" fill="#FFF" cx="228.953" cy="208.52" rx="16.093" ry="17.12"/><ellipse stroke-opacity=".85" stroke="#000" stroke-width="1.5" fill="#FFF" cx="233.569" cy="208.52" rx="11.477" ry="17.12"/><path d="M523.113 124.676l19.811 36.718a2 2 0 0 1-1.76 2.95H516.97a2 2 0 0 1-1.986-2.237l4.383-36.718a2 2 0 0 1 3.746-.713z" fill="#FFF"/><path d="M518.625 124.676l19.81 36.718a2 2 0 0 1-1.76 2.95h-24.194a2 2 0 0 1-1.985-2.237l4.382-36.718a2 2 0 0 1 3.747-.713z" stroke-opacity=".85" stroke="#000" stroke-width="1.5"/><path d="M345.214 153.245l51.521 3.164c8.03.494 14.29 7.15 14.29 15.195 0 7.907-6.41 14.317-14.317 14.317H345.03a3 3 0 0 1-3-3V156.24a3 3 0 0 1 3.184-2.995z" stroke-opacity=".85" stroke="#000" stroke-width="1.5" fill="#FFF"/></g><path fill="#FF5320" d="M666.253 190.882h131.352l25.882 42.06L797.605 275H666.253z"/><path d="M751.534 238.658l-11.635 7.376-.235-16.855h-8.29a5 5 0 0 1-5-5v-11.176a3.882 3.882 0 0 1 7.765 0v5.294a2 2 0 0 0 2 2h3.76l.065-12.06a5.8 5.8 0 0 1 5.8-5.77 5.77 5.77 0 0 1 5.77 5.77v30.421z" fill="#FFF"/><path fill="#FFF" d="M697.076 269.824l107.87-68.03 16.308 25.97-24.943 42.06z"/><path stroke="#000" stroke-width="1.5" d="M661.076 185.706h131.352l25.883 42.059-25.883 42.059H661.076z"/><path d="M693.194 269.824l107.87-68.03M798.364 244.644v3.18a2.588 2.588 0 0 1-2.588 2.588h-7.006a2.588 2.588 0 0 1-2.588-2.588v-3.883" stroke="#000" stroke-width="1.5" fill="#FFF"/><path d="M807.568 245.025H788.77a6.47 6.47 0 0 1-6.47-6.471v-7.058a6.47 6.47 0 0 1 6.47-6.47h26.953" stroke="#000" stroke-width="1.5"/><path d="M811.377 238.765H799.64a2.588 2.588 0 0 1-2.588-2.589v-1.94a2.588 2.588 0 0 1 2.588-2.589h16.382M817.371 225.025h-25.063l3.26-8.463a7.765 7.765 0 0 1 7.246-4.974h6.207" stroke="#000" stroke-width="1.5"/><path d="M793.567 224.53h-3.464a2.405 2.405 0 1 1 0-4.81h4.793M782.312 232.446h5.78a2.405 2.405 0 1 1 0 4.809h-5.78v-4.81z" stroke="#000" stroke-width="1.5"/><g stroke="#000" stroke-width="1.5"><path d="M737.653 241.774v-12.928m0-8.952v-10.095a6.47 6.47 0 1 1 12.94 0v23.94"/><path d="M738.668 229.18h-9.882a5 5 0 0 1-5-5v-11.177a3.882 3.882 0 0 1 7.764 0v5.294a2 2 0 0 0 2 2h5.118"/></g><path d="M747.129 222.125h5.807M734.188 211.772h5.807M719.953 223.419h5.806M735.482 235.066h5.807M782.3 250.412l-19.896 19.412" stroke="#000" stroke-width="1.5" fill="#FFF"/><g transform="translate(642.535 165)"><circle fill="#FFD9A3" cx="29.219" cy="25.337" r="25.337"/><circle stroke="#000" stroke-width="1.5" cx="25.337" cy="25.337" r="25.337"/><path stroke-opacity=".85" stroke="#000" stroke-width="1.5" stroke-linecap="round" stroke-linejoin="round" d="M35.245 18.931L22.433 31.742l-6.405-6.405"/></g><g><path fill="#FFA320" d="M577.43 29.568h158.398v58.285H577.43z"/><path stroke-opacity=".85" stroke="#000" stroke-width="1.5" fill="#FFF" d="M731.993 26.5v58.286H573.596V26.5h133.752"/><g fill="#010202" fill-rule="nonzero"><path d="M618.51 61.379c.327.866.78 1.607 1.357 2.222a5.836 5.836 0 0 0 2.053 1.413c.791.327 1.651.49 2.58.49.905 0 1.752-.17 2.544-.509a6.256 6.256 0 0 0 2.072-1.431 6.49 6.49 0 0 0 1.375-2.204c.326-.854.49-1.808.49-2.863V42.222h3.955v26.371h-3.918v-2.449a9.082 9.082 0 0 1-3.108 2.148c-1.193.502-2.48.753-3.861.753-1.407 0-2.72-.245-3.937-.734a9.218 9.218 0 0 1-3.165-2.091c-.891-.904-1.595-1.99-2.11-3.259-.515-1.268-.772-2.681-.772-4.238V42.222h3.956v16.275c0 1.055.163 2.015.49 2.882zM641.755 42.222v9.606a10.077 10.077 0 0 1 3.051-2.09c1.156-.515 2.411-.773 3.768-.773 1.406 0 2.725.264 3.955.791a10.107 10.107 0 0 1 3.203 2.148c.904.904 1.62 1.971 2.147 3.202a9.842 9.842 0 0 1 .791 3.918 9.707 9.707 0 0 1-.791 3.9 10.162 10.162 0 0 1-2.147 3.183 10.107 10.107 0 0 1-3.203 2.147 9.935 9.935 0 0 1-3.955.791c-1.357 0-2.619-.257-3.787-.772a10.008 10.008 0 0 1-3.07-2.091v2.411h-3.767V42.222h3.805zm.433 19.402c.339.803.81 1.507 1.413 2.11a6.817 6.817 0 0 0 2.11 1.431c.803.352 1.67.527 2.599.527.904 0 1.758-.175 2.562-.527a6.59 6.59 0 0 0 2.09-1.432 6.987 6.987 0 0 0 1.413-2.11c.352-.803.528-1.67.528-2.599 0-.93-.176-1.802-.528-2.618a6.924 6.924 0 0 0-1.412-2.129 6.343 6.343 0 0 0-2.091-1.412 6.524 6.524 0 0 0-2.562-.51c-.904 0-1.758.17-2.562.51-.803.339-1.507.81-2.11 1.412a6.758 6.758 0 0 0-1.431 2.129 6.547 6.547 0 0 0-.528 2.618c0 .93.17 1.796.509 2.6zM660.817 55.144a10.25 10.25 0 0 1 2.072-3.184 9.627 9.627 0 0 1 3.127-2.166c1.206-.527 2.512-.79 3.918-.79 1.381 0 2.662.25 3.843.753a9.114 9.114 0 0 1 3.051 2.09 9.557 9.557 0 0 1 1.997 3.165c.477 1.218.716 2.543.716 3.975v1.243h-15.635a6.53 6.53 0 0 0 2.166 3.9c.566.489 1.206.872 1.922 1.148a6.275 6.275 0 0 0 2.28.415c2.285 0 4.13-.942 5.537-2.826l2.75 2.034a10.232 10.232 0 0 1-3.54 3.014c-1.407.728-2.99 1.093-4.748 1.093-1.431 0-2.769-.252-4.012-.754a9.77 9.77 0 0 1-3.24-2.11 10.009 10.009 0 0 1-2.166-3.183c-.527-1.218-.791-2.543-.791-3.975 0-1.356.25-2.637.753-3.842zm5.293-1.488c-1.067.891-1.777 2.078-2.128 3.56h11.716c-.326-1.482-1.023-2.669-2.09-3.56-1.068-.892-2.318-1.338-3.75-1.338-1.43 0-2.68.446-3.748 1.338zM686.66 54.089c-.803.879-1.205 2.072-1.205 3.579v10.925h-3.805V49.38h3.768v2.373a5.355 5.355 0 0 1 1.864-1.846c.766-.452 1.677-.678 2.732-.678h1.318v3.541h-1.582c-1.256 0-2.285.44-3.09 1.319z"/></g><g transform="translate(707.535 1)"><circle fill="#FFD9A3" cx="29.219" cy="25.337" r="25.337"/><circle stroke="#000" stroke-width="1.5" cx="25.337" cy="25.337" r="25.337"/><path stroke-opacity=".85" stroke="#000" stroke-width="1.5" stroke-linecap="round" stroke-linejoin="round" d="M35.245 18.931L22.433 31.742l-6.405-6.405"/></g></g><g transform="translate(403.868 43.5)"><path fill="#FFF" d="M49.69 349.959l5.53 96.922h14.506L81.058 338.82z"/><path d="M67.19 446.881l9.038-99.303m-27.022 10.214l4.226 89.09M51.79 362.224h8.862" stroke="#000" stroke-width="1.5" fill="#FFF" stroke-linecap="round" stroke-linejoin="round"/><g stroke="#000" stroke-linecap="round" stroke-linejoin="round" stroke-width="1.5"><path d="M53.432 446.881L27.92 469.835a2.862 2.862 0 0 0 1.915 4.99h36.799a2.862 2.862 0 0 0 2.85-3.125L67.19 446.88"/><path d="M37.106 462.77h20.082a8 8 0 0 0 7.8-6.224l2.202-9.665"/></g><path fill="#FFF" d="M120.058 349.959l-5.531 96.922h-14.505L88.69 338.82z"/><path d="M100.635 446.881l-8.523-95.635m26.446 6.546l-4.165 89.09" stroke="#000" stroke-width="1.5" stroke-linecap="round" stroke-linejoin="round"/><path d="M114.572 446.881l25.512 22.954a2.862 2.862 0 0 1-1.914 4.99h-36.799a2.862 2.862 0 0 1-2.862-2.862c0-.059.768-8.42 2.305-25.082" fill="#FFF"/><path d="M114.572 446.881l25.512 22.954a2.862 2.862 0 0 1-1.914 4.99h-36.799a2.862 2.862 0 0 1-2.862-2.862c0-.059.768-8.42 2.305-25.082" stroke="#000" stroke-width="1.5" stroke-linecap="round" stroke-linejoin="round"/><path d="M130.898 462.77h-20.083a8 8 0 0 1-7.8-6.224l-2.201-9.665" stroke="#000" stroke-width="1.5" stroke-linecap="round" stroke-linejoin="round"/><path d="M107.121 362.224h8.863M122.407 205.209l26.92 142.505c-12.237 6.816-23.876 10.225-34.917 10.225-16.561 0-16.341-7.675-33.068-10.225-16.727-2.55-17.195 10.225-34.19 10.225-11.332 0-22.597-3.409-33.795-10.225l24.939-142.505" stroke="#000" stroke-width="1.5" fill="#FFF" stroke-linecap="round" stroke-linejoin="round"/><g transform="translate(13.357 205.209)"><mask id="b" fill="#fff"><use xlink:href="#a"/></mask><g mask="url(#b)" fill="#FF5320"><path d="M37.017 6.907l2.698 2.698L31.62 17.7l-2.698-2.698zM47.81 65.564l2.698 2.698-8.095 8.095-2.698-2.698zM79.494 72.256l2.699 2.698-8.095 8.095-2.699-2.698zM95.235 38.389l2.699 2.698-8.095 8.095-2.699-2.698zM71.4 30.294l2.698 2.698-8.095 8.095-2.698-2.698zM22.731 107.077l2.699 2.698-8.095 8.095-2.699-2.698zM122.901 124.249l2.699 2.698-8.095 8.095-2.699-2.698zM122.901 57.469l2.699 2.698-8.095 8.095-2.699-2.698z"/></g><g mask="url(#b)" fill="#FF5320"><path d="M99.87 7.384l-2.698 2.698 8.094 8.095 2.699-2.698zM97.47 95.629l-2.698 2.698 8.095 8.095 2.699-2.698zM50.725 106.422l-2.699 2.698 8.095 8.095 2.699-2.698zM37.532 33.142l-2.698 2.698 8.095 8.095 2.698-2.698zM94.772 63.057l-2.698 2.699 8.095 8.095 2.698-2.699zM89.077 122.818l-2.699 2.698 8.095 8.095 2.699-2.698zM23.358 136.487l-2.698 2.698 8.095 8.095 2.698-2.698zM12.565 76.549l-2.699 2.698 8.095 8.095 2.699-2.698z"/></g></g><path d="M86.209 244.334l4.365 105.625M62.557 282.47l-4.363 72.928" stroke="#000" stroke-width="1.5" stroke-linecap="round" stroke-linejoin="round"/><path d="M43.13 91.042c3.613-16.928 5.14-37.308 4.58-61.142C47.71 17.179 62.488 0 72.43 0c6.627 0 11.817 2.523 15.568 7.568 12.72 0 19.132 9.611 19.132 22.332.34 22.357 2.65 42.071 6.926 59.143 6.415 25.608-76.345 27.39-70.925 1.999z" fill="#000"/><path d="M20.584 123.54l11.727-18.8a37 37 0 0 1 21.774-16.148l29.873-8.044 30.736 8.414a24 24 0 0 1 16.486 15.726l13.901 42.744-25.901 11.002 7.997 47.729c-18.015 4.095-31.703 6.143-41.065 6.143-9.362 0-23.759-2.048-43.191-6.143l9.664-56.134-32-26.488z" fill="#FFA320"/><path d="M39.2 141.446l-23.386-18.86 12.081-19.37a35.298 35.298 0 0 1 20.773-15.404l30.52-8.218 31.31 8.571a22.896 22.896 0 0 1 15.728 15.002l14.085 43.311-25.901 11.002 7.997 47.729c-18.015 4.095-31.703 6.143-41.065 6.143-9.362 0-23.759-2.048-43.191-6.143l7.447-43.258" stroke="#000" stroke-width="1.5" stroke-linecap="round" stroke-linejoin="round"/><g stroke="#000" stroke-linecap="round" stroke-linejoin="round" stroke-width="1.5"><path d="M66.263 82.94l11.8 10.86c-7.243 7.193-11.787 9.94-13.634 8.24-1.847-1.7-1.235-8.066 1.834-19.1z"/><path d="M89.22 82.94L77.42 93.8c7.242 7.193 11.786 9.94 13.633 8.24 1.847-1.7 1.236-8.066-1.833-19.1z"/></g><rect stroke="#000" stroke-width="1.5" fill="#FFF" stroke-linecap="round" stroke-linejoin="round" x="66.842" y="55.173" width="21.155" height="40.068" rx="10.577"/><circle stroke="#000" stroke-width="1.5" fill="#FFF" stroke-linecap="round" stroke-linejoin="round" cx="98.777" cy="51.257" r="6.23"/><circle stroke="#000" stroke-width="1.5" fill="#FFF" stroke-linecap="round" stroke-linejoin="round" cx="56.801" cy="51.257" r="6.23"/><path d="M77.42 18.792c11.399 0 20.64 9.24 20.64 20.64 0 .237-.005.474-.013.711l-.656 19.038a18.348 18.348 0 0 1-10.174 15.8l-3.57 1.773a14 14 0 0 1-12.456 0l-3.569-1.773a18.348 18.348 0 0 1-10.174-15.8l-.656-19.038c-.393-11.392 8.524-20.946 19.916-21.339.237-.008.474-.012.711-.012z" stroke="#000" stroke-width="1.5" fill="#FFF" stroke-linecap="round" stroke-linejoin="round"/><path d="M90.13 19.952c-4.268 9.244-8.505 15.234-12.71 17.971-4.206 2.738-12.586 4.96-25.14 6.665V19.952l26.908-6.673 10.941 6.673z" fill="#000"/><path d="M72.429 18.26c9.064 10.553 15.112 16.972 18.145 19.258 1.818 1.37 5.11 3.872 9.878 7.509l.233-26.766-20.088-4.982-8.168 4.982z" fill="#000"/><path d="M134.232 149.139l2.435 6.663c1.714 3.054 5.104 9.42 10.17 19.097 5.066 9.677 12.717 22.892 22.953 39.647 6.314 6.897 9.471 11.674 9.471 14.332 0 1.027.19 17.202-2.647 15.301-1.194-.8-2.224-11.775-4.331-15.301s-3.52-3.525-5.305-2.952c-1.785.573 2.321 9.675-1.27 9.675-2.394 0-3.992-4.628-4.795-13.886-12.931-13.486-22.492-24.026-28.682-31.62-6.19-7.593-10.347-13.88-12.47-18.861l-5.351-13.754 19.822-8.341z" stroke="#000" stroke-width="1.5" fill="#FFF" stroke-linecap="round" stroke-linejoin="round"/><path d="M126.523 160.836l5.628-3.234" stroke="#000" stroke-width="1.5" stroke-linecap="round" stroke-linejoin="round"/><path d="M80.95 96.352h16.241a3 3 0 0 1 3 3V138.19a3 3 0 0 1-3 3H80.951a3 3 0 0 1-3-3V99.352a3 3 0 0 1 3-3z" fill="#FFF"/><path d="M75.088 114.177V99.214a2.862 2.862 0 0 1 2.862-2.862h16.517a2.862 2.862 0 0 1 2.862 2.862v16.758m0 20.174v2.182a2.862 2.862 0 0 1-2.862 2.862H82.7" stroke="#000" stroke-width="1.5" stroke-linecap="round" stroke-linejoin="round"/><rect stroke="#000" stroke-width="1.5" fill="#FFF" stroke-linecap="round" stroke-linejoin="round" x="86.791" y="99.665" width="7.566" height="7.632" rx="2"/><path d="M18.851 125.167c-9.339 15.56-15.031 26.37-17.076 32.435-3.068 9.097-1.895 12.499 1.505 17.436 1.964 2.852 6.806 3.59 14.527 2.214a19 19 0 0 0 6.561-2.485l46.86-28.59a42 42 0 0 1 12.51-5.088c8.827-2.018 13.762-4.085 14.806-6.2 1.908-3.865 3.815-16.444 0-18.606-2.665-1.51-19.218 7.08-19.902 6.972-6.046-.954-1.446-10.352-4.505-8.97-1.708.773-3.16 4.766-4.358 11.978a8 8 0 0 1-5.13 6.197l-57.877 21.3" stroke="#000" stroke-width="1.5" fill="#FFF" stroke-linecap="round" stroke-linejoin="round"/><path stroke="#000" stroke-width="1.5" stroke-linecap="round" stroke-linejoin="round" d="M67.37 131.344l7.718 12.532-4.362 2.7-7.338-13.44z"/><circle stroke="#000" stroke-width="1.5" fill="#FFF" stroke-linecap="round" stroke-linejoin="round" cx="69.02" cy="138.938" r="4.712"/></g><g><path stroke-opacity=".85" stroke="#000" stroke-width="1.5" fill="#FFF" d="M306.155 27v162.367H192V27h90.071"/><text font-family="Helvetica" font-size="9" letter-spacing=".15" fill="#000" transform="translate(192 1)"><tspan x="24.628" y="54.398">ADD A DRIVER</tspan></text><g transform="translate(215.913 70.043)"><g transform="translate(2.42)"><mask id="d" fill="#fff"><use xlink:href="#c"/></mask><use fill="#FFA320" xlink:href="#c"/><g transform="translate(7.902 10.27)" mask="url(#d)"><path d="M15.961 32.575l4.992-1.03 4.991 1.03a20 20 0 0 1 15.962 19.588v13.944H0V52.163a20 20 0 0 1 15.961-19.588z" stroke="#000" stroke-width="1.5" fill="#FFF" stroke-linecap="round" stroke-linejoin="round"/><rect stroke="#000" stroke-width="1.5" fill="#FFF" stroke-linecap="round" stroke-linejoin="round" x="16.849" y="23.985" width="8.208" height="12.528" rx="4.104"/><circle stroke="#000" stroke-width="1.5" fill="#FFF" stroke-linecap="round" stroke-linejoin="round" cx="30.241" cy="17.937" r="2.808"/><circle stroke="#000" stroke-width="1.5" fill="#FFF" stroke-linecap="round" stroke-linejoin="round" cx="11.664" cy="17.937" r="2.808"/><path d="M12.312 21.756C10.682 13.5 9.951 8.677 10.12 7.287c.254-2.085 1.137-2.864 2.192-3.22.704-.237 1.424-.064 2.16.518C15.878 1.812 18.776.294 23.167.029c6.587-.397 8.999 3.422 10.862 5.087 1.241 1.11 1.241 2.65 0 4.619L31.277 13.4l-1.684 9.219-17.28-.863z" fill="#000"/><path d="M29.593 8.62V22.62a8.64 8.64 0 1 1-17.28 0v-8.383c1.123-.869 1.843-1.52 2.16-1.955.316-.434.547-1.086.692-1.954 4.361.866 7.246 1.194 8.653.982 1.407-.211 3.332-1.108 5.775-2.689zM16.849 31.26l4.104 5.254c-3.633 2.613-5.793 3.48-6.48 2.6-.688-.882.104-3.5 2.376-7.855z" stroke="#000" stroke-width="1.5" fill="#FFF" stroke-linecap="round" stroke-linejoin="round"/><path d="M25.057 31.26l-4.104 5.254c3.632 2.613 5.792 3.48 6.48 2.6.688-.882-.104-3.5-2.376-7.855zM20.953 36.514v19.824" stroke="#000" stroke-width="1.5" fill="#FFF" stroke-linecap="round" stroke-linejoin="round"/><circle stroke="#000" stroke-width="1.5" fill="#FFF" stroke-linecap="round" stroke-linejoin="round" cx="20.953" cy="45.593" r="1"/></g></g><circle stroke="#000" stroke-width="1.5" stroke-linecap="round" stroke-linejoin="round" cx="31.49" cy="31.49" r="31.49"/></g><g transform="translate(281.913 1.398)"><circle fill="#FFD9A3" cx="29.219" cy="25.337" r="25.337"/><circle stroke="#000" stroke-width="1.5" cx="25.337" cy="25.337" r="25.337"/><path d="M25.337 16.278v18.118M34.396 25.337H16.278" stroke-opacity=".85" stroke="#000" stroke-width="1.5" stroke-linecap="round" stroke-linejoin="round"/></g><g transform="translate(222.54 154.86)" fill="#FFF" stroke="#FFA320" stroke-width="1.5"><rect width="52.485" height="18.346" rx="9.173"/><path d="M19.066 9.173H33.42"/></g><path d="M233.72 143.215h30.715" stroke="#FFA320" stroke-width="1.5" fill="#FFF" stroke-linecap="round"/></g><g><path stroke="#000" stroke-width="1.5" fill="#FFF" d="M204.137 238.322v101.5H122v-101.5h62.425"/><text font-family="Helvetica" font-size="9" letter-spacing=".15" fill="#000" transform="translate(122 218.744)"><tspan x="13.822" y="51.5">INSURANCE</tspan></text><path d="M135.963 306.19h48.364M135.5 295.322h38.364M135.963 319.822h28.364" stroke-opacity=".85" stroke="#000" stroke-width="1.5" fill="#FFF"/><g transform="translate(184.327 218.744)"><circle fill="#FFD9A3" cx="22.578" cy="19.578" r="19.578"/><circle stroke="#000" stroke-width="1.5" cx="19.578" cy="19.578" r="19.578"/><path stroke-opacity=".85" stroke="#000" stroke-width="1.5" stroke-linecap="round" stroke-linejoin="round" d="M27.234 14.629l-9.899 9.9-4.95-4.95"/></g></g><g><path stroke="#000" stroke-width="1.5" stroke-linecap="round" stroke-linejoin="round" d="M671.82 440.092h87.989l-14.544 78.332h-58.9zM699.397 457.62h56.716"/><path d="M705.214 440.092c-30.224-20.738-37.276-34.79-21.157-42.152 24.18-11.044-15.461-34.47-9.65-42.88 5.812-8.412 21.862-2.058 30.807 4.259 8.946 6.316 5.628-45.518 35.784-48.065 30.155-2.546-6.33 46.275-2.913 58.202 3.417 11.928 47.69-8.12 23.845 14.861s-2.388 19.153 3.696 22.981c4.056 2.553-.67 13.484-14.18 32.794h-46.232z" fill="#FFD9A3"/><path d="M699.397 440.092c-30.224-20.738-37.277-34.79-21.157-42.152 24.179-11.044-15.462-34.47-9.65-42.88 5.811-8.412 21.861-2.058 30.807 4.259 8.946 6.316 5.628-45.518 35.783-48.065 30.156-2.546-6.33 46.275-2.912 58.202 3.417 11.928 47.69-8.12 23.845 14.861s-2.389 19.153 3.696 22.981c4.056 2.553-.67 13.484-14.18 32.794h-46.232zM719.676 355.06l-4.927 85.032M717.14 396.487l28.489-12.341M695.56 410.075l20.006 11.513" stroke="#000" stroke-width="1.5" stroke-linecap="round" stroke-linejoin="round"/></g><path d="M74 518.13l720.188.09" stroke-opacity=".85" stroke="#000" stroke-width="1.5"/></g></svg>