<svg width="889" height="517" viewBox="0 0 889 517" xmlns="http://www.w3.org/2000/svg"><title>pi-icon-2</title><g fill="none" fill-rule="evenodd"><path d="M14.199 516.028C3.144 358.51 37.092 287.217 116.04 302.148c118.424 22.396 252.456 47.709 375.173-131.578C613.931-8.716 774.452 140.065 774.452 276.64c0 91.049-13.313 169.889-39.938 236.518L14.2 516.028z" fill="#FFD9A3" opacity=".1"/><path stroke-opacity=".85" stroke="#000" stroke-width="1.5" d="M594.531 27.94v137.343H353.268V27.94h220.286"/><g transform="translate(386.104 37.449)"><path d="M50.586 46.436l-6.251-.962a5.181 5.181 0 0 0-5.97 5.121c0 3.336 4.354 6.04 7.69 6.04l4.531-10.199z" stroke-opacity=".85" stroke="#000" stroke-width="1.5" fill="#FFF"/><ellipse stroke-opacity=".85" stroke="#000" stroke-width="1.5" fill="#FFF" cx="91.956" cy="86.212" rx="14.786" ry="15.723"/><g transform="translate(18.082 70.49)" fill="#FFF" stroke="#000" stroke-opacity=".85" stroke-width="1.5"><ellipse cx="14.786" cy="15.723" rx="14.786" ry="15.723"/><ellipse cx="17.597" cy="15.723" rx="11.974" ry="15.723"/></g><g transform="translate(96.642 70.49)" fill="#FFF" stroke="#000" stroke-opacity=".85" stroke-width="1.5"><ellipse cx="14.786" cy="15.723" rx="14.786" ry="15.723"/><ellipse cx="17.597" cy="15.723" rx="11.974" ry="15.723"/></g><path d="M45.863 57.438l21.83-28.214a14.5 14.5 0 0 1 11.469-5.627h63.377a14.5 14.5 0 0 1 13.019 8.117L174.57 70.49 45.863 57.438z" stroke-opacity=".85" stroke="#000" stroke-width="1.5"/><path d="M47.945 61.186l21.831-28.214a14.5 14.5 0 0 1 11.468-5.626h22.083a3 3 0 0 1 2.764 4.165L88.965 72.153l-41.02-10.967zM141.047 60.91l4.664-24.04a8 8 0 0 0-7.854-9.524h-20.929a8 8 0 0 0-7.429 5.032L94.768 69.25l46.28-8.34z" stroke-opacity=".85" stroke="#000" stroke-width="1.5" fill="#FFF"/><ellipse stroke-opacity=".85" stroke="#000" stroke-width="1.5" fill="#FFF" cx="152.348" cy="86.212" rx="14.786" ry="15.723"/><path d="M36.353 52.58h140.86a7.239 7.239 0 0 1 6.952 5.219l6.204 21.34a7.239 7.239 0 0 1-6.951 9.26h-157.6a9.566 9.566 0 0 1-9.502-8.46l-2.242-19.284" stroke-opacity=".85" stroke="#000" stroke-width="1.5" fill="#FFF"/><path d="M26.272 55.166h143.28a14 14 0 0 1 13.444 10.092l2.273 7.818c2.159 7.425-2.11 15.193-9.535 17.352a14 14 0 0 1-3.908.556H31.188c-9.39 0-17.292-7.035-18.376-16.363l-.447-3.838c-.893-7.68 4.61-14.63 12.29-15.524a14 14 0 0 1 1.617-.093z" fill="#FF5320"/><rect fill="#FFF" x="125.645" y="63.588" width="8.962" height="4.136" rx="2.068"/><path d="M97.92 56.28l-3.152 12.971M140.013.421a7.497 7.497 0 0 0-.802-.044M141.773 52.58l-2.855 19.875a11 11 0 0 1-10.888 9.436H99.78" stroke-opacity=".85" stroke="#000" stroke-width="1.5"/><path d="M21.545 55.166h44.293A14 14 0 0 1 79.721 67.36l1.017 7.819c.997 7.667-4.41 14.691-12.078 15.688a14 14 0 0 1-1.805.117H26.571c-9.197 0-16.997-6.755-18.31-15.857l-.572-3.961c-1.105-7.653 4.203-14.752 11.856-15.857a14 14 0 0 1 2-.143z" fill="#EF3F0C"/><path d="M178.594 58.62h6.865a4 4 0 0 1 4 4v1.579a4 4 0 0 1-4 4h-6.59a4 4 0 0 1-3.942-3.316l-.274-1.58a4 4 0 0 1 3.941-4.683z" fill="#FFF"/><path d="M177.302 58.62h6.865a4 4 0 0 1 4 4v1.579a4 4 0 0 1-4 4h-6.592a4 4 0 0 1-3.94-3.316l-.275-1.58a4 4 0 0 1 3.942-4.683zM18.441 52.58h42.003a14 14 0 0 1 13.913 12.45l1.044 9.357c.856 7.684-4.679 14.608-12.363 15.465a14 14 0 0 1-1.551.086H23.51c-9.424 0-17.342-7.084-18.387-16.45l-.597-5.356c-.856-7.685 4.679-14.609 12.363-15.465a14 14 0 0 1 1.551-.087z" stroke-opacity=".85" stroke="#000" stroke-width="1.5"/><g transform="translate(54.5 74.705)"><rect fill="#FEDB3D" x="1.034" width="8.014" height="3.102" rx="1.551"/><rect stroke-opacity=".85" stroke="#000" stroke-width="1.5" width="8.014" height="3.102" rx="1.551"/></g><g transform="translate(13.135 74.705)"><rect fill="#FEDB3D" x="1.034" width="8.014" height="3.102" rx="1.551"/><rect stroke-opacity=".85" stroke="#000" stroke-width="1.5" width="8.014" height="3.102" rx="1.551"/></g><g stroke="#000" stroke-opacity=".85" stroke-width="1.5"><path d="M25.434 59.044h23.428a4.922 4.922 0 0 1 4.732 6.275l-.344 1.201a7 7 0 0 1-6.73 5.075H28.04a7 7 0 0 1-6.644-4.796l-.491-1.48a4.772 4.772 0 0 1 4.53-6.275z" fill="#FFF"/><path d="M28.828 59.044h20.096a5.057 5.057 0 0 1 4.908 6.275l-.239.962a7 7 0 0 1-6.794 5.314H31.18a7 7 0 0 1-6.727-5.064l-.349-1.212a4.916 4.916 0 0 1 4.724-6.275z" fill="#FFF"/><path d="M23.769 61.858h30.454M25.426 69.097l27.222.154M24.027 65.477h29.509"/></g><path d="M3.748 84.004h73.527a3.748 3.748 0 0 1 0 7.497H3.748a3.748 3.748 0 1 1 0-7.497zM182.648 84.004h11.037a3.748 3.748 0 1 1 0 7.497h-11.037a3.748 3.748 0 0 1 0-7.497z" stroke-opacity=".85" stroke="#000" stroke-width="1.5" fill="#FFF"/><ellipse stroke-opacity=".85" stroke="#000" stroke-width="1.5" fill="#FFF" cx="94.768" cy="86.212" rx="11.974" ry="15.723"/><ellipse stroke-opacity=".85" stroke="#000" stroke-width="1.5" fill="#9598B4" cx="94.768" cy="86.212" rx="6.694" ry="8.79"/><ellipse stroke-opacity=".85" stroke="#000" stroke-width="1.5" fill="#FFF" cx="93.577" cy="86.212" rx="5.558" ry="8.79"/><ellipse stroke-opacity=".85" stroke="#000" stroke-width="1.5" fill="#FFF" cx="155.159" cy="86.212" rx="11.974" ry="15.723"/><ellipse stroke-opacity=".85" stroke="#000" stroke-width="1.5" fill="#9598B4" cx="155.518" cy="86.212" rx="6.694" ry="8.79"/><ellipse stroke-opacity=".85" stroke="#000" stroke-width="1.5" fill="#FFF" cx="154.382" cy="86.212" rx="5.558" ry="8.79"/><ellipse stroke-opacity=".85" stroke="#000" stroke-width="1.5" fill="#FFF" cx="13.26" cy="63.409" rx="4.894" ry="5.206"/><ellipse stroke-opacity=".85" stroke="#000" stroke-width="1.5" fill="#FFF" cx="14.663" cy="63.409" rx="3.49" ry="5.206"/><ellipse stroke-opacity=".85" stroke="#000" stroke-width="1.5" fill="#FFF" cx="62.881" cy="63.409" rx="4.894" ry="5.206"/><ellipse stroke-opacity=".85" stroke="#000" stroke-width="1.5" fill="#FFF" cx="64.285" cy="63.409" rx="3.49" ry="5.206"/><path d="M155.079 40.732l2.838 5.286a2 2 0 0 1-1.762 2.946h-3.466a2 2 0 0 1-1.986-2.235l.628-5.287a2 2 0 0 1 3.748-.71z" stroke-opacity=".85" stroke="#000" stroke-width="1.5"/><path d="M99.97 46.273l12.268-1.218a5.47 5.47 0 0 1 6.01 5.443 6.04 6.04 0 0 1-6.04 6.04h-11.941a3 3 0 0 1-3-3v-4.28a3 3 0 0 1 2.703-2.985z" stroke-opacity=".85" stroke="#000" stroke-width="1.5" fill="#FFF"/></g><text font-family="Helvetica" font-size="9" letter-spacing=".15" fill="#000" transform="translate(353.268 27.94)"><tspan x="15.732" y="22.545">PRACTICAL</tspan></text><path d="M370.915 65.445h20.526" stroke="#FFA526" stroke-width="1.5"/><path stroke-opacity=".85" stroke="#000" stroke-width="1.5" d="M797.493 93.934v102.48H617.474V93.933h164.367z"/><g transform="translate(674.44 112.95)"><path d="M74.865 54.01h14.657v16.269c-8.095 0-14.657-6.562-14.657-14.657V54.01zM46.976 54.01h14.657v16.269c-8.094 0-14.657-6.562-14.657-14.657V54.01z" stroke-opacity=".85" stroke="#000" stroke-width="1.5" fill="#FFF"/><g transform="translate(9.093 40.717)" fill="#FFF" stroke="#000" stroke-opacity=".85" stroke-width="1.5"><path d="M.513 13.293H15.17v16.269C7.075 29.562.513 23 .513 14.905v-1.612z"/><ellipse cx="15.091" cy="14.781" rx="9.08" ry="14.781"/></g><path d="M99.505 33.774l-82.772-2.383 8.269-22.756 31.36-2.5h28.06c5.244 0 9.782 3.645 10.913 8.765l2.41 11.938" stroke-opacity=".85" stroke="#000" stroke-width="1.5" fill="#FFF"/><path d="M96.159 33.774l-79.426-2.383 8.269-22.756 31.36 1.405h25.026c5.1 0 9.552 3.452 10.823 8.39l1.703 6.916" stroke-opacity=".85" stroke="#000" stroke-width="1.5" fill="#FFF"/><rect stroke-opacity=".85" stroke="#000" stroke-width="1.5" fill="#FFF" x="11.093" y="24.186" width="11.093" height="6.452" rx="2"/><path d="M88.35 33.774l-71.617-2.383 8.732-24.032A11.175 11.175 0 0 1 35.97 0h36.53c5.338 0 9.931 3.775 10.964 9.012l3.175 16.087" stroke-opacity=".85" stroke="#000" stroke-width="1.5" fill="#FFF"/><path d="M50.98 33.774l-30.9-2.383 8.37-22.812a7.982 7.982 0 0 1 7.494-5.232H55.3a4.79 4.79 0 0 1 4.495 6.441l-6.067 16.51M53.768 33.774l28.425-1.365m-1.387-6.975l-3.25-16.343a7.136 7.136 0 0 0-6.998-5.744h-2.489a4.79 4.79 0 0 0-4.507 3.17l-7.019 19.535" stroke-opacity=".85" stroke="#000" stroke-width="1.5" fill="#FFF"/><rect stroke-opacity=".85" stroke="#000" stroke-width="1.5" fill="#FFF" x="65.098" y="50.757" width="45.179" height="6.506" rx="3.253"/><path d="M17.753 29.206h26.513l47.85-2.101c8.275-.363 15.28 6.051 15.643 14.327a15 15 0 0 1 .014.659v2.403c0 8.284-6.716 15-15 15h-72.35A15 15 0 0 1 5.67 47.21l-.526-2.86C3.86 37.386 8.467 30.7 15.43 29.418a12.822 12.822 0 0 1 2.322-.212z" fill="#FFA320"/><path d="M15.522 26.975h26.512l47.85-2.101c8.276-.364 15.28 6.051 15.644 14.327.01.22.014.44.014.658v2.404c0 8.284-6.716 15-15 15h-72.35A15 15 0 0 1 3.438 44.979l-.526-2.86C1.63 35.155 6.236 28.469 13.2 27.187a12.822 12.822 0 0 1 2.322-.212z" stroke-opacity=".85" stroke="#000" stroke-width="1.5"/><rect stroke-opacity=".85" stroke="#000" stroke-width="1.5" fill="#FFF" x="55.465" y="24.186" width="11.093" height="6.452" rx="2"/><rect stroke-opacity=".85" stroke="#000" stroke-width="1.5" fill="#FFF" x="98.101" y="29.136" width="7.523" height="6.785" rx="2.25"/><path d="M17.072 26.975h18.844c7.082 0 12.822 5.74 12.822 12.822 0 .779-.071 1.556-.212 2.322l-.527 2.86a15 15 0 0 1-14.752 12.284H19.741A15 15 0 0 1 4.989 44.979l-.527-2.86C3.18 35.155 7.785 28.469 14.75 27.187a12.822 12.822 0 0 1 2.323-.212z" fill="#F68B0F"/><path d="M15.398 26.975h18.845c7.081 0 12.822 5.74 12.822 12.822 0 .779-.071 1.556-.212 2.322l-.527 2.86a15 15 0 0 1-14.752 12.284H18.068A15 15 0 0 1 3.316 44.979l-.527-2.86c-1.283-6.964 3.323-13.65 10.287-14.932a12.822 12.822 0 0 1 2.322-.212z" stroke-opacity=".85" stroke="#000" stroke-width="1.5"/><circle stroke-opacity=".85" stroke="#000" stroke-width="1.5" fill="#FFF" cx="10.586" cy="37.235" r="3.769"/><path d="M10.586 41.003a3.769 3.769 0 0 0 0-7.537c-2.082 0-2.096 1.687-2.096 3.769 0 2.081.014 3.768 2.096 3.768z" stroke-opacity=".85" stroke="#000" stroke-width="1.5" fill="#FFF"/><circle stroke-opacity=".85" stroke="#000" stroke-width="1.5" fill="#FFF" cx="38.474" cy="37.235" r="3.769"/><path d="M38.474 41.003a3.769 3.769 0 0 0 0-7.537c-2.081 0-2.095 1.687-2.095 3.769 0 2.081.014 3.768 2.095 3.768z" stroke-opacity=".85" stroke="#000" stroke-width="1.5" fill="#FFF"/><g transform="translate(17.422 34.582)" fill="#FFF" stroke="#000" stroke-opacity=".85" stroke-width="1.5"><rect width="2.51" height="10.598" rx="1.255"/><rect x="5.02" width="2.51" height="10.598" rx="1.255"/><rect x="10.033" width="2.51" height="10.598" rx="1.255"/></g><g transform="translate(52.43 40.717)" fill="#FFF" stroke="#000" stroke-opacity=".85" stroke-width="1.5"><ellipse cx="37.013" cy="14.781" rx="9.08" ry="14.781"/><ellipse cx="37.013" cy="14.781" rx="3.598" ry="5.857"/><ellipse cx="9.125" cy="14.781" rx="9.08" ry="14.781"/><ellipse cx="9.125" cy="14.781" rx="3.598" ry="5.857"/></g><rect stroke-opacity=".85" stroke="#000" stroke-width="1.5" fill="#FFF" x="1.239" y="50.757" width="45.179" height="6.506" rx="3.253"/></g><text font-family="Helvetica" font-size="9" letter-spacing=".15" fill="#000" transform="translate(617.474 93.934)"><tspan x="13.168" y="17.584">ADVENTURER</tspan></text><path d="M630.642 121.919h15.315" stroke="#FFA526" stroke-width="1.5"/><g><path stroke-opacity=".85" stroke="#000" stroke-width="1.5" d="M887.993 214v102.48H707.974V214h164.367z"/><text font-family="Helvetica" font-size="9" letter-spacing=".15" fill="#000" transform="translate(707.974 214)"><tspan x="13.168" y="17.584">LUXURY</tspan></text><g transform="translate(720.87 238.528)"><path d="M36.787 28.015l-2.693.165-3.612.222a2.764 2.764 0 0 0-2.595 2.759 2.6 2.6 0 0 0 2.6 2.6h9.325c.334 0 .604-.27.604-.604v-4.723" stroke-opacity=".85" stroke="#000" stroke-width="1.5" fill="#FFF"/><path d="M33.821 35.38l10.58-11.5a14.5 14.5 0 0 1 10.67-4.682h66.478a14.5 14.5 0 0 1 12.73 7.558l8.952 16.417L33.82 35.38z" fill="#FFD9A3"/><ellipse stroke-opacity=".85" stroke="#000" stroke-width="1.5" fill="#FFF" cx="58.937" cy="51.481" rx="8.829" ry="9.389"/><g transform="translate(14.823 42.093)" fill="#FFF" stroke="#000" stroke-opacity=".85" stroke-width="1.5"><ellipse cx="8.829" cy="9.389" rx="8.829" ry="9.389"/><ellipse cx="10.508" cy="9.389" rx="7.15" ry="9.389"/></g><g transform="translate(79.852 42.093)" fill="#FFF" stroke="#000" stroke-opacity=".85" stroke-width="1.5"><ellipse cx="8.829" cy="9.389" rx="8.829" ry="9.389"/><ellipse cx="10.508" cy="9.389" rx="7.15" ry="9.389"/></g><g transform="translate(99.982 42.093)" fill="#FFF" stroke="#000" stroke-opacity=".85" stroke-width="1.5"><ellipse cx="8.829" cy="9.389" rx="8.829" ry="9.389"/><ellipse cx="10.508" cy="9.389" rx="7.15" ry="9.389"/></g><path d="M31.413 34.299l11.296-13.146a14.5 14.5 0 0 1 10.997-5.05h68.329a14.5 14.5 0 0 1 12.82 7.728l9.649 18.262-113.091-7.794z" stroke-opacity=".85" stroke="#000" stroke-width="1.5"/><path d="M32.656 36.537l11.297-13.145a14.5 14.5 0 0 1 10.997-5.05h8.812a3 3 0 0 1 2.73 4.244l-9.34 20.5-24.496-6.549zM124.485 36.372l.198-.916c1.646-7.631-3.206-15.15-10.837-16.796a14.134 14.134 0 0 0-2.98-.318H95.889a3 3 0 0 0-2.957 2.492l-3.53 20.519 35.084-4.98zM87.85 36.372l2.024-12.212a5 5 0 0 0-4.932-5.818h-11.05a5 5 0 0 0-4.586 3.008l-8.69 20.003 27.233-4.98z" stroke-opacity=".85" stroke="#000" stroke-width="1.5" fill="#FFF"/><ellipse stroke-opacity=".85" stroke="#000" stroke-width="1.5" fill="#FFF" cx="121.169" cy="51.481" rx="8.829" ry="9.389"/><ellipse stroke-opacity=".85" stroke="#000" stroke-width="1.5" fill="#FFF" cx="139.285" cy="51.481" rx="8.829" ry="9.389"/><path d="M25.734 31.398H144.069a4.323 4.323 0 0 1 4.15 3.116l3.705 12.744a4.323 4.323 0 0 1-4.15 5.529H19.443a5.712 5.712 0 0 1-5.674-5.052L12.43 36.22" stroke-opacity=".85" stroke="#000" stroke-width="1.5" fill="#FFF"/><path d="M21.092 32.942H135.26a14 14 0 0 1 13.444 10.092l.175.602a8.36 8.36 0 0 1-8.028 10.695H23.579a12.09 12.09 0 0 1-12.01-10.695 9.587 9.587 0 0 1 9.523-10.694z" fill="#FFA320"/><path d="M62.499 33.608l-1.883 7.745M87.634.25a4.477 4.477 0 0 0-.479-.026M88.685 31.398l-1.159 8.067a11 11 0 0 1-10.888 9.436h-13.03M125.523 31.398l-1.16 8.067a11 11 0 0 1-10.887 9.436H99.006a9 9 0 0 1-8.915-10.229l1.002-7.274" stroke-opacity=".85" stroke="#000" stroke-width="1.5"/><path d="M18.034 32.942h21.833a9.295 9.295 0 0 1 9.188 10.694A12.59 12.59 0 0 1 36.61 54.331H15.082a9.408 9.408 0 0 1-9.32-10.695 12.388 12.388 0 0 1 12.272-10.694z" fill="#F68B0F"/><path d="M146.97 35.004h3.564a2.86 2.86 0 0 1 0 5.72h-2.571a3.45 3.45 0 0 1-3.4-2.86 2.443 2.443 0 0 1 2.408-2.86z" fill="#FEDB3D"/><path d="M146.199 35.004h3.563a2.86 2.86 0 1 1 0 5.72h-2.571a3.45 3.45 0 0 1-3.4-2.86 2.443 2.443 0 0 1 2.408-2.86zM13.946 31.398h20.952c5.986 0 10.839 4.853 10.839 10.839 0 .57-.045 1.14-.135 1.704l-1.555 9.765H2.142l2.255-14.159a9.67 9.67 0 0 1 9.549-8.149z" stroke-opacity=".85" stroke="#000" stroke-width="1.5"/><g transform="translate(36.57 44.61)"><rect fill="#FEDB3D" x=".618" width="4.786" height="1.853" rx=".926"/><rect stroke-opacity=".85" stroke="#000" stroke-width="1.5" width="4.786" height="1.853" rx=".926"/></g><g transform="translate(11.87 44.61)"><rect fill="#FEDB3D" x=".618" width="4.786" height="1.853" rx=".926"/><rect stroke-opacity=".85" stroke="#000" stroke-width="1.5" width="4.786" height="1.853" rx=".926"/></g><g stroke="#000" stroke-opacity=".85" stroke-width="1.5"><path d="M19.214 35.258h13.99a2.939 2.939 0 0 1 2.825 3.747 5.17 5.17 0 0 1-4.97 3.747h-9.358a5.47 5.47 0 0 1-5.192-3.747 2.85 2.85 0 0 1 2.705-3.747z" fill="#FFF"/><path d="M21.24 35.258h12a3.02 3.02 0 0 1 2.931 3.747 4.936 4.936 0 0 1-4.79 3.747h-7.983a5.18 5.18 0 0 1-4.978-3.747 2.935 2.935 0 0 1 2.82-3.747z" fill="#FFF"/><path d="M18.374 39.1h17.62"/></g><path d="M2.238 50.163h43.906a2.238 2.238 0 1 1 0 4.476H2.238a2.238 2.238 0 0 1 0-4.476zM147.314 50.163h6.59a2.238 2.238 0 1 1 0 4.476h-6.59a2.238 2.238 0 1 1 0-4.476z" stroke-opacity=".85" stroke="#000" stroke-width="1.5" fill="#FFF"/><ellipse stroke-opacity=".85" stroke="#000" stroke-width="1.5" fill="#FFF" cx="60.616" cy="51.481" rx="7.15" ry="9.389"/><ellipse stroke-opacity=".85" stroke="#000" stroke-width="1.5" fill="#9598B4" cx="60.616" cy="51.481" rx="3.998" ry="5.249"/><ellipse stroke-opacity=".85" stroke="#000" stroke-width="1.5" fill="#FFF" cx="59.905" cy="51.481" rx="3.319" ry="5.249"/><ellipse stroke-opacity=".85" stroke="#000" stroke-width="1.5" fill="#FFF" cx="122.847" cy="51.481" rx="7.15" ry="9.389"/><ellipse stroke-opacity=".85" stroke="#000" stroke-width="1.5" fill="#9598B4" cx="123.061" cy="51.481" rx="3.998" ry="5.249"/><ellipse stroke-opacity=".85" stroke="#000" stroke-width="1.5" fill="#FFF" cx="122.383" cy="51.481" rx="3.319" ry="5.249"/><ellipse stroke-opacity=".85" stroke="#000" stroke-width="1.5" fill="#FFF" cx="140.964" cy="51.481" rx="7.15" ry="9.389"/><ellipse stroke-opacity=".85" stroke="#000" stroke-width="1.5" fill="#9598B4" cx="141.178" cy="51.481" rx="3.998" ry="5.249"/><ellipse stroke-opacity=".85" stroke="#000" stroke-width="1.5" fill="#FFF" cx="140.5" cy="51.481" rx="3.319" ry="5.249"/><ellipse stroke-opacity=".85" stroke="#000" stroke-width="1.5" fill="#FFF" cx="11.944" cy="37.864" rx="2.922" ry="3.109"/><ellipse stroke-opacity=".85" stroke="#000" stroke-width="1.5" fill="#FFF" cx="12.782" cy="37.864" rx="2.084" ry="3.109"/><ellipse stroke-opacity=".85" stroke="#000" stroke-width="1.5" fill="#FFF" cx="41.575" cy="37.864" rx="2.922" ry="3.109"/><ellipse stroke-opacity=".85" stroke="#000" stroke-width="1.5" fill="#FFF" cx="42.413" cy="37.864" rx="2.084" ry="3.109"/><path d="M132.643 25.27l1.183 2.192a1.614 1.614 0 0 1-1.42 2.38h-.453a2 2 0 0 1-1.986-2.236l.223-1.87a1.31 1.31 0 0 1 2.453-.466z" fill="#FFF"/><path d="M131.828 25.27l1.183 2.192a1.614 1.614 0 0 1-1.42 2.38h-.453a2 2 0 0 1-1.986-2.236l.223-1.87a1.31 1.31 0 0 1 2.453-.466z" stroke-opacity=".85" stroke="#000" stroke-width="1.5"/><path d="M65.087 27.975l6.955.427a2.764 2.764 0 0 1 2.595 2.759 2.6 2.6 0 0 1-2.6 2.6h-6.944a2.984 2.984 0 0 1-2.985-2.985 2.807 2.807 0 0 1 2.98-2.801z" stroke-opacity=".85" stroke="#000" stroke-width="1.5" fill="#FFF"/></g><path d="M721.142 241.985h15.315" stroke="#FFA526" stroke-width="1.5"/></g><g><path stroke-opacity=".85" stroke="#000" stroke-width="1.5" d="M192.788 204v102.48H12.768V204h164.367z"/><text font-family="Helvetica" font-size="9" letter-spacing=".15" fill="#000" transform="translate(12.768 204)"><tspan x="13.168" y="17.584">MOVER</tspan></text><path d="M25.936 231.985H41.25" stroke="#FFA526" stroke-width="1.5"/></g><g><path stroke-opacity=".85" stroke="#000" stroke-width="1.5" d="M332.471 93.934v102.48H152.452V93.933h164.367z"/><g transform="translate(189.417 112.95)"><path d="M74.865 54.01h14.657v16.269c-8.095 0-14.657-6.562-14.657-14.657V54.01zM46.976 54.01h14.657v16.269c-8.094 0-14.657-6.562-14.657-14.657V54.01z" stroke-opacity=".85" stroke="#000" stroke-width="1.5" fill="#FFF"/><g transform="translate(9.093 40.717)" fill="#FFF" stroke="#000" stroke-opacity=".85" stroke-width="1.5"><path d="M.513 13.293H15.17v16.269C7.075 29.562.513 23 .513 14.905v-1.612z"/><ellipse cx="15.091" cy="14.781" rx="9.08" ry="14.781"/></g><path d="M99.505 33.774l-82.772-2.383 8.269-22.756 31.36-2.5h28.06c5.244 0 9.782 3.645 10.913 8.765l2.377 10.76" stroke-opacity=".85" stroke="#000" stroke-width="1.5" fill="#FFF"/><path d="M96.159 33.774l-79.426-2.383 8.269-22.756 31.36 1.405h25.026c5.1 0 9.552 3.452 10.823 8.39l1.577 6.132" stroke-opacity=".85" stroke="#000" stroke-width="1.5" fill="#FFF"/><rect stroke-opacity=".85" stroke="#000" stroke-width="1.5" fill="#FFF" x="9.043" y="23.771" width="11.093" height="6.452" rx="2"/><path d="M88.35 33.774l-71.617-2.383 8.732-24.032A11.175 11.175 0 0 1 35.97 0h36.53c5.338 0 9.931 3.775 10.964 9.012l3.175 16.087" stroke-opacity=".85" stroke="#000" stroke-width="1.5" fill="#FFF"/><path d="M50.98 33.774l-30.9-2.383 8.37-22.812a7.982 7.982 0 0 1 7.494-5.232H55.3a4.79 4.79 0 0 1 4.495 6.441l-6.067 16.51M53.768 33.774l28.425-1.365m-1.387-6.975l-3.25-16.343a7.136 7.136 0 0 0-6.998-5.744h-2.489a4.79 4.79 0 0 0-4.507 3.17l-7.019 19.535" stroke-opacity=".85" stroke="#000" stroke-width="1.5" fill="#FFF"/><rect stroke-opacity=".85" stroke="#000" stroke-width="1.5" fill="#FFF" x="65.098" y="50.757" width="45.179" height="6.506" rx="3.253"/><path d="M17.753 29.206h26.513l47.85-2.101c8.275-.363 15.28 6.051 15.643 14.327a15 15 0 0 1 .014.659v2.403c0 8.284-6.716 15-15 15h-72.35A15 15 0 0 1 5.67 47.21l-.526-2.86C3.86 37.386 8.467 30.7 15.43 29.418a12.822 12.822 0 0 1 2.322-.212z" fill="#FFD9A3"/><path d="M15.522 26.975h26.512l47.85-2.101c8.276-.364 15.28 6.051 15.644 14.327.01.22.014.44.014.658v2.404c0 8.284-6.716 15-15 15h-72.35A15 15 0 0 1 3.438 44.979l-.526-2.86C1.63 35.155 6.236 28.469 13.2 27.187a12.822 12.822 0 0 1 2.322-.212z" stroke-opacity=".85" stroke="#000" stroke-width="1.5"/><path d="M8.88 26.975h35.229a6 6 0 0 1 5.9 7.087l-3.367 18.287a6 6 0 0 1-5.9 4.914H12.246a6 6 0 0 1-5.9-4.914L2.977 34.062a6 6 0 0 1 5.901-7.087z" fill="#F68B0F"/><path d="M7.206 26.975h35.23a6 6 0 0 1 5.9 7.087L44.97 52.349a6 6 0 0 1-5.901 4.914H10.574a6 6 0 0 1-5.901-4.914L1.305 34.062a6 6 0 0 1 5.9-7.087z" stroke-opacity=".85" stroke="#000" stroke-width="1.5"/><circle stroke-opacity=".85" stroke="#000" stroke-width="1.5" fill="#FFF" cx="10.586" cy="37.235" r="3.769"/><path d="M10.586 41.003a3.769 3.769 0 0 0 0-7.537c-2.082 0-2.096 1.687-2.096 3.769 0 2.081.014 3.768 2.096 3.768z" stroke-opacity=".85" stroke="#000" stroke-width="1.5" fill="#FFF"/><circle stroke-opacity=".85" stroke="#000" stroke-width="1.5" fill="#FFF" cx="38.474" cy="37.235" r="3.769"/><path d="M38.474 41.003a3.769 3.769 0 0 0 0-7.537c-2.081 0-2.095 1.687-2.095 3.769 0 2.081.014 3.768 2.095 3.768z" stroke-opacity=".85" stroke="#000" stroke-width="1.5" fill="#FFF"/><g fill="#FFF" stroke="#000" stroke-opacity=".85" stroke-width="1.5"><path d="M18.677 34.582c.693 0 1.255.562 1.255 1.255v1.748a1.255 1.255 0 1 1-2.51 0v-1.748c0-.693.562-1.255 1.255-1.255zM23.697 34.582c.693 0 1.255.562 1.255 1.255v1.748a1.255 1.255 0 1 1-2.51 0v-1.748c0-.693.562-1.255 1.255-1.255zM28.71 34.582c.693 0 1.254.562 1.254 1.255v1.748a1.255 1.255 0 1 1-2.51 0v-1.748c0-.693.562-1.255 1.255-1.255z"/></g><g transform="translate(52.43 40.717)" fill="#FFF" stroke="#000" stroke-opacity=".85" stroke-width="1.5"><ellipse cx="37.013" cy="14.781" rx="9.08" ry="14.781"/><ellipse cx="37.013" cy="14.781" rx="3.598" ry="5.857"/><ellipse cx="9.125" cy="14.781" rx="9.08" ry="14.781"/><ellipse cx="9.125" cy="14.781" rx="3.598" ry="5.857"/></g><path d="M55.528 28.11v-2.226c0-1.167.946-2.113 2.113-2.113h6.867c1.167 0 2.113.946 2.113 2.113v.389" stroke-opacity=".85" stroke="#000" stroke-width="1.5" fill="#FFF"/><rect stroke-opacity=".85" stroke="#000" stroke-width="1.5" fill="#FFF" x="1.239" y="50.757" width="45.179" height="6.506" rx="3.253"/></g><text font-family="Helvetica" font-size="9" letter-spacing=".15" fill="#000" transform="translate(152.452 93.934)"><tspan x="13.168" y="17.584">FAMILY</tspan></text><path d="M165.62 121.919h15.315" stroke="#FFA526" stroke-width="1.5"/></g><g transform="translate(574.158 1)"><circle fill="#FFD9A3" cx="30.87" cy="26.768" r="26.768"/><circle stroke="#000" stroke-width="1.5" cx="26.768" cy="26.768" r="26.768"/><path stroke-opacity=".85" stroke="#000" stroke-width="1.5" stroke-linecap="round" stroke-linejoin="round" d="M37.235 20L23.701 33.536l-6.768-6.767"/></g><g transform="matrix(-1 0 0 1 422.08 48.449)"><path d="M156.615 92.127c-4.975 1.28-8.705 1.854-11.193 1.718-2.487-.136-6.218-1.116-11.192-2.94l-26.375 12.999a31 31 0 0 0-7.908 5.582l-19.76 19.216a3 3 0 0 1-4.547-.427L42.31 80.802 22.243 97.014c24.568 40.939 40.133 63.7 46.697 68.284 6.563 4.584 17.508-1.1 32.835-17.05l-11.05 88.187c22.869 6.875 39.012 10.327 48.432 10.357 9.419.029 22.755-.933 40.007-2.886v2.354h16.286l4.978-75.033a6 6 0 0 0-.123-1.666l-13.227-61.116a12 12 0 0 0-7.95-8.852l-22.513-7.466z" fill="#FFA320"/><g fill="#FFF"><path d="M128.08 120.213l2.35-2.35a2.68 2.68 0 0 1 3.79 0l5.091 5.09a2.68 2.68 0 0 1 0 3.79l-2.35 2.35a2.68 2.68 0 0 1-3.79 0l-5.091-5.09a2.68 2.68 0 0 1 0-3.79zM173.031 190.219l2.351-2.351a2.68 2.68 0 0 1 3.79 0l5.09 5.09a2.68 2.68 0 0 1 0 3.79l-2.35 2.351a2.68 2.68 0 0 1-3.79 0l-5.09-5.091a2.68 2.68 0 0 1 0-3.79zM103.288 195.923l2.35-2.351a2.68 2.68 0 0 1 3.79 0l5.091 5.09a2.68 2.68 0 0 1 0 3.79l-2.351 2.351a2.68 2.68 0 0 1-3.79 0l-5.09-5.091a2.68 2.68 0 0 1 0-3.79zM191.12 155.443l2.35-2.35a2.68 2.68 0 0 1 3.79 0l5.09 5.09a2.68 2.68 0 0 1 0 3.79l-2.35 2.35a2.68 2.68 0 0 1-3.79 0l-5.09-5.09a2.68 2.68 0 0 1 0-3.79zM164.055 101.125l2.351-2.351a2.68 2.68 0 0 1 3.79 0l5.09 5.091a2.68 2.68 0 0 1 0 3.79l-2.35 2.35a2.68 2.68 0 0 1-3.79 0l-5.09-5.09a2.68 2.68 0 0 1 0-3.79zM94.407 113.716l2.35-2.352a2.68 2.68 0 0 1 3.79 0l5.091 5.092a2.68 2.68 0 0 1 0 3.789l-2.35 2.35a2.68 2.68 0 0 1-3.79 0l-5.091-5.09a2.68 2.68 0 0 1 0-3.79z"/></g><g fill="#FFF"><path d="M123.432 152.17l-2.351-2.351a2.68 2.68 0 0 0-3.79 0l-5.09 5.091a2.68 2.68 0 0 0 0 3.79l2.35 2.35a2.68 2.68 0 0 0 3.79 0l5.09-5.09a2.68 2.68 0 0 0 0-3.79zM138.928 230.421l-2.352-2.35a2.68 2.68 0 0 0-3.789 0l-5.09 5.09a2.68 2.68 0 0 0 0 3.79l2.35 2.35a2.68 2.68 0 0 0 3.79 0l5.09-5.09a2.68 2.68 0 0 0 0-3.79zM64.69 125.837l-2.352-2.35a2.68 2.68 0 0 0-3.789 0l-5.09 5.09a2.68 2.68 0 0 0 0 3.79l2.35 2.35a2.68 2.68 0 0 0 3.79 0l5.09-5.09a2.68 2.68 0 0 0 0-3.79zM157.462 204.835l-2.352-2.35a2.68 2.68 0 0 0-3.789 0l-5.09 5.09a2.68 2.68 0 0 0 0 3.79l2.35 2.35a2.68 2.68 0 0 0 3.79 0l5.09-5.09a2.68 2.68 0 0 0 0-3.79zM132.787 93.929l-2.35-2.351a2.68 2.68 0 0 0-3.79 0l-5.091 5.091a2.68 2.68 0 0 0 0 3.79l2.351 2.35a2.68 2.68 0 0 0 3.79 0l5.09-5.09a2.68 2.68 0 0 0 0-3.79zM155.841 160.677l-2.351-2.35a2.68 2.68 0 0 0-3.79 0l-5.09 5.09a2.68 2.68 0 0 0 0 3.79l2.35 2.35a2.68 2.68 0 0 0 3.79 0l5.091-5.09a2.68 2.68 0 0 0 0-3.79z"/></g><g transform="translate(104.945 .047)"><rect fill="#000" x="21.89" y="37.664" width="7.395" height="14.791" rx="3.698"/><path d="M52.727 73.85v12.836c0 3.817-8.14 4.33-24.42 1.538v-7.469" stroke="#000" stroke-width="1.5" fill="#FFF" stroke-linecap="round" stroke-linejoin="round"/><path d="M31.62 80.755c-9.231-2.098-19.538-5.545-19.538-15.411V35.129" stroke="#000" stroke-width="1.5" fill="#FFF" stroke-linecap="round" stroke-linejoin="round"/><path d="M69.544 50.564c3.983-16.82 1.656-24.547-6.981-23.179-5.112-10.208-12.916-14.856-23.41-13.943-15.743 1.369-26.465-7.357-32.568-2.78-11.609 8.705 1.84 37.15 16.89 34.767 3.38-.535 5.633 2.99 6.76 10.574.888 14.668 2.59 22.294 5.106 22.879 1.97.458 5.77 9.034 21.487 0 1.21-.696 5.449-10.135 12.716-28.318z" fill="#000"/><path d="M30.342 63.399a6.867 6.867 0 1 0-4.312-12.212" stroke="#000" stroke-width="1.5" fill="#FFF" stroke-linecap="round" stroke-linejoin="round"/></g><path d="M147.273 442.589a7.55 7.55 0 0 1-7.55 7.55h-17.55a8.325 8.325 0 0 0-8.325 8.325v5.825a2.5 2.5 0 0 0 2.5 2.5h58.029l-2.113-24.2h-24.991zM147.313 461.082h27.064" stroke="#000" stroke-width="1.5" fill="#FFF" stroke-linecap="round" stroke-linejoin="round"/><path d="M106.058 142.972l-11.518 93.58c25.587 4.346 42.817 6.518 51.691 6.518 8.367 0 19.125-.886 34.055-3.39" stroke="#000" stroke-width="1.5" stroke-linecap="round" stroke-linejoin="round"/><path d="M157.671 88.398l18.978 5.108a21 21 0 0 1 15.188 16.443l10.305 55.477a35.5 35.5 0 0 1 .554 8.243l-3.419 68.896h-18.99l-.76-66.586a34.495 34.495 0 0 1-.002-.393V123.49" stroke="#000" stroke-width="1.5" stroke-linecap="round" stroke-linejoin="round"/><path d="M194.978 243.024v10.015c0 1.29-5.134 3.32-15.403 6.094l.711-16.613h3.695l10.997.504zM102.709 237.237L98.996 442.59h34.6l10.74-171.152M180.36 228.058l-7.247 214.53h-33.751l-2.118-51.07" stroke="#000" stroke-width="1.5" stroke-linecap="round" stroke-linejoin="round"/><path d="M107.477 442.589a7.55 7.55 0 0 1-7.55 7.55H83.648a8.325 8.325 0 0 0-8.325 8.325v5.825a2.5 2.5 0 0 0 2.5 2.5h52.272l-2.113-24.2h-20.505z" stroke="#000" stroke-width="1.5" fill="#FFF" stroke-linecap="round" stroke-linejoin="round"/><path d="M134.23 88.271l-22.637 7.859a26 26 0 0 0-9.71 6.03l-19.207 18.903a6 6 0 0 1-9.123-.834L43.217 76.921l-18.57 15.411c28.587 51.987 46.89 76.5 54.908 73.537 8.017-2.962 16.852-10.595 26.503-22.897" stroke="#000" stroke-width="1.5" stroke-linecap="round" stroke-linejoin="round"/><path d="M41.119 78.73c-7.193-12.037-12.78-18.826-16.763-20.368C18.382 56.05.007 53.545.007 56.05c0 1.67 4.738 4.232 14.215 7.686-4.83 3.622-6.965 7.01-6.407 10.162.838 4.728 12.9 9.913 12.9 9.913l5.066 7.53L41.12 78.73zM129.582 461.082H89.55" stroke="#000" stroke-width="1.5" fill="#FFF" stroke-linecap="round" stroke-linejoin="round"/><path fill="#FFA320" opacity=".1" d="M144.112 271.765l4.38 170.824h-7.67l-4.258-52.724z"/><rect fill="#FFF" x="187.499" y="297.675" width="14.855" height="6.887" rx="2.125"/></g><g><path d="M443.438 515.794c-26.21-40.015-30.27-64.238-12.178-72.67 27.136-12.647 30.002 39.461 55.57 21.926C512.4 447.516 513.02 398 536.697 398s21.102 24.729 46.949 40.733c25.846 16.003 17.06 56.349 45.83 32.566 28.77-23.783 51.438 4.36 32.062 44.495" fill="#FFD9A3"/><path d="M434.871 515.794c-26.21-40.015-30.269-64.238-12.178-72.67 27.136-12.647 30.003 39.461 55.571 21.926 25.569-17.534 26.19-67.05 49.866-67.05 23.675 0 21.101 24.729 46.948 40.733 25.847 16.003 17.06 56.349 45.83 32.566 28.77-23.783 51.438 4.36 32.063 44.495" stroke-opacity=".85" stroke="#000" stroke-width="1.5"/></g><g><path stroke="#000" stroke-width="1.5" stroke-linecap="round" stroke-linejoin="round" d="M103.71 436.962H191.7l-14.544 78.332h-58.9zM131.287 454.49h56.716"/><path d="M137.104 436.962c-30.224-20.739-37.276-34.79-21.157-42.152 24.18-11.044-15.461-34.47-9.65-42.881 5.812-8.411 21.862-2.057 30.807 4.26 8.946 6.316 5.628-45.518 35.784-48.065 30.155-2.547-6.33 46.275-2.913 58.202 3.417 11.928 47.69-8.12 23.845 14.861s-2.388 19.153 3.696 22.981c4.057 2.552-.67 13.484-14.18 32.794h-46.232z" fill="#FFD9A3"/><path d="M131.287 436.962c-30.224-20.739-37.277-34.79-21.157-42.152 24.179-11.044-15.462-34.47-9.65-42.881 5.811-8.411 21.861-2.057 30.807 4.26 8.946 6.316 5.628-45.518 35.783-48.065 30.156-2.547-6.33 46.275-2.912 58.202 3.417 11.928 47.69-8.12 23.845 14.861s-2.388 19.153 3.696 22.981c4.056 2.552-.67 13.484-14.18 32.794h-46.232zM151.566 351.929l-4.927 85.033M149.03 393.357l28.489-12.341M127.45 406.945l20.006 11.513" stroke="#000" stroke-width="1.5" stroke-linecap="round" stroke-linejoin="round"/></g><path d="M1.5 516h741.1" stroke="#000" stroke-width="1.5" stroke-linecap="round" stroke-linejoin="round"/><g><path d="M106.848 224.5h67.738a5 5 0 0 1 5 5v39.138H87.848V243.5c0-10.493 8.507-19 19-19z" fill="#FFD9A3"/><path d="M104.925 224.5h67.738a5 5 0 0 1 5 5v39.138H85.925V243.5c0-10.493 8.507-19 19-19z" stroke-opacity=".85" stroke="#000" stroke-width="1.5"/><path d="M125.736 268.638h-39.81v-40.484a3.654 3.654 0 0 1 3.653-3.654h32.503a3.654 3.654 0 0 1 3.654 3.654v20.627" stroke-opacity=".85" stroke="#000" stroke-width="1.5" fill="#FFF"/><g transform="translate(39 233.347)"><path d="M35.147 26.766l-2.573.158-3.45.212a2.641 2.641 0 0 0-2.48 2.636 2.484 2.484 0 0 0 2.484 2.483h8.909a.577.577 0 0 0 .577-.576v-4.513" stroke-opacity=".85" stroke="#000" stroke-width="1.5" fill="#FFF"/><path d="M32.313 33.802l9.915-10.778A14.5 14.5 0 0 1 52.9 18.342h20.392c8.008 0 14.5 6.491 14.5 14.5a14.5 14.5 0 0 1-.114 1.816l-.888 7.033-54.476-7.89z" fill="#FFD9A3"/><ellipse stroke-opacity=".85" stroke="#000" stroke-width="1.5" fill="#FFF" cx="56.309" cy="49.186" rx="8.435" ry="8.97"/><g transform="translate(14.163 40.216)" fill="#FFF" stroke="#000" stroke-opacity=".85" stroke-width="1.5"><ellipse cx="8.435" cy="8.97" rx="8.435" ry="8.97"/><ellipse cx="10.039" cy="8.97" rx="6.832" ry="8.97"/></g><g transform="translate(103.217 40.216)" fill="#FFF" stroke="#000" stroke-opacity=".85" stroke-width="1.5"><ellipse cx="8.435" cy="8.97" rx="8.435" ry="8.97"/><ellipse cx="10.039" cy="8.97" rx="6.832" ry="8.97"/></g><path d="M30.012 32.77l13.443-15.643a5 5 0 0 1 3.792-1.741H84.4a7 7 0 0 1 6.955 7.797l-1.952 17.033-59.39-7.447z" stroke-opacity=".85" stroke="#000" stroke-width="1.5"/><path d="M31.2 34.908L43.745 20.31a8 8 0 0 1 6.067-2.786h12.454a2 2 0 0 1 1.82 2.83l-9.483 20.81L31.2 34.909zM83.932 34.75l1.892-11.408a5 5 0 0 0-4.933-5.818H71.4a6 6 0 0 0-5.503 3.61l-7.984 18.375 26.02-4.759z" stroke-opacity=".85" stroke="#000" stroke-width="1.5" fill="#FFF"/><ellipse stroke-opacity=".85" stroke="#000" stroke-width="1.5" fill="#FFF" cx="123.459" cy="49.186" rx="8.435" ry="8.97"/><path d="M24.586 29.998h113.059a4.13 4.13 0 0 1 3.966 2.977l3.54 12.176a4.13 4.13 0 0 1-3.966 5.282H18.575c-2.77 0-5.1-2.075-5.42-4.827l-1.28-11.001" stroke-opacity=".85" stroke="#000" stroke-width="1.5" fill="#FFF"/><path d="M20.152 31.473H128.76a14 14 0 0 1 13.443 10.092l.037.126a7.988 7.988 0 0 1-7.67 10.217H22.528a11.552 11.552 0 0 1-11.475-10.217 9.16 9.16 0 0 1 9.099-10.218z" fill="#FFA320"/><path d="M59.712 32.11l-1.799 7.399M84.73 29.998l-1.046 7.287a11 11 0 0 1-10.888 9.436H60.772" stroke-opacity=".85" stroke="#000" stroke-width="1.5"/><path d="M17.23 31.473h20.859a8.88 8.88 0 0 1 8.78 10.218 12.029 12.029 0 0 1-11.892 10.217H14.41a8.989 8.989 0 0 1-8.905-10.217A11.835 11.835 0 0 1 17.23 31.473z" fill="#F68B0F"/><path d="M140.417 33.444h3.405a2.733 2.733 0 0 1 0 5.465h-2.457a3.296 3.296 0 0 1-3.247-2.733 2.334 2.334 0 0 1 2.3-2.732z" fill="#FEDB3D"/><path d="M139.68 33.444h3.405a2.733 2.733 0 0 1 0 5.465h-2.457a3.296 3.296 0 0 1-3.247-2.733 2.334 2.334 0 0 1 2.299-2.732zM13.324 29.998h20.018c5.72 0 10.356 4.636 10.356 10.356 0 .545-.043 1.09-.13 1.628l-1.485 9.33H2.047L4.2 37.783a9.238 9.238 0 0 1 9.123-7.786z" stroke-opacity=".85" stroke="#000" stroke-width="1.5"/><rect x=".59" width="4.572" height="1.77" rx=".885" transform="translate(34.94 42.62)" fill="#FEDB3D"/><rect x=".59" width="4.572" height="1.77" rx=".885" transform="translate(11.34 42.62)" fill="#FEDB3D"/><g fill="#FFF" stroke="#000" stroke-opacity=".85" stroke-width="1.5"><path d="M18.357 33.686h13.366a2.808 2.808 0 0 1 2.7 3.58 4.939 4.939 0 0 1-4.748 3.58h-8.942a5.226 5.226 0 0 1-4.96-3.58 2.723 2.723 0 0 1 2.584-3.58z"/><path d="M20.293 33.686h11.465a2.885 2.885 0 0 1 2.8 3.58 4.716 4.716 0 0 1-4.577 3.58h-7.626a4.95 4.95 0 0 1-4.757-3.58 2.804 2.804 0 0 1 2.695-3.58z"/></g><path d="M2.139 47.926h41.948a2.139 2.139 0 0 1 0 4.277H2.139a2.139 2.139 0 0 1 0-4.277zM140.746 47.926h6.296a2.139 2.139 0 0 1 0 4.277h-6.296a2.139 2.139 0 0 1 0-4.277z" stroke-opacity=".85" stroke="#000" stroke-width="1.5" fill="#FFF"/><ellipse stroke-opacity=".85" stroke="#000" stroke-width="1.5" fill="#FFF" cx="57.913" cy="49.186" rx="6.832" ry="8.97"/><ellipse stroke-opacity=".85" stroke="#000" stroke-width="1.5" fill="#9598B4" cx="57.913" cy="49.186" rx="3.819" ry="5.015"/><ellipse stroke-opacity=".85" stroke="#000" stroke-width="1.5" fill="#FFF" cx="57.234" cy="49.186" rx="3.171" ry="5.015"/><ellipse stroke-opacity=".85" stroke="#000" stroke-width="1.5" fill="#FFF" cx="125.063" cy="49.186" rx="6.832" ry="8.97"/><ellipse stroke-opacity=".85" stroke="#000" stroke-width="1.5" fill="#9598B4" cx="125.267" cy="49.186" rx="3.819" ry="5.015"/><ellipse stroke-opacity=".85" stroke="#000" stroke-width="1.5" fill="#FFF" cx="124.619" cy="49.186" rx="3.171" ry="5.015"/><ellipse stroke-opacity=".85" stroke="#000" stroke-width="1.5" fill="#FFF" cx="11.411" cy="36.176" rx="2.792" ry="2.97"/><ellipse stroke-opacity=".85" stroke="#000" stroke-width="1.5" fill="#FFF" cx="39.721" cy="36.176" rx="2.792" ry="2.97"/><path d="M62.185 26.727l6.645.409a2.641 2.641 0 0 1 2.479 2.636 2.484 2.484 0 0 1-2.484 2.483H62.19a2.851 2.851 0 0 1-2.851-2.85 2.682 2.682 0 0 1 2.846-2.678z" stroke-opacity=".85" stroke="#000" stroke-width="1.5" fill="#FFF"/></g><path d="M125.736 248.677h51.927M85.925 231.368h91.682M85.925 237.137h91.682M85.925 241.932l91.738.975M130.545 254.446h47.118M130.051 260.216h47.612" stroke-opacity=".85" stroke="#000" stroke-width="1.5" fill="#FFF"/></g></g></svg>