<svg width="1033" height="554" viewBox="0 0 1033 554" xmlns="http://www.w3.org/2000/svg" xmlns:xlink="http://www.w3.org/1999/xlink"><title>pi-icon-1</title><defs><path d="M0 26.792l19.528-14.615L54.76 59.832C68.594 36.438 77.913 21.907 82.716 16.24c4.803-5.668 11.526-10.07 20.171-13.208 6.282 6.465 11.172 9.514 14.67 9.146 3.5-.367 6.857-4.426 10.075-12.177l28.848 8.409 11.182 13.695 16.355 55.35c-1.766 19.415-3.366 33.32-4.8 41.711-1.434 8.393-3.483 15.84-6.147 22.342l-18.126 7.178v-9.898l-43.966 5.174-31.84-7.85 3.578-63.254C70.896 89.6 62.56 98.668 57.708 100.062c-5.69 1.635-10.496-6.984-15.016-10.817C32.392 80.51 18.162 59.693 0 26.792z" id="a"/><path id="c" d="M0 0h67.959v216.606H12.98z"/></defs><g fill="none" fill-rule="evenodd"><path d="M95.037 554c-11.055-157.518 22.892-228.811 101.842-213.88 118.423 22.396 252.456 47.709 375.173-131.578C694.769 29.256 855.29 178.037 855.29 314.612c0 91.049-13.313 169.889-39.938 236.518L95.037 554z" fill="#FFD9A3" opacity=".1"/><path d="M721.974 552.484c-27.473-41.944-31.728-67.335-12.765-76.173 28.445-13.257 31.45 41.363 58.25 22.983 26.802-18.38 27.453-70.283 52.27-70.283 24.818 0 22.12 25.92 49.213 42.696 27.093 16.776 17.882 59.067 48.04 34.137 30.157-24.93 53.918 4.57 33.608 46.64" fill="#FFD9A3"/><path d="M703.56 552.484c-27.473-41.944-31.728-67.335-12.765-76.173 28.445-13.257 31.45 41.363 58.251 22.983 26.802-18.38 27.453-70.283 52.27-70.283 24.817 0 22.119 25.92 49.212 42.696 27.093 16.776 17.882 59.067 48.04 34.137 30.157-24.93 53.918 4.57 33.609 46.64" stroke-opacity=".85" stroke="#000" stroke-width="1.5"/><path d="M68.295 552.484C40.82 510.54 36.566 485.15 55.529 476.311c28.445-13.257 31.45 41.363 58.251 22.983 26.802-18.38 27.453-70.283 52.27-70.283 24.817 0 22.119 25.92 49.212 42.696 27.093 16.776 17.883 59.067 48.04 34.137s53.918 4.57 33.609 46.64" fill="#FFD9A3"/><path d="M49.881 552.484c-27.473-41.944-31.728-67.335-12.765-76.173 28.445-13.257 31.45 41.363 58.25 22.983 26.802-18.38 27.454-70.283 52.27-70.283 24.818 0 22.12 25.92 49.213 42.696 27.093 16.776 17.882 59.067 48.04 34.137 30.157-24.93 53.918 4.57 33.608 46.64" stroke-opacity=".85" stroke="#000" stroke-width="1.5"/><g><g transform="translate(751.068 1)"><path d="M32.594 0c18.001 0 32.594 15.61 32.594 34.864 0 9.435-3.504 17.995-9.195 24.272l-.352.381L32.594 84.17 9.547 59.517l-.352-.381C3.504 52.859 0 44.299 0 34.864 0 15.61 14.593 0 32.594 0z" fill="#FF5320"/><path d="M34.864 0C54.12 0 69.728 15.61 69.728 34.864c0 9.435-3.747 17.995-9.835 24.272l-.376.381L34.864 84.17 10.212 59.517l-.376-.381C3.748 52.859 0 44.299 0 34.864 0 15.61 15.61 0 34.864 0z" stroke="#000" stroke-width="1.5" stroke-linecap="round" stroke-linejoin="round"/><circle stroke="#000" stroke-width="1.5" fill="#FFF" stroke-linecap="round" stroke-linejoin="round" cx="34.864" cy="35.95" r="9.586"/></g><g transform="translate(710.421 91.504)"><path stroke-opacity=".85" stroke="#000" stroke-width="1.5" fill="#FFF" d="M176.9 240.628l6.494-3.75 16.788 29.077-6.495 3.75z"/><g transform="translate(13.754 81.713)"><mask id="b" fill="#fff"><use xlink:href="#a"/></mask><g mask="url(#b)" fill="#FFA320"><path d="M52.079 145.398l-2.342-2.342a2.68 2.68 0 0 0-3.79 0l-5.077 5.078a2.68 2.68 0 0 0 0 3.789l2.342 2.342a2.68 2.68 0 0 0 3.789 0l5.078-5.078a2.68 2.68 0 0 0 0-3.79zM124.924 151.529l-2.342-2.342a2.68 2.68 0 0 0-3.789 0l-5.078 5.078a2.68 2.68 0 0 0 0 3.789l2.342 2.342a2.68 2.68 0 0 0 3.79 0l5.077-5.078a2.68 2.68 0 0 0 0-3.79zM24.246 117.114l-2.342-2.342a2.68 2.68 0 0 0-3.79 0l-5.077 5.078a2.68 2.68 0 0 0 0 3.789l2.342 2.342a2.68 2.68 0 0 0 3.789 0l5.078-5.078a2.68 2.68 0 0 0 0-3.79z"/></g></g><g transform="translate(105.762 219.996)"><mask id="d" fill="#fff"><use xlink:href="#c"/></mask><use fill="#113283" xlink:href="#c"/><path fill="#052166" mask="url(#d)" d="M27.356 24.007l-3.88 196.62 11.334-3.806z"/><path fill="#052166" mask="url(#d)" d="M.607 108.303H82.78l-2.7-18.889h-84.64z"/></g><path d="M96.754 143.397l-4.435 74.597c19.163 4.484 33.174 6.726 42.035 6.726 8.861 0 21.408-1.407 37.642-4.22M139.448 67.402V83.8c0 5.717-4.636 10.352-10.353 10.352-5.718 0-10.353-4.635-10.353-10.352v-6.297" stroke="#000" stroke-width="1.5" stroke-linecap="round" stroke-linejoin="round"/><path d="M128.26 74.466a20.608 20.608 0 0 1-10.801 3.037c-11.435 0-20.705-9.27-20.705-20.705v-19.9" stroke="#000" stroke-width="1.5" stroke-linecap="round" stroke-linejoin="round"/><path d="M144.112 46.447c2.854-16.157-.03-23.553-8.655-22.187-1.168-12.238-6.992-17.901-17.471-16.99-15.719 1.367-25.569-1.535-31.663 3.035-11.592 8.691-6.057 29.527 8.97 27.147 22.927-3.632 36.213-7.908 38.17-3.188 1.958 4.721-2.602 18.923 2.233 20.048 1.967.458 1.038-1.79 2.264-5.08.522-1.401 2.573-2.33 6.152-2.785z" fill="#000"/><path d="M139.448 68.65V57.24l3.25-.04a5.684 5.684 0 1 0 0-11.368M139.654 80.218l26.645 7.183a21 21 0 0 1 14.599 14.078l16.088 52.083a35.5 35.5 0 0 1 1.064 16.517l-8.619 49.917-21.833-1.965 3.711-41.916a34.5 34.5 0 0 0-.7-10.588l-10.988-49.02M100.214 220.5l12.292 216.102h31.409" stroke="#000" stroke-width="1.5" stroke-linecap="round" stroke-linejoin="round"/><path stroke="#000" stroke-width="1.5" stroke-linecap="round" stroke-linejoin="round" d="M171.996 219.996l-.25 216.606H139.4l-6.283-195.147"/><path d="M116.675 436.602a7.538 7.538 0 0 1-7.539 7.538H92.882a8.313 8.313 0 0 0-8.313 8.314v5.813a2.5 2.5 0 0 0 2.5 2.5h50.08v-24.165h-20.474z" stroke="#000" stroke-width="1.5" fill="#FFF" stroke-linecap="round" stroke-linejoin="round"/><path d="M149.164 436.602a7.538 7.538 0 0 1-7.538 7.538h-17.524a8.313 8.313 0 0 0-8.313 8.314v5.813a2.5 2.5 0 0 0 2.5 2.5h55.829l-3.67-24.165h-21.284z" stroke="#000" stroke-width="1.5" fill="#FFF" stroke-linecap="round" stroke-linejoin="round"/><path d="M118.742 81.248l-16.436 6.89A26 26 0 0 0 89.858 99.09l-24.012 41.474L31.493 91.52l-18.544 15.388c30.716 52.712 50.077 77.589 58.083 74.63 8.006-2.957 16.58-15.671 25.722-38.14" stroke="#000" stroke-width="1.5" stroke-linecap="round" stroke-linejoin="round"/><path stroke-opacity=".85" stroke="#000" stroke-width="1.5" fill="#FFF" d="M175.91 240.628l-6.494-3.75-16.787 29.077 6.494 3.75z"/><path d="M169.576 218.212c-5.271 11.765-7.001 18.733-5.191 20.904 2.715 3.255 21.233 3.83 24.745 2.578 2.341-.834 1.429-4.309-2.737-10.423v-11.484l-16.817-1.575z" stroke="#000" stroke-width="1.5" fill="#FFF" stroke-linecap="round" stroke-linejoin="round"/><path d="M30.615 92.382c-.745-11.783-2.593-17.674-5.545-17.674-4.428 0-18.787-19.65-21.168-14.172-2.38 5.48-5.624 15.47-2.812 20.054 1.875 3.056 7.905 10.187 18.09 21.393l11.435-9.601z" stroke="#000" stroke-width="1.5" stroke-linecap="round" stroke-linejoin="round"/><path d="M107.062 261.318h116.172c6.241 0 8.504.65 10.786 1.87a12.721 12.721 0 0 1 5.292 5.292c1.22 2.282 1.87 4.545 1.87 10.786v35.984c0 1.783-.186 2.43-.535 3.082a3.635 3.635 0 0 1-1.512 1.512c-.651.348-1.298.534-3.081.534H97.447c-1.783 0-2.43-.186-3.081-.534a3.635 3.635 0 0 1-1.513-1.512c-.348-.652-.534-1.299-.534-3.082v-39.19c0-5.125.534-6.984 1.536-8.858a10.45 10.45 0 0 1 4.347-4.348c1.874-1.002 3.733-1.536 8.86-1.536z" stroke-opacity=".85" stroke="#000" stroke-width="1.5" fill="#FFF"/><path d="M142.813 261.318h58.321c11.841 0 21.44 9.6 21.44 21.44v17.44a4 4 0 0 1-4 4h-59.96a4 4 0 0 1-4-4V283.45a26.654 26.654 0 0 0-11.8-22.133z" fill="#FFA320"/><path d="M137.15 261.318h58.321c11.84 0 21.44 9.6 21.44 21.44v17.44a4 4 0 0 1-4 4h-59.96a4 4 0 0 1-4-4V283.45a26.654 26.654 0 0 0-11.801-22.133z" stroke-opacity=".85" stroke="#000" stroke-width="1.5"/><path fill="#FFA320" d="M106.369 261.318h8.82v46.115h-8.82z"/><path d="M110.779 261.318c10.195 0 18.46 8.265 18.46 18.46v36.6a4 4 0 0 1-4 4h-28.92a4 4 0 0 1-4-4v-36.6c0-10.195 8.265-18.46 18.46-18.46z" stroke-opacity=".85" stroke="#000" stroke-width="1.5"/><rect fill="#FFF" x="175.561" y="290.848" width="14.833" height="6.877" rx="2.125"/></g><g transform="translate(154.407 238.744)"><path d="M148.015 185.756L218.28 14.368a14.5 14.5 0 0 1 13.416-9h204.072a14.5 14.5 0 0 1 13.902 10.38l61.863 208.725-363.518-38.717z" fill="#FFD9A3"/><path d="M150.063 147.751l-18.546-2.853c-8.39-1.29-16.237 4.464-17.528 12.854a15.37 15.37 0 0 0-.179 2.337c0 9.894 12.915 17.915 22.81 17.915l13.443-30.253z" stroke-opacity=".85" stroke="#000" stroke-width="1.5" fill="#FFF"/><ellipse stroke-opacity=".85" stroke="#000" stroke-width="1.5" fill="#FFF" cx="272.785" cy="265.745" rx="43.861" ry="46.641"/><g transform="translate(53.64 219.105)" fill="#FFF" stroke="#000" stroke-opacity=".85" stroke-width="1.5"><ellipse cx="43.861" cy="46.641" rx="43.861" ry="46.641"/><ellipse cx="52.2" cy="46.641" rx="35.521" ry="46.641"/></g><g transform="translate(286.684 219.105)" fill="#FFF" stroke="#000" stroke-opacity=".85" stroke-width="1.5"><ellipse cx="43.861" cy="46.641" rx="43.861" ry="46.641"/><ellipse cx="52.2" cy="46.641" rx="35.521" ry="46.641"/></g><path d="M136.05 180.387L209.951 8.765A14.5 14.5 0 0 1 223.27 0h215.709a14.5 14.5 0 0 1 13.845 10.19l65.034 208.915-381.807-38.718z" stroke-opacity=".85" stroke="#000" stroke-width="1.5"/><path d="M142.228 191.507l73.9-171.622a14.5 14.5 0 0 1 13.318-8.765h80.099a8 8 0 0 1 7.737 10.035l-53.37 202.885-121.684-32.533zM418.412 190.687L435.999 27.17c.857-7.962-4.904-15.11-12.866-15.967a14.5 14.5 0 0 0-1.55-.083h-79.397a14.5 14.5 0 0 0-14.09 11.075L281.124 215.43l137.288-24.743z" stroke-opacity=".85" stroke="#000" stroke-width="1.5" fill="#FFF"/><ellipse stroke-opacity=".85" stroke="#000" stroke-width="1.5" fill="#FFF" cx="451.934" cy="265.745" rx="43.861" ry="46.641"/><path d="M107.839 165.978h417.859a21.474 21.474 0 0 1 20.62 15.48l18.403 63.306c3.31 11.388-3.238 23.304-14.626 26.614a21.474 21.474 0 0 1-5.994.854H76.586c-14.403 0-26.522-10.791-28.186-25.099l-6.651-57.202" stroke-opacity=".85" stroke="#000" stroke-width="1.5" fill="#FFF"/><path d="M47.017 173.647h476.622a14 14 0 0 1 13.443 10.092l22.749 78.254c2.158 7.425-2.111 15.193-9.536 17.351a14 14 0 0 1-3.908.557H60.123c-9.39 0-17.292-7.035-18.376-16.363l-8.637-74.274c-.893-7.68 4.61-14.63 12.29-15.524a14 14 0 0 1 1.617-.093z" fill="#FFA320"/><rect fill="#FFF" x="372.721" y="198.631" width="26.586" height="12.271" rx="4"/><path d="M290.477 176.954l-9.353 38.476m134.22-204.183a22.24 22.24 0 0 0-2.38-.127M420.564 165.978L409.43 243.49a11 11 0 0 1-10.888 9.436H295.99" stroke-opacity=".85" stroke="#000" stroke-width="1.5"/><path d="M32.122 173.647H219.49a14 14 0 0 1 13.883 12.194l10.176 78.255c.997 7.667-4.41 14.691-12.078 15.688a14 14 0 0 1-1.805.117H47.315c-9.196 0-16.996-6.755-18.31-15.857l-10.74-74.397c-1.104-7.653 4.204-14.752 11.857-15.857a14 14 0 0 1 2-.143z" fill="#F68B0F"/><path d="M520.445 183.893h37.578a4 4 0 0 1 4 4v20.416a4 4 0 0 1-4 4h-34.037a4 4 0 0 1-3.941-3.316l-3.541-20.417a4 4 0 0 1 3.94-4.683z" fill="#FEDB3D"/><path d="M516.61 183.893h37.578a4 4 0 0 1 4 4v20.416a4 4 0 0 1-4 4h-34.037a4 4 0 0 1-3.94-3.316l-3.542-20.417a4 4 0 0 1 3.941-4.683zM530.698 191.522h27.49M545.27 199.19h12.151M23.935 165.978h180a14 14 0 0 1 13.914 12.448l9.233 82.82c.857 7.684-4.678 14.608-12.362 15.465a14 14 0 0 1-1.551.086H37.194c-9.424 0-17.342-7.084-18.386-16.45l-8.787-78.818c-.857-7.685 4.678-14.608 12.362-15.465a14 14 0 0 1 1.552-.086z" stroke-opacity=".85" stroke="#000" stroke-width="1.5"/><g transform="translate(161.67 231.609)"><rect fill="#FEDB3D" x="3.068" width="23.774" height="9.203" rx="3"/><rect stroke-opacity=".85" stroke="#000" stroke-width="1.5" width="23.774" height="9.203" rx="3"/></g><g transform="translate(38.964 231.609)"><rect fill="#FEDB3D" x="3.068" width="23.774" height="9.203" rx="3"/><rect stroke-opacity=".85" stroke="#000" stroke-width="1.5" width="23.774" height="9.203" rx="3"/></g><g stroke="#000" stroke-opacity=".85" stroke-width="1.5"><path d="M65.534 185.15h89.493a7 7 0 0 1 6.73 8.926l-6.647 23.232a7 7 0 0 1-6.73 5.074H73.243a7 7 0 0 1-6.643-4.795l-7.71-23.232a7 7 0 0 1 6.644-9.204z" fill="#FFF"/><path d="M75.445 185.15h79.916a7 7 0 0 1 6.794 8.687l-5.766 23.231a7 7 0 0 1-6.794 5.314H82.132a7 7 0 0 1-6.726-5.063l-6.688-23.232a7 7 0 0 1 6.727-8.936z" fill="#FFF"/><path d="M70.509 193.5h90.343M75.425 214.973l80.753.457M71.276 204.236h87.536"/></g><path d="M9 259.196h222.352a9 9 0 0 1 9 9v4.239a9 9 0 0 1-9 9H9a9 9 0 0 1-9-9v-4.24a9 9 0 0 1 9-9zM539.698 259.196h36.98a9 9 0 0 1 9 9v4.239a9 9 0 0 1-9 9h-36.98a9 9 0 0 1-9-9v-4.24a9 9 0 0 1 9-9z" stroke-opacity=".85" stroke="#000" stroke-width="1.5" fill="#FFF"/><ellipse stroke-opacity=".85" stroke="#000" stroke-width="1.5" fill="#FFF" cx="281.124" cy="265.745" rx="35.521" ry="46.641"/><ellipse stroke-opacity=".85" stroke="#000" stroke-width="1.5" fill="#9598B4" cx="281.124" cy="265.745" rx="19.859" ry="26.075"/><ellipse stroke-opacity=".85" stroke="#000" stroke-width="1.5" fill="#FFF" cx="277.592" cy="265.745" rx="16.489" ry="26.075"/><ellipse stroke-opacity=".85" stroke="#000" stroke-width="1.5" fill="#FFF" cx="460.274" cy="265.745" rx="35.521" ry="46.641"/><ellipse stroke-opacity=".85" stroke="#000" stroke-width="1.5" fill="#9598B4" cx="461.336" cy="265.745" rx="19.859" ry="26.075"/><ellipse stroke-opacity=".85" stroke="#000" stroke-width="1.5" fill="#FFF" cx="457.967" cy="265.745" rx="16.489" ry="26.075"/><ellipse stroke-opacity=".85" stroke="#000" stroke-width="1.5" fill="#FFF" cx="39.334" cy="198.101" rx="14.517" ry="15.444"/><ellipse stroke-opacity=".85" stroke="#000" stroke-width="1.5" fill="#FFF" cx="43.498" cy="198.101" rx="10.353" ry="15.444"/><ellipse stroke-opacity=".85" stroke="#000" stroke-width="1.5" fill="#FFF" cx="186.534" cy="198.101" rx="14.517" ry="15.444"/><ellipse stroke-opacity=".85" stroke="#000" stroke-width="1.5" fill="#FFF" cx="190.697" cy="198.101" rx="10.353" ry="15.444"/><path d="M462.356 93.657l18.033 58a2 2 0 0 1-1.91 2.594h-22.022a2 2 0 0 1-1.996-2.137l3.99-58a2 2 0 0 1 3.905-.457z" fill="#FFF"/><path d="M458.307 93.657l18.033 58a2 2 0 0 1-1.91 2.594h-22.022a2 2 0 0 1-1.995-2.137l3.989-58a2 2 0 0 1 3.905-.457z" stroke-opacity=".85" stroke="#000" stroke-width="1.5"/><path d="M291.241 147.794l41.708-4.14c8.917-.885 16.863 5.627 17.748 14.544.053.532.08 1.067.08 1.602 0 9.894-8.021 17.915-17.916 17.915h-41.324a3 3 0 0 1-3-3V150.78a3 3 0 0 1 2.704-2.986z" stroke-opacity=".85" stroke="#000" stroke-width="1.5" fill="#FFF"/></g><g transform="translate(382.948 43.18)"><path stroke-opacity=".85" stroke="#000" stroke-width="1.5" d="M0 0h128.842v47.41H0z"/><path d="M46.782 17.186h28.61" stroke="#FFA320" stroke-width="1.5"/><circle fill="#FFA320" cx="24.141" cy="23.705" r="12.637"/><path d="M46.782 30.224h59.287" stroke="#FFA320" stroke-width="1.5"/></g><path fill="#FFA320" d="M488.193 133.677H646.59v58.285H488.193z"/><path stroke-opacity=".85" stroke="#000" stroke-width="1.5" fill="#FFF" d="M484.358 130.609h158.397v58.285H484.358z"/><g fill="#010202" fill-rule="nonzero"><path d="M529.273 165.488c.326.866.778 1.607 1.356 2.222a5.836 5.836 0 0 0 2.053 1.413c.791.327 1.652.49 2.581.49.904 0 1.752-.17 2.543-.509a6.256 6.256 0 0 0 2.072-1.431 6.49 6.49 0 0 0 1.375-2.204c.327-.854.49-1.808.49-2.863V146.33h3.956v26.371h-3.918v-2.449a9.082 9.082 0 0 1-3.109 2.148c-1.193.502-2.48.753-3.861.753-1.407 0-2.719-.245-3.937-.735a9.218 9.218 0 0 1-3.165-2.09c-.891-.905-1.594-1.99-2.11-3.26-.514-1.267-.772-2.68-.772-4.237V146.33h3.956v16.275c0 1.055.163 2.015.49 2.882zM552.517 146.33v9.607a10.077 10.077 0 0 1 3.052-2.09c1.155-.515 2.41-.773 3.767-.773 1.407 0 2.725.264 3.956.791a10.107 10.107 0 0 1 3.202 2.148c.904.904 1.62 1.971 2.147 3.202a9.842 9.842 0 0 1 .791 3.918 9.707 9.707 0 0 1-.79 3.9 10.162 10.162 0 0 1-2.148 3.182 10.107 10.107 0 0 1-3.202 2.148 9.935 9.935 0 0 1-3.956.791c-1.356 0-2.618-.257-3.786-.772a10.008 10.008 0 0 1-3.07-2.091v2.411h-3.768v-26.371h3.805zm.433 19.402c.34.804.81 1.507 1.413 2.11a6.817 6.817 0 0 0 2.11 1.432c.804.351 1.67.527 2.6.527.904 0 1.757-.176 2.561-.527a6.59 6.59 0 0 0 2.091-1.432 6.987 6.987 0 0 0 1.413-2.11c.351-.803.527-1.67.527-2.599 0-.93-.176-1.802-.527-2.618a6.924 6.924 0 0 0-1.413-2.129 6.343 6.343 0 0 0-2.09-1.413 6.524 6.524 0 0 0-2.563-.508 6.559 6.559 0 0 0-4.672 1.921 6.758 6.758 0 0 0-1.43 2.129 6.547 6.547 0 0 0-.528 2.618c0 .93.17 1.796.508 2.6zM571.58 159.253a10.25 10.25 0 0 1 2.071-3.184 9.627 9.627 0 0 1 3.127-2.166c1.206-.527 2.512-.791 3.918-.791 1.382 0 2.663.251 3.843.753a9.114 9.114 0 0 1 3.052 2.091 9.557 9.557 0 0 1 1.996 3.165c.478 1.218.716 2.543.716 3.975v1.243H574.67a6.53 6.53 0 0 0 2.166 3.9c.565.489 1.205.872 1.921 1.148a6.275 6.275 0 0 0 2.28.414c2.285 0 4.131-.942 5.538-2.825l2.75 2.034a10.232 10.232 0 0 1-3.541 3.014c-1.407.728-2.99 1.093-4.747 1.093-1.432 0-2.77-.252-4.013-.754a9.77 9.77 0 0 1-3.24-2.11 10.009 10.009 0 0 1-2.166-3.183c-.527-1.218-.79-2.543-.79-3.975 0-1.356.25-2.637.752-3.842zm5.293-1.488c-1.068.891-1.777 2.078-2.129 3.56h11.717c-.327-1.482-1.024-2.669-2.091-3.56-1.068-.892-2.317-1.338-3.749-1.338-1.431 0-2.681.446-3.748 1.338zM597.423 158.198c-.803.879-1.205 2.072-1.205 3.579v10.925h-3.805V153.49h3.767v2.373a5.355 5.355 0 0 1 1.865-1.846c.766-.452 1.676-.678 2.731-.678h1.319v3.541h-1.583c-1.255 0-2.285.44-3.089 1.319z"/></g><g><path stroke-opacity=".85" stroke="#000" stroke-width="1.5" d="M249.888 150.932h84.36v82.06h-84.36z"/><g transform="translate(262.159 164.928)"><circle fill="#FFA320" cx="29.643" cy="12.637" r="12.637"/><path d="M15.338 48.7h28.61M0 38.73h59.287" stroke="#FFA320" stroke-width="1.5"/></g></g></g><path d="M.404 553h1032.363" stroke-opacity=".85" stroke="#000" stroke-width="1.5"/></g></svg>