<svg width="775" height="491" viewBox="0 0 775 491" xmlns="http://www.w3.org/2000/svg" xmlns:xlink="http://www.w3.org/1999/xlink"><title>pi-icon-3</title><defs><path d="M0 57.664l20.164-15.09L46.54 61.779C60.826 37.624 70.448 22.62 75.407 16.768 80.367 10.915 87.31 6.369 96.235 3.13c6.486 6.675 11.536 9.823 15.148 9.444 3.612-.38 7.08-4.57 10.402-12.574l29.786 8.683 11.547 14.14 16.886 57.15c-1.823 20.048-3.475 34.404-4.956 43.07-1.48 8.665-3.596 16.354-6.347 23.068l-18.715 7.412v-10.22l-45.397 5.343-32.875-8.105 3.693-65.314c-12.204 17.288-20.81 26.651-25.82 28.09-5.877 1.689-10.84-7.21-15.506-11.168C23.447 83.13 12.086 71.635 0 57.664z" id="a"/><path id="c" d="M0 0h70.17v223.654H13.403z"/></defs><g fill="none" fill-rule="evenodd"><path d="M14.199 490.028C3.144 332.51 37.092 261.217 116.04 276.148c118.424 22.396 252.456 47.709 375.173-131.578 122.717-179.286 283.238-30.505 283.238 106.07 0 91.049-13.313 169.889-39.938 236.518L14.2 490.028z" fill="#FFD9A3" opacity=".1"/><g transform="translate(109 78)"><path d="M185.029 123.904a7 7 0 0 1 7 7v73.246a7 7 0 0 1-7 7h-85.12a7 7 0 0 1-6.955-6.203l-8.395-73.246a7 7 0 0 1 6.955-7.797h25.389" stroke="#000" stroke-width="1.5" fill="#FFF" stroke-linecap="round" stroke-linejoin="round"/><path d="M185.95 123.904a7 7 0 0 1 7 7v.08l-.843 74.245a7 7 0 0 1-7 6.92h-75.12a7 7 0 0 1-6.963-6.289l-7.572-74.246a7 7 0 0 1 6.964-7.71h14.191" stroke="#000" stroke-width="1.5" fill="#FFF" stroke-linecap="round" stroke-linejoin="round"/><rect fill="#FFD9A3" x="245.142" y="186.619" width="100" height="9.889" rx="4.944"/><rect stroke="#000" stroke-width="1.5" stroke-linecap="round" stroke-linejoin="round" x="242.142" y="186.619" width="100" height="9.889" rx="4.944"/><path d="M200.621 34.411l-6.436-3.217c-5.764 3.22-10.086 5.293-12.968 6.222-2.882.928-8.35 2.077-16.406 3.446-.204 9.329-1.068 14.18-2.593 14.556-1.525.376-2.563-3.774-3.113-12.45-1.65-.248-2.867-.248-3.651 0-.785.246-1.768.939-2.951 2.077l-1.328 4.829 2.635 3.981H159.732v26.173l2.486 24.563c-21.34 6.037-32.955 5.796-34.846-.722-2.837-9.777 4.171-18.49 13.077-40.244 8.906-21.753-.642-42.313 10.085-51.172 7.15-5.906 12.714-7.148 16.689-3.726 12.434-6.13 22.477-7.587 30.13-4.372 11.478 4.821 17.14 24.766 14.465 36.507-2.676 11.742-6.817 32.28-3.711 46.348 3.105 14.068 3.346 16.124 0 21.904-2.231 3.853-11.932 4.841-29.103 2.963l.558-32.747-.558-6.03h4.203l6.155-1.852 4.113-2.144 7.146-11.796V34.41z" fill="#000"/><path d="M166.42 70.587l-26.856 14.005a21 21 0 0 0-10.683 13.607l-12.923 52.566 16.63-.04 10.554 18.657-3.098 46.33 85.276-.67v-68.084l20.18-13.308-29.408-44.791a19 19 0 0 0-10.976-7.928l-38.695-10.344z" fill="#FFA320"/><path d="M160.42 70.587l-26.856 14.005a21 21 0 0 0-10.683 13.607l-12.923 52.566 16.63-.04 10.554 18.657-4 46.33 86.178-.67v-68.084l20.18-13.308-29.408-44.791a19 19 0 0 0-10.976-7.928l-38.695-10.344z" stroke="#000" stroke-width="1.5" stroke-linecap="round" stroke-linejoin="round"/><g stroke="#000" stroke-linecap="round" stroke-linejoin="round" stroke-width="1.5"><path d="M159.732 63.625v8.705c0 5.476 4.44 9.915 9.915 9.915 5.476 0 9.915-4.44 9.915-9.915v.97" fill="#FFF"/><path d="M170.447 70.39a19.737 19.737 0 0 0 10.344 2.91c10.952 0 19.83-8.879 19.83-19.83V34.41" fill="#FFF"/><path d="M159.732 64.82V53.893l-3.113-.038a5.444 5.444 0 1 1 0-10.888"/></g><ellipse stroke="#000" stroke-width="1.5" fill="#FFF" stroke-linecap="round" stroke-linejoin="round" cx="156.422" cy="47.815" rx="8.58" ry="11.548"/><path d="M156.422 53.893l11.502 6.832a39.019 39.019 0 0 0 19.926 5.472" stroke="#000" stroke-width="1.5" stroke-linecap="round" stroke-linejoin="round"/><ellipse stroke="#000" stroke-width="1.5" fill="#FFF" stroke-linecap="round" stroke-linejoin="round" cx="152.712" cy="47.815" rx="8.58" ry="11.548"/><path fill="#FFF" d="M149.93 38.989v-18.85l4.481-11.413 6.329-6.03L167.525.47 173.034 0l-2.587 2.098-4.573 2.61-3.123 2.7-2.701 3.09-2.4 4.935-1.228 4.407V38.99z"/><path d="M156.422 38.989v-16.47c0-12.24 9.86-22.194 22.1-22.31l15.126-.143a6.908 6.908 0 0 1 6.973 6.907" stroke="#000" stroke-width="1.5" stroke-linecap="round" stroke-linejoin="round"/><path d="M149.93 38.989v-16.47c0-12.24 9.86-22.194 22.099-22.31l15.127-.143a6.908 6.908 0 0 1 6.972 6.907" stroke="#000" stroke-width="1.5" stroke-linecap="round" stroke-linejoin="round"/><rect stroke="#000" stroke-width="1.5" fill="#FFF" stroke-linecap="round" stroke-linejoin="round" x="184.017" y="63.625" width="8.348" height="5.013" rx="2.507"/><g transform="translate(0 196.845)"><rect stroke="#000" stroke-width="1.5" fill="#FFF" stroke-linecap="round" stroke-linejoin="round" transform="matrix(-1 0 0 1 478.315 0)" width="478.315" height="15.702" rx="7.727"/><path d="M144.464 0H7.727A7.727 7.727 0 0 0 0 7.727v.249a7.727 7.727 0 0 0 7.727 7.726h136.737a7.727 7.727 0 0 0 7.727-7.726v-.25A7.727 7.727 0 0 0 144.464 0z" stroke="#000" stroke-width="1.5" fill="#FFF" stroke-linecap="round" stroke-linejoin="round"/><path d="M128.842 15.702h332.163V203c0 6.627-5.373 12-12 12H128.842V15.702z" fill="#FFD9A3"/><path d="M138.842 15.702h332.163V203c0 6.627-5.373 12-12 12H138.842V15.702z" stroke="#000" stroke-width="1.5" stroke-linecap="round" stroke-linejoin="round"/><path d="M8.44 15.702h130.45V215H20.44c-6.627 0-12-5.373-12-12V15.702z" stroke="#000" stroke-width="1.5" stroke-linecap="round" stroke-linejoin="round"/></g><path d="M231.097 87.845h130.577a6 6 0 0 1 5.965 6.647l-9.757 90a6 6 0 0 1-5.965 5.353H221.34a6 6 0 0 1-5.965-6.647l9.757-90a6 6 0 0 1 5.965-5.353z" stroke="#000" stroke-width="1.5" fill="#FFF" stroke-linecap="round" stroke-linejoin="round"/><path d="M282.336 160.654h21.884a2 2 0 0 1 1.927 1.463l8.884 31.854a2 2 0 0 1-1.926 2.537h-21.85a2 2 0 0 1-1.925-1.46l-8.92-31.855a2 2 0 0 1 1.926-2.539zM213.92 196.975c0-5.461-4.428-9.888-9.889-9.888-5.461 0-9.889 4.427-9.889 9.888h19.777z" stroke="#000" stroke-width="1.5" fill="#FFF" stroke-linecap="round" stroke-linejoin="round"/><path d="M114.384 150.726l-1.224 5.055c-1.817 7.5 2.355 15.156 9.642 17.695l53.34 18.588 11.887 4.781c10.483.733 16.346.14 17.59-1.78 1.531-2.362-2.743-9.808-4.998-10.551-3.027-.998-8.187-2.108-15.479-3.33l-45.75-30.458h-25.008z" stroke="#000" stroke-width="1.5" fill="#FFF" stroke-linecap="round" stroke-linejoin="round"/><path d="M296.948 144.585c4.694 0 9.008-5.2 9.635-11.614.627-6.415-2.67-11.614-7.364-11.614-4.695 0-9.009 5.2-9.636 11.614-.627 6.414 2.67 11.614 7.365 11.614z" fill="#FFD9A3"/><path d="M294.948 144.585c4.694 0 9.008-5.2 9.635-11.614.627-6.415-2.67-11.614-7.364-11.614-4.695 0-9.009 5.2-9.636 11.614-.627 6.414 2.67 11.614 7.365 11.614zM147.55 121.357l-7.506 29.369" stroke="#000" stroke-width="1.5" stroke-linecap="round" stroke-linejoin="round"/><path stroke="#000" stroke-width="1.5" fill="#FFF" stroke-linecap="round" stroke-linejoin="round" d="M172.314 81.293L161.48 96.22l-2.339-22.243zM173.034 80.995l10.983 15.225-3.39-22.243z"/><path d="M213.942 122.987l2.279 53.675" stroke="#000" stroke-width="1.5" stroke-linecap="round" stroke-linejoin="round"/></g><g transform="translate(362 31)"><path stroke-opacity=".85" stroke="#000" stroke-width="1.5" d="M128.842 0v47.41H0V0h100.288"/><text font-family="Helvetica" font-size="9" letter-spacing=".15" fill="#000"><tspan x="46.782" y="20.068">24/7</tspan></text><circle fill="#FFA320" cx="24.141" cy="23.705" r="12.637"/><path d="M46.782 30.224h59.287" stroke="#FFA320" stroke-width="1.5"/></g><g transform="translate(462 1)"><circle fill="#FFD9A3" cx="30.87" cy="26.768" r="26.768"/><circle stroke="#000" stroke-width="1.5" cx="26.768" cy="26.768" r="26.768"/><path stroke-opacity=".85" stroke="#000" stroke-width="1.5" stroke-linecap="round" stroke-linejoin="round" d="M37.235 20L23.701 33.536l-6.768-6.767"/></g><path stroke-opacity=".85" stroke="#000" stroke-width="1.5" d="M86.383 115.383h84.361v82.06h-84.36z"/><g transform="translate(98.654 129.38)"><circle fill="#FFA320" cx="29.643" cy="12.637" r="12.637"/><path d="M15.338 48.7h28.61M0 38.73h59.287" stroke="#FFA320" stroke-width="1.5"/></g><g transform="translate(534 12)"><g transform="translate(13.201 86.371)"><mask id="b" fill="#fff"><use xlink:href="#a"/></mask><path transform="rotate(45 -99.325 126.827)" d="M3.816.418h3.816v11.448H3.816z" mask="url(#b)" fill="#FF5320"/><g transform="matrix(-1 0 0 1 172.015 16.583)" mask="url(#b)"><path fill="#FF5320" d="M108.397 123.201l2.698 2.699-8.095 8.095-2.698-2.699z"/><circle fill="#FFDE20" cx="142.5" cy="50.5" r="4.5"/><circle fill="#FFDE20" cx="123.716" cy="70.546" r="4.5"/><circle fill="#FFDE20" cx="97.716" cy="33.546" r="4.5"/><circle fill="#FFDE20" cx="86.716" cy="4.546" r="4.5"/><circle fill="#FFDE20" cx="60.716" cy="13.546" r="4.5"/><circle fill="#FFDE20" cx="47.716" cy="50.546" r="4.5"/><circle fill="#FFDE20" cx="79.716" cy="67.546" r="4.5"/><circle fill="#FFDE20" cx="31.716" cy="87.546" r="4.5"/><circle fill="#FFDE20" cx="84.716" cy="105.546" r="4.5"/><circle fill="#FFDE20" cx="39.716" cy="115.546" r="4.5"/><circle fill="#FFDE20" cx="11.716" cy="112.546" r="4.5"/><circle fill="#FFDE20" cx="4.716" cy="57.546" r="4.5"/><circle fill="#FFDE20" cx="23.716" cy="15.546" r="4.5"/></g></g><g transform="translate(98.203 229.154)"><mask id="d" fill="#fff"><use xlink:href="#c"/></mask><use fill="#FFA320" xlink:href="#c"/><path fill="#EC9110" mask="url(#d)" d="M28.246 24.788l-4.005 203.017 11.702-3.929z"/></g><path d="M88.902 150.063l-4.579 77.024c19.786 4.63 34.254 6.945 43.403 6.945 9.149 0 22.105-1.453 38.867-4.358M131.668 71.157l1.476 16.866c.514 5.882-3.836 11.066-9.717 11.58-5.882.515-11.066-3.835-11.58-9.716l-.567-6.477" stroke="#000" stroke-width="1.5" stroke-linecap="round" stroke-linejoin="round"/><path d="M120.796 79.43a21.28 21.28 0 0 1-10.837 4.096C98.197 84.555 87.828 75.854 86.8 64.09l-1.791-20.468M131.78 72.44l-1.026-11.735 3.34-.334a5.87 5.87 0 1 0-1.024-11.694" stroke="#000" stroke-width="1.5" stroke-linecap="round" stroke-linejoin="round"/><path d="M134.58 49.183c4.697-20.63 2.671-29.855-6.077-27.674C119 11.98 108.9 8.156 98.203 10.036c-16.045 2.82-28.438 37.387-13.195 33.587 23.257-5.799 35.085-10.693 37.523-6.013 2.438 4.68-.974 19.698 4.1 20.42 2.065.294.907-1.935 1.872-5.429.41-1.488 2.437-2.628 6.078-3.418z" fill="#000"/><path d="M133.198 84.828l27.876 7.515a21 21 0 0 1 14.599 14.078l16.804 54.402a35.5 35.5 0 0 1 1.064 16.518l-8.946 51.813-22.543-2.028 3.847-43.455a34.5 34.5 0 0 0-.701-10.588l-11.384-50.786M92.474 229.674l12.693 223.134h32.43" stroke="#000" stroke-width="1.5" stroke-linecap="round" stroke-linejoin="round"/><path stroke="#000" stroke-width="1.5" stroke-linecap="round" stroke-linejoin="round" d="M166.593 229.154l-.26 223.654h-33.396l-6.487-201.497"/><path d="M115.036 452.808a4.754 4.754 0 0 1-3.664 7.784H98.254a17.283 17.283 0 0 0-14.934 8.583l-2.81 4.826a2.5 2.5 0 0 0 2.16 3.758h47.943v-24.951h-15.577z" stroke="#000" stroke-width="1.5" fill="#FFF" stroke-linecap="round" stroke-linejoin="round"/><path d="M143.018 452.808a7.784 7.784 0 0 1-7.784 7.784H117.38c-5.173 0-9.67 3.551-10.869 8.583l-1.311 5.505a2.5 2.5 0 0 0 2.432 3.08h58.96l-1.598-24.952h-21.976z" stroke="#000" stroke-width="1.5" fill="#FFF" stroke-linecap="round" stroke-linejoin="round"/><path d="M111.606 85.891l-17.233 7.225a26 26 0 0 0-12.448 10.95l-24.937 43.071-25.47-20.64-19.147 15.89c25.048 34.426 41.706 50.113 49.972 47.058 8.267-3.054 17.12-16.181 26.559-39.382" stroke="#000" stroke-width="1.5" stroke-linecap="round" stroke-linejoin="round"/><g transform="translate(.501 75.432)" fill="#FFF" stroke="#000" stroke-linecap="round" stroke-linejoin="round" stroke-width="1.5"><path d="M16.158 26.289c3.9-5.658 6.454-7.55 7.66-5.676 1.207 1.874.472 5.892-2.205 12.054l-5.455-6.378z"/><rect transform="rotate(-30 14.67 22.75)" x="12.171" y="-1" width="5" height="47.5" rx="2.5"/><path d="M9.125 26.29a9.091 9.091 0 0 1 12.143 1.513l.381.445a13.965 13.965 0 0 1 2.138 14.807l-.68 1.513 6.67 7.827-9.922 7.897-8.641-19.149a26.748 26.748 0 0 1-2.09-14.852z"/></g><path d="M164.093 227.312c-5.442 12.148-7.229 19.343-5.36 21.584 2.804 3.361 9.274 8.787 12.9 7.495 2.417-.862 5.692-6.06 9.825-15.595v-11.858l-17.365-1.626z" stroke="#000" stroke-width="1.5" fill="#FFF" stroke-linecap="round" stroke-linejoin="round"/><rect fill="#FFF" x="170.273" y="302.312" width="15.315" height="7.101" rx="2.125"/></g><g><path stroke="#000" stroke-width="1.5" fill="#FFF" stroke-linecap="round" stroke-linejoin="round" d="M50.82 410.934h87.989l-14.544 78.332h-58.9z"/><path d="M78.397 428.462h56.716" stroke="#000" stroke-width="1.5" stroke-linecap="round" stroke-linejoin="round"/><path d="M84.214 410.934c-30.224-20.739-37.276-34.79-21.157-42.152 24.18-11.044-15.461-34.47-9.65-42.881 5.812-8.411 21.862-2.057 30.807 4.26 8.946 6.316 5.628-45.518 35.784-48.065 30.155-2.547-6.33 46.275-2.913 58.202 3.417 11.928 47.69-8.12 23.845 14.861s-2.388 19.153 3.696 22.981c4.056 2.552-.67 13.484-14.18 32.794H84.214z" fill="#FFD9A3"/><path d="M78.397 410.934c-30.224-20.739-37.277-34.79-21.157-42.152 24.179-11.044-15.462-34.47-9.65-42.881 5.811-8.411 21.861-2.057 30.807 4.26 8.946 6.316 5.628-45.518 35.783-48.065 30.156-2.547-6.33 46.275-2.912 58.202 3.417 11.928 47.69-8.12 23.845 14.861s-2.389 19.153 3.696 22.981c4.056 2.552-.67 13.484-14.18 32.794H78.397zM98.676 325.901l-4.927 85.033M96.14 367.329l28.489-12.341M74.56 380.917l20.006 11.513" stroke="#000" stroke-width="1.5" stroke-linecap="round" stroke-linejoin="round"/></g><path d="M1.5 490h741.1" stroke="#000" stroke-width="1.5" stroke-linecap="round" stroke-linejoin="round"/></g></svg>