<svg fill="none" height="24" viewBox="0 0 24 24" width="24" xmlns="http://www.w3.org/2000/svg"><path clip-rule="evenodd" d="m1.0005 0c-.55275 0-1.0005.44775-1.0005.99975v22.00045c0 .552.44775.9998 1.0005.9998h11.7495v-9h-3v-3.75h3v-3c0-3.09975 1.9628-4.62525 4.728-4.62525 1.3245 0 2.463.099 2.7945.1425v3.24l-1.9178.00075c-1.5037 0-1.8547.71475-1.8547 1.76325v2.47875h3.75l-.75 3.75h-3l.06 9h6.4402c.552 0 .9998-.4478.9998-.9998v-22.00045c0-.552-.4478-.99975-.9998-.99975z" fill="#21221f" fill-rule="evenodd"/></svg>