<?xml version="1.0" encoding="UTF-8"?>
<svg width="36px" height="36px" viewBox="0 0 36 36" version="1.1" xmlns="http://www.w3.org/2000/svg" xmlns:xlink="http://www.w3.org/1999/xlink">
    <!-- Generator: Sketch 55.1 (78136) - https://sketchapp.com -->
    <title>Icon</title>
    <desc>Created with Sketch.</desc>
    <g id="🖥--Desktop-Layouts" stroke="none" stroke-width="1" fill="none" fill-rule="evenodd">
        <g id="1.-Layouts-/Mobile/-Features-/-#18-Copy" transform="translate(-98.000000, -5339.000000)">
            <g id="END" transform="translate(-105.000000, 3204.000000)">
                <g id="Testimonial" transform="translate(150.000000, 1978.000000)">
                    <g id="testimonial01">
                        <g id="Icon" transform="translate(53.000000, 157.000000)">
                            <rect id="Rectangle" fill="#0045FF" x="0" y="0" width="36" height="36" rx="18"></rect>
                            <g id="4.-Elements-/Black/-Icons-/-Basic-/-User" transform="translate(7.500000, 7.500000)" fill="#FFFFFF">
                                <path d="M12.6482045,13.3634455 L12.6482045,11.9315318 C12.9703636,11.7718364 13.8917864,10.6750445 13.9883864,9.81807273 C14.2418182,9.79873364 14.6399591,9.56605364 14.7573682,8.64750409 C14.8203682,8.15422364 14.5698,7.87715727 14.4179318,7.78981636 C14.4179318,7.78981636 14.7960273,7.07173091 14.7960273,6.20472682 C14.7960273,4.46642318 14.1137182,2.98300227 12.6482045,2.98300227 C12.6482045,2.98300227 12.1391455,1.90909091 10.5003532,1.90909091 C7.46334273,1.90909091 6.20472682,3.85716545 6.20472682,6.20472682 C6.20472682,6.99511909 6.58273636,7.78981636 6.58273636,7.78981636 C6.43096364,7.87715727 6.18038591,8.15493955 6.24338591,8.64750409 C6.360795,9.56605364 6.75885955,9.79873364 7.01230091,9.81807273 C7.10895818,10.6750445 8.03037136,11.7718364 8.35254,11.9315318 L8.35254,13.3634455 C7.63660227,15.5111727 1.90909091,14.0793545 1.90909091,19.0909091 L19.0915773,19.0909091 C19.0915773,14.0793545 13.3641136,15.5111727 12.6482045,13.3634455 Z" id="Path"></path>
                            </g>
                        </g>
                    </g>
                </g>
            </g>
        </g>
    </g>
</svg>