<svg fill="none" height="26" viewBox="0 0 26 26" width="26" xmlns="http://www.w3.org/2000/svg"><path clip-rule="evenodd" d="m22.75 23.5625h-19.5c-.4485 0-.8125-.364-.8125-.8125v-12.1875h3.25c-.42331.6094-.56631 1.7461-.56631 2.4676 0 4.3509 3.54818 7.891 7.90891 7.891 4.3615 0 7.9097-3.5401 7.9097-7.891 0-.7215-.1024-1.8412-.6273-2.4676h3.25v12.1875c0 .4485-.364.8125-.8125.8125zm-4.7198-10.5324c0 2.7551-2.2385 4.9887-5.0001 4.9887-2.7609 0-4.99935-2.2336-4.99935-4.9887 0-2.7544 2.23845-4.98798 4.99935-4.98798 2.7616 0 5.0001 2.23358 5.0001 4.98798zm3.9073-9.7801c.4485 0 .8125.364.8125.8125v2.4375c0 .4485-.364.8125-.8125.8125h-2.4375c-.4485 0-.8125-.364-.8125-.8125v-2.4375c0-.4485.364-.8125.8125-.8125zm-18.84675-3.25c-1.70706 0-3.09075 1.38044-3.09075 3.08344v19.83316c0 1.703 1.38369 3.0834 3.09075 3.0834h19.81855c1.707 0 3.0907-1.3804 3.0907-3.0834v-19.83316c0-1.703-1.3837-3.08344-3.0907-3.08344z" fill="#000" fill-rule="evenodd"/></svg>