<svg enable-background="new 0 0 191.233536 211.873001" height="211.873001" viewBox="0 0 191.233536 211.873001" width="191.233536" xmlns="http://www.w3.org/2000/svg" xmlns:xlink="http://www.w3.org/1999/xlink"><clipPath id="a"><path d="m31.029007 31.027039c-41.372009 41.371948-41.372009 108.447998 0 149.816956 41.372986 41.372009 108.448975 41.372009 149.817993 0 12.337036-12.336975 12.337036-32.34198 0-44.678955-12.338013-12.338013-32.343018-12.338013-44.684021 0-16.692993 16.692993-43.756958 16.692993-60.453979 0-16.697998-16.694031-16.692993-43.762024 0-60.459045 16.697021-16.69397 43.760986-16.69397 60.453979 0l1.131042 1.13501c12.341919 12.333008 32.345947 12.333008 44.682983 0 12.342041-12.34198 12.342041-32.344971 0-44.684021-.38501-.384949-.843994-.654968-1.244995-1.015991l.11499-.113953c-20.685057-20.684999-47.794005-31.02704-74.906981-31.02704-27.114014 0-54.226013 10.342041-74.911011 31.027039"/></clipPath><linearGradient id="b" gradientTransform="matrix(-220.584381 246.706207 246.706207 220.584381 -365250.09375 63860.753906)" x1="-880.012024" x2="-879.012024" y1="694.5672" y2="694.5672"><stop offset="0" stop-color="#f05752"/><stop offset=".160029" stop-color="#f0554f"/><stop offset=".294755" stop-color="#f04f44"/><stop offset=".419916" stop-color="#ef4533"/><stop offset=".48793" stop-color="#ef3d26"/><stop offset="1" stop-color="#f9cc21"/></linearGradient><linearGradient id="c" gradientTransform="matrix(73.860039 -73.860039 -73.860039 -73.860039 116333.335938 -13512.285156)" x1="-880.011963" x2="-879.011963" y1="694.588013" y2="694.588013"><stop offset="0" stop-color="#f9cc21"/><stop offset=".08037" stop-color="#f7b022"/><stop offset=".2002" stop-color="#f58d23"/><stop offset=".327437" stop-color="#f37024"/><stop offset=".4624" stop-color="#f15925"/><stop offset=".608512" stop-color="#f04926"/><stop offset=".773892" stop-color="#ef4026"/><stop offset="1" stop-color="#ef3d26"/></linearGradient><path clip-path="url(#a)" d="m304.73468 98.724731-201.341659 225.184754-224.151856-200.418152 201.341675-225.184753z" fill="url(#b)"/><path d="m105.969009 177.824036c-.074036.052979-.144043.126953-.246033.126953-.335999 0-.492004-.307983-.757996-.664001l-35.021973-46.862976c-4.970032-6.937012-7.90802-15.369019-7.90802-24.486023 0-11.497986 4.663025-21.909973 12.210022-29.596985-.421021.39801-.830994.799011-1.236023 1.208984l-66.466002 65.036011c5.134033 13.955017 13.278992 27.051025 24.486023 38.257996 12.915955 12.914978 28.329956 21.794006 44.687988 26.650024 15.463989-15.111023 27.695008-27.096985 30.252014-29.669983z" fill="url(#c)"/><path d="m105.723221 63.193359c-24.125977 0-43.687988 19.13501-43.687988 42.741028 0 9.116943 2.937988 17.549988 7.908997 24.487l35.020996 46.866943c.262024.352051.41803.664001.757996.664001.332031 0 .459045-.323975.758057-.664001l34.513-46.182983c.16394-.234009.348999-.450989.507996-.68396 4.970947-6.937012 7.912964-15.370056 7.912964-24.487-.000002-23.606018-19.565981-42.741028-43.692018-42.741028zm.002685 61.260193c-10.45697 0-18.926941-8.289978-18.926941-18.517029 0-10.22699 8.469971-18.516968 18.926941-18.516968 10.452026 0 18.922058 8.289978 18.922058 18.516968 0 10.227051-8.470031 18.517029-18.922058 18.517029z" fill="#222220"/></svg>