<?xml version="1.0" encoding="utf-8"?>
<!-- Generator: Adobe Illustrator 23.0.2, SVG Export Plug-In . SVG Version: 6.00 Build 0)  -->
<svg version="1.1" xmlns="http://www.w3.org/2000/svg" xmlns:xlink="http://www.w3.org/1999/xlink" x="0px" y="0px"
	 viewBox="0 0 533.4 226.8" style="enable-background:new 0 0 533.4 226.8;" xml:space="preserve">
<style type="text/css">
	._x005B_Default_x005D_{fill:#FFFFFF;stroke:#000000;stroke-miterlimit:10;}
	.st0{clip-path:url(#SVGID_2_);fill:url(#SVGID_3_);}
	.st1{clip-path:url(#SVGID_5_);fill:url(#SVGID_6_);}
	.st2{clip-path:url(#SVGID_8_);fill:url(#SVGID_9_);}
	.st3{fill:#222220;}
	.st4{fill:#FFFFFF;}
</style>
<g id="Layer_1">
	<g>
		<defs>
			<path id="SVGID_1_" d="M31,31c-41.4,41.4-41.4,108.4,0,149.8c41.4,41.4,108.4,41.4,149.8,0c12.3-12.3,12.3-32.3,0-44.7
				c-12.3-12.3-32.3-12.3-44.7,0c-16.7,16.7-43.8,16.7-60.5,0C59,119.5,59,92.4,75.7,75.7c16.7-16.7,43.8-16.7,60.5,0l1.1,1.1
				c12.3,12.3,32.3,12.3,44.7,0c12.3-12.3,12.3-32.3,0-44.7c-0.4-0.4-0.8-0.7-1.2-1l0.1-0.1c-20.7-20.7-47.8-31-74.9-31
				C78.8,0,51.7,10.3,31,31"/>
		</defs>
		<clipPath id="SVGID_2_">
			<use xlink:href="#SVGID_1_"  style="overflow:visible;"/>
		</clipPath>
		
			<linearGradient id="SVGID_3_" gradientUnits="userSpaceOnUse" x1="0.9042" y1="1077.2206" x2="1.9042" y2="1077.2206" gradientTransform="matrix(-220.5844 246.7062 246.7062 220.5844 -265336.7188 -237874.125)">
			<stop  offset="0" style="stop-color:#F05752"/>
			<stop  offset="0.16" style="stop-color:#F0554F"/>
			<stop  offset="0.2948" style="stop-color:#F04F44"/>
			<stop  offset="0.4199" style="stop-color:#EF4533"/>
			<stop  offset="0.4879" style="stop-color:#EF3D26"/>
			<stop  offset="1" style="stop-color:#F9CC21"/>
		</linearGradient>
		<polygon class="st0" points="304.7,98.7 103.4,323.9 -120.8,123.5 80.6,-101.7 		"/>
	</g>
	<g>
		<defs>
			<path id="SVGID_4_" d="M105.8,63.2L105.8,63.2C105.8,63.2,105.7,63.2,105.8,63.2C105.3,63.2,105.3,63.2,105.8,63.2"/>
		</defs>
		<clipPath id="SVGID_5_">
			<use xlink:href="#SVGID_4_"  style="overflow:visible;"/>
		</clipPath>
		
			<linearGradient id="SVGID_6_" gradientUnits="userSpaceOnUse" x1="-1443.8938" y1="4774.3555" x2="-1442.8938" y2="4774.3555" gradientTransform="matrix(0.1713 -0.1713 -0.1713 -0.1713 1170.5062 633.6666)">
			<stop  offset="0" style="stop-color:#F9CC21"/>
			<stop  offset="8.037001e-02" style="stop-color:#F7B022"/>
			<stop  offset="0.2002" style="stop-color:#F58D23"/>
			<stop  offset="0.3274" style="stop-color:#F37024"/>
			<stop  offset="0.4624" style="stop-color:#F15925"/>
			<stop  offset="0.6085" style="stop-color:#F04926"/>
			<stop  offset="0.7739" style="stop-color:#EF4026"/>
			<stop  offset="1" style="stop-color:#EF3D26"/>
		</linearGradient>
		<polygon class="st1" points="105.3,63.2 105.5,63 105.8,63.2 105.5,63.4 		"/>
	</g>
	<g>
		<defs>
			<path id="SVGID_7_" d="M73,77.5l-66.5,65c5.1,14,13.3,27.1,24.5,38.3c12.9,12.9,28.3,21.8,44.7,26.7
				c15.5-15.1,27.7-27.1,30.3-29.7c-0.1,0.1-0.1,0.1-0.2,0.1c-0.3,0-0.5-0.3-0.8-0.7l-35-46.9c-5-6.9-7.9-15.4-7.9-24.5
				c0-11.5,4.7-21.9,12.2-29.6C73.8,76.7,73.4,77.1,73,77.5"/>
		</defs>
		<clipPath id="SVGID_8_">
			<use xlink:href="#SVGID_7_"  style="overflow:visible;"/>
		</clipPath>
		
			<linearGradient id="SVGID_9_" gradientUnits="userSpaceOnUse" x1="-3.3482" y1="1088.6902" x2="-2.3482" y2="1088.6902" gradientTransform="matrix(73.86 -73.86 -73.86 -73.86 80682.1719 80337.3906)">
			<stop  offset="0" style="stop-color:#F9CC21"/>
			<stop  offset="8.037001e-02" style="stop-color:#F7B022"/>
			<stop  offset="0.2002" style="stop-color:#F58D23"/>
			<stop  offset="0.3274" style="stop-color:#F37024"/>
			<stop  offset="0.4624" style="stop-color:#F15925"/>
			<stop  offset="0.6085" style="stop-color:#F04926"/>
			<stop  offset="0.7739" style="stop-color:#EF4026"/>
			<stop  offset="1" style="stop-color:#EF3D26"/>
		</linearGradient>
		<polygon class="st2" points="-59,141.9 56.3,26.6 171.5,141.9 56.3,257.2 		"/>
	</g>
	<g>
		<path class="st3" d="M106.5,177.3c-0.3,0.3-0.4,0.7-0.8,0.7c-0.3,0-0.5-0.3-0.8-0.7l-35-46.9c-5-6.9-7.9-15.4-7.9-24.5
			c0-23.6,19.6-42.7,43.7-42.7c24.1,0,43.7,19.1,43.7,42.7c0,9.1-2.9,17.5-7.9,24.5c-0.2,0.2-0.3,0.4-0.5,0.7L106.5,177.3z"/>
		<path class="st4" d="M124.6,105.9c0,10.2-8.5,18.5-18.9,18.5c-10.5,0-18.9-8.3-18.9-18.5c0-10.2,8.5-18.5,18.9-18.5
			C116.2,87.4,124.6,95.7,124.6,105.9"/>
	</g>
	<g>
		<path class="st3" d="M315.9,80.7c-13.9,0-25.2,11.3-25.2,25.2c0,13.9,11.3,25.2,25.2,25.2c4.1,0,7.9-1,11.4-2.7
			c1.5,1.7,3.6,2.7,5.9,2.7c4.4,0,7.9-3.6,7.9-7.9v-17.3C341.1,92,329.8,80.7,315.9,80.7 M315.9,116.1c-5.6,0-10.2-4.6-10.2-10.2
			c0-5.6,4.6-10.2,10.2-10.2c5.6,0,10.2,4.6,10.2,10.2C326.1,111.6,321.5,116.1,315.9,116.1"/>
		<path class="st3" d="M278.5,88.1c-9.8-9.8-25.8-9.8-35.6,0c-9.8,9.8-9.8,25.8,0,35.6c9.8,9.8,25.8,9.8,35.6,0
			c2.9-2.9,2.9-7.7,0-10.6c-2.9-2.9-7.7-2.9-10.6,0c-4,4-10.4,4-14.4,0c-4-4-4-10.4,0-14.4c4-4,10.4-4,14.4,0l0,0
			c0.1,0.1,0.1,0.2,0.2,0.3c2.9,2.9,7.7,2.9,10.6,0c2.9-2.9,2.9-7.7,0-10.6C278.6,88.3,278.5,88.2,278.5,88.1L278.5,88.1z"/>
		<path class="st3" d="M461.5,92.7c0.9-1.5,1.5-2.8,1.5-4.4c0-4.2-3.4-7.5-7.5-7.5c-3.2,0-5.8,2.2-7,4.9l-11.9,22.2l-12-22.2
			c-1.4-2.6-3.8-4.9-7-4.9c-4.2,0-7.5,3.4-7.5,7.5c0,1.7,2.4,6.1,1.5,4.4l18,33.5c1.3,2.9,3.8,4.9,7,4.9c3.2,0,5.7-2.2,7-4.9
			L461.5,92.7z"/>
		<path class="st3" d="M398.6,94.2c-4.2-8-12.6-13.4-22.2-13.4c-4.5,0-8.8,1.2-12.5,3.3c-1.4-1.3-3.2-2.1-5.2-2.1
			c-4.2,0-7.6,3.4-7.6,7.6v16.4v4.4v12.9c0,4.4,3.5,7.9,7.9,7.9c4.4,0,7.2-3.6,7.2-7.9l-0.1-17.3c0-5.6,4.6-10.2,10.2-10.2
			c6.8,0,9.4,6.2,9.4,6.2c1.3,2.4,3.7,4,6.6,4c4.2,0,7.5-3.4,7.5-7.5C399.9,96.9,399.4,95.4,398.6,94.2"/>
		<path class="st3" d="M516.5,110.6c1.2,0,2.4-0.1,3.5-0.4c2.1-0.4,3.4-1.7,3.4-3.7c0-2.4,0.1-4.9-0.5-7.2
			C520.4,89.6,514,83,503.3,81c-9.4-1.7-17.4,1-23.7,7.8c-5.3,5.9-7.1,12.8-6.5,20.4c0.7,9.4,7.2,17.4,16.7,20.4
			c7.9,2.5,15.7,2.1,23.4-0.8c3-1.1,5.8-2.6,7.9-5c1.8-2,2-4.6,0.6-6.7c-1.5-2.3-4.2-3.4-6.9-2.6c-1.6,0.5-3.2,1.2-4.7,1.9
			c-2.7,1.2-5.5,2.4-8.6,2.5c-5.7,0.2-10.1-2.2-12.3-8.3c0.3,0,0.6,0,0.9,0C499,110.6,507.7,110.7,516.5,110.6 M489.2,102.7
			c0-3.6,4.4-6.6,9.9-6.6c5.5,0,9.9,2.9,9.9,6.6H489.2z"/>
	</g>
</g>
<g id="Layer_2">
</g>
</svg>
