<svg enable-background="new 0 0 559.572571 211.873001" viewBox="0 0 559.572571 211.873001" xmlns="http://www.w3.org/2000/svg" xmlns:xlink="http://www.w3.org/1999/xlink"><clipPath id="a"><path d="m31.385769 31.027039c-41.372009 41.371948-41.372009 108.447998 0 149.816956 41.372982 41.372009 108.448975 41.372009 149.817993 0 12.337036-12.336975 12.337036-32.34198 0-44.678955-12.338013-12.338013-32.343018-12.338013-44.684021 0-16.693001 16.692993-43.756966 16.692993-60.453987 0-16.697994-16.694031-16.692989-43.762024 0-60.459045 16.697021-16.69397 43.760986-16.69397 60.453987 0l1.131042 1.13501c12.341919 12.333008 32.345947 12.333008 44.682983 0 12.342041-12.34198 12.342041-32.344971 0-44.684021-.38501-.384949-.843994-.654968-1.244995-1.015991l.11499-.113953c-20.685054-20.684999-47.794001-31.02704-74.906985-31.02704-27.114014 0-54.22601 10.342041-74.911007 31.027039"/></clipPath><linearGradient id="b" gradientTransform="matrix(-220.584381 246.706207 246.706207 220.584381 -265336.71875 -237874.125)" x1=".903519" x2="1.903519" y1="1077.221436" y2="1077.221436"><stop offset="0" stop-color="#f05752"/><stop offset=".160029" stop-color="#f0554f"/><stop offset=".294755" stop-color="#f04f44"/><stop offset=".419916" stop-color="#ef4533"/><stop offset=".48793" stop-color="#ef3d26"/><stop offset="1" stop-color="#f9cc21"/></linearGradient><clipPath id="c"><path d="m106.131737 63.197021c-.015991-.001038-.036011-.005005-.052002-.005005-.414002.000001-.372986.005005.052002.005005"/></clipPath><linearGradient id="d"><stop offset="0" stop-color="#f9cc21"/><stop offset=".08037" stop-color="#f7b022"/><stop offset=".2002" stop-color="#f58d23"/><stop offset=".327437" stop-color="#f37024"/><stop offset=".4624" stop-color="#f15925"/><stop offset=".608512" stop-color="#f04926"/><stop offset=".773892" stop-color="#ef4026"/><stop offset="1" stop-color="#ef3d26"/></linearGradient><linearGradient id="e" gradientTransform="matrix(.171273 -.171273 -.171273 -.171273 1170.506226 633.666626)" x1="-1442.852295" x2="-1441.852295" xlink:href="#d" y1="4773.313965" y2="4773.313965"/><clipPath id="f"><path d="m73.365746 77.549988-66.466001 65.036011c5.134033 13.955017 13.278992 27.051025 24.486023 38.257996 12.915955 12.915009 28.329956 21.794006 44.687984 26.650024 15.463989-15.110992 27.695007-27.096985 30.252014-29.669983-.074036.052979-.144043.126953-.246033.126953-.335999 0-.492004-.307983-.757996-.664001l-35.021973-46.862976c-4.970032-6.937012-7.908016-15.369019-7.908016-24.486023 0-11.497986 4.663021-21.909973 12.210018-29.596985-.421018.39801-.830991.799011-1.23602 1.208984"/></clipPath><linearGradient id="g" gradientTransform="matrix(73.860039 -73.860039 -73.860039 -73.860039 80682.171875 80337.390625)" x1="-3.34581" x2="-2.34581" xlink:href="#d" y1="1088.687744" y2="1088.687744"/><path clip-path="url(#a)" d="m305.091461 98.724731-201.341682 225.184754-224.151856-200.418152 201.341675-225.184753z" fill="url(#b)"/><path clip-path="url(#c)" d="m105.663231 63.19458.235474-.235474.235473.235474-.235473.235413z" fill="url(#e)"/><path clip-path="url(#f)" d="m-58.676792 141.917542 115.289551-115.289612 115.289493 115.28955-115.289554 115.289551z" fill="url(#g)"/><path d="m106.838036 177.28833c-.299011.340027-.426025.664001-.758057.664001-.339966 0-.495972-.311951-.757996-.664001l-35.020996-46.866943c-4.971008-6.937012-7.908993-15.370056-7.908993-24.487 0-23.606018 19.562008-42.741028 43.687984-42.741028 24.126045 0 43.692024 19.13501 43.692024 42.741028 0 9.116943-2.942017 17.549988-7.912964 24.487-.158997.232971-.344055.449951-.507996.68396z" fill="#222220"/><path d="m125.004723 105.936523c0 10.227051-8.470032 18.517029-18.922058 18.517029-10.45697 0-18.926941-8.289978-18.926941-18.517029 0-10.22699 8.469971-18.516968 18.926941-18.516968 10.452026.000001 18.922058 8.289979 18.922058 18.516968" fill="#fff"/><g fill="#222220"><path d="m319.602051 76.799805c-16.094849 0-29.142303 13.047401-29.142303 29.144012 0 16.101799 13.047455 29.149261 29.142303 29.149261 4.729828 0 9.178986-1.150894 13.126373-3.156174 1.682434 1.919296 4.112305 3.156174 6.864899 3.156174 5.054382 0 9.15799-4.105286 9.15799-9.157951v-19.99131c-.000001-16.096611-13.054536-29.144012-29.149262-29.144012m0 40.903671c-6.491272 0-11.761536-5.261414-11.761536-11.759659 0-6.500069 5.270264-11.761482 11.761536-11.761482 6.49826 0 11.768402 5.261414 11.768402 11.761482 0 6.498245-5.270142 11.759659-11.768402 11.759659"/><path d="m276.326416 85.333794c-11.379059-11.37899-29.833511-11.37899-41.21962 0-11.378937 11.379051-11.378937 29.833504 0 41.219559 11.386108 11.37899 29.840561 11.37899 41.21962 0 3.399994-3.393036 3.399994-8.90004 0-12.293076-3.393036-3.392982-8.900146-3.392982-12.293091 0-4.592987 4.594788-12.040482 4.594788-16.633453 0-4.594788-4.592972-4.594788-12.040428 0-16.6334 4.592972-4.594795 12.040466-4.594795 16.633453 0l.029755-.029823c.100037.108742.171997.229797.278961.338585 3.401825 3.400002 8.900024 3.400002 12.29306 0 3.400024-3.392982 3.400024-8.893028 0-12.293022-.100006-.107025-.229767-.178986-.336853-.280708z"/><path d="m487.93811 90.626801c.98407-1.696465 1.717346-3.205269 1.717346-5.140366 0-4.801773-3.894714-8.691231-8.69809-8.691231-3.736877 0-6.649231 2.580673-8.129913 5.708794l-13.815887 25.69133-13.824615-25.69133c-1.617554-3.047386-4.391235-5.708794-8.129822-5.708794-4.801788 0-8.698303 3.889458-8.698303 8.691231 0 1.935097 2.731598 7.031609 1.71756 5.140366l20.803558 38.761658c1.554474 3.349121 4.379028 5.707031 8.131622 5.707031 3.743958 0 6.628143-2.580734 8.129944-5.707031z"/><path d="m415.195709 92.343506c-4.894836-9.222832-14.51413-15.549164-25.670349-15.549164-5.247437 0-10.14386 1.401733-14.398376 3.82457-1.56839-1.487709-3.673676-2.415825-6.010498-2.415825-4.829834 0-8.742188 3.910553-8.742188 8.742149v18.998367 5.119324 14.864975c0 5.061447 4.098267 9.166718 9.15274 9.166718 5.066681 0 8.294708-4.10527 8.294708-9.166718l-.06488-19.984299c0-6.498299 5.263184-11.75972 11.761444-11.75972 7.807068 0 10.861511 7.131622 10.868469 7.124611 1.466675 2.759659 4.328064 4.657913 7.663177 4.657913 4.801788 0 8.691345-3.889511 8.691345-8.691292.000001-1.833312-.575438-3.52983-1.545592-4.931609"/><path d="m551.548401 111.361305c1.359741-.007019 2.747498-.15789 4.06842-.438599 2.41571-.503494 3.882507-1.933327 3.926392-4.254387.049072-2.76844.121033-5.636894-.568359-8.289528-2.93335-11.386009-10.258057-18.984283-22.715942-21.249237-10.833435-1.963142-20.172119 1.135101-27.352875 9.072014-6.124512 6.771942-8.194794 14.829857-7.498138 23.628174.855988 10.826355 8.375336 20.114136 19.322754 23.572067 9.122986 2.882477 18.173767 2.443878 27.073853-.870193 3.479004-1.292984 6.728027-2.96846 9.171997-5.757942 2.026367-2.321068 2.306946-5.354424.696472-7.777206-1.738586-2.652634-4.836792-3.933365-7.971863-3.040367-1.882507.538605-3.664917 1.422821-5.456177 2.221046-3.15625 1.408791-6.317688 2.738617-9.926514 2.838631-6.578979.187714-11.638489-2.515839-14.177124-9.58252.389343-.021042.69812-.049149 1.006958-.049149 10.128051 0 20.271911.014084 30.400146-.022804m-31.500061-9.157943c0-4.198227 5.117554-7.605293 11.429688-7.605293 6.319458 0 11.437012 3.407066 11.437012 7.605293z"/></g></svg>