<svg fill="none" height="37" viewBox="0 0 253 37" width="253" xmlns="http://www.w3.org/2000/svg"><g clip-rule="evenodd" fill="#000" fill-rule="evenodd"><path d="m47.7988 12.4004h23.2v-12.000009h-23.2z"/><path d="m.599609.400391v12.000609h11.733291v23.9994h11.7334v-23.9994h11.7333v-12.000609z"/><path d="m35.7988 12.4004v24h11.7331 23.4669v-12.0009h-23.4669v-11.9991z"/><path d="m101.399 9.2002h-17.6002v5.0213h5.8872v15.7787h5.8266v-15.7787h5.8864z"/><path d="m105.844 20.3959c.178-1.512.856-2.3262 2.064-2.3262 1.562 0 2.094.7857 2.358 2.3262zm2.211-6.1928c-4.068 0-7.075 2.7035-7.075 7.9667 0 4.6807 2.564 7.9373 7.222 7.9373 2.418 0 4.394-.6401 6.31-1.7446l-2.034-3.3436c-1.534.7848-2.653 1.076-4.009 1.076-1.445 0-2.447-.7564-2.625-2.4424h9.081c.029-.2611.029-.5816.029-1.0175 0-5.6698-2.653-8.4319-6.899-8.4319z"/><path d="m125.007 25.8623c-1.444 0-2.181-1.2501-2.181-3.6632 0-2.4132.678-3.7503 2.034-3.7503 1.149 0 1.651.6392 2.388 1.9764l3.655-2.7328c-1.356-2.1513-3.037-3.4893-5.955-3.4893-4.952 0-7.37 3.2273-7.37 7.9081 0 5.1468 2.713 7.9968 7.252 7.9968 2.743 0 4.422-1.0184 6.221-3.6348l-3.361-2.5881c-.973 1.425-1.681 1.9772-2.683 1.9772z"/><path d="m143.286 14.203c-1.829 0-2.92.6108-3.892 1.338v-6.9492l-5.306 2.0935v19.1029h5.306v-8.723c0-1.9196.678-2.4425 1.799-2.4425 1.091 0 1.769.5229 1.769 2.5002v8.6653h5.335v-9.3339c0-4.0122-1.621-6.2513-5.011-6.2513z"/><path d="m161.092 25.1933c-2.476 0-3.478-2.4709-3.478-5.5828 0-3.2273 1.03-5.5819 3.42-5.5819 1.887 0 2.593 1.1924 3.331 3.0817l5.189-2.0057c-1.416-3.8381-3.42-5.98937-8.491-5.98937-5.543 0-9.434 3.95357-9.434 10.49527 0 6.0196 3.272 10.497 9.405 10.497 4.893 0 7.193-2.5881 8.578-5.2623l-4.835-2.5303c-1.12 1.9195-1.886 2.8784-3.685 2.8784z"/><path d="m178.131 15.6281v-1.1053h-5.307v15.2656h5.307v-8.3165c0-1.8609.796-2.4717 2.093-2.4717 1.032 0 1.798.5531 2.477 1.2794l1.238-5.4364c-.62-.379-1.386-.6401-2.506-.6401-1.356 0-2.388.5523-3.302 1.425z"/><path d="m195.346 23.2455c0 1.9195-.677 2.4425-1.768 2.4425s-1.769-.523-1.769-2.5002v-8.6653h-5.336v9.3339c0 4.0122 1.621 6.2513 5.012 6.2513 1.799 0 2.919-.6108 3.861-1.338v1.0184h5.337v-15.2656h-5.337z"/><path d="m213.743 14.2031c-1.828 0-2.918.6109-3.891 1.338v-1.0183h-5.307v15.2656h5.307v-8.7231c0-1.9195.678-2.4425 1.798-2.4425 1.092 0 1.769.523 1.769 2.5002v8.6654h5.336v-9.334c0-4.0121-1.621-6.2513-5.012-6.2513z"/><path d="m229.309 25.8623c-1.444 0-2.182-1.2501-2.182-3.6632 0-2.4132.677-3.7503 2.034-3.7503 1.15 0 1.652.6392 2.388 1.9764l3.655-2.7328c-1.356-2.1513-3.036-3.4893-5.954-3.4893-4.953 0-7.371 3.2273-7.371 7.9081 0 5.1468 2.713 7.9968 7.253 7.9968 2.742 0 4.422-1.0184 6.221-3.6348l-3.362-2.5881c-.972 1.425-1.68 1.9772-2.682 1.9772z"/><path d="m247.586 14.203c-1.827 0-2.918.6108-3.89 1.338v-6.9492l-5.307 2.0935v19.1029h5.307v-8.723c0-1.9196.677-2.4425 1.797-2.4425 1.092 0 1.769.5229 1.769 2.5002v8.6653h5.336v-9.3339c0-4.0122-1.62-6.2513-5.012-6.2513z"/></g></svg>