<svg fill="none" height="39" viewBox="0 0 184 39" width="184" xmlns="http://www.w3.org/2000/svg" xmlns:xlink="http://www.w3.org/1999/xlink"><mask id="a" height="39" width="38" x="0" y="0"><path clip-rule="evenodd" d="m0 .400391h37.95v37.949909h-37.95z" fill="#fff" fill-rule="evenodd"/></mask><mask id="b" height="16" width="8" x="176" y="12"><path clip-rule="evenodd" d="m176.09 12.9238h7.336v14.5475h-7.336z" fill="#fff" fill-rule="evenodd"/></mask><g mask="url(#a)"><path clip-rule="evenodd" d="m14.168 9.63489 3.795 7.71651c0 .1265.1265.253.253.3795s.1265.253.253.506l.1265.1265v.1265c.1265.253.1265.3795.253.6325.1265.1265.1265.3795.253.506.1265-.3795.3795-.6325.506-1.1385.1265-.3795.3795-.759.6325-1.1385l3.795-7.71651h2.783l-6.578 12.39701v7.843h-2.53v-7.9695l-6.578-12.27051zm-14.168 28.71551h37.95v-37.950009h-37.95z" fill="#000" fill-rule="evenodd"/></g><g clip-rule="evenodd" fill="#000" fill-rule="evenodd"><path d="m55.5335 25.4473c-2.53 0-4.1745-1.1385-5.1865-3.542-.3795-1.012-.6325-2.4035-.6325-4.048 0-2.1505.253-3.795.759-5.06.8855-2.1505 2.53-3.289 4.6805-3.289 1.3915 0 2.53.506 3.6685 1.265l1.265-1.518c-1.265-1.012-2.9095-1.518-4.807-1.518-2.277 0-4.1745 1.012-5.566 2.6565-1.518 1.8975-2.277 4.1745-2.277 7.084s.6325 5.313 2.1505 7.084c1.518 1.8975 3.4155 2.783 5.6925 2.783 1.8975 0 3.6685-.506 5.313-1.518l-1.265-1.6445c-1.1385.8855-2.4035 1.265-3.795 1.265z"/><path d="m71.9777 20.7668c0 1.265-.1265 2.277-.3795 3.036-.506 1.3915-1.518 2.1505-3.036 2.1505-1.265 0-2.1505-.506-2.783-1.3915s-.8855-2.4035-.8855-4.554c0-1.6445.1265-2.9095.6325-3.6685.6325-1.012 1.518-1.518 2.9095-1.518s2.277.6325 2.9095 1.771c.506.8855.759 2.277.6325 4.1745zm-3.542-7.843c-1.771 0-3.1625.759-4.301 2.024s-1.6445 3.036-1.6445 5.313.506 4.1745 1.6445 5.4395c1.1385 1.3915 2.53 2.024 4.4275 2.024 1.518 0 2.783-.506 3.795-1.3915 1.3915-1.265 2.1505-3.289 2.1505-5.819 0-2.1505-.3795-3.9215-1.265-5.1865-1.1385-1.6445-2.783-2.4035-4.807-2.4035z"/><path d="m92.5983 12.9238c-1.518 0-2.9095.759-4.4275 2.277-.1265-.253-.3795-.6325-.506-.8855-.6325-.8855-1.6445-1.3915-2.783-1.3915-.759 0-1.518.253-2.4035.759-.759.3795-1.265.8855-1.771 1.3915v-.1265c0-.6325-.1265-1.3915-.506-2.024l-2.1505.506c.3795.8855.506 2.024.506 3.4155v10.373h2.1505v-10.373c1.3915-1.265 2.53-1.8975 3.542-1.8975.6325 0 1.012.1265 1.3915.506.253.253.3795.8855.3795 1.771v9.867h2.4035v-10.2465l.253-.253c.6325-.506 1.1385-.8855 1.3915-1.1385.6325-.506 1.3915-.759 2.024-.759 1.1385 0 1.771.6325 1.771 2.024v10.373h2.277v-10.4995c0-1.012-.3795-1.8975-1.012-2.6565-.6325-.6325-1.518-1.012-2.53-1.012z"/><path d="m108.664 24.4356c-.506.8855-1.393 1.265-2.53 1.265-1.393 0-2.53-.506-3.416-1.6445v-7.2105c.253-.3795.633-.759 1.012-1.012.758-.6325 1.644-.8855 2.404-.759 1.265 0 2.149.3795 2.656 1.1385.633.759.886 2.024.886 3.795 0 2.024-.38 3.4155-1.012 4.4275zm-1.898-11.385c-1.392 0-2.783.6325-4.048 1.8975v-1.518-3.1625c0-1.39151-.127-2.53001-.379-3.54201l-2.278.506c.38.6325.507 1.771.632 3.28901v13.2825c0 1.771-.125 2.9095-.379 3.542h2.151c.126-.3795.253-.8855.379-1.518.379.506.886.8855 1.644 1.265.76.3795 1.393.506 2.151.506 1.644 0 3.037-.6325 4.049-2.024 1.011-1.3915 1.518-3.1625 1.518-5.4395 0-2.1505-.507-3.9215-1.518-5.1865-.887-1.265-2.277-1.8975-3.922-1.8975z"/><path d="m116 27.2183h2.277v-14.2945l-2.277.3795z"/><path d="m117.265 7.23145c-.506 0-.885.1265-1.265.506-.379.3795-.506.759-.506 1.265s.127.8855.506 1.26495c.38.3795.759.506 1.265.506.505 0 .886-.1265 1.265-.506.38-.37945.505-.75895.505-1.26495s-.125-.8855-.505-1.265c-.379-.3795-.76-.506-1.265-.506z"/><path d="m131.687 13.4298c-.633-.3795-1.265-.506-2.024-.506-1.518 0-3.036.759-4.428 2.1505 0-.759-.125-1.3915-.506-2.1505l-2.149.6325c.252.6325.505 1.012.505 1.3915.128.253.128.8855.128 1.8975v10.373h2.149v-10.373c.506-.506 1.138-1.012 1.897-1.3915.761-.3795 1.518-.6325 2.026-.6325.632 0 1.137.253 1.518.6325.379.3795.504 1.1385.504 2.277v9.4875h2.151v-10.626c0-.6325-.125-1.1385-.378-1.6445-.255-.6325-.761-1.1385-1.393-1.518z"/><path d="m145.222 23.8028c-.759 1.3915-1.898 2.1505-3.416 2.277-1.644 0-2.403-.8855-2.403-2.53 0-1.012.254-1.771.759-2.277.76-.759 2.025-1.1385 4.048-1.1385h1.139zm2.15 1.265c-.125-.3795-.125-.8855-.125-1.6445v-.6325l.125-4.554v-.759c0-1.1385 0-1.8975-.253-2.4035-.632-1.3915-1.897-2.1505-3.921-2.1505s-3.922.6325-5.819 1.8975l1.138 1.518c.633-.3795 1.14-.759 1.518-1.012 1.012-.3795 1.898-.6325 2.657-.6325.885 0 1.392.253 1.897.759.38.253.506 1.012.506 2.1505v1.012h-1.011c-2.278 0-4.175.3795-5.44 1.265s-1.898 2.024-1.898 3.6685c0 1.265.381 2.277 1.139 2.9095.885.759 2.024 1.1385 3.415 1.1385 1.392 0 2.784-.6325 4.049-1.8975.252 1.012.885 1.6445 1.898 2.024l1.137-1.518c-.505-.253-.885-.6325-1.012-1.1385z"/><path d="m157.493 15.0739.632-1.771h-3.542c0-1.1385 0-2.53.253-4.04802l-2.277.506v.37952c-.126 1.6445-.253 2.6565-.253 2.9095v.253h-1.771v1.771h1.898v9.614c0 2.1505 1.012 3.1625 3.162 3.1625.886 0 1.645-.1265 2.404-.506l-.253-1.3915c-.38.1265-.886.253-1.392.253-.632 0-1.138-.253-1.391-.506-.253-.3795-.38-.8855-.38-1.6445v-8.9815z"/><path d="m169.637 23.8028c-.505 1.3915-1.517 2.1505-3.035 2.1505-1.265 0-2.152-.506-2.784-1.3915-.633-.8855-.886-2.4035-.886-4.554 0-1.6445.128-2.9095.633-3.6685.632-1.012 1.518-1.518 2.909-1.518 1.393 0 2.279.6325 2.911 1.771.38.8855.633 2.277.633 4.1745 0 1.265-.128 2.277-.381 3.036zm-3.289-10.879c-1.771 0-3.288.759-4.301 2.024-1.137 1.265-1.645 3.036-1.645 5.313s.633 4.1745 1.645 5.4395c1.138 1.3915 2.53 2.024 4.427 2.024 1.518 0 2.783-.506 3.795-1.3915 1.393-1.265 2.151-3.289 2.151-5.819 0-2.1505-.38-3.9215-1.265-5.1865-1.137-1.6445-2.783-2.4035-4.807-2.4035z"/></g><g mask="url(#b)"><path clip-rule="evenodd" d="m182.668 13.0503c-1.518 0-2.783.759-3.923 2.277v-.253c0-.759-.125-1.3915-.505-2.1505l-2.15.6325c.379.759.505 1.771.505 3.036v10.879h2.15v-8.7285c0-.6325.128-1.1385.254-1.518.253-.506.758-.8855 1.265-1.265.506-.3795 1.139-.506 1.644-.506.127 0 .379 0 .632.1265l.887-2.4035c-.254-.1265-.507-.1265-.759-.1265z" fill="#000" fill-rule="evenodd"/></g></svg>