<svg fill="none" height="44" viewBox="0 0 185 44" width="185" xmlns="http://www.w3.org/2000/svg" xmlns:xlink="http://www.w3.org/1999/xlink"><mask id="a" height="14" width="8" x="177" y="15"><path clip-rule="evenodd" d="m177.703 15.5029h6.828v13.2975h-6.828z" fill="#fff" fill-rule="evenodd"/></mask><g clip-rule="evenodd" fill="#000" fill-rule="evenodd"><path d="m24.4794 15.1201h-6.12v6.48h6.12c1.7894 0 3.24-1.4506 3.24-3.24s-1.4506-3.24-3.24-3.24z"/><path d="m24.48 25.92h-6.12v6.48h-4.32v-21.6h10.44c4.1753 0 7.56 3.3847 7.56 7.56s-3.3847 7.56-7.56 7.56zm-2.88-25.92c-11.92932 0-21.6 9.67068-21.6 21.6 0 11.9293 9.67068 21.6 21.6 21.6 11.9293 0 21.6-9.6707 21.6-21.6 0-11.92932-9.6707-21.6-21.6-21.6z"/><path d="m65.8918 18.9602c0-1.188-.9135-1.9089-2.0998-1.9089h-3.1808v3.7963h3.1808c1.1863 0 2.0998-.721 2.0998-1.8874zm-8.2922 9.8402v-14.4h6.6155c3.0755 0 4.7504 2.0783 4.7504 4.5598 0 2.4598-1.6956 4.5379-4.7504 4.5379h-3.6039v5.3023z"/><path d="m70.7988 28.8v-10.4983h2.6923v1.3789c.7425-.891 1.9944-1.6327 3.267-1.6327v2.629c-.1917-.0423-.4248-.063-.7425-.063-.891 0-2.079.5085-2.5245 1.1666v7.0195z"/><path d="m85.8158 23.4131c0-1.5905-.9342-2.9693-2.63-2.9693-1.6767 0-2.6091 1.3788-2.6091 2.9693 0 1.6119.9324 2.99 2.6091 2.99 1.6958 0 2.63-1.3781 2.63-2.99zm-8.0385 0c0-2.9054 2.036-5.3652 5.4085-5.3652 3.3932 0 5.4292 2.4598 5.4292 5.3652s-2.036 5.3869-5.4292 5.3869c-3.3725 0-5.4085-2.4815-5.4085-5.3869z"/><path d="m97.6787 25.2371v-3.6263c-.4457-.6787-1.4213-1.1665-2.3123-1.1665-1.5471 0-2.6075 1.2087-2.6075 2.9692 0 1.7813 1.0604 2.99 2.6075 2.99.891 0 1.8666-.4878 2.3123-1.1664zm0 3.5633v-1.5698c-.8064 1.0179-1.9082 1.5698-3.1603 1.5698-2.5659 0-4.5379-1.9514-4.5379-5.3869 0-3.3292 1.9306-5.3652 4.5379-5.3652 1.2089 0 2.3539.5085 3.1603 1.5689v-5.2168h2.7143v14.4z"/><path d="m109.985 28.8001v-1.5482c-.7.7634-1.929 1.5482-3.604 1.5482-2.249 0-3.309-1.2303-3.309-3.224v-7.2743h2.692v6.2139c0 1.4213.743 1.8877 1.888 1.8877 1.039 0 1.866-.5726 2.333-1.1666v-6.935h2.694v10.4983z"/><path d="m114.701 23.4131c0-3.1385 2.29-5.3652 5.429-5.3652 2.1 0 3.373.9117 4.051 1.8451l-1.761 1.6533c-.487-.7209-1.229-1.1025-2.162-1.1025-1.634 0-2.778 1.188-2.778 2.9693s1.144 2.99 2.778 2.99c.933 0 1.675-.4239 2.162-1.1243l1.761 1.6546c-.678.9331-1.951 1.8666-4.051 1.8666-3.139 0-5.429-2.2268-5.429-5.3869z"/><path d="m126.497 25.9796v-5.3229h-1.696v-2.3546h1.696v-2.7992h2.693v2.7992h2.078v2.3546h-2.078v4.602c0 .657.339 1.1449.933 1.1449.402 0 .786-.1486.932-.3178l.574 2.0567c-.403.3609-1.124.6579-2.249.6579-1.887 0-2.883-.9756-2.883-2.8208z"/><path d="m148.519 28.8004v-6.214h-6.681v6.214h-3.01v-14.4h3.01v5.5561h6.681v-5.5561h3.032v14.4z"/><path d="m161.19 28.8001v-1.5482c-.7.7634-1.929 1.5482-3.604 1.5482-2.248 0-3.309-1.2303-3.309-3.224v-7.2743h2.692v6.2139c0 1.4213.743 1.8877 1.888 1.8877 1.039 0 1.867-.5726 2.333-1.1666v-6.935h2.694v10.4983z"/><path d="m173.475 28.8v-6.4471c0-1.4213-.741-1.9091-1.887-1.9091-1.061 0-1.866.594-2.333 1.188v7.1682h-2.693v-10.4983h2.693v1.315c.657-.7632 1.93-1.5688 3.584-1.5688 2.269 0 3.35 1.2718 3.35 3.2655v7.4866z"/></g><g mask="url(#a)"><path clip-rule="evenodd" d="m179.399 25.9796v-5.3229h-1.696v-2.3546h1.696v-2.7992h2.694v2.7992h2.077v2.3546h-2.077v4.602c0 .657.338 1.1449.932 1.1449.403 0 .786-.1486.935-.3178l.571 2.0567c-.402.3609-1.124.6579-2.248.6579-1.888 0-2.884-.9756-2.884-2.8208z" fill="#000" fill-rule="evenodd"/></g></svg>