<?xml version="1.0" encoding="UTF-8"?>
<svg width="889px" height="517px" viewBox="0 0 889 517" version="1.1" xmlns="http://www.w3.org/2000/svg" xmlns:xlink="http://www.w3.org/1999/xlink">
    <!-- Generator: Sketch 55.1 (78136) - https://sketchapp.com -->
    <title>pi-icon-2</title>
    <desc>Created with Sketch.</desc>
    <g id="Page-1" stroke="none" stroke-width="1" fill="none" fill-rule="evenodd">
        <g id="Carve---Sublime---1-November-2019" transform="translate(-332.000000, -367.000000)">
            <g id="pi-icon-2" transform="translate(333.500000, 368.000000)">
                <path d="M12.6988891,515.028 C1.64440975,357.510094 35.5917268,286.216588 114.54084,301.147482 C232.96451,323.543824 366.99749,348.856528 489.714207,169.570265 C612.430923,-9.71599812 772.95203,139.065422 772.95203,275.639578 C772.95203,366.689015 759.639438,445.528512 733.014253,512.158068 L12.6988891,515.028 Z" id="Path-47" fill="#FFD9A3" opacity="0.100000001"></path>
                <g id="Group-2" transform="translate(10.952030, 0.000000)">
                    <g id="Group-14" transform="translate(340.816438, 26.940377)">
                        <polyline id="Path" stroke-opacity="0.85" stroke="#000000" stroke-width="1.5" points="241.262803 0 241.262803 137.343096 -5.82645043e-13 137.343096 -5.82645043e-13 0 220.285545 0"></polyline>
                        <g id="Group-2-Copy" transform="translate(32.835266, 9.508368)">
                            <path d="M38.3657331,46.4362328 L44.6175524,45.4744145 C47.4457317,45.03931 50.0911459,46.9792804 50.5262504,49.8074596 C50.5663569,50.0681521 50.586498,50.3315265 50.586498,50.595286 C50.586498,53.930628 46.2328348,56.6344569 42.8974928,56.6344569 L38.3657331,46.4362328 Z" id="Path" stroke-opacity="0.85" stroke="#000000" stroke-width="1.5" fill="#FFFFFF" transform="translate(44.476116, 51.023947) scale(-1, 1) translate(-44.476116, -51.023947) "></path>
                            <ellipse id="Oval-Copy-2" stroke-opacity="0.85" stroke="#000000" stroke-width="1.5" fill="#FFFFFF" cx="91.9562998" cy="86.2123326" rx="14.7855563" ry="15.7226691"></ellipse>
                            <g id="Group" transform="translate(18.081915, 70.489664)" fill="#FFFFFF" stroke="#000000" stroke-opacity="0.85" stroke-width="1.5">
                                <ellipse id="Oval-Copy-3" cx="14.7855563" cy="15.7226691" rx="14.7855563" ry="15.7226691"></ellipse>
                                <ellipse id="Oval-Copy" cx="17.5968945" cy="15.7226691" rx="11.9742182" ry="15.7226691"></ellipse>
                            </g>
                            <g id="Group-Copy" transform="translate(96.641863, 70.489664)" fill="#FFFFFF" stroke="#000000" stroke-opacity="0.85" stroke-width="1.5">
                                <ellipse id="Oval-Copy-3" cx="14.7855563" cy="15.7226691" rx="14.7855563" ry="15.7226691"></ellipse>
                                <ellipse id="Oval-Copy" cx="17.5968945" cy="15.7226691" rx="11.9742182" ry="15.7226691"></ellipse>
                            </g>
                            <path d="M45.8627771,57.437888 L67.6936897,29.2237659 C70.4397538,25.6747715 74.6742578,23.5971565 79.1615989,23.5971565 L142.538628,23.5971565 C148.07143,23.5971565 153.121994,26.7457575 155.557814,31.7135211 L174.570735,70.4896635 L45.8627771,57.437888 Z" id="Path" stroke-opacity="0.85" stroke="#000000" stroke-width="1.5"></path>
                            <path d="M47.9452498,61.1863389 L69.7761624,32.9722168 C72.5222265,29.4232224 76.7567306,27.3456074 81.2440716,27.3456074 L103.32665,27.3456074 C104.983504,27.3456074 106.32665,28.6887531 106.32665,30.3456074 C106.32665,30.7457291 106.246609,31.1418082 106.091239,31.5105322 L88.9654312,72.1533364 L47.9452498,61.1863389 Z" id="Path-Copy" stroke-opacity="0.85" stroke="#000000" stroke-width="1.5" fill="#FFFFFF"></path>
                            <path d="M101.278489,60.9100975 L96.6149989,36.8690523 C95.7736235,32.5316259 98.6077328,28.3333775 102.945159,27.4920021 C103.447129,27.3946299 103.957278,27.3456074 104.468604,27.3456074 L125.397846,27.3456074 C128.670307,27.3456074 131.612819,29.3386856 132.826905,32.3775991 L147.558321,69.2510045 L101.278489,60.9100975 Z" id="Path-Copy-2" stroke-opacity="0.85" stroke="#000000" stroke-width="1.5" fill="#FFFFFF" transform="translate(121.162980, 48.298306) scale(-1, 1) translate(-121.162980, -48.298306) "></path>
                            <ellipse id="Oval-Copy-6" stroke-opacity="0.85" stroke="#000000" stroke-width="1.5" fill="#FFFFFF" cx="152.348009" cy="86.2123326" rx="14.7855563" ry="15.7226691"></ellipse>
                            <path d="M36.3527049,52.5803981 L36.3527049,52.5803981 L177.21382,52.5803981 C180.433468,52.5803981 183.266153,54.7068896 184.164893,57.7985551 L190.368642,79.1394507 C191.484622,82.9784221 189.277201,86.9952039 185.43823,88.111184 C184.781646,88.3020512 184.101332,88.3989289 183.417569,88.3989289 L25.8174064,88.3989289 C20.9619071,88.3989289 16.8766591,84.7611846 16.3158448,79.9381813 L14.0736499,60.6553053" id="Path" stroke-opacity="0.85" stroke="#000000" stroke-width="1.5" fill="#FFFFFF"></path>
                            <path d="M26.2716502,55.1656901 L169.552922,55.1656901 C175.779776,55.1656901 181.258239,59.2783619 182.996418,65.257697 L185.269247,73.0762279 C187.427571,80.5008658 183.158381,88.2693922 175.733743,90.4277171 C174.4639,90.7968577 173.14816,90.9842209 171.82575,90.9842209 L31.1878456,90.9842209 C21.7972248,90.9842209 13.8962838,83.9487597 12.811659,74.6209868 L12.3653469,70.7827021 C11.4722958,63.1024629 16.9743989,56.1524379 24.6546382,55.2593868 C25.1913823,55.1969747 25.7312896,55.1656901 26.2716502,55.1656901 Z" id="Rectangle" fill="#FF5320"></path>
                            <rect id="Rectangle" fill="#FFFFFF" x="125.645191" y="63.5880402" width="8.96234557" height="4.13646719" rx="2.06823359"></rect>
                            <path d="M136.860282,56.2806683 L140.013106,69.2510045 M94.7676379,0.420424247 C95.0339397,0.391781025 95.3015849,0.377428549 95.5694226,0.377428549" id="Shape" stroke-opacity="0.85" stroke="#000000" stroke-width="1.5" transform="translate(117.390372, 34.760333) scale(-1, 1) translate(-117.390372, -34.760333) "></path>
                            <path d="M141.773201,52.5803981 L138.917985,72.4554637 C138.140035,77.870745 133.50064,81.8912816 128.029765,81.8912816 L99.779097,81.8912816" id="Path-3" stroke-opacity="0.85" stroke="#000000" stroke-width="1.5"></path>
                            <path d="M21.5449177,55.1656901 L65.8383368,55.1656901 C72.8724369,55.1656901 78.8143949,60.3850022 79.7214501,67.3603743 L80.7381469,75.1789051 C81.7351953,82.8463369 76.3277812,89.8702859 68.6603494,90.8673342 C68.0617268,90.9451772 67.4586962,90.9842209 66.8550336,90.9842209 L26.5706088,90.9842209 C17.3743863,90.9842209 9.57430402,84.2292681 8.26040253,75.1273907 L7.68854539,71.1659267 C6.58384522,63.5132636 11.892018,56.414018 19.5446811,55.3093178 C20.2071361,55.2136891 20.8755961,55.1656901 21.5449177,55.1656901 Z" id="Rectangle-Copy-6" fill="#EF3F0C"></path>
                            <g id="Group-4" transform="translate(172.547994, 58.619569)">
                                <path d="M6.04617231,0 L12.9111914,0 C15.1203304,-4.05812251e-16 16.9111914,1.790861 16.9111914,4 L16.9111914,5.57937452 C16.9111914,7.78851352 15.1203304,9.57937452 12.9111914,9.57937452 L6.32011563,9.57937452 C4.37472551,9.57937452 2.71142614,8.17974043 2.37896129,6.26296975 L2.10501797,4.68359523 C1.72747875,2.50695579 3.18593765,0.436384874 5.36257709,0.0588456556 C5.58833618,0.019687627 5.8170424,-8.46087938e-16 6.04617231,0 Z" id="Rectangle-Copy-7" fill="#FFFFFF"></path>
                                <path d="M4.75352632,0 L11.6185454,0 C13.8276844,-4.05812251e-16 15.6185454,1.790861 15.6185454,4 L15.6185454,5.57937452 C15.6185454,7.78851352 13.8276844,9.57937452 11.6185454,9.57937452 L5.02746963,9.57937452 C3.08207951,9.57937452 1.41878014,8.17974043 1.08631529,6.26296975 L0.812371975,4.68359523 C0.434832756,2.50695579 1.89329165,0.436384874 4.06993109,0.0588456556 C4.29569018,0.019687627 4.52439641,4.20904821e-17 4.75352632,0 Z" id="Rectangle" stroke-opacity="0.85" stroke="#000000" stroke-width="1.5"></path>
                            </g>
                            <path d="M18.4411245,52.5803981 L30.4304145,52.5803981 L60.4436075,52.5803981 C67.5753005,52.5803981 73.5671927,57.9413844 74.3574018,65.0291636 L75.4006563,74.3866329 C76.2573795,82.0710093 70.7224729,88.9949385 63.0380965,89.8516617 C62.5230126,89.9090879 62.0051372,89.9378674 61.486862,89.9378674 L23.5105594,89.9378674 C14.0865365,89.9378674 6.16867902,82.853707 5.12447408,73.4877129 L4.52733024,68.1316326 C3.6706071,60.4472562 9.20551366,53.523327 16.8898901,52.6666038 C17.404974,52.6091777 17.9228493,52.5803981 18.4411245,52.5803981 Z" id="Rectangle-Copy" stroke-opacity="0.85" stroke="#000000" stroke-width="1.5"></path>
                            <g id="Group-6" transform="translate(54.499379, 74.704796)">
                                <rect id="Rectangle-Copy-8" fill="#FEDB3D" x="1.0341168" y="0" width="8.01440517" height="3.10235039" rx="1.55117519"></rect>
                                <rect id="Rectangle-Copy-5" stroke-opacity="0.85" stroke="#000000" stroke-width="1.5" x="0" y="0" width="8.01440517" height="3.10235039" rx="1.55117519"></rect>
                            </g>
                            <g id="Group-5" transform="translate(13.134707, 74.704796)">
                                <rect id="Rectangle-Copy-9" fill="#FEDB3D" x="1.0341168" y="0" width="8.01440517" height="3.10235039" rx="1.55117519"></rect>
                                <rect id="Rectangle" stroke-opacity="0.85" stroke="#000000" stroke-width="1.5" x="0" y="0" width="8.01440517" height="3.10235039" rx="1.55117519"></rect>
                            </g>
                            <g id="Group-3" transform="translate(18.822350, 59.043628)" stroke="#000000" stroke-opacity="0.85" stroke-width="1.5">
                                <path d="M6.61195762,-1.0658141e-14 L30.0399172,-1.0658141e-14 C32.758066,-1.11574569e-14 34.961561,2.20349498 34.961561,4.92164379 C34.961561,5.37954788 34.8976582,5.83521168 34.7717015,6.27545145 L34.4280964,7.47640871 C33.5686565,10.4802948 30.8225463,12.5509029 27.6981315,12.5509029 L9.21739379,12.5509029 C6.20092614,12.5509029 3.52370203,10.6185405 2.57364882,7.75559173 L2.08247272,6.27545145 C1.25234252,3.77388602 2.60730849,1.07301306 5.10887393,0.242882861 C5.59367507,0.0820043705 6.10116017,-9.67613065e-15 6.61195762,-1.0658141e-14 Z" id="Rectangle-Copy" fill="#FFFFFF"></path>
                                <path d="M10.0057246,-1.0658141e-14 L30.101318,-1.0658141e-14 C32.8943513,-1.490775e-14 35.1585521,2.26420085 35.1585521,5.05723415 C35.1585521,5.46784636 35.1085445,5.87693037 35.0096338,6.27545145 L34.7709565,7.23710547 C33.9961439,10.3589007 31.1935932,12.5509029 27.9770827,12.5509029 L12.3576285,12.5509029 C9.23743109,12.5509029 6.49395755,10.4857783 5.63080252,7.48734616 L5.28193586,6.27545145 C4.53092175,3.66657499 6.03701676,0.942845514 8.64589322,0.1918314 C9.08796125,0.0645738111 9.54570431,-1.14618151e-14 10.0057246,-1.0658141e-14 Z" id="Rectangle-Copy-4" fill="#FFFFFF"></path>
                                <path d="M4.94639586,2.81445298 L35.4010627,2.81445298" id="Path-4"></path>
                                <path d="M6.60366894,10.0532706 L33.8256827,10.2073764" id="Path-4-Copy-2"></path>
                                <path d="M5.20492506,6.43386177 L34.713433,6.43386177" id="Path-4-Copy"></path>
                            </g>
                            <path d="M3.7484509,84.0043775 L77.2748671,84.0043775 C79.3450793,84.0043775 81.023318,85.6826162 81.023318,87.7528284 C81.023318,89.8230407 79.3450793,91.5012793 77.2748671,91.5012793 L3.7484509,91.5012793 C1.67823863,91.5012793 1.17288681e-15,89.8230407 0,87.7528284 C-1.17288681e-15,85.6826162 1.67823863,84.0043775 3.7484509,84.0043775 Z" id="Rectangle" stroke-opacity="0.85" stroke="#000000" stroke-width="1.5" fill="#FFFFFF"></path>
                            <path d="M182.647987,84.0043775 L193.685092,84.0043775 C195.755305,84.0043775 197.433543,85.6826162 197.433543,87.7528284 C197.433543,89.8230407 195.755305,91.5012793 193.685092,91.5012793 L182.647987,91.5012793 C180.577775,91.5012793 178.899536,89.8230407 178.899536,87.7528284 C178.899536,85.6826162 180.577775,84.0043775 182.647987,84.0043775 Z" id="Rectangle-Copy-2" stroke-opacity="0.85" stroke="#000000" stroke-width="1.5" fill="#FFFFFF"></path>
                            <ellipse id="Oval" stroke-opacity="0.85" stroke="#000000" stroke-width="1.5" fill="#FFFFFF" cx="94.7676379" cy="86.2123326" rx="11.9742182" ry="15.7226691"></ellipse>
                            <ellipse id="Oval-Copy-9" stroke-opacity="0.85" stroke="#000000" stroke-width="1.5" fill="#9598B4" cx="94.7676379" cy="86.2123326" rx="6.69436535" ry="8.78999277"></ellipse>
                            <ellipse id="Oval-Copy-11" stroke-opacity="0.85" stroke="#000000" stroke-width="1.5" fill="#FFFFFF" cx="93.5768627" cy="86.2123326" rx="5.55837778" ry="8.78999277"></ellipse>
                            <ellipse id="Oval-Copy-5" stroke-opacity="0.85" stroke="#000000" stroke-width="1.5" fill="#FFFFFF" cx="155.159347" cy="86.2123326" rx="11.9742182" ry="15.7226691"></ellipse>
                            <ellipse id="Oval-Copy-10" stroke-opacity="0.85" stroke="#000000" stroke-width="1.5" fill="#9598B4" cx="155.517521" cy="86.2123326" rx="6.69436535" ry="8.78999277"></ellipse>
                            <ellipse id="Oval-Copy-12" stroke-opacity="0.85" stroke="#000000" stroke-width="1.5" fill="#FFFFFF" cx="154.381534" cy="86.2123326" rx="5.55837778" ry="8.78999277"></ellipse>
                            <ellipse id="Oval" stroke-opacity="0.85" stroke="#000000" stroke-width="1.5" fill="#FFFFFF" cx="13.2597446" cy="63.4092563" rx="4.8938109" ry="5.20618181"></ellipse>
                            <ellipse id="Oval-Copy-8" stroke-opacity="0.85" stroke="#000000" stroke-width="1.5" fill="#FFFFFF" cx="14.6634113" cy="63.4092563" rx="3.49014419" ry="5.20618181"></ellipse>
                            <ellipse id="Oval-Copy-4" stroke-opacity="0.85" stroke="#000000" stroke-width="1.5" fill="#FFFFFF" cx="62.8808868" cy="63.4092563" rx="4.8938109" ry="5.20618181"></ellipse>
                            <ellipse id="Oval-Copy-7" stroke-opacity="0.85" stroke="#000000" stroke-width="1.5" fill="#FFFFFF" cx="64.2845535" cy="63.4092563" rx="3.49014419" ry="5.20618181"></ellipse>
                            <path d="M155.078756,40.7315941 L157.917018,46.0184634 C158.439478,46.9916584 158.074086,48.204127 157.100891,48.7265878 C156.810024,48.8827403 156.485025,48.9644623 156.154892,48.9644623 L152.688706,48.9644623 C151.584137,48.9644623 150.688706,48.0690318 150.688706,46.9644623 C150.688706,46.8856282 150.693367,46.806863 150.702665,46.7285791 L151.33059,41.4417098 C151.460864,40.3448496 152.455654,39.5612772 153.552514,39.6915519 C154.200458,39.7685086 154.770125,40.1567021 155.078756,40.7315941 Z" id="Path-2" stroke-opacity="0.85" stroke="#000000" stroke-width="1.5"></path>
                            <path d="M99.9702945,46.272871 L112.237877,45.0552449 C115.243786,44.7568916 117.922421,46.9517995 118.220774,49.957709 C118.238592,50.1372299 118.247518,50.3175224 118.247518,50.4979254 C118.247518,53.8332674 115.543689,56.5370963 112.208347,56.5370963 L100.266605,56.5370963 C98.609751,56.5370963 97.2666052,55.1939505 97.2666052,53.5370963 L97.2666052,49.2582018 C97.2666052,47.7161008 98.435734,46.4251847 99.9702945,46.272871 Z" id="Rectangle" stroke-opacity="0.85" stroke="#000000" stroke-width="1.5" fill="#FFFFFF"></path>
                        </g>
                        <text id="Practical" font-family="Helvetica" font-size="9" font-weight="normal" letter-spacing="0.15000005" fill="#000000">
                            <tspan x="15.7315322" y="22.5449791">PRACTICAL</tspan>
                        </text>
                        <path d="M17.6474745,37.5052301 L38.1728485,37.5052301" id="Path-51-Copy" stroke="#FFA526" stroke-width="1.5"></path>
                    </g>
                    <g id="Group-14-Copy" transform="translate(605.021997, 92.934100)">
                        <polygon id="Path" stroke-opacity="0.85" stroke="#000000" stroke-width="1.5" points="180.019169 0 180.019169 102.479079 0 102.479079 0 0 164.366907 0"></polygon>
                        <g id="Group-13" transform="translate(56.965249, 19.016736)">
                            <path d="M74.8648311,54.0097544 L89.521894,54.0097544 L89.521894,70.27887 C81.4270217,70.27887 74.8648311,63.7166795 74.8648311,55.6218072 L74.8648311,54.0097544 Z" id="Rectangle" stroke-opacity="0.85" stroke="#000000" stroke-width="1.5" fill="#FFFFFF"></path>
                            <path d="M46.9763906,54.0097544 L61.6334535,54.0097544 L61.6334535,70.27887 C53.5385812,70.27887 46.9763906,63.7166795 46.9763906,55.6218072 L46.9763906,54.0097544 Z" id="Rectangle-Copy-25" stroke-opacity="0.85" stroke="#000000" stroke-width="1.5" fill="#FFFFFF"></path>
                            <g id="Group-7" transform="translate(9.093190, 40.717123)" fill="#FFFFFF" stroke="#000000" stroke-opacity="0.85" stroke-width="1.5">
                                <path d="M0.512690775,13.2926313 L15.1697537,13.2926313 L15.1697537,29.5617469 C7.07488135,29.5617469 0.512690775,22.9995563 0.512690775,14.904684 L0.512690775,13.2926313 Z" id="Rectangle-Copy-26"></path>
                                <ellipse id="Oval-Copy-17" cx="15.0913257" cy="14.7808735" rx="9.07967941" ry="14.7808735"></ellipse>
                            </g>
                            <path d="M99.5054125,33.7741646 L16.7330643,31.3905457 L25.0015288,8.63513252 L56.3627037,6.13545691 L84.4226906,6.13545691 C89.6655305,6.13545691 94.2035255,9.78017062 95.3347341,14.8995199 L97.7447629,26.8382185" id="Path" stroke-opacity="0.85" stroke="#000000" stroke-width="1.5" fill="#FFFFFF"></path>
                            <path d="M96.1587996,33.7741646 L16.7330643,31.3905457 L25.0015288,8.63513252 L56.3627037,10.0398386 L81.3878313,10.0398386 C86.4871744,10.0398386 90.9397905,13.4917662 92.2105436,18.4302363 L93.9141316,25.3463492" id="Path" stroke-opacity="0.85" stroke="#000000" stroke-width="1.5" fill="#FFFFFF"></path>
                            <rect id="Rectangle" stroke-opacity="0.85" stroke="#000000" stroke-width="1.5" fill="#FFFFFF" x="11.0930962" y="24.1863264" width="11.0930962" height="6.45174891" rx="2"></rect>
                            <path d="M88.3500363,33.7741646 L16.7330643,31.3905457 L25.4653229,7.35873763 C27.0705365,2.94107343 31.2684265,0 35.968689,0 L72.4995632,0 C77.8373514,0 82.4299529,3.77486575 83.4633854,9.01165869 L86.6380173,25.0987176 L86.6380173,25.0987176" id="Path" stroke-opacity="0.85" stroke="#000000" stroke-width="1.5" fill="#FFFFFF"></path>
                            <path d="M50.979526,33.7741646 L20.0796772,31.3905457 L28.4502304,8.57914569 C29.6035973,5.43599439 32.5958952,3.34661286 35.9439776,3.34661286 L55.3001164,3.34661286 C57.9452291,3.34661286 60.0895166,5.4909004 60.0895166,8.13601314 C60.0895166,8.69978075 59.9899797,9.2591209 59.795489,9.78827808 L53.7275551,26.2975096" id="Path" stroke-opacity="0.85" stroke="#000000" stroke-width="1.5" fill="#FFFFFF"></path>
                            <path d="M82.1933625,33.7741646 L53.7683701,32.4090039 M55.155333,25.4340584 C55.8775242,21.8022059 56.9608111,16.3544272 58.4051936,9.09072229 C59.0691712,5.75162239 61.9995025,3.34661286 65.4039782,3.34661286 L67.8922357,3.34661286 C69.9129334,3.34661286 71.716236,4.6148491 72.3995177,6.51651819 L79.4186,26.0516105" id="Shape" stroke-opacity="0.85" stroke="#000000" stroke-width="1.5" fill="#FFFFFF" transform="translate(67.980866, 18.560389) scale(-1, 1) translate(-67.980866, -18.560389) "></path>
                            <rect id="Rectangle" stroke-opacity="0.85" stroke="#000000" stroke-width="1.5" fill="#FFFFFF" x="65.0980186" y="50.7569617" width="45.1792736" height="6.5055854" rx="3.2527927"></rect>
                            <path d="M17.7532282,29.2062457 L44.2655734,29.2062457 L92.115122,27.1050028 C100.391417,26.7415614 107.395307,33.1561968 107.758749,41.4324919 C107.768376,41.6517161 107.773191,41.8711252 107.773191,42.0905607 L107.773191,44.4936223 C107.773191,52.7778936 101.057462,59.4936223 92.7731909,59.4936223 L20.4224291,59.4936223 C13.1859462,59.4936223 6.98111852,54.3271291 5.67049547,47.2103213 L5.14372987,44.349934 C3.86124153,37.3859004 8.467044,30.7007735 15.4310776,29.4182852 C16.1970805,29.2772189 16.9743443,29.2062457 17.7532282,29.2062457 Z" id="Rectangle-Copy-29" fill="#FFA320"></path>
                            <path d="M15.5221529,26.9751705 L42.0344982,26.9751705 L89.8840468,24.8739276 C98.1603419,24.5104862 105.164232,30.9251215 105.527674,39.2014166 C105.5373,39.4206409 105.542116,39.64005 105.542116,39.8594855 L105.542116,42.2625471 C105.542116,50.5468183 98.8263869,57.2625471 90.5421156,57.2625471 L18.1913539,57.2625471 C10.9548709,57.2625471 4.75004328,52.0960538 3.43942023,44.9792461 L2.91265463,42.1188588 C1.63016629,35.1548252 6.23596876,28.4696983 13.2000024,27.1872099 C13.9660053,27.0461437 14.743269,26.9751705 15.5221529,26.9751705 Z" id="Rectangle" stroke-opacity="0.85" stroke="#000000" stroke-width="1.5"></path>
                            <rect id="Rectangle" stroke-opacity="0.85" stroke="#000000" stroke-width="1.5" fill="#FFFFFF" x="55.4654812" y="24.1863264" width="11.0930962" height="6.45174891" rx="2"></rect>
                            <rect id="Rectangle" stroke-opacity="0.85" stroke="#000000" stroke-width="1.5" fill="#FFFFFF" x="98.1012183" y="29.1355184" width="7.52271862" height="6.78498373" rx="2.25"></rect>
                            <path d="M17.0716488,26.9751705 L35.9163882,26.9751705 C42.9975279,26.9751705 48.7379259,32.7155684 48.7379259,39.7967082 C48.7379259,40.5755921 48.6669527,41.3528559 48.5258865,42.1188588 L47.9991209,44.9792461 C46.6884978,52.0960538 40.4836701,57.2625471 33.2471872,57.2625471 L19.7408497,57.2625471 C12.5043668,57.2625471 6.29953913,52.0960538 4.98891608,44.9792461 L4.46215048,42.1188588 C3.17966214,35.1548252 7.78546461,28.4696983 14.7494982,27.1872099 C15.5155011,27.0461437 16.2927649,26.9751705 17.0716488,26.9751705 Z" id="Rectangle-Copy-30" fill="#F68B0F"></path>
                            <path d="M15.3983424,26.9751705 L34.2430817,26.9751705 C41.3242215,26.9751705 47.0646195,32.7155684 47.0646195,39.7967082 C47.0646195,40.5755921 46.9936462,41.3528559 46.85258,42.1188588 L46.3258144,44.9792461 C45.0151914,52.0960538 38.8103637,57.2625471 31.5738808,57.2625471 L18.0675433,57.2625471 C10.8310604,57.2625471 4.6262327,52.0960538 3.31560965,44.9792461 L2.78884405,42.1188588 C1.50635571,35.1548252 6.11215818,28.4696983 13.0761918,27.1872099 C13.8421947,27.0461437 14.6194584,26.9751705 15.3983424,26.9751705 Z" id="Rectangle-Copy-20" stroke-opacity="0.85" stroke="#000000" stroke-width="1.5"></path>
                            <circle id="Oval" stroke-opacity="0.85" stroke="#000000" stroke-width="1.5" fill="#FFFFFF" cx="10.5856326" cy="37.2347249" r="3.76859628"></circle>
                            <path d="M10.5856326,41.0033212 C12.6669708,41.0033212 14.3542289,39.3160631 14.3542289,37.2347249 C14.3542289,35.1533866 12.6669708,33.4661286 10.5856326,33.4661286 C8.50429433,33.4661286 8.49034273,35.1533866 8.49034273,37.2347249 C8.49034273,39.3160631 8.50429433,41.0033212 10.5856326,41.0033212 Z" id="Oval-Copy-16" stroke-opacity="0.85" stroke="#000000" stroke-width="1.5" fill="#FFFFFF"></path>
                            <circle id="Oval-Copy-14" stroke-opacity="0.85" stroke="#000000" stroke-width="1.5" fill="#FFFFFF" cx="38.4740731" cy="37.2347249" r="3.76859628"></circle>
                            <path d="M38.4740731,41.0033212 C40.5554113,41.0033212 42.2426694,39.3160631 42.2426694,37.2347249 C42.2426694,35.1533866 40.5554113,33.4661286 38.4740731,33.4661286 C36.3927348,33.4661286 36.3787832,35.1533866 36.3787832,37.2347249 C36.3787832,39.3160631 36.3927348,41.0033212 38.4740731,41.0033212 Z" id="Oval-Copy-15" stroke-opacity="0.85" stroke="#000000" stroke-width="1.5" fill="#FFFFFF"></path>
                            <g id="Group-12" transform="translate(17.421957, 34.581666)" fill="#FFFFFF" stroke="#000000" stroke-opacity="0.85" stroke-width="1.5">
                                <rect id="Rectangle" x="0" y="0" width="2.50995964" height="10.5976074" rx="1.25497982"></rect>
                                <rect id="Rectangle-Copy-23" x="5.01991929" y="0" width="2.50995964" height="10.5976074" rx="1.25497982"></rect>
                                <rect id="Rectangle-Copy-24" x="10.0325249" y="0" width="2.50995964" height="10.5976074" rx="1.25497982"></rect>
                            </g>
                            <g id="Group-7-Copy-3" transform="translate(52.430268, 40.717123)" fill="#FFFFFF" stroke="#000000" stroke-opacity="0.85" stroke-width="1.5">
                                <ellipse id="Oval" cx="37.0131979" cy="14.7808735" rx="9.07967941" ry="14.7808735"></ellipse>
                                <ellipse id="Oval-Copy-18" cx="37.0131979" cy="14.7808735" rx="3.59760882" ry="5.8565725"></ellipse>
                                <ellipse id="Oval-Copy-13" cx="9.12475745" cy="14.7808735" rx="9.07967941" ry="14.7808735"></ellipse>
                                <ellipse id="Oval-Copy-18" cx="9.12475745" cy="14.7808735" rx="3.59760882" ry="5.8565725"></ellipse>
                            </g>
                            <rect id="Rectangle" stroke-opacity="0.85" stroke="#000000" stroke-width="1.5" fill="#FFFFFF" x="1.2393482" y="50.7569617" width="45.1792736" height="6.5055854" rx="3.2527927"></rect>
                        </g>
                        <text id="ADVENTURER" font-family="Helvetica" font-size="9" font-weight="normal" letter-spacing="0.15000005" fill="#000000">
                            <tspan x="13.167731" y="17.5835613">ADVENTURER</tspan>
                        </text>
                        <path d="M13.167731,27.9846717 L28.4828177,27.9846717" id="Path-51-Copy" stroke="#FFA526" stroke-width="1.5"></path>
                    </g>
                    <g id="Group-14-Copy-3" transform="translate(695.521997, 213.000000)">
                        <polygon id="Path" stroke-opacity="0.85" stroke="#000000" stroke-width="1.5" points="180.019169 0 180.019169 102.479079 0 102.479079 0 0 164.366907 0"></polygon>
                        <text id="LUXURY" font-family="Helvetica" font-size="9" font-weight="normal" letter-spacing="0.15000005" fill="#000000">
                            <tspan x="13.167731" y="17.5835613">LUXURY</tspan>
                        </text>
                        <g id="Group-2" transform="translate(12.896104, 24.528000)">
                            <path d="M31.516009,28.0146839 C32.1144375,28.0514366 33.0120802,28.1065656 34.2089371,28.180071 L37.8211599,28.4019168 C39.2793041,28.4914692 40.4160342,29.7001537 40.4160342,31.1610453 C40.4160342,32.5968549 39.2520805,33.7608087 37.8162708,33.7608087 L28.4912964,33.7608087 C28.1577738,33.7608087 27.8874003,33.4904352 27.8874003,33.1569126 L27.8874003,28.4339541" id="Path" stroke-opacity="0.85" stroke="#000000" stroke-width="1.5" fill="#FFFFFF" transform="translate(34.151717, 30.887746) scale(-1, 1) translate(-34.151717, -30.887746) "></path>
                            <path d="M33.8211703,35.3793661 L44.4000859,23.8803215 C47.1457688,20.8958255 51.0158148,19.1975379 55.0711805,19.1975379 L121.549099,19.1975379 C126.85619,19.1975379 131.739282,22.0968743 134.279787,26.7563859 L143.230704,43.1731604 L33.8211703,35.3793661 Z" id="Path-Copy-3" fill="#FFD9A3"></path>
                            <ellipse id="Oval-Copy-2" stroke-opacity="0.85" stroke="#000000" stroke-width="1.5" fill="#FFFFFF" cx="58.9371606" cy="51.4812089" rx="8.82911169" ry="9.38870328"></ellipse>
                            <g id="Group" transform="translate(14.823488, 42.092506)" fill="#FFFFFF" stroke="#000000" stroke-opacity="0.85" stroke-width="1.5">
                                <ellipse id="Oval-Copy-3" cx="8.82911169" cy="9.38870328" rx="8.82911169" ry="9.38870328"></ellipse>
                                <ellipse id="Oval-Copy" cx="10.5078865" cy="9.38870328" rx="7.15033694" ry="9.38870328"></ellipse>
                            </g>
                            <g id="Group-Copy" transform="translate(79.852002, 42.092506)" fill="#FFFFFF" stroke="#000000" stroke-opacity="0.85" stroke-width="1.5">
                                <ellipse id="Oval-Copy-3" cx="8.82911169" cy="9.38870328" rx="8.82911169" ry="9.38870328"></ellipse>
                                <ellipse id="Oval-Copy" cx="10.5078865" cy="9.38870328" rx="7.15033694" ry="9.38870328"></ellipse>
                            </g>
                            <g id="Group-Copy-2" transform="translate(99.981872, 42.092506)" fill="#FFFFFF" stroke="#000000" stroke-opacity="0.85" stroke-width="1.5">
                                <ellipse id="Oval-Copy-3" cx="8.82911169" cy="9.38870328" rx="8.82911169" ry="9.38870328"></ellipse>
                                <ellipse id="Oval-Copy" cx="10.5078865" cy="9.38870328" rx="7.15033694" ry="9.38870328"></ellipse>
                            </g>
                            <path d="M31.4126731,34.2987113 L42.7093115,21.1533526 C45.4639398,17.9479232 49.4800226,16.1038961 53.7064578,16.1038961 L122.035049,16.1038961 C127.410497,16.1038961 132.344848,19.0776875 134.855841,23.8306188 L144.503671,42.0925056 L31.4126731,34.2987113 Z" id="Path" stroke-opacity="0.85" stroke="#000000" stroke-width="1.5"></path>
                            <path d="M32.6562099,36.5370777 L43.9528484,23.3917189 C46.7074766,20.1862895 50.7235595,18.3422624 54.9499947,18.3422624 L63.7620265,18.3422624 C65.4188808,18.3422624 66.7620265,19.6854082 66.7620265,21.3422624 C66.7620265,21.7714439 66.6699401,22.1956295 66.4919849,22.5861786 L57.1511802,43.0859585 L32.6562099,36.5370777 Z" id="Path-Copy" stroke-opacity="0.85" stroke="#000000" stroke-width="1.5" fill="#FFFFFF"></path>
                            <path d="M93.2895675,36.3721217 L93.0919335,35.4556122 C91.4464878,27.8250101 96.2984157,20.3052876 103.929018,18.6598419 C104.908075,18.4487203 105.906799,18.3422624 106.908361,18.3422624 L121.88707,18.3422624 C123.347686,18.3422624 124.596026,19.3941976 124.843645,20.8336714 L128.373361,41.3528474 L93.2895675,36.3721217 Z" id="Path-Copy-2" stroke-opacity="0.85" stroke="#000000" stroke-width="1.5" fill="#FFFFFF" transform="translate(108.887505, 29.847555) scale(-1, 1) translate(-108.887505, -29.847555) "></path>
                            <path d="M63.6060597,36.3721217 L61.5808162,24.1603037 C61.1290245,21.436089 62.9711873,18.8614272 65.695402,18.4096355 C65.9657751,18.364796 66.2393771,18.3422624 66.5134432,18.3422624 L77.5627599,18.3422624 C79.5538806,18.3422624 81.3552247,19.5236537 82.1486458,21.3498642 L90.8392038,41.3528474 L63.6060597,36.3721217 Z" id="Path-Copy-4" stroke-opacity="0.85" stroke="#000000" stroke-width="1.5" fill="#FFFFFF" transform="translate(75.727570, 29.847555) scale(-1, 1) translate(-75.727570, -29.847555) "></path>
                            <ellipse id="Oval-Copy-6" stroke-opacity="0.85" stroke="#000000" stroke-width="1.5" fill="#FFFFFF" cx="121.168561" cy="51.4812089" rx="8.82911169" ry="9.38870328"></ellipse>
                            <ellipse id="Oval-Copy-16" stroke-opacity="0.85" stroke="#000000" stroke-width="1.5" fill="#FFFFFF" cx="139.285444" cy="51.4812089" rx="8.82911169" ry="9.38870328"></ellipse>
                            <path d="M25.7337871,31.3980886 C57.3669226,31.3980886 81.0917742,31.3980886 96.908342,31.3980886 C99.783868,31.3980886 115.504083,31.3980886 144.068988,31.3980886 C145.991582,31.3980886 147.683104,32.667911 148.219782,34.5140816 L151.924316,47.2576773 C152.590717,49.5500975 151.272568,51.9486961 148.980148,52.6150973 C148.588073,52.7290726 148.181827,52.7869226 147.773522,52.7869226 L19.4426929,52.7869226 C16.5432588,52.7869226 14.103776,50.6146641 13.7688889,47.7346348 L12.4299748,36.219974" id="Path" stroke-opacity="0.85" stroke="#000000" stroke-width="1.5" fill="#FFFFFF"></path>
                            <path d="M21.0919708,32.9418812 L135.260404,32.9418812 C141.487258,32.9418812 146.965722,37.054553 148.7039,43.0338881 L148.87902,43.6362982 C150.167943,48.0701939 147.618439,52.7094552 143.184543,53.9983784 C142.426209,54.2188243 141.640467,54.3307151 140.850741,54.3307151 L23.5790445,54.3307151 C17.441675,54.3307151 12.2779062,49.7325926 11.5690348,43.6362982 C10.9574799,38.3769258 14.7252803,33.6175989 19.9846527,33.006044 C20.3522112,32.9633046 20.7219358,32.9418812 21.0919708,32.9418812 Z" id="Rectangle" fill="#FFA320"></path>
                            <path d="M85.7513205,33.6076841 L87.634012,41.3528474 M60.6159353,0.251053971 C60.7749559,0.233949833 60.9347788,0.225379332 61.0947165,0.225379332" id="Shape" stroke-opacity="0.85" stroke="#000000" stroke-width="1.5" transform="translate(74.124974, 20.756937) scale(-1, 1) translate(-74.124974, -20.756937) "></path>
                            <path d="M88.6850427,31.3980886 L87.5261504,39.4650998 C86.7482008,44.880381 82.1088057,48.9009176 76.6379304,48.9009176 L63.6084999,48.9009176" id="Path-3" stroke-opacity="0.85" stroke="#000000" stroke-width="1.5"></path>
                            <path d="M125.522705,31.3980886 L124.363813,39.4650998 C123.585863,44.880381 118.946468,48.9009176 113.475593,48.9009176 L100.446162,48.9009176 L99.0064167,48.9009176 C94.035854,48.9009176 90.0064167,44.8714804 90.0064167,39.9009176 C90.0064167,39.4899283 90.0345687,39.0794217 90.090675,38.6722801 L91.0930981,31.3980886" id="Path-3-Copy" stroke-opacity="0.85" stroke="#000000" stroke-width="1.5"></path>
                            <path d="M18.0336624,32.9418812 L39.8665186,32.9418812 C44.9999486,32.9418812 49.1614159,37.1033484 49.1614159,42.2367784 C49.1614159,42.7052889 49.125993,43.1731289 49.05545,43.6362982 C48.1187189,49.7866635 42.8301842,54.3307151 36.6088934,54.3307151 L15.0822865,54.3307151 C9.88618619,54.3307151 5.67391463,50.1184436 5.67391463,44.9223433 C5.67391463,44.4921467 5.70342061,44.0624567 5.76222485,43.6362982 C6.60796696,37.5071442 11.846433,32.9418812 18.0336624,32.9418812 Z" id="Rectangle-Copy-6" fill="#F68B0F"></path>
                            <g id="Group-4" transform="translate(143.295803, 35.004346)">
                                <path d="M3.67473593,0 L7.23828794,0 C8.81789676,1.53919777e-16 10.0984227,1.28052596 10.0984227,2.86013477 C10.0984227,4.43974359 8.81789676,5.72026955 7.23828794,5.72026955 L4.66691959,5.72026955 C2.98917567,5.72026955 1.55471254,4.51319671 1.26798811,2.86013477 C1.03743594,1.53092466 1.92807418,0.266487494 3.25728429,0.0359353227 C3.39514877,0.0120226586 3.53481298,2.57034277e-17 3.67473593,0 Z" id="Rectangle-Copy-7" fill="#FEDB3D"></path>
                                <path d="M2.90283965,0 L6.46639166,0 C8.04600048,-7.34258642e-16 9.32652644,1.28052596 9.32652644,2.86013477 C9.32652644,4.43974359 8.04600048,5.72026955 6.46639166,5.72026955 L3.89502331,5.72026955 C2.2172794,5.72026955 0.782816265,4.51319671 0.496091832,2.86013477 C0.265539661,1.53092466 1.1561779,0.266487494 2.48538802,0.0359353227 C2.6232525,0.0120226586 2.76291671,2.57034277e-17 2.90283965,0 Z" id="Rectangle" stroke-opacity="0.85" stroke="#000000" stroke-width="1.5"></path>
                            </g>
                            <path d="M13.9457225,31.3980886 L34.8983129,31.3980886 C40.8843627,31.3980886 45.7370149,36.2507408 45.7370149,42.2367906 C45.7370149,42.8075509 45.6919311,43.3774195 45.6021841,43.9410797 L44.0474138,53.705891 L2.14223294,53.705891 L4.3966295,39.547043 C5.1440443,34.8528677 9.19241724,31.3980886 13.9457225,31.3980886 Z" id="Rectangle-Copy" stroke-opacity="0.85" stroke="#000000" stroke-width="1.5"></path>
                            <g id="Group-6" transform="translate(36.569971, 44.609548)">
                                <rect id="Rectangle-Copy-8" fill="#FEDB3D" x="0.617517021" y="0" width="4.78575691" height="1.85255106" rx="0.926275532"></rect>
                                <rect id="Rectangle-Copy-5" stroke-opacity="0.85" stroke="#000000" stroke-width="1.5" x="0" y="0" width="4.78575691" height="1.85255106" rx="0.926275532"></rect>
                            </g>
                            <g id="Group-5" transform="translate(11.869290, 44.609548)">
                                <rect id="Rectangle-Copy-9" fill="#FEDB3D" x="0.617517021" y="0" width="4.78575691" height="1.85255106" rx="0.926275532"></rect>
                                <rect id="Rectangle" stroke-opacity="0.85" stroke="#000000" stroke-width="1.5" x="0" y="0" width="4.78575691" height="1.85255106" rx="0.926275532"></rect>
                            </g>
                            <g id="Group-3" transform="translate(15.265634, 35.257570)" stroke="#000000" stroke-opacity="0.85" stroke-width="1.5">
                                <path d="M3.94829326,-1.0658141e-14 L17.9381674,-1.0658141e-14 C19.5612946,-9.62403705e-15 20.8770992,1.31580462 20.8770992,2.93893187 C20.8770992,3.21236672 20.83894,3.48446379 20.7637257,3.74735049 C20.1290571,5.96562357 18.1011432,7.49470099 15.7938634,7.49470099 L6.43536697,7.49470099 C4.078114,7.49470099 1.98596675,5.98463443 1.24353686,3.74735049 C0.747829284,2.25355478 1.55693958,0.640743708 3.05073529,0.145036133 C3.34023157,0.048968448 3.64327343,-1.06021098e-14 3.94829326,-1.0658141e-14 Z" id="Rectangle-Copy" fill="#FFFFFF"></path>
                                <path d="M5.97486208,-1.0658141e-14 L17.9748325,-1.0658141e-14 C19.6426766,-1.21477111e-14 20.9947314,1.35205479 20.9947314,3.01989889 C20.9947314,3.26509366 20.9648696,3.50937588 20.9058056,3.74735049 C20.359399,5.94887603 18.3830083,7.49470099 16.1146885,7.49470099 L8.13235259,7.49470099 C5.82321025,7.49470099 3.79286727,5.96637887 3.15407825,3.74735049 C2.7056144,2.18947461 3.60497056,0.563014889 5.16284645,0.11455104 C5.42682488,0.0385598876 5.70016357,-1.06076797e-14 5.97486208,-1.0658141e-14 Z" id="Rectangle-Copy-4" fill="#FFFFFF"></path>
                                <path d="M3.10809169,3.84194432 L20.7289311,3.84194432" id="Path-4-Copy"></path>
                            </g>
                            <path d="M2.23836635,50.162741 L46.1442517,50.162741 C47.3804673,50.162741 48.382618,51.1648917 48.382618,52.4011073 C48.382618,53.6373229 47.3804673,54.6394737 46.1442517,54.6394737 L2.23836635,54.6394737 C1.00215075,54.6394737 1.51392747e-16,53.6373229 0,52.4011073 C-1.51392747e-16,51.1648917 1.00215075,50.162741 2.23836635,50.162741 Z" id="Rectangle" stroke-opacity="0.85" stroke="#000000" stroke-width="1.5" fill="#FFFFFF"></path>
                            <path d="M147.31397,50.162741 L153.904715,50.162741 C155.140931,50.162741 156.143082,51.1648917 156.143082,52.4011073 C156.143082,53.6373229 155.140931,54.6394737 153.904715,54.6394737 L147.31397,54.6394737 C146.077754,54.6394737 145.075604,53.6373229 145.075604,52.4011073 C145.075604,51.1648917 146.077754,50.162741 147.31397,50.162741 Z" id="Rectangle-Copy-2" stroke-opacity="0.85" stroke="#000000" stroke-width="1.5" fill="#FFFFFF"></path>
                            <ellipse id="Oval" stroke-opacity="0.85" stroke="#000000" stroke-width="1.5" fill="#FFFFFF" cx="60.6159353" cy="51.4812089" rx="7.15033694" ry="9.38870328"></ellipse>
                            <ellipse id="Oval-Copy-9" stroke-opacity="0.85" stroke="#000000" stroke-width="1.5" fill="#9598B4" cx="60.6159353" cy="51.4812089" rx="3.99750257" ry="5.24889468"></ellipse>
                            <ellipse id="Oval-Copy-11" stroke-opacity="0.85" stroke="#000000" stroke-width="1.5" fill="#FFFFFF" cx="59.9048706" cy="51.4812089" rx="3.31915399" ry="5.24889468"></ellipse>
                            <ellipse id="Oval-Copy-5" stroke-opacity="0.85" stroke="#000000" stroke-width="1.5" fill="#FFFFFF" cx="122.847335" cy="51.4812089" rx="7.15033694" ry="9.38870328"></ellipse>
                            <ellipse id="Oval-Copy-10" stroke-opacity="0.85" stroke="#000000" stroke-width="1.5" fill="#9598B4" cx="123.061217" cy="51.4812089" rx="3.99750257" ry="5.24889468"></ellipse>
                            <ellipse id="Oval-Copy-12" stroke-opacity="0.85" stroke="#000000" stroke-width="1.5" fill="#FFFFFF" cx="122.382869" cy="51.4812089" rx="3.31915399" ry="5.24889468"></ellipse>
                            <ellipse id="Oval-Copy-15" stroke-opacity="0.85" stroke="#000000" stroke-width="1.5" fill="#FFFFFF" cx="140.964219" cy="51.4812089" rx="7.15033694" ry="9.38870328"></ellipse>
                            <ellipse id="Oval-Copy-14" stroke-opacity="0.85" stroke="#000000" stroke-width="1.5" fill="#9598B4" cx="141.1781" cy="51.4812089" rx="3.99750257" ry="5.24889468"></ellipse>
                            <ellipse id="Oval-Copy-13" stroke-opacity="0.85" stroke="#000000" stroke-width="1.5" fill="#FFFFFF" cx="140.499752" cy="51.4812089" rx="3.31915399" ry="5.24889468"></ellipse>
                            <ellipse id="Oval" stroke-opacity="0.85" stroke="#000000" stroke-width="1.5" fill="#FFFFFF" cx="11.9439558" cy="37.8644803" rx="2.92231162" ry="3.10884215"></ellipse>
                            <ellipse id="Oval-Copy-8" stroke-opacity="0.85" stroke="#000000" stroke-width="1.5" fill="#FFFFFF" cx="12.7821475" cy="37.8644803" rx="2.08411995" ry="3.10884215"></ellipse>
                            <ellipse id="Oval-Copy-4" stroke-opacity="0.85" stroke="#000000" stroke-width="1.5" fill="#FFFFFF" cx="41.5749415" cy="37.8644803" rx="2.92231162" ry="3.10884215"></ellipse>
                            <ellipse id="Oval-Copy-7" stroke-opacity="0.85" stroke="#000000" stroke-width="1.5" fill="#FFFFFF" cx="42.4131331" cy="37.8644803" rx="2.08411995" ry="3.10884215"></ellipse>
                            <path d="M132.643448,25.2699002 L133.826005,27.4617008 C134.249384,28.2464094 133.956469,29.2257581 133.17176,29.6491372 C132.936226,29.7762166 132.672794,29.842749 132.405164,29.842749 L131.952588,29.842749 C130.848018,29.842749 129.952588,28.9473185 129.952588,27.842749 C129.952588,27.763524 129.957295,27.684369 129.966685,27.6057024 L130.189782,25.7366662 C130.275533,25.0182727 130.927421,24.5054145 131.645814,24.5911653 C132.068962,24.6416743 132.441097,24.8948542 132.643448,25.2699002 Z" id="Path-2-Copy" fill="#FFFFFF"></path>
                            <path d="M131.828408,25.2699002 L133.010964,27.4617008 C133.434343,28.2464094 133.141428,29.2257581 132.356719,29.6491372 C132.121185,29.7762166 131.857753,29.842749 131.590124,29.842749 L131.137547,29.842749 C130.032977,29.842749 129.137547,28.9473185 129.137547,27.842749 C129.137547,27.763524 129.142254,27.684369 129.151644,27.6057024 L129.374741,25.7366662 C129.460492,25.0182727 130.11238,24.5054145 130.830773,24.5911653 C131.253922,24.6416743 131.626056,24.8948542 131.828408,25.2699002 Z" id="Path-2" stroke-opacity="0.85" stroke="#000000" stroke-width="1.5"></path>
                            <path d="M65.0870554,27.9747804 L72.0419391,28.4019168 C73.5000833,28.4914692 74.6368134,29.7001537 74.6368134,31.1610453 C74.6368134,32.5968549 73.4728597,33.7608087 72.03705,33.7608087 L65.092668,33.7608087 C63.4443806,33.7608087 62.1081796,32.4246077 62.1081796,30.7763202 C62.1081796,29.2261572 63.3648349,27.9695019 64.9149979,27.9695019 C64.9723909,27.9695019 65.0297703,27.9712622 65.0870554,27.9747804 Z" id="Rectangle" stroke-opacity="0.85" stroke="#000000" stroke-width="1.5" fill="#FFFFFF"></path>
                        </g>
                        <path d="M13.167731,27.9846717 L28.4828177,27.9846717" id="Path-51-Copy" stroke="#FFA526" stroke-width="1.5"></path>
                    </g>
                    <g id="Group-14-Copy-4" transform="translate(0.316438, 203.000000)">
                        <polygon id="Path" stroke-opacity="0.85" stroke="#000000" stroke-width="1.5" points="180.019169 0 180.019169 102.479079 0 102.479079 0 0 164.366907 0"></polygon>
                        <text id="MOVER" font-family="Helvetica" font-size="9" font-weight="normal" letter-spacing="0.15000005" fill="#000000">
                            <tspan x="13.167731" y="17.5835613">MOVER</tspan>
                        </text>
                        <path d="M13.167731,27.9846717 L28.4828177,27.9846717" id="Path-51-Copy" stroke="#FFA526" stroke-width="1.5"></path>
                    </g>
                    <g id="Group-14-Copy-2" transform="translate(140.000000, 92.934100)">
                        <polygon id="Path" stroke-opacity="0.85" stroke="#000000" stroke-width="1.5" points="180.019169 0 180.019169 102.479079 0 102.479079 0 0 164.366907 0"></polygon>
                        <g id="Group-13" transform="translate(36.965249, 19.016736)">
                            <path d="M74.8648311,54.0097544 L89.521894,54.0097544 L89.521894,70.27887 C81.4270217,70.27887 74.8648311,63.7166795 74.8648311,55.6218072 L74.8648311,54.0097544 Z" id="Rectangle" stroke-opacity="0.85" stroke="#000000" stroke-width="1.5" fill="#FFFFFF"></path>
                            <path d="M46.9763906,54.0097544 L61.6334535,54.0097544 L61.6334535,70.27887 C53.5385812,70.27887 46.9763906,63.7166795 46.9763906,55.6218072 L46.9763906,54.0097544 Z" id="Rectangle-Copy-25" stroke-opacity="0.85" stroke="#000000" stroke-width="1.5" fill="#FFFFFF"></path>
                            <g id="Group-7" transform="translate(9.093190, 40.717123)" fill="#FFFFFF" stroke="#000000" stroke-opacity="0.85" stroke-width="1.5">
                                <path d="M0.512690775,13.2926313 L15.1697537,13.2926313 L15.1697537,29.5617469 C7.07488135,29.5617469 0.512690775,22.9995563 0.512690775,14.904684 L0.512690775,13.2926313 Z" id="Rectangle-Copy-26"></path>
                                <ellipse id="Oval-Copy-17" cx="15.0913257" cy="14.7808735" rx="9.07967941" ry="14.7808735"></ellipse>
                            </g>
                            <path d="M99.5054125,33.7741646 L16.7330643,31.3905457 L25.0015288,8.63513252 L56.3627037,6.13545691 L84.4226906,6.13545691 C89.6655305,6.13545691 94.2035255,9.78017062 95.3347341,14.8995199 L97.7124005,25.6597858 L97.7124005,25.6597858" id="Path" stroke-opacity="0.85" stroke="#000000" stroke-width="1.5" fill="#FFFFFF"></path>
                            <path d="M96.1587996,33.7741646 L16.7330643,31.3905457 L25.0015288,8.63513252 L56.3627037,10.0398386 L81.3878313,10.0398386 C86.4871744,10.0398386 90.9397905,13.4917662 92.2105436,18.4302363 L93.788475,24.5624797 L93.788475,24.5624797" id="Path" stroke-opacity="0.85" stroke="#000000" stroke-width="1.5" fill="#FFFFFF"></path>
                            <rect id="Rectangle" stroke-opacity="0.85" stroke="#000000" stroke-width="1.5" fill="#FFFFFF" x="9.04254375" y="23.7709205" width="11.0930962" height="6.45174891" rx="2"></rect>
                            <path d="M88.3500363,33.7741646 L16.7330643,31.3905457 L25.4653229,7.35873763 C27.0705365,2.94107343 31.2684265,0 35.968689,0 L72.4995632,0 C77.8373514,0 82.4299529,3.77486575 83.4633854,9.01165869 L86.6380173,25.0987176 L86.6380173,25.0987176" id="Path" stroke-opacity="0.85" stroke="#000000" stroke-width="1.5" fill="#FFFFFF"></path>
                            <path d="M50.979526,33.7741646 L20.0796772,31.3905457 L28.4502304,8.57914569 C29.6035973,5.43599439 32.5958952,3.34661286 35.9439776,3.34661286 L55.3001164,3.34661286 C57.9452291,3.34661286 60.0895166,5.4909004 60.0895166,8.13601314 C60.0895166,8.69978075 59.9899797,9.2591209 59.795489,9.78827808 L53.7275551,26.2975096" id="Path" stroke-opacity="0.85" stroke="#000000" stroke-width="1.5" fill="#FFFFFF"></path>
                            <path d="M82.1933625,33.7741646 L53.7683701,32.4090039 M55.155333,25.4340584 C55.8775242,21.8022059 56.9608111,16.3544272 58.4051936,9.09072229 C59.0691712,5.75162239 61.9995025,3.34661286 65.4039782,3.34661286 L67.8922357,3.34661286 C69.9129334,3.34661286 71.716236,4.6148491 72.3995177,6.51651819 L79.4186,26.0516105" id="Shape" stroke-opacity="0.85" stroke="#000000" stroke-width="1.5" fill="#FFFFFF" transform="translate(67.980866, 18.560389) scale(-1, 1) translate(-67.980866, -18.560389) "></path>
                            <rect id="Rectangle" stroke-opacity="0.85" stroke="#000000" stroke-width="1.5" fill="#FFFFFF" x="65.0980186" y="50.7569617" width="45.1792736" height="6.5055854" rx="3.2527927"></rect>
                            <path d="M17.7532282,29.2062457 L44.2655734,29.2062457 L92.115122,27.1050028 C100.391417,26.7415614 107.395307,33.1561968 107.758749,41.4324919 C107.768376,41.6517161 107.773191,41.8711252 107.773191,42.0905607 L107.773191,44.4936223 C107.773191,52.7778936 101.057462,59.4936223 92.7731909,59.4936223 L20.4224291,59.4936223 C13.1859462,59.4936223 6.98111852,54.3271291 5.67049547,47.2103213 L5.14372987,44.349934 C3.86124153,37.3859004 8.467044,30.7007735 15.4310776,29.4182852 C16.1970805,29.2772189 16.9743443,29.2062457 17.7532282,29.2062457 Z" id="Rectangle-Copy-29" fill="#FFD9A3"></path>
                            <path d="M15.5221529,26.9751705 L42.0344982,26.9751705 L89.8840468,24.8739276 C98.1603419,24.5104862 105.164232,30.9251215 105.527674,39.2014166 C105.5373,39.4206409 105.542116,39.64005 105.542116,39.8594855 L105.542116,42.2625471 C105.542116,50.5468183 98.8263869,57.2625471 90.5421156,57.2625471 L18.1913539,57.2625471 C10.9548709,57.2625471 4.75004328,52.0960538 3.43942023,44.9792461 L2.91265463,42.1188588 C1.63016629,35.1548252 6.23596876,28.4696983 13.2000024,27.1872099 C13.9660053,27.0461437 14.743269,26.9751705 15.5221529,26.9751705 Z" id="Rectangle" stroke-opacity="0.85" stroke="#000000" stroke-width="1.5"></path>
                            <path d="M8.87915457,26.9751705 L44.1088824,26.9751705 C47.4225909,26.9751705 50.1088824,29.661462 50.1088824,32.9751705 C50.1088824,33.339659 50.0756695,33.7033893 50.0096558,34.06185 L46.6418738,52.3492267 C46.1176246,55.1959498 43.6356935,57.2625471 40.7411003,57.2625471 L12.2469366,57.2625471 C9.35234344,57.2625471 6.87041237,55.1959498 6.34616315,52.3492267 L2.97838111,34.06185 C2.37822455,30.8029428 4.53356779,27.6745536 7.79247499,27.074397 C8.15093569,27.0083833 8.51466605,26.9751705 8.87915457,26.9751705 Z" id="Rectangle-Copy-30" fill="#F68B0F"></path>
                            <path d="M7.20584814,26.9751705 L42.4355759,26.9751705 C45.7492844,26.9751705 48.4355759,29.661462 48.4355759,32.9751705 C48.4355759,33.339659 48.4023631,33.7033893 48.3363494,34.06185 L44.9685674,52.3492267 C44.4443181,55.1959498 41.9623871,57.2625471 39.0677939,57.2625471 L10.5736302,57.2625471 C7.67903701,57.2625471 5.19710594,55.1959498 4.67285672,52.3492267 L1.30507468,34.06185 C0.704918117,30.8029428 2.86026136,27.6745536 6.11916856,27.074397 C6.47762926,27.0083833 6.84135962,26.9751705 7.20584814,26.9751705 Z" id="Rectangle-Copy-20" stroke-opacity="0.85" stroke="#000000" stroke-width="1.5"></path>
                            <circle id="Oval" stroke-opacity="0.85" stroke="#000000" stroke-width="1.5" fill="#FFFFFF" cx="10.5856326" cy="37.2347249" r="3.76859628"></circle>
                            <path d="M10.5856326,41.0033212 C12.6669708,41.0033212 14.3542289,39.3160631 14.3542289,37.2347249 C14.3542289,35.1533866 12.6669708,33.4661286 10.5856326,33.4661286 C8.50429433,33.4661286 8.49034273,35.1533866 8.49034273,37.2347249 C8.49034273,39.3160631 8.50429433,41.0033212 10.5856326,41.0033212 Z" id="Oval-Copy-16" stroke-opacity="0.85" stroke="#000000" stroke-width="1.5" fill="#FFFFFF"></path>
                            <circle id="Oval-Copy-14" stroke-opacity="0.85" stroke="#000000" stroke-width="1.5" fill="#FFFFFF" cx="38.4740731" cy="37.2347249" r="3.76859628"></circle>
                            <path d="M38.4740731,41.0033212 C40.5554113,41.0033212 42.2426694,39.3160631 42.2426694,37.2347249 C42.2426694,35.1533866 40.5554113,33.4661286 38.4740731,33.4661286 C36.3927348,33.4661286 36.3787832,35.1533866 36.3787832,37.2347249 C36.3787832,39.3160631 36.3927348,41.0033212 38.4740731,41.0033212 Z" id="Oval-Copy-15" stroke-opacity="0.85" stroke="#000000" stroke-width="1.5" fill="#FFFFFF"></path>
                            <g id="Group-12" transform="translate(17.421957, 34.581666)" fill="#FFFFFF" stroke="#000000" stroke-opacity="0.85" stroke-width="1.5">
                                <path d="M1.25497982,0 C1.94808604,-1.27321547e-16 2.50995964,0.561873605 2.50995964,1.25497982 L2.50995964,3.00371543 C2.50995964,3.69682165 1.94808604,4.25869525 1.25497982,4.25869525 C0.561873605,4.25869525 8.4881031e-17,3.69682165 0,3.00371543 L0,1.25497982 C-8.4881031e-17,0.561873605 0.561873605,1.27321547e-16 1.25497982,0 Z" id="Rectangle"></path>
                                <path d="M6.27489911,0 C6.96800533,-1.27321547e-16 7.52987893,0.561873605 7.52987893,1.25497982 L7.52987893,3.00371543 C7.52987893,3.69682165 6.96800533,4.25869525 6.27489911,4.25869525 C5.58179289,4.25869525 5.01991929,3.69682165 5.01991929,3.00371543 L5.01991929,1.25497982 C5.01991929,0.561873605 5.58179289,1.27321547e-16 6.27489911,0 Z" id="Rectangle-Copy-23"></path>
                                <path d="M11.2875048,0 C11.980611,-1.27321547e-16 12.5424846,0.561873605 12.5424846,1.25497982 L12.5424846,3.00371543 C12.5424846,3.69682165 11.980611,4.25869525 11.2875048,4.25869525 C10.5943986,4.25869525 10.0325249,3.69682165 10.0325249,3.00371543 L10.0325249,1.25497982 C10.0325249,0.561873605 10.5943986,1.27321547e-16 11.2875048,0 Z" id="Rectangle-Copy-24"></path>
                            </g>
                            <g id="Group-7-Copy-3" transform="translate(52.430268, 40.717123)" fill="#FFFFFF" stroke="#000000" stroke-opacity="0.85" stroke-width="1.5">
                                <ellipse id="Oval" cx="37.0131979" cy="14.7808735" rx="9.07967941" ry="14.7808735"></ellipse>
                                <ellipse id="Oval-Copy-18" cx="37.0131979" cy="14.7808735" rx="3.59760882" ry="5.8565725"></ellipse>
                                <ellipse id="Oval-Copy-13" cx="9.12475745" cy="14.7808735" rx="9.07967941" ry="14.7808735"></ellipse>
                                <ellipse id="Oval-Copy-18" cx="9.12475745" cy="14.7808735" rx="3.59760882" ry="5.8565725"></ellipse>
                            </g>
                            <path d="M55.5278994,28.1096987 L55.5278994,25.8838912 C55.5278994,24.7169297 56.4739086,23.7709205 57.6408701,23.7709205 L64.5080249,23.7709205 C65.6749864,23.7709205 66.6209956,24.7169297 66.6209956,25.8838912 L66.6209956,26.2729896 L66.6209956,26.2729896" id="Path" stroke-opacity="0.85" stroke="#000000" stroke-width="1.5" fill="#FFFFFF"></path>
                            <rect id="Rectangle" stroke-opacity="0.85" stroke="#000000" stroke-width="1.5" fill="#FFFFFF" x="1.2393482" y="50.7569617" width="45.1792736" height="6.5055854" rx="3.2527927"></rect>
                        </g>
                        <text id="FAMILY" font-family="Helvetica" font-size="9" font-weight="normal" letter-spacing="0.15000005" fill="#000000">
                            <tspan x="13.167731" y="17.5835613">FAMILY</tspan>
                        </text>
                        <path d="M13.167731,27.9846717 L28.4828177,27.9846717" id="Path-51-Copy" stroke="#FFA526" stroke-width="1.5"></path>
                    </g>
                    <g id="Group-30" transform="translate(561.706097, 0.000000)">
                        <circle id="Oval-Copy-15" fill="#FFD9A3" cx="30.8695946" cy="26.7679455" r="26.7679455"></circle>
                        <circle id="Oval" stroke="#000000" stroke-width="1.5" cx="26.7679455" cy="26.7679455" r="26.7679455"></circle>
                        <polyline id="Path" stroke-opacity="0.85" stroke="#000000" stroke-width="1.5" stroke-linecap="round" stroke-linejoin="round" transform="translate(27.084327, 23.384258) rotate(-315.000000) translate(-27.084327, -23.384258) " points="31.8695844 13.8137433 31.8695844 32.9547721 22.29907 32.9547721"></polyline>
                    </g>
                    <g id="Group-11" transform="translate(307.128691, 280.948745) scale(-1, 1) translate(-307.128691, -280.948745) translate(204.628691, 47.448745)">
                        <g id="Group-10">
                            <g id="Group-8">
                                <path d="M66.1115909,92.1265568 C71.0859388,93.4078576 74.8166997,93.9806189 77.3038737,93.8448407 C79.7910476,93.7090625 83.5218086,92.7289667 88.4961565,90.9045531 L114.871767,103.903952 C117.783626,105.339082 120.451993,107.222681 122.779314,109.485886 L142.53958,128.70177 C143.727401,129.856867 145.626711,129.830339 146.781807,128.642519 C146.892928,128.528249 146.994766,128.405306 147.086353,128.274857 L180.416411,80.8020827 L200.483604,97.0142968 C175.915586,137.95298 160.349931,160.714191 153.786638,165.297928 C147.223346,169.881666 136.278171,164.19807 120.951115,148.247143 L132.001182,236.435152 C109.132703,243.310033 92.9888485,246.762303 83.5696174,246.791963 C74.1503864,246.82076 60.8144518,245.858622 43.5618137,243.905548 L43.5618137,246.260285 L27.2763574,246.260285 L22.2985238,171.227054 C22.2614754,170.668606 22.3027449,170.107719 22.4211323,169.560707 L35.6481602,108.444883 C36.5461461,104.295716 39.5695508,100.929785 43.5989329,99.5933555 L66.1115909,92.1265568 Z" id="Path-9" fill="#FFA320" transform="translate(111.363141, 163.797023) scale(-1, 1) translate(-111.363141, -163.797023) "></path>
                                <g id="Group-9" transform="translate(91.970711, 96.800339)" fill="#FFFFFF">
                                    <path d="M40.0622764,20.3983307 L43.3872026,20.3983307 C44.8669688,20.3983307 46.0665563,21.5979183 46.0665563,23.0776844 L46.0665563,30.2776326 C46.0665563,31.7573988 44.8669688,32.9569863 43.3872026,32.9569863 L40.0622764,32.9569863 C38.5825102,32.9569863 37.3829227,31.7573988 37.3829227,30.2776326 L37.3829227,23.0776844 C37.3829227,21.5979183 38.5825102,20.3983307 40.0622764,20.3983307 Z" id="Rectangle" transform="translate(41.724740, 26.677659) rotate(-45.000000) translate(-41.724740, -26.677659) "></path>
                                    <path d="M85.0139403,90.4037035 L88.3388665,90.4037035 C89.8186327,90.4037035 91.0182202,91.603291 91.0182202,93.0830572 L91.0182202,100.283005 C91.0182202,101.762771 89.8186327,102.962359 88.3388665,102.962359 L85.0139403,102.962359 C83.5341741,102.962359 82.3345866,101.762771 82.3345866,100.283005 L82.3345866,93.0830572 C82.3345866,91.603291 83.5341741,90.4037035 85.0139403,90.4037035 Z" id="Rectangle-Copy-12" transform="translate(86.676403, 96.683031) rotate(-45.000000) translate(-86.676403, -96.683031) "></path>
                                    <path d="M15.2701707,96.1076381 L18.5950968,96.1076381 C20.074863,96.1076381 21.2744505,97.3072256 21.2744505,98.7869918 L21.2744505,105.98694 C21.2744505,107.466706 20.074863,108.666294 18.5950968,108.666294 L15.2701707,108.666294 C13.7904045,108.666294 12.590817,107.466706 12.590817,105.98694 L12.590817,98.7869918 C12.590817,97.3072256 13.7904045,96.1076381 15.2701707,96.1076381 Z" id="Rectangle-Copy-13" transform="translate(16.932634, 102.386966) rotate(-45.000000) translate(-16.932634, -102.386966) "></path>
                                    <path d="M103.1019,55.6281298 L106.426826,55.6281298 C107.906592,55.6281298 109.10618,56.8277174 109.10618,58.3074835 L109.10618,65.5074317 C109.10618,66.9871979 107.906592,68.1867854 106.426826,68.1867854 L103.1019,68.1867854 C101.622134,68.1867854 100.422546,66.9871979 100.422546,65.5074317 L100.422546,58.3074835 C100.422546,56.8277174 101.622134,55.6281298 103.1019,55.6281298 Z" id="Rectangle-Copy-14" transform="translate(104.764363, 61.907458) rotate(-45.000000) translate(-104.764363, -61.907458) "></path>
                                    <path d="M76.0378587,1.31004478 L79.3627849,1.31004478 C80.8425511,1.31004478 82.0421386,2.50963229 82.0421386,3.98939848 L82.0421386,11.1893466 C82.0421386,12.6691128 80.8425511,13.8687003 79.3627849,13.8687003 L76.0378587,13.8687003 C74.5580925,13.8687003 73.358505,12.6691128 73.358505,11.1893466 L73.358505,3.98939848 C73.358505,2.50963229 74.5580925,1.31004478 76.0378587,1.31004478 Z" id="Rectangle-Copy-15" transform="translate(77.700322, 7.589373) rotate(-45.000000) translate(-77.700322, -7.589373) "></path>
                                    <path d="M6.38936404,13.9004879 L9.71429023,13.9004879 C11.1940564,13.9004879 12.3936439,15.1000754 12.3936439,16.5798416 L12.3936439,23.7797898 C12.3936439,25.259556 11.1940564,26.4591435 9.71429023,26.4591435 L6.38936404,26.4591435 C4.90959786,26.4591435 3.71001034,25.259556 3.71001034,23.7797898 L3.71001034,16.5798416 C3.71001034,15.1000754 4.90959786,13.9004879 6.38936404,13.9004879 Z" id="Rectangle-Copy-10" transform="translate(8.051827, 20.179816) rotate(-45.000000) translate(-8.051827, -20.179816) "></path>
                                </g>
                                <g id="Group-9-Copy" transform="translate(105.482771, 165.301255) scale(-1, 1) translate(-105.482771, -165.301255) translate(50.982771, 88.801255)" fill="#FFFFFF">
                                    <path d="M40.5043683,60.3539862 L43.8292945,60.3539862 C45.3090607,60.3539862 46.5086482,61.5535737 46.5086482,63.0333399 L46.5086482,70.233288 C46.5086482,71.7130542 45.3090607,72.9126417 43.8292945,72.9126417 L40.5043683,72.9126417 C39.0246021,72.9126417 37.8250146,71.7130542 37.8250146,70.233288 L37.8250146,63.0333399 C37.8250146,61.5535737 39.0246021,60.3539862 40.5043683,60.3539862 Z" id="Rectangle" transform="translate(42.166831, 66.633314) rotate(-45.000000) translate(-42.166831, -66.633314) "></path>
                                    <path d="M25.0084682,138.605232 L28.3333944,138.605232 C29.8131605,138.605232 31.0127481,139.80482 31.0127481,141.284586 L31.0127481,148.484534 C31.0127481,149.9643 29.8131605,151.163888 28.3333944,151.163888 L25.0084682,151.163888 C23.528702,151.163888 22.3291145,149.9643 22.3291145,148.484534 L22.3291145,141.284586 C22.3291145,139.80482 23.528702,138.605232 25.0084682,138.605232 Z" id="Rectangle-Copy-13" transform="translate(26.670931, 144.884560) rotate(-45.000000) translate(-26.670931, -144.884560) "></path>
                                    <path d="M99.2464667,34.0213214 L102.571393,34.0213214 C104.051159,34.0213214 105.250747,35.2209089 105.250747,36.7006751 L105.250747,43.9006232 C105.250747,45.3803894 104.051159,46.5799769 102.571393,46.5799769 L99.2464667,46.5799769 C97.7667006,46.5799769 96.5671131,45.3803894 96.5671131,43.9006232 L96.5671131,36.7006751 C96.5671131,35.2209089 97.7667006,34.0213214 99.2464667,34.0213214 Z" id="Rectangle-Copy-15" transform="translate(100.908930, 40.300649) rotate(-45.000000) translate(-100.908930, -40.300649) "></path>
                                    <path d="M6.47446302,113.019316 L9.7993892,113.019316 C11.2791554,113.019316 12.4787429,114.218903 12.4787429,115.69867 L12.4787429,122.898618 C12.4787429,124.378384 11.2791554,125.577971 9.7993892,125.577971 L6.47446302,125.577971 C4.99469683,125.577971 3.79510932,124.378384 3.79510932,122.898618 L3.79510932,115.69867 C3.79510932,114.218903 4.99469683,113.019316 6.47446302,113.019316 Z" id="Rectangle-Copy-3" transform="translate(8.136926, 119.298644) rotate(-45.000000) translate(-8.136926, -119.298644) "></path>
                                    <path d="M31.1487244,2.11297071 L34.4736506,2.11297071 C35.9534167,2.11297071 37.1530043,3.31255822 37.1530043,4.79232441 L37.1530043,11.9922725 C37.1530043,13.4720387 35.9534167,14.6716262 34.4736506,14.6716262 L31.1487244,14.6716262 C29.6689582,14.6716262 28.4693707,13.4720387 28.4693707,11.9922725 L28.4693707,4.79232441 C28.4693707,3.31255822 29.6689582,2.11297071 31.1487244,2.11297071 Z" id="Rectangle-Copy-11" transform="translate(32.811187, 8.392298) rotate(-45.000000) translate(-32.811187, -8.392298) "></path>
                                    <path d="M8.0949347,68.8614625 L11.4198609,68.8614625 C12.8996271,68.8614625 14.0992146,70.06105 14.0992146,71.5408162 L14.0992146,78.7407644 C14.0992146,80.2205305 12.8996271,81.4201181 11.4198609,81.4201181 L8.0949347,81.4201181 C6.61516851,81.4201181 5.415581,80.2205305 5.415581,78.7407644 L5.415581,71.5408162 C5.415581,70.06105 6.61516851,68.8614625 8.0949347,68.8614625 Z" id="Rectangle-Copy-10" transform="translate(9.757398, 75.140790) rotate(-45.000000) translate(-9.757398, -75.140790) "></path>
                                </g>
                                <g id="Group" transform="translate(104.944623, 0.046813)">
                                    <rect id="Rectangle" fill="#000000" x="21.8898883" y="37.6635999" width="7.39539749" height="14.790795" rx="3.69769874"></rect>
                                    <path d="M52.726553,73.8508581 L52.726553,86.6855364 C52.726553,90.5029128 44.5865904,91.0158557 28.3066652,88.224365 C28.3066652,84.4069886 28.3066652,81.9172903 28.3066652,80.7552701" id="Path" stroke="#000000" stroke-width="1.5" fill="#FFFFFF" stroke-linecap="round" stroke-linejoin="round"></path>
                                    <path d="M31.6196715,80.7552701 C22.3885918,78.6574895 12.0822255,75.2098248 12.0822255,65.3437442 L12.0822255,45.415063 L12.0822255,35.1287508" id="Path" stroke="#000000" stroke-width="1.5" fill="#FFFFFF" stroke-linecap="round" stroke-linejoin="round"></path>
                                    <path d="M68.2014264,55.2259346 C74.7671823,39.2356569 73.6776321,31.240518 64.9327759,31.240518 C61.4805763,20.3581569 54.5002628,14.5467561 43.9918355,13.8063157 C28.2291946,12.695655 19.0042251,2.40064422 12.259851,5.96612611 C-0.567602791,12.7474899 8.26638528,42.9470696 23.5032249,42.9470696 C26.9254399,42.9470696 28.5995677,46.7810051 28.5256082,54.4488761 C27.1090416,69.0745004 27.5972533,76.873092 29.9902433,77.844651 C31.8640511,78.6054208 34.2763093,87.6701612 51.2122697,81.2058897 C52.5169067,80.7079241 58.1799589,72.047939 68.2014264,55.2259346 Z" id="Path-7" fill="#000000" transform="translate(39.256163, 44.368349) rotate(-9.000000) translate(-39.256163, -44.368349) "></path>
                                    <path d="M30.3419875,63.3987941 C34.1346124,63.3987941 37.2091423,60.3242642 37.2091423,56.5316393 C37.2091423,52.7390145 34.1346124,49.6644845 30.3419875,49.6644845 C28.7088592,49.6644845 27.2088813,50.2345695 26.0302007,51.1865926" id="Path" stroke="#000000" stroke-width="1.5" fill="#FFFFFF" stroke-linecap="round" stroke-linejoin="round"></path>
                                </g>
                                <path d="M147.272653,442.588713 C147.272653,446.758282 143.892549,450.138386 139.72298,450.138386 L122.173283,450.138386 C117.575242,450.138386 113.847792,453.865835 113.847792,458.463877 L113.847792,464.289367 C113.847792,465.670079 114.967081,466.789367 116.347792,466.789367 L174.376569,466.789367 L172.263598,442.588713 L147.272653,442.588713 Z" id="Path-33-Copy" stroke="#000000" stroke-width="1.5" fill="#FFFFFF" stroke-linecap="round" stroke-linejoin="round"></path>
                                <path d="M147.312884,461.081921 L174.376569,461.081921" id="Path-50" stroke="#000000" stroke-width="1.5" fill="#FFFFFF" stroke-linecap="round" stroke-linejoin="round"></path>
                                <path d="M106.058157,142.971963 L94.5395299,236.552857 C120.126745,240.897751 137.357351,243.070198 146.231348,243.070198 C154.597896,243.070198 165.356294,242.184404 180.286425,239.679607" id="Shape" stroke="#000000" stroke-width="1.5" stroke-linecap="round" stroke-linejoin="round"></path>
                                <path d="M157.671176,88.3978896 L176.648687,93.5063072 C184.454078,95.6073834 190.360697,102.001915 191.836959,109.949197 L202.142129,165.42586 C202.646766,168.142518 202.832507,170.908804 202.695579,173.668539 L199.277163,242.565375 L180.286425,242.565375 L179.526985,175.979298 C179.525489,175.848149 179.524741,175.716994 179.524741,175.585837 L179.524741,123.490078" id="Path" stroke="#000000" stroke-width="1.5" stroke-linecap="round" stroke-linejoin="round"></path>
                                <path d="M179.574915,243.023859 C179.574915,248.411535 179.574915,251.749991 179.574915,253.039228 C179.574915,254.328464 184.709288,256.359854 194.978033,259.133396 L194.266523,242.519874 L190.572081,242.519874 L179.574915,243.023859 Z" id="Path-48" stroke="#000000" stroke-width="1.5" stroke-linecap="round" stroke-linejoin="round" transform="translate(187.276474, 250.826635) scale(-1, 1) translate(-187.276474, -250.826635) "></path>
                                <polyline id="Path-31" stroke="#000000" stroke-width="1.5" stroke-linecap="round" stroke-linejoin="round" points="102.708894 237.237448 98.9956224 442.588713 133.595945 442.588713 144.335561 271.43712"></polyline>
                                <polyline id="Path-32" stroke="#000000" stroke-width="1.5" stroke-linecap="round" stroke-linejoin="round" points="180.359183 228.058268 173.113485 442.588713 139.361862 442.588713 137.243879 391.51872"></polyline>
                                <path d="M107.476787,442.588713 C107.476787,446.758282 104.096683,450.138386 99.9271138,450.138386 L83.64818,450.138386 C79.0501384,450.138386 75.3226892,453.865835 75.3226892,458.463877 L75.3226892,464.289367 C75.3226892,465.670079 76.4419773,466.789367 77.8226892,466.789367 L130.095098,466.789367 L127.982127,442.588713 L107.476787,442.588713 Z" id="Path-33" stroke="#000000" stroke-width="1.5" fill="#FFFFFF" stroke-linecap="round" stroke-linejoin="round"></path>
                                <path d="M134.229909,88.2711776 L111.593031,96.1296967 C107.948805,97.3948101 104.631754,99.4549817 101.88236,102.160851 L82.6757642,121.063396 C80.313999,123.387774 76.51513,123.357465 74.1907528,120.9957 C73.9572014,120.758391 73.7438086,120.502054 73.5527846,120.229343 L43.2172105,76.9214521 L24.6463987,92.3320486 C53.2338685,144.319146 71.536582,168.831506 79.5545392,165.869128 C87.5724964,162.906751 96.4070357,155.274362 106.058157,142.971963" id="Path-30" stroke="#000000" stroke-width="1.5" stroke-linecap="round" stroke-linejoin="round"></path>
                                <path d="M0.0073141539,78.7298243 C7.19987771,66.6928159 12.7875331,59.9036279 16.7702803,58.3622604 C22.7444011,56.0502092 41.1186147,53.5451015 41.1186147,56.0502092 C41.1186147,57.720281 36.3805024,60.2823397 26.9042779,63.7363853 C31.7336505,67.35822 33.8690357,70.7453151 33.3104335,73.8976707 C32.4725302,78.626204 20.4114966,83.8110319 20.4114966,83.8110319 C20.4114966,83.8110319 18.7225697,86.3208486 15.344716,91.3404822 L0.0073141539,78.7298243 Z" id="Path-49" stroke="#000000" stroke-width="1.5" fill="#FFFFFF" stroke-linecap="round" stroke-linejoin="round" transform="translate(20.562964, 73.174066) scale(-1, 1) translate(-20.562964, -73.174066) "></path>
                                <path d="M129.582058,461.081921 L89.5500869,461.081921" id="Path-2" stroke="#000000" stroke-width="1.5" fill="#FFFFFF" stroke-linecap="round" stroke-linejoin="round"></path>
                                <polygon id="Path-3" fill="#FFA320" opacity="0.100000001" points="144.112181 271.764614 148.492678 442.588713 140.822123 442.588713 136.564295 389.864564"></polygon>
                            </g>
                        </g>
                        <rect id="Rectangle" fill="#FFFFFF" x="187.499002" y="297.675182" width="14.8547572" height="6.88700464" rx="2.125"></rect>
                    </g>
                </g>
                <g id="Group-15-Copy" transform="translate(410.111465, 397.000000)">
                    <path d="M31.8262218,117.794091 C5.61657902,77.7788899 1.55718721,53.5555846 19.6480464,45.1241751 C46.7843352,32.4770608 49.6508785,84.5849821 75.2194093,67.0503891 C100.78794,49.5157961 101.409287,-2.13162821e-14 125.084896,-2.13162821e-14 C148.760505,-2.13162821e-14 146.186231,24.728677 172.033131,40.7325541 C197.880031,56.7364312 189.09289,97.0820165 217.862936,73.2989063 C246.632982,49.5157961 269.301128,77.6585126 249.925939,117.794091" id="Path-38-Copy" fill="#FFD9A3"></path>
                    <path d="M23.2597379,117.794091 C-2.94990494,77.7788899 -7.00929675,53.5555846 11.0815625,45.1241751 C38.2178513,32.4770608 41.0843946,84.5849821 66.6529253,67.0503891 C92.221456,49.5157961 92.8428033,-2.84217094e-14 116.518412,-2.84217094e-14 C140.194021,-2.84217094e-14 137.619747,24.728677 163.466647,40.7325541 C189.313547,56.7364312 180.526406,97.0820165 209.296452,73.2989063 C238.066498,49.5157961 260.734644,77.6585126 241.359455,117.794091" id="Path-38" stroke-opacity="0.85" stroke="#000000" stroke-width="1.5"></path>
                </g>
                <g id="Group" transform="translate(98.390030, 307.028000)">
                    <polygon id="Rectangle" stroke="#000000" stroke-width="1.5" stroke-linecap="round" stroke-linejoin="round" points="3.8206881 128.934387 91.8088419 128.934387 77.2653454 207.265792 18.3641846 207.265792"></polygon>
                    <path d="M31.397065,146.461663 L88.1126177,146.461663" id="Path-41" stroke="#000000" stroke-width="1.5" stroke-linecap="round" stroke-linejoin="round"></path>
                    <path d="M37.2144636,128.934387 C6.99012402,108.19545 -0.0623078497,94.1446529 16.057168,86.7819965 C40.2363818,75.738012 0.595750044,52.3119196 6.40712931,43.9009835 C12.2185086,35.4900474 28.2685282,41.8442225 37.2144636,48.160675 C46.160399,54.4771275 42.8423519,2.64265062 72.9978024,0.0960739589 C103.153253,-2.45050271 66.6682511,46.3711054 70.0853409,58.2983105 C73.5024307,70.2255157 117.774692,50.1779439 93.9300163,73.1590672 C70.0853409,96.1401905 91.5418899,92.3118197 97.6262405,96.1401905 C101.682474,98.6924378 96.9558379,109.623836 83.4463315,128.934387 L37.2144636,128.934387 Z" id="Path-42-Copy" fill="#FFD9A3"></path>
                    <path d="M31.397065,128.934387 C1.17272542,108.19545 -5.87970645,94.1446529 10.2397694,86.7819965 C34.4189832,75.738012 -5.22164856,52.3119196 0.589730713,43.9009835 C6.40110998,35.4900474 22.4511296,41.8442225 31.397065,48.160675 C40.3430004,54.4771275 37.0249533,2.64265062 67.1804038,0.0960739589 C97.3358543,-2.45050271 60.8508525,46.3711054 64.2679423,58.2983105 C67.6850321,70.2255157 111.957293,50.1779439 88.1126177,73.1590672 C64.2679423,96.1401905 85.7244913,92.3118197 91.8088419,96.1401905 C95.8650757,98.6924378 91.1384393,109.623836 77.6289329,128.934387 L31.397065,128.934387 Z" id="Path-42" stroke="#000000" stroke-width="1.5" stroke-linecap="round" stroke-linejoin="round"></path>
                    <path d="M51.6758007,43.9009835 L46.7491759,128.934387" id="Path-43" stroke="#000000" stroke-width="1.5" stroke-linecap="round" stroke-linejoin="round"></path>
                    <path d="M49.1401181,85.3285425 L77.6289329,72.9879765" id="Path-44" stroke="#000000" stroke-width="1.5" stroke-linecap="round" stroke-linejoin="round"></path>
                    <path d="M27.5594642,98.9167433 L47.5660557,110.430176" id="Path-45" stroke="#000000" stroke-width="1.5" stroke-linecap="round" stroke-linejoin="round"></path>
                </g>
                <path d="M0,515 L741.100354,515" id="Path-52" stroke="#000000" stroke-width="1.5" stroke-linecap="round" stroke-linejoin="round"></path>
                <g id="Group-7" transform="translate(37.500000, 223.500000)">
                    <path d="M67.8482955,5.68434189e-14 L135.586477,5.68434189e-14 C138.347901,5.63361535e-14 140.586477,2.23857625 140.586477,5 L140.586477,44.1380797 L48.8482955,44.1380797 L48.8482955,19 C48.8482955,8.50658975 57.3548853,5.87710271e-14 67.8482955,5.68434189e-14 Z" id="Rectangle-Copy-3" fill="#FFD9A3"></path>
                    <path d="M65.9250632,5.68434189e-14 L133.663245,5.68434189e-14 C136.424669,5.63361535e-14 138.663245,2.23857625 138.663245,5 L138.663245,44.1380797 L46.9250632,44.1380797 L46.9250632,19 C46.9250632,8.50658975 55.431653,5.52183134e-14 65.9250632,5.68434189e-14 Z" id="Rectangle" stroke-opacity="0.85" stroke="#000000" stroke-width="1.5"></path>
                    <path d="M86.7359723,44.1380797 L46.9250632,44.1380797 L46.9250632,3.65414141 C46.9250632,1.63601484 48.561078,5.68434189e-14 50.5792046,5.68434189e-14 L83.0818309,5.68434189e-14 C85.0999575,5.68434189e-14 86.7359723,1.63601484 86.7359723,3.65414141 L86.7359723,24.2812947 L86.7359723,24.2812947" id="Path" stroke-opacity="0.85" stroke="#000000" stroke-width="1.5" fill="#FFFFFF"></path>
                    <g id="Group-2" transform="translate(0.000000, 8.846869)">
                        <path d="M30.1107791,26.7655704 C30.6825249,26.8006844 31.5401437,26.8533553 32.6836354,26.9235832 L36.1347971,27.1355375 C37.5279258,27.2210969 38.6139716,28.3758888 38.6139716,29.7716424 C38.6139716,31.1434324 37.501916,32.255488 36.130126,32.255488 L27.2209318,32.255488 C26.9022803,32.255488 26.6439621,31.9971699 26.6439621,31.6785183 L26.6439621,27.1661463" id="Path" stroke-opacity="0.85" stroke="#000000" stroke-width="1.5" fill="#FFFFFF" transform="translate(32.628967, 29.510529) scale(-1, 1) translate(-32.628967, -29.510529) "></path>
                        <path d="M32.3131583,33.8018775 L42.2282954,23.0243453 C44.9739783,20.0398493 48.8440243,18.3415617 52.8993901,18.3415617 L73.291011,18.3415617 C81.2991399,18.3415617 87.791011,24.8334328 87.791011,32.8415617 C87.791011,33.4487801 87.7528682,34.055399 87.6768079,34.657835 L86.7888823,41.690651 L32.3131583,33.8018775 Z" id="Path-Copy-3" fill="#FFD9A3"></path>
                        <ellipse id="Oval-Copy-2" stroke-opacity="0.85" stroke="#000000" stroke-width="1.5" fill="#FFFFFF" cx="56.3092814" cy="49.1857743" rx="8.43544091" ry="8.97008153"></ellipse>
                        <g id="Group" transform="translate(14.162541, 40.215693)" fill="#FFFFFF" stroke="#000000" stroke-opacity="0.85" stroke-width="1.5">
                            <ellipse id="Oval-Copy-3" cx="8.43544091" cy="8.97008153" rx="8.43544091" ry="8.97008153"></ellipse>
                            <ellipse id="Oval-Copy" cx="10.0393628" cy="8.97008153" rx="6.83151905" ry="8.97008153"></ellipse>
                        </g>
                        <g id="Group-Copy-2" transform="translate(103.216828, 40.215693)" fill="#FFFFFF" stroke="#000000" stroke-opacity="0.85" stroke-width="1.5">
                            <ellipse id="Oval-Copy-3" cx="8.43544091" cy="8.97008153" rx="8.43544091" ry="8.97008153"></ellipse>
                            <ellipse id="Oval-Copy" cx="10.0393628" cy="8.97008153" rx="6.83151905" ry="8.97008153"></ellipse>
                        </g>
                        <path d="M30.0120507,32.7694068 L43.454517,17.1270505 C44.4043889,16.02173 45.789245,15.3858586 47.2466365,15.3858586 L84.400017,15.3858586 C88.2660102,15.3858586 91.400017,18.5198653 91.400017,22.3858586 C91.400017,22.6521346 91.3848235,22.9181937 91.3545106,23.1827387 L89.4027909,40.2156928 L30.0120507,32.7694068 Z" id="Path" stroke-opacity="0.85" stroke="#000000" stroke-width="1.5"></path>
                        <path d="M31.2001409,34.9079693 L43.7448175,20.3103281 C45.2646124,18.5418153 47.4803823,17.5244211 49.8122086,17.5244211 L62.2656441,17.5244211 C63.3702136,17.5244211 64.2656441,18.4198516 64.2656441,19.5244211 C64.2656441,19.810542 64.2042531,20.0933324 64.0856163,20.3536985 L54.6029341,41.1648498 L31.2001409,34.9079693 Z" id="Path-Copy" stroke-opacity="0.85" stroke="#000000" stroke-width="1.5" fill="#FFFFFF"></path>
                        <path d="M60.7700046,34.7503683 L58.8780842,23.3424623 C58.4262925,20.6182477 60.2684553,18.0435858 62.9926699,17.5917941 C63.263043,17.5469547 63.5366451,17.5244211 63.8107112,17.5244211 L73.3023551,17.5244211 C75.6917,17.5244211 77.8533129,18.9420906 78.8054182,21.1335432 L86.7888823,39.5090143 L60.7700046,34.7503683 Z" id="Path-Copy-4" stroke-opacity="0.85" stroke="#000000" stroke-width="1.5" fill="#FFFFFF" transform="translate(72.351043, 28.516718) scale(-1, 1) translate(-72.351043, -28.516718) "></path>
                        <ellipse id="Oval-Copy-6" stroke-opacity="0.85" stroke="#000000" stroke-width="1.5" fill="#FFFFFF" cx="123.458849" cy="49.1857743" rx="8.43544091" ry="8.97008153"></ellipse>
                        <path d="M24.5863738,29.9981165 C54.8090569,29.9981165 77.4760693,29.9981165 92.5874109,29.9981165 C95.3347235,29.9981165 110.354009,29.9981165 137.645267,29.9981165 C139.482137,29.9981165 141.098238,31.2113203 141.610986,32.9751742 L145.150342,45.1505608 C145.78703,47.340767 144.527655,49.6324173 142.337449,50.2691052 C141.962856,50.3779985 141.574723,50.4332691 141.184623,50.4332691 L18.5757857,50.4332691 C15.805631,50.4332691 13.4749195,48.3578669 13.1549642,45.6062518 L11.8757494,34.6050045" id="Path" stroke-opacity="0.85" stroke="#000000" stroke-width="1.5" fill="#FFFFFF"></path>
                        <path d="M20.151526,31.4730747 L128.760831,31.4730747 C134.987685,31.4730747 140.466148,35.5857465 142.204327,41.5650816 L142.24083,41.690651 C143.472283,45.926849 141.036455,50.3592559 136.800257,51.5907088 C136.075736,51.8013255 135.325028,51.9082273 134.570515,51.9082273 L22.5277065,51.9082273 C16.6639889,51.9082273 11.7304612,47.515125 11.0531968,41.690651 C10.4689098,36.6657826 14.0687123,32.1186637 19.0935807,31.5343766 C19.4447506,31.4935429 19.79799,31.4730747 20.151526,31.4730747 Z" id="Rectangle" fill="#FFA320"></path>
                        <path d="M81.9278566,32.109191 L83.726603,39.5090143" id="Shape" stroke-opacity="0.85" stroke="#000000" stroke-width="1.5" transform="translate(70.819903, 19.831431) scale(-1, 1) translate(-70.819903, -19.831431) "></path>
                        <path d="M84.7307706,29.9981165 L83.683991,37.2847148 C82.9060414,42.699996 78.2666463,46.7205326 72.795771,46.7205326 L60.7723359,46.7205326" id="Path-3" stroke-opacity="0.85" stroke="#000000" stroke-width="1.5"></path>
                        <path d="M17.2295808,31.4730747 L38.0889577,31.4730747 C42.9934993,31.4730747 46.9694158,35.4489912 46.9694158,40.3535328 C46.9694158,40.8011535 46.9355723,41.2481335 46.8681747,41.690651 C45.9732104,47.5667851 40.9204799,51.9082273 34.9765828,51.9082273 L14.4098003,51.9082273 C9.44538277,51.9082273 5.42092718,47.8837718 5.42092718,42.9193542 C5.42092718,42.5083392 5.44911756,42.0978081 5.50529984,41.690651 C6.31333216,35.8347826 11.3182264,31.4730747 17.2295808,31.4730747 Z" id="Rectangle-Copy-6" fill="#F68B0F"></path>
                        <g id="Group-4" transform="translate(136.906557, 33.443578)">
                            <path d="M3.51088749,0 L6.91554851,0 C8.42472602,-7.21320622e-16 9.64815612,1.2234301 9.64815612,2.73260762 C9.64815612,4.24178513 8.42472602,5.46521524 6.91554851,5.46521524 L4.45883185,5.46521524 C2.85589486,5.46521524 1.48539131,4.31196313 1.21145129,2.73260762 C0.991178937,1.46266407 1.84210556,0.254605399 3.11204911,0.0343330452 C3.24376651,0.0114865946 3.3772034,2.45573681e-17 3.51088749,0 Z" id="Rectangle-Copy-7" fill="#FEDB3D"></path>
                            <path d="M2.77340838,0 L6.1780694,0 C7.68724691,1.66857798e-16 8.91067702,1.2234301 8.91067702,2.73260762 C8.91067702,4.24178513 7.68724691,5.46521524 6.1780694,5.46521524 L3.72135274,5.46521524 C2.11841576,5.46521524 0.747912199,4.31196313 0.473972182,2.73260762 C0.253699828,1.46266407 1.10462646,0.254605399 2.37457,0.0343330452 C2.5062874,0.0114865946 2.63972429,-4.19531842e-16 2.77340838,0 Z" id="Rectangle" stroke-opacity="0.85" stroke="#000000" stroke-width="1.5"></path>
                        </g>
                        <path d="M13.3239132,29.9981165 L33.3422734,29.9981165 C39.0614184,29.9981165 43.6977014,34.6343995 43.6977014,40.3535445 C43.6977014,40.8988558 43.6546278,41.4433152 43.5688825,41.981843 L42.0834359,51.3112628 L2.04671546,51.3112628 L4.2005934,37.7837268 C4.91468261,33.2988545 8.78254745,29.9981165 13.3239132,29.9981165 Z" id="Rectangle-Copy" stroke-opacity="0.85" stroke="#000000" stroke-width="1.5"></path>
                        <g id="Group-6" transform="translate(34.939396, 42.620506)" fill="#FEDB3D">
                            <rect id="Rectangle-Copy-8" x="0.589983287" y="0" width="4.57237048" height="1.76994986" rx="0.884974931"></rect>
                        </g>
                        <g id="Group-5" transform="translate(11.340065, 42.620506)" fill="#FEDB3D">
                            <rect id="Rectangle-Copy-9" x="0.589983287" y="0" width="4.57237048" height="1.76994986" rx="0.884974931"></rect>
                        </g>
                        <g id="Group-3" transform="translate(14.584973, 33.685512)" fill="#FFFFFF" stroke="#000000" stroke-opacity="0.85" stroke-width="1.5">
                            <path d="M3.77224749,-1.0658141e-14 L17.1383437,-1.0658141e-14 C18.6890993,-1.08528502e-14 19.946235,1.25713577 19.946235,2.80789132 C19.946235,3.06913431 19.9097773,3.32909917 19.8379166,3.58026433 C19.2315464,5.69962946 17.2940528,7.16052866 15.0896496,7.16052866 L6.14842803,7.16052866 C3.89627982,7.16052866 1.89741684,5.71779267 1.18809027,3.58026433 C0.714485211,2.1530737 1.48751905,0.612174347 2.91470968,0.138569289 C3.19129795,0.046785052 3.48082784,-1.06046081e-14 3.77224749,-1.0658141e-14 Z" id="Rectangle-Copy"></path>
                            <path d="M5.70845604,-1.0658141e-14 L17.173374,-1.0658141e-14 C18.7668526,-1.22831259e-14 20.0586222,1.29176962 20.0586222,2.8852482 C20.0586222,3.11951027 20.0300919,3.35290048 19.9736615,3.58026433 C19.4516179,5.68362865 17.5633501,7.16052866 15.3961697,7.16052866 L7.76974877,7.16052866 C5.56356604,7.16052866 3.62375161,5.70035108 3.0134448,3.58026433 C2.58497697,2.09185072 3.4442328,0.537911286 4.93264641,0.10944346 C5.18485462,0.0368405865 5.44600574,-1.10540189e-14 5.70845604,-1.0658141e-14 Z" id="Rectangle-Copy-4"></path>
                        </g>
                        <path d="M2.13856248,47.926094 L44.0867804,47.926094 C45.2678758,47.926094 46.2253429,48.8835611 46.2253429,50.0646565 C46.2253429,51.2457519 45.2678758,52.203219 44.0867804,52.203219 L2.13856248,52.203219 C0.957467037,52.203219 1.44642476e-16,51.2457519 0,50.0646565 C-1.44642476e-16,48.8835611 0.957467037,47.926094 2.13856248,47.926094 Z" id="Rectangle" stroke-opacity="0.85" stroke="#000000" stroke-width="1.5" fill="#FFFFFF"></path>
                        <path d="M140.745562,47.926094 L147.042441,47.926094 C148.223536,47.926094 149.181003,48.8835611 149.181003,50.0646565 C149.181003,51.2457519 148.223536,52.203219 147.042441,52.203219 L140.745562,52.203219 C139.564467,52.203219 138.607,51.2457519 138.607,50.0646565 C138.607,48.8835611 139.564467,47.926094 140.745562,47.926094 Z" id="Rectangle-Copy-2" stroke-opacity="0.85" stroke="#000000" stroke-width="1.5" fill="#FFFFFF"></path>
                        <ellipse id="Oval" stroke-opacity="0.85" stroke="#000000" stroke-width="1.5" fill="#FFFFFF" cx="57.9132033" cy="49.1857743" rx="6.83151905" ry="8.97008153"></ellipse>
                        <ellipse id="Oval-Copy-9" stroke-opacity="0.85" stroke="#000000" stroke-width="1.5" fill="#9598B4" cx="57.9132033" cy="49.1857743" rx="3.81926267" ry="5.01485794"></ellipse>
                        <ellipse id="Oval-Copy-11" stroke-opacity="0.85" stroke="#000000" stroke-width="1.5" fill="#FFFFFF" cx="57.2338434" cy="49.1857743" rx="3.17116017" ry="5.01485794"></ellipse>
                        <ellipse id="Oval-Copy-5" stroke-opacity="0.85" stroke="#000000" stroke-width="1.5" fill="#FFFFFF" cx="125.062771" cy="49.1857743" rx="6.83151905" ry="8.97008153"></ellipse>
                        <ellipse id="Oval-Copy-10" stroke-opacity="0.85" stroke="#000000" stroke-width="1.5" fill="#9598B4" cx="125.267116" cy="49.1857743" rx="3.81926267" ry="5.01485794"></ellipse>
                        <ellipse id="Oval-Copy-12" stroke-opacity="0.85" stroke="#000000" stroke-width="1.5" fill="#FFFFFF" cx="124.619013" cy="49.1857743" rx="3.17116017" ry="5.01485794"></ellipse>
                        <ellipse id="Oval" stroke-opacity="0.85" stroke="#000000" stroke-width="1.5" fill="#FFFFFF" cx="11.411401" cy="36.1761859" rx="2.79201213" ry="2.97022567"></ellipse>
                        <ellipse id="Oval-Copy-4" stroke-opacity="0.85" stroke="#000000" stroke-width="1.5" fill="#FFFFFF" cx="39.7212057" cy="36.1761859" rx="2.79201213" ry="2.97022567"></ellipse>
                        <path d="M62.1849659,26.7274461 L68.8297466,27.1355375 C70.2228753,27.2210969 71.3089211,28.3758888 71.3089211,29.7716424 C71.3089211,31.1434324 70.1968655,32.255488 68.8250755,32.255488 L62.1903283,32.255488 C60.6155343,32.255488 59.3389116,30.9788653 59.3389116,29.4040714 C59.3389116,27.9230268 60.5395355,26.7224029 62.0205801,26.7224029 C62.075414,26.7224029 62.1302351,26.7240848 62.1849659,26.7274461 Z" id="Rectangle" stroke-opacity="0.85" stroke="#000000" stroke-width="1.5" fill="#FFFFFF"></path>
                    </g>
                    <path d="M86.7359723,24.1766673 L138.663245,24.1766673" id="Path-6-Copy-3" stroke-opacity="0.85" stroke="#000000" stroke-width="1.5" fill="#FFFFFF"></path>
                    <path d="M46.9250632,6.86757642 L138.607,6.86757642" id="Path-6" stroke-opacity="0.85" stroke="#000000" stroke-width="1.5" fill="#FFFFFF"></path>
                    <path d="M46.9250632,12.6372734 L138.607,12.6372734" id="Path-6-Copy" stroke-opacity="0.85" stroke="#000000" stroke-width="1.5" fill="#FFFFFF"></path>
                    <path d="M46.9250632,17.4321147 L138.663245,18.4069704" id="Path-6-Copy-2" stroke-opacity="0.85" stroke="#000000" stroke-width="1.5" fill="#FFFFFF"></path>
                    <path d="M91.5451474,29.9463643 L138.663245,29.9463643" id="Path-6-Copy-4" stroke-opacity="0.85" stroke="#000000" stroke-width="1.5" fill="#FFFFFF"></path>
                    <path d="M91.0514694,35.7160613 L138.663245,35.7160613" id="Path-6-Copy-5" stroke-opacity="0.85" stroke="#000000" stroke-width="1.5" fill="#FFFFFF"></path>
                </g>
            </g>
        </g>
    </g>
</svg>