<?xml version="1.0" encoding="UTF-8"?>
<svg width="775px" height="491px" viewBox="0 0 775 491" version="1.1" xmlns="http://www.w3.org/2000/svg" xmlns:xlink="http://www.w3.org/1999/xlink">
    <!-- Generator: Sketch 55.1 (78136) - https://sketchapp.com -->
    <title>pi-icon-3</title>
    <desc>Created with Sketch.</desc>
    <defs>
        <path d="M-4.54747351e-13,57.6638509 L20.163794,42.5736038 L46.5410892,61.7790126 C60.8263136,37.6240506 70.4483808,22.6202797 75.4072908,16.7677001 C80.3662008,10.9151205 87.3087712,6.36905856 96.235002,3.12951435 C102.721295,9.80477963 107.770603,12.9528094 111.382927,12.5736038 C114.995251,12.1943981 118.462675,8.00319683 121.785199,0 L151.571452,8.6826206 L163.11752,22.823105 L180.004451,79.9732415 C178.18142,100.020969 176.529421,114.377459 175.048454,123.04271 C173.567488,131.707962 171.451633,139.397478 168.700891,146.111258 L149.986042,153.523089 L149.986042,143.302751 L104.588598,148.645632 L71.71366,140.54062 L75.4072908,75.2272688 C63.2031077,92.5150123 54.5960821,101.87845 49.5862141,103.317582 C43.7100523,105.005564 38.7479199,96.106086 34.0813632,92.1486813 C23.4469228,83.1303007 12.0864684,71.6353572 -4.54747351e-13,57.6638509 Z" id="path-1"></path>
        <polygon id="path-3" points="0 -2.84217094e-14 70.1702091 -2.84217094e-14 70.1702091 223.653579 13.402612 223.653579"></polygon>
    </defs>
    <g id="Page-1" stroke="none" stroke-width="1" fill="none" fill-rule="evenodd">
        <g id="Carve---Support---1-November-2019-Copy" transform="translate(-332.000000, -393.000000)">
            <g id="pi-icon-3" transform="translate(333.500000, 394.000000)">
                <path d="M12.6988891,489.028 C1.64440975,331.510094 35.5917268,260.216588 114.54084,275.147482 C232.96451,297.543824 366.99749,322.856528 489.714207,143.570265 C612.430923,-35.7159981 772.95203,113.065422 772.95203,249.639578 C772.95203,340.689015 759.639438,419.528512 733.014253,486.158068 L12.6988891,489.028 Z" id="Path-47" fill="#FFD9A3" opacity="0.100000001"></path>
                <g id="Group-9" transform="translate(45.500000, -0.000000)">
                    <g id="Group-5" transform="translate(127.522924, 206.317329)"></g>
                    <g id="Group-4" transform="translate(62.000000, 77.000000)">
                        <path d="M185.028823,123.904001 C188.894817,123.904001 192.028823,127.038007 192.028823,130.904001 L192.028823,204.149858 C192.028823,208.015851 188.894817,211.149858 185.028823,211.149858 L99.9089013,211.149858 C96.3513152,211.149858 93.3595474,208.481414 92.9544342,204.946969 L84.5590949,131.701112 C84.1188624,127.860266 86.8756045,124.389766 90.7164506,123.949533 C90.9810718,123.919203 91.2472084,123.904001 91.5135621,123.904001 L116.902943,123.904001 L116.902943,123.904001" id="Path" stroke="#000000" stroke-width="1.5" fill="#FFFFFF" stroke-linecap="round" stroke-linejoin="round"></path>
                        <path d="M185.94905,123.904001 C189.815043,123.904001 192.94905,127.038007 192.94905,130.904001 C192.94905,130.930441 192.94905,130.956881 192.94905,130.983319 L192.107248,205.229177 C192.063792,209.063983 188.942751,212.149858 185.107698,212.149858 L109.987797,212.149858 C106.396809,212.149858 103.388268,209.432545 103.023921,205.860088 L95.4517501,131.614231 C95.0595007,127.768188 97.8593533,124.332374 101.705396,123.940124 C101.941375,123.916057 102.178424,123.904001 102.415626,123.904001 L116.60711,123.904001" id="Path" stroke="#000000" stroke-width="1.5" fill="#FFFFFF" stroke-linecap="round" stroke-linejoin="round"></path>
                        <rect id="Rectangle-Copy-4" fill="#FFD9A3" x="245.142476" y="186.619359" width="100" height="9.88850381" rx="4.94425191"></rect>
                        <rect id="Rectangle" stroke="#000000" stroke-width="1.5" stroke-linecap="round" stroke-linejoin="round" x="242.142476" y="186.619359" width="100" height="9.88850381" rx="4.94425191"></rect>
                        <path d="M200.621274,34.4114169 L194.185253,31.194114 C188.421478,34.413516 184.098647,36.4874139 181.216759,37.4158076 C178.334872,38.3442012 172.866257,39.4930586 164.810915,40.8623798 C164.607062,50.1909292 163.742618,55.0429389 162.217586,55.4184089 C160.692553,55.793879 159.655042,51.6435126 159.105052,42.9673098 C157.455369,42.7204387 156.238271,42.7204387 155.453757,42.9673098 C154.669243,43.2141808 153.685654,43.9066936 152.502991,45.0448481 L151.175421,49.8739098 L153.809524,53.8553722 L156.619452,53.8553722 L159.732093,53.8553722 L159.732093,80.0278595 L162.217586,104.590506 C140.878072,110.627749 129.262792,110.387239 127.371746,103.868976 C124.535178,94.0915825 131.543275,85.3786276 140.448969,63.6254705 C149.354664,41.8723135 139.807262,21.3123635 150.533714,12.4529217 C157.684681,6.54662714 163.24771,5.30453271 167.2228,8.7266384 C179.65674,2.59732304 189.699935,1.13996029 197.352384,4.35455016 C208.831058,9.17643496 214.493316,29.1207639 211.817852,40.8623798 C209.142387,52.6039957 205.001159,73.1423381 208.106649,87.2100096 C211.21214,101.277681 211.45271,103.33404 208.106649,109.114037 C205.875942,112.967369 196.175159,113.954969 179.004298,112.07684 L179.562031,79.3297168 L179.004298,73.2993275 L183.207333,73.2993275 L189.361664,71.4476945 L193.474846,69.3040796 L200.621274,57.5079396 L200.621274,49.8739098 L200.621274,34.4114169 Z" id="Path-12" fill="#000000"></path>
                        <path d="M166.420637,70.5866718 L139.563965,84.5915719 C134.213379,87.3817324 130.321624,92.338765 128.881059,98.198675 L115.958449,150.765111 L132.587961,150.725751 L143.142476,169.381876 L140.044204,215.712165 L225.320011,215.042818 L225.320011,169.381876 L225.320011,146.957995 L245.5,133.649903 L216.091729,88.8587524 C213.530757,84.9581876 209.623988,82.1364069 205.116139,80.9313043 L166.420637,70.5866718 Z" id="Path-36-Copy" fill="#FFA320"></path>
                        <path d="M160.420637,70.5866718 L133.563965,84.5915719 C128.213379,87.3817324 124.321624,92.338765 122.881059,98.198675 L109.958449,150.765111 L126.587961,150.725751 L137.142476,169.381876 L133.142476,215.712165 L219.320011,215.042818 L219.320011,169.381876 L219.320011,146.957995 L239.5,133.649903 L210.091729,88.8587524 C207.530757,84.9581876 203.623988,82.1364069 199.116139,80.9313043 L160.420637,70.5866718 Z" id="Path-36" stroke="#000000" stroke-width="1.5" stroke-linecap="round" stroke-linejoin="round"></path>
                        <g id="Group" transform="translate(175.621274, 58.411417) scale(-1, 1) translate(-175.621274, -58.411417) translate(150.621274, 34.411417)" stroke="#000000" stroke-linecap="round" stroke-linejoin="round" stroke-width="1.5">
                            <path d="M40.8891806,29.2140536 L40.8891806,37.9182998 C40.8891806,43.3941858 36.450098,47.8332685 30.974212,47.8332685 C25.498326,47.8332685 21.0592433,43.3941858 21.0592433,37.9182998 L21.0592433,38.8879106" id="Path" fill="#FFFFFF"></path>
                            <path d="M30.1740384,35.9795075 C27.1624759,37.8244048 23.6204042,38.8879106 19.8299374,38.8879106 C8.87816537,38.8879106 2.77111667e-13,30.0097452 2.77111667e-13,19.0579732 L2.77111667e-13,1.77635684e-14" id="Path" fill="#FFFFFF"></path>
                            <path d="M40.8891806,30.4081992 L40.8891806,19.482046 L44.001822,19.4439553 C47.0084775,19.4439553 49.4458533,17.0065795 49.4458533,13.9999241 C49.4458533,10.9932686 47.0084775,8.55589282 44.001822,8.55589282" id="Path"></path>
                        </g>
                        <ellipse id="Oval" stroke="#000000" stroke-width="1.5" fill="#FFFFFF" stroke-linecap="round" stroke-linejoin="round" cx="156.422037" cy="47.8147731" rx="8.57981358" ry="11.5482614"></ellipse>
                        <path d="M156.422037,53.8934629 L167.923768,60.725177 C173.953354,64.3065866 180.836741,66.1967174 187.849757,66.1967174 L187.849757,66.1967174" id="Path-54" stroke="#000000" stroke-width="1.5" stroke-linecap="round" stroke-linejoin="round"></path>
                        <ellipse id="Oval-Copy" stroke="#000000" stroke-width="1.5" fill="#FFFFFF" stroke-linecap="round" stroke-linejoin="round" cx="152.711847" cy="47.8147731" rx="8.57981358" ry="11.5482614"></ellipse>
                        <polygon id="Path-53" fill="#FFFFFF" points="149.929205 38.9885222 149.929205 20.1385263 154.411393 8.72614898 160.739706 2.69567395 167.525042 0.470652072 173.033557 -2.13162821e-14 170.447235 2.09777427 165.874011 4.70719873 162.751434 7.40878982 160.050006 10.4982216 157.649144 15.4333915 156.422037 19.84049 156.422037 24.4346694 156.422037 28.0717865 156.422037 32.7646619 156.422037 38.9885222"></polygon>
                        <path d="M156.422037,38.9885222 L156.422037,22.5185578 C156.422037,10.2790711 166.282716,0.324707915 178.521655,0.208975609 L193.648362,0.0659363601 C197.463152,0.0298634349 200.584892,3.09311819 200.620965,6.90790736 C200.621171,6.92967869 200.621274,6.95145087 200.621274,6.97322317 L200.621274,6.97322317" id="Path-51" stroke="#000000" stroke-width="1.5" stroke-linecap="round" stroke-linejoin="round"></path>
                        <path d="M149.929205,38.9885222 L149.929205,22.5185578 C149.929205,10.2790711 159.789884,0.324707915 172.028823,0.208975609 L187.155531,0.0659363601 C190.97032,0.0298634349 194.09206,3.09311819 194.128133,6.90790736 C194.128339,6.92967869 194.128442,6.95145087 194.128442,6.97322317 L194.128442,6.97322317" id="Path-51-Copy" stroke="#000000" stroke-width="1.5" stroke-linecap="round" stroke-linejoin="round"></path>
                        <rect id="Rectangle" stroke="#000000" stroke-width="1.5" fill="#FFFFFF" stroke-linecap="round" stroke-linejoin="round" x="184.016572" y="63.6254705" width="8.34792672" height="5.01303805" rx="2.50651903"></rect>
                        <g id="Group-3" transform="translate(0.000000, 196.844963)">
                            <rect id="Rectangle" stroke="#000000" stroke-width="1.5" fill="#FFFFFF" stroke-linecap="round" stroke-linejoin="round" transform="translate(239.157303, 7.851124) scale(-1, 1) translate(-239.157303, -7.851124) " x="0" y="0" width="478.314607" height="15.7022472" rx="7.72651978"></rect>
                            <path d="M7.72651978,0 L144.464491,0 C148.73173,-1.67205752e-15 152.191011,3.45928074 152.191011,7.72651978 L152.191011,7.97572741 C152.191011,12.2429665 148.73173,15.7022472 144.464491,15.7022472 L7.72651978,15.7022472 C3.45928074,15.7022472 -3.65592356e-16,12.2429665 0,7.97572741 L0,7.72651978 C-1.41076448e-15,3.45928074 3.45928074,-1.04299324e-16 7.72651978,0 Z" id="Rectangle-Copy" stroke="#000000" stroke-width="1.5" fill="#FFFFFF" stroke-linecap="round" stroke-linejoin="round" transform="translate(76.095506, 7.851124) scale(-1, 1) translate(-76.095506, -7.851124) "></path>
                            <path d="M128.841958,15.7022472 L461.004879,15.7022472 L461.004879,203 C461.004879,209.627417 455.632296,215 449.004879,215 L128.841958,215 L128.841958,15.7022472 Z" id="Rectangle-Copy-5" fill="#FFD9A3"></path>
                            <path d="M138.841958,15.7022472 L471.004879,15.7022472 L471.004879,203 C471.004879,209.627417 465.632296,215 459.004879,215 L138.841958,215 L138.841958,15.7022472 Z" id="Rectangle" stroke="#000000" stroke-width="1.5" stroke-linecap="round" stroke-linejoin="round"></path>
                            <path d="M8.44068163,15.7022472 L138.89012,15.7022472 L138.89012,215 L20.4406816,215 C13.8132646,215 8.44068163,209.627417 8.44068163,203 L8.44068163,15.7022472 Z" id="Rectangle-Copy-2" stroke="#000000" stroke-width="1.5" stroke-linecap="round" stroke-linejoin="round"></path>
                        </g>
                        <path d="M231.096964,87.8449633 L361.673504,87.8449633 C364.987213,87.8449633 367.673504,90.5312548 367.673504,93.8449633 C367.673504,94.0609938 367.661837,94.2768667 367.638553,94.4916387 L357.881587,184.491639 C357.551415,187.537207 354.97995,189.844963 351.916538,189.844963 L221.339997,189.844963 C218.026289,189.844963 215.339997,187.158672 215.339997,183.844963 C215.339997,183.628933 215.351664,183.41306 215.374948,183.198288 L225.131915,93.1982879 C225.462087,90.1527201 228.033551,87.8449633 231.096964,87.8449633 Z" id="Rectangle" stroke="#000000" stroke-width="1.5" fill="#FFFFFF" stroke-linecap="round" stroke-linejoin="round"></path>
                        <path d="M282.336011,160.653968 L304.220394,160.653968 C305.11803,160.653968 305.905711,161.252021 306.146866,162.116656 L315.031227,193.970551 C315.327977,195.034512 314.706028,196.137586 313.642067,196.434335 C313.467132,196.483126 313.286367,196.507862 313.104755,196.507862 L291.255797,196.507862 C290.358927,196.507862 289.571721,195.91081 289.32988,195.047161 L280.410094,163.193267 C280.112247,162.129612 280.733057,161.025897 281.796712,160.728051 C281.972262,160.678893 282.153708,160.653968 282.336011,160.653968 Z" id="Rectangle" stroke="#000000" stroke-width="1.5" fill="#FFFFFF" stroke-linecap="round" stroke-linejoin="round"></path>
                        <path d="M213.919484,196.975176 C213.919484,191.513906 209.49225,187.086672 204.03098,187.086672 C198.56971,187.086672 194.142476,191.513906 194.142476,196.975176 L213.919484,196.975176 Z" id="Oval" stroke="#000000" stroke-width="1.5" fill="#FFFFFF" stroke-linecap="round" stroke-linejoin="round"></path>
                        <path d="M114.383993,150.725751 L113.159705,155.781298 C111.343304,163.281904 115.514624,170.936724 122.802206,173.476322 L176.142476,192.064492 L188.029254,196.844963 C198.512073,197.578346 204.375363,196.985204 205.619124,195.065535 C207.150124,192.702532 202.876074,185.25658 200.621274,184.51369 C197.593959,183.51628 192.434359,182.40608 185.142476,181.183092 L139.392476,150.725751 L114.383993,150.725751 Z" id="Path-55" stroke="#000000" stroke-width="1.5" fill="#FFFFFF" stroke-linecap="round" stroke-linejoin="round"></path>
                        <path d="M296.947808,144.584772 C301.642228,144.584772 305.956161,139.384991 306.583246,132.970736 C307.210331,126.556481 303.913104,121.356699 299.218684,121.356699 C294.524263,121.356699 290.210331,126.556481 289.583246,132.970736 C288.956161,139.384991 292.253388,144.584772 296.947808,144.584772 Z" id="Oval-Copy-2" fill="#FFD9A3"></path>
                        <path d="M294.947808,144.584772 C299.642228,144.584772 303.956161,139.384991 304.583246,132.970736 C305.210331,126.556481 301.913104,121.356699 297.218684,121.356699 C292.524263,121.356699 288.210331,126.556481 287.583246,132.970736 C286.956161,139.384991 290.253388,144.584772 294.947808,144.584772 Z" id="Oval" stroke="#000000" stroke-width="1.5" stroke-linecap="round" stroke-linejoin="round"></path>
                        <path d="M147.550463,121.356699 L140.044204,150.725751" id="Path-56" stroke="#000000" stroke-width="1.5" stroke-linecap="round" stroke-linejoin="round"></path>
                        <polygon id="Path-57" stroke="#000000" stroke-width="1.5" fill="#FFFFFF" stroke-linecap="round" stroke-linejoin="round" points="172.313682 81.2925435 161.481381 96.220309 159.142476 73.9771883"></polygon>
                        <polygon id="Path-57-Copy" stroke="#000000" stroke-width="1.5" fill="#FFFFFF" stroke-linecap="round" stroke-linejoin="round" transform="translate(178.525065, 85.098749) scale(-1, 1) translate(-178.525065, -85.098749) " points="184.016572 80.9949704 173.033557 96.220309 176.4228 73.9771883"></polygon>
                        <path d="M213.942476,122.986672 L216.220807,176.661787" id="Path-58" stroke="#000000" stroke-width="1.5" stroke-linecap="round" stroke-linejoin="round"></path>
                    </g>
                    <g id="Group-7-Copy" transform="translate(315.000000, 30.000000)">
                        <polyline id="Path" stroke-opacity="0.85" stroke="#000000" stroke-width="1.5" points="128.841938 0 128.841938 47.41009 0 47.41009 0 0 100.287672 0"></polyline>
                        <text id="24/7" font-family="Helvetica" font-size="9" font-weight="normal" letter-spacing="0.15000005" fill="#000000">
                            <tspan x="46.7818943" y="20.0681386">24/7</tspan>
                        </text>
                        <circle id="Oval" fill="#FFA320" cx="24.140651" cy="23.705045" r="12.6369065"></circle>
                        <path d="M46.7818943,30.2238336 L106.068748,30.2238336" id="Path-6-Copy" stroke="#FFA320" stroke-width="1.5"></path>
                    </g>
                    <g id="Group-30" transform="translate(415.000000, 0.000000)">
                        <circle id="Oval-Copy-15" fill="#FFD9A3" cx="30.8695946" cy="26.7679455" r="26.7679455"></circle>
                        <circle id="Oval" stroke="#000000" stroke-width="1.5" cx="26.7679455" cy="26.7679455" r="26.7679455"></circle>
                        <polyline id="Path" stroke-opacity="0.85" stroke="#000000" stroke-width="1.5" stroke-linecap="round" stroke-linejoin="round" transform="translate(27.084327, 23.384258) rotate(-315.000000) translate(-27.084327, -23.384258) " points="31.8695844 13.8137433 31.8695844 32.9547721 22.29907 32.9547721"></polyline>
                    </g>
                    <g id="Group-7-Copy-2" transform="translate(39.000000, 114.000000)">
                        <polygon id="Rectangle" stroke-opacity="0.85" stroke="#000000" stroke-width="1.5" points="0.38345815 0.38345815 84.7442512 0.38345815 84.7442512 82.4435023 0.38345815 82.4435023"></polygon>
                        <g id="Group-7" transform="translate(12.654119, 14.379681)">
                            <circle id="Oval" fill="#FFA320" cx="29.643427" cy="12.6369065" r="12.6369065"></circle>
                            <path d="M15.338326,48.6991851 L43.948528,48.6991851" id="Path-6" stroke="#FFA320" stroke-width="1.5"></path>
                            <path d="M-5.68434189e-14,38.7292732 L59.286854,38.7292732" id="Path-6-Copy" stroke="#FFA320" stroke-width="1.5"></path>
                        </g>
                    </g>
                    <g id="Group-2" transform="translate(487.000000, 11.000000)">
                        <g id="Group-10">
                            <g id="Path-37" transform="translate(13.201114, 86.371323)">
                                <mask id="mask-2" fill="white">
                                    <use xlink:href="#path-1"></use>
                                </mask>
                                <g id="Mask"></g>
                                <g id="Group-20" mask="url(#mask-2)" fill="#FF5320">
                                    <g transform="translate(54.568886, 109.628677)" id="Rectangle-Copy-26">
                                        <polygon transform="translate(5.724000, 6.141719) rotate(-315.000000) translate(-5.724000, -6.141719) " points="3.816 0.417719142 7.632 0.417719142 7.632 11.8657191 3.816 11.8657191"></polygon>
                                    </g>
                                </g>
                                <g id="Group-20-Copy" mask="url(#mask-2)">
                                    <g transform="translate(98.514886, 83.582677) scale(-1, 1) translate(-98.514886, -83.582677) translate(25.014886, 16.582677)">
                                        <polygon id="Rectangle-Copy-27" fill="#FF5320" transform="translate(105.698722, 128.598039) rotate(-315.000000) translate(-105.698722, -128.598039) " points="103.790722 122.874039 107.606722 122.874039 107.606722 134.322039 103.790722 134.322039"></polygon>
                                        <circle id="Oval" fill="#FFDE20" cx="142.5" cy="50.5" r="4.5"></circle>
                                        <circle id="Oval" fill="#FFDE20" cx="123.716" cy="70.546" r="4.5"></circle>
                                        <circle id="Oval" fill="#FFDE20" cx="97.716" cy="33.546" r="4.5"></circle>
                                        <circle id="Oval" fill="#FFDE20" cx="86.716" cy="4.546" r="4.5"></circle>
                                        <circle id="Oval" fill="#FFDE20" cx="60.716" cy="13.546" r="4.5"></circle>
                                        <circle id="Oval" fill="#FFDE20" cx="47.716" cy="50.546" r="4.5"></circle>
                                        <circle id="Oval" fill="#FFDE20" cx="79.716" cy="67.546" r="4.5"></circle>
                                        <circle id="Oval" fill="#FFDE20" cx="31.716" cy="87.546" r="4.5"></circle>
                                        <circle id="Oval" fill="#FFDE20" cx="84.716" cy="105.546" r="4.5"></circle>
                                        <circle id="Oval" fill="#FFDE20" cx="39.716" cy="115.546" r="4.5"></circle>
                                        <circle id="Oval" fill="#FFDE20" cx="11.716" cy="112.546" r="4.5"></circle>
                                        <circle id="Oval" fill="#FFDE20" cx="4.716" cy="57.546" r="4.5"></circle>
                                        <circle id="Oval" fill="#FFDE20" cx="23.716" cy="15.546" r="4.5"></circle>
                                    </g>
                                </g>
                            </g>
                            <g id="Group-8">
                                <g id="Rectangle-2" transform="translate(98.203339, 229.154463)">
                                    <mask id="mask-4" fill="white">
                                        <use xlink:href="#path-3"></use>
                                    </mask>
                                    <use id="Mask" fill="#FFA320" xlink:href="#path-3"></use>
                                    <polygon id="Path-8" fill="#EC9110" mask="url(#mask-4)" points="28.2463803 24.7880079 24.2405802 227.805096 35.9430163 223.876381"></polygon>
                                </g>
                                <path d="M88.9017282,150.063231 L84.3230723,227.087256 C104.109035,231.717032 118.576597,234.031919 127.725759,234.031919 C136.87492,234.031919 149.830521,232.579304 166.592561,229.674074" id="Shape" stroke="#000000" stroke-width="1.5" stroke-linecap="round" stroke-linejoin="round"></path>
                                <g id="Group" transform="translate(69.901728, 0.099362)">
                                    <g id="Group-6" transform="translate(39.475266, 52.433488) rotate(-5.000000) translate(-39.475266, -52.433488) translate(4.975266, 3.433488)">
                                        <path d="M55.0831165,69.4960219 L55.0831165,86.4269582 C55.0831165,92.3305766 50.2972881,97.1164049 44.3936697,97.1164049 C38.4900513,97.1164049 33.7042229,92.3305766 33.7042229,86.4269582 L33.7042229,79.9255232" id="Path" stroke="#000000" stroke-width="1.5" stroke-linecap="round" stroke-linejoin="round"></path>
                                        <path d="M43.530993,76.7899389 C40.2841913,78.7789448 36.4654413,79.9255232 32.3788935,79.9255232 C20.5716567,79.9255232 11,70.3538665 11,58.5466296 L11,38" id="Path" stroke="#000000" stroke-width="1.5" stroke-linecap="round" stroke-linejoin="round"></path>
                                        <path d="M55.0831165,70.7834445 L55.0831165,59.0038276 L58.4388925,58.9627616 C61.6804038,58.9627616 64.3081679,56.3349975 64.3081679,53.0934862 C64.3081679,49.8519749 61.6804038,47.2242107 58.4388925,47.2242107" id="Path" stroke="#000000" stroke-width="1.5" stroke-linecap="round" stroke-linejoin="round"></path>
                                        <path d="M57.0476788,51.6277444 C66.5954683,32.7464044 66.8613547,23.3057344 57.845338,23.3057344 C50.9303287,11.7611407 42.0556878,5.60714383 31.2214152,4.84374383 C14.9700063,3.69864382 -5.41689905,34.2404038 10.2924045,34.2404038 C34.2612909,34.2404038 46.9220447,32.3530834 48.1555948,37.4834625 C49.3891449,42.6138415 42.4451131,56.3610494 47.1946264,58.2893617 C49.1265372,59.0737215 48.5422064,56.6312532 50.323486,53.4742348 C51.0822745,52.1294099 53.3236721,51.5139131 57.0476788,51.6277444 Z" id="Path-7" fill="#000000" transform="translate(34.531302, 31.624775) rotate(-9.000000) translate(-34.531302, -31.624775) "></path>
                                    </g>
                                </g>
                                <path d="M133.197811,84.8280394 L161.073928,92.3427119 C168.033873,94.2189309 173.54512,99.533762 175.672569,106.421068 L192.477146,160.823454 C194.12819,166.168472 194.492675,171.82802 193.540882,177.340665 L184.594908,229.154463 L162.051513,227.125644 L165.898695,183.671414 C166.212501,180.126947 165.976073,176.555267 165.197799,173.08309 L153.814362,122.297235" id="Path" stroke="#000000" stroke-width="1.5" stroke-linecap="round" stroke-linejoin="round"></path>
                                <polyline id="Path-31" stroke="#000000" stroke-width="1.5" stroke-linecap="round" stroke-linejoin="round" points="92.474303 229.674074 105.167225 452.808041 137.59737 452.808041"></polyline>
                                <polyline id="Path-32" stroke="#000000" stroke-width="1.5" stroke-linecap="round" stroke-linejoin="round" points="166.592561 229.154463 166.333905 452.808041 132.936845 452.808041 126.449719 251.311229"></polyline>
                                <path d="M115.035837,452.808041 C116.708958,454.831693 116.424797,457.82852 114.401145,459.501641 C113.548849,460.206305 112.477566,460.591815 111.371691,460.591815 L98.2539283,460.591815 C92.1032556,460.591815 86.4160499,463.860721 83.3201976,469.175462 L80.5094411,474.000771 C79.8144797,475.193832 80.218269,476.724376 81.4113297,477.419338 C81.7933539,477.641868 82.2275576,477.75911 82.6696686,477.75911 L130.6125,477.75911 L130.6125,452.808041 L115.035837,452.808041 Z" id="Path-33" stroke="#000000" stroke-width="1.5" fill="#FFFFFF" stroke-linecap="round" stroke-linejoin="round"></path>
                                <path d="M143.017572,452.808041 C143.017572,457.106901 139.532658,460.591815 135.233799,460.591815 L117.380155,460.591815 C112.206934,460.591815 107.710222,464.143084 106.511311,469.175462 L105.199979,474.679727 C104.879994,476.022848 105.709411,477.371062 107.052532,477.691047 C107.242342,477.736267 107.436793,477.75911 107.631915,477.75911 L166.592561,477.75911 L164.994263,452.808041 L143.017572,452.808041 Z" id="Path-33-Copy" stroke="#000000" stroke-width="1.5" fill="#FFFFFF" stroke-linecap="round" stroke-linejoin="round"></path>
                                <path d="M111.605951,85.8911335 L94.3727465,93.1161909 C89.1395759,95.3102088 84.7678637,99.1560258 81.9246642,104.066831 L56.9883275,147.137143 L31.5173594,126.497823 L12.3707039,142.386272 C37.4190669,176.81331 54.0765374,192.499712 62.3431154,189.445477 C70.6096934,186.391242 79.4625643,173.263826 88.9017282,150.063231" id="Path-30" stroke="#000000" stroke-width="1.5" stroke-linecap="round" stroke-linejoin="round"></path>
                                <g id="Group-7" transform="translate(0.501049, 75.431897)" fill="#FFFFFF" stroke="#000000" stroke-linecap="round" stroke-linejoin="round" stroke-width="1.5">
                                    <path d="M16.1577853,26.288906 C20.0585376,20.6312167 22.6120826,18.7392499 23.8184203,20.6130054 C25.0247579,22.486761 24.2897138,26.5049142 21.613288,32.667465 L16.1577853,26.288906 Z" id="Path-60"></path>
                                    <rect id="Rectangle" transform="translate(14.670680, 22.750000) rotate(-30.000000) translate(-14.670680, -22.750000) " x="12.1706802" y="-1" width="5" height="47.5" rx="2.5"></rect>
                                    <path d="M9.12465194,26.2906051 C12.9567141,23.5873936 18.2161435,24.2424689 21.2680289,27.8030936 L21.6491533,28.2477501 C25.1681832,32.3533908 26.0008292,38.1215417 23.7865845,43.0547939 L23.1073495,44.5681033 L29.7771216,52.3954644 L19.8551683,60.2921033 L11.2136655,41.1432325 C9.11506736,36.4929088 8.39022813,31.3393917 9.12465194,26.2906051 L9.12465194,26.2906051 Z" id="Path-59"></path>
                                </g>
                                <path d="M164.093303,227.312488 C158.651117,239.460468 156.864495,246.654942 158.733438,248.895911 C161.536851,252.257364 168.007093,257.683111 171.632975,256.390639 C174.05023,255.528991 177.32518,250.330658 181.457825,240.795639 L181.457825,228.938396 L164.093303,227.312488 Z" id="Path-34" stroke="#000000" stroke-width="1.5" fill="#FFFFFF" stroke-linecap="round" stroke-linejoin="round"></path>
                            </g>
                        </g>
                        <rect id="Rectangle" fill="#FFFFFF" x="170.27304" y="302.311788" width="15.3153735" height="7.10055687" rx="2.125"></rect>
                    </g>
                    <g id="Group" transform="translate(0.000000, 281.000000)">
                        <polygon id="Rectangle" stroke="#000000" stroke-width="1.5" fill="#FFFFFF" stroke-linecap="round" stroke-linejoin="round" points="3.8206881 128.934387 91.8088419 128.934387 77.2653454 207.265792 18.3641846 207.265792"></polygon>
                        <path d="M31.397065,146.461663 L88.1126177,146.461663" id="Path-41" stroke="#000000" stroke-width="1.5" stroke-linecap="round" stroke-linejoin="round"></path>
                        <path d="M37.2144636,128.934387 C6.99012402,108.19545 -0.0623078497,94.1446529 16.057168,86.7819965 C40.2363818,75.738012 0.595750044,52.3119196 6.40712931,43.9009835 C12.2185086,35.4900474 28.2685282,41.8442225 37.2144636,48.160675 C46.160399,54.4771275 42.8423519,2.64265062 72.9978024,0.0960739589 C103.153253,-2.45050271 66.6682511,46.3711054 70.0853409,58.2983105 C73.5024307,70.2255157 117.774692,50.1779439 93.9300163,73.1590672 C70.0853409,96.1401905 91.5418899,92.3118197 97.6262405,96.1401905 C101.682474,98.6924378 96.9558379,109.623836 83.4463315,128.934387 L37.2144636,128.934387 Z" id="Path-42-Copy" fill="#FFD9A3"></path>
                        <path d="M31.397065,128.934387 C1.17272542,108.19545 -5.87970645,94.1446529 10.2397694,86.7819965 C34.4189832,75.738012 -5.22164856,52.3119196 0.589730713,43.9009835 C6.40110998,35.4900474 22.4511296,41.8442225 31.397065,48.160675 C40.3430004,54.4771275 37.0249533,2.64265062 67.1804038,0.0960739589 C97.3358543,-2.45050271 60.8508525,46.3711054 64.2679423,58.2983105 C67.6850321,70.2255157 111.957293,50.1779439 88.1126177,73.1590672 C64.2679423,96.1401905 85.7244913,92.3118197 91.8088419,96.1401905 C95.8650757,98.6924378 91.1384393,109.623836 77.6289329,128.934387 L31.397065,128.934387 Z" id="Path-42" stroke="#000000" stroke-width="1.5" stroke-linecap="round" stroke-linejoin="round"></path>
                        <path d="M51.6758007,43.9009835 L46.7491759,128.934387" id="Path-43" stroke="#000000" stroke-width="1.5" stroke-linecap="round" stroke-linejoin="round"></path>
                        <path d="M49.1401181,85.3285425 L77.6289329,72.9879765" id="Path-44" stroke="#000000" stroke-width="1.5" stroke-linecap="round" stroke-linejoin="round"></path>
                        <path d="M27.5594642,98.9167433 L47.5660557,110.430176" id="Path-45" stroke="#000000" stroke-width="1.5" stroke-linecap="round" stroke-linejoin="round"></path>
                    </g>
                </g>
                <path d="M0,489 L741.100354,489" id="Path-52" stroke="#000000" stroke-width="1.5" stroke-linecap="round" stroke-linejoin="round"></path>
            </g>
        </g>
    </g>
</svg>