<?xml version="1.0" encoding="UTF-8"?>
<svg width="1033px" height="554px" viewBox="0 0 1033 554" version="1.1" xmlns="http://www.w3.org/2000/svg" xmlns:xlink="http://www.w3.org/1999/xlink">
    <!-- Generator: Sketch 55.1 (78136) - https://sketchapp.com -->
    <title>pi-icon-1</title>
    <desc>Created with Sketch.</desc>
    <defs>
        <path d="M-1.27897692e-13,26.7920909 L19.5283803,12.1773767 L54.7593322,59.832195 C68.594392,36.4384187 77.9132428,21.9074558 82.7158846,16.2393062 C87.5185264,10.5711566 94.2423183,6.16835293 102.88726,3.0308952 C109.169153,9.49580548 114.059345,12.5446327 117.557835,12.1773767 C121.056325,11.8101208 124.414481,7.75099525 127.632304,0 L156.479914,8.4090086 L167.662136,22.1038895 L184.016916,77.4530764 C182.251333,96.8690477 180.651393,110.773127 179.217095,119.165314 C177.782798,127.557501 175.733619,135.0047 173.06956,141.506911 L154.944465,148.685176 L154.944465,138.786908 L110.977613,143.961421 L79.1386497,136.111819 L82.7158846,72.8566616 C70.8962871,89.5996233 62.5604913,98.6679946 57.7084972,100.061775 C52.0175086,101.696565 47.211746,93.0775328 42.6922446,89.2448363 C32.3929232,80.5106483 18.1621749,59.6930665 -1.27897692e-13,26.7920909 Z" id="path-1"></path>
        <polygon id="path-3" points="0 -2.84217094e-14 67.958963 -2.84217094e-14 67.958963 216.605672 12.9802608 216.605672"></polygon>
    </defs>
    <g id="Page-1" stroke="none" stroke-width="1" fill="none" fill-rule="evenodd">
        <g id="Carve---Seamless---1-November-2019" transform="translate(-228.000000, -330.000000)">
            <g id="pi-icon-1" transform="translate(227.500000, 331.000000)">
                <path d="M95.5366106,553 C84.4821313,395.482094 118.429448,324.188588 197.378562,339.119482 C315.802232,361.515824 449.835212,386.828528 572.551928,207.542265 C695.268645,28.2560019 855.789752,177.037422 855.789752,313.611578 C855.789752,404.661015 842.477159,483.500512 815.851974,550.130068 L95.5366106,553 Z" id="Path-47" fill="#FFD9A3" opacity="0.100000001"></path>
                <g id="Group-16" transform="translate(0.000000, 0.000000)">
                    <g id="Group-15" transform="translate(679.679434, 428.010590)">
                        <path d="M42.7947818,123.47389 C15.3213617,81.5292347 11.066234,56.1379293 30.0293988,47.2999739 C58.4741459,34.0430407 61.4789083,88.6635032 88.2803032,70.2834267 C115.081698,51.9033502 115.733006,-2.84217094e-14 140.550206,-2.84217094e-14 C165.367406,-2.84217094e-14 162.669005,25.9210451 189.762192,42.6965976 C216.855379,59.4721501 207.644539,101.76312 237.80182,76.8332351 C267.9591,51.9033502 291.72026,81.4030531 271.410838,123.47389" id="Path-38-Copy" fill="#FFD9A3"></path>
                        <path d="M24.3812766,123.47389 C-3.09214354,81.5292347 -7.34727122,56.1379293 11.6158936,47.2999739 C40.0606407,34.0430407 43.0654031,88.6635032 69.866798,70.2834267 C96.6681929,51.9033502 97.3195003,-2.84217094e-14 122.136701,-2.84217094e-14 C146.953901,-2.84217094e-14 144.2555,25.9210451 171.348687,42.6965976 C198.441873,59.4721501 189.231034,101.76312 219.388315,76.8332351 C249.545595,51.9033502 273.306755,81.4030531 252.997332,123.47389" id="Path-38" stroke-opacity="0.85" stroke="#000000" stroke-width="1.5"></path>
                    </g>
                    <g id="Group-15-Copy" transform="translate(26.000000, 428.010590)">
                        <path d="M42.7947818,123.47389 C15.3213617,81.5292347 11.066234,56.1379293 30.0293988,47.2999739 C58.4741459,34.0430407 61.4789083,88.6635032 88.2803032,70.2834267 C115.081698,51.9033502 115.733006,-2.84217094e-14 140.550206,-2.84217094e-14 C165.367406,-2.84217094e-14 162.669005,25.9210451 189.762192,42.6965976 C216.855379,59.4721501 207.644539,101.76312 237.80182,76.8332351 C267.9591,51.9033502 291.72026,81.4030531 271.410838,123.47389" id="Path-38-Copy" fill="#FFD9A3"></path>
                        <path d="M24.3812766,123.47389 C-3.09214354,81.5292347 -7.34727122,56.1379293 11.6158936,47.2999739 C40.0606407,34.0430407 43.0654031,88.6635032 69.866798,70.2834267 C96.6681929,51.9033502 97.3195003,-2.84217094e-14 122.136701,-2.84217094e-14 C146.953901,-2.84217094e-14 144.2555,25.9210451 171.348687,42.6965976 C198.441873,59.4721501 189.231034,101.76312 219.388315,76.8332351 C249.545595,51.9033502 273.306755,81.4030531 252.997332,123.47389" id="Path-38" stroke-opacity="0.85" stroke="#000000" stroke-width="1.5"></path>
                    </g>
                    <g id="Group-14" transform="translate(154.906852, 0.000000)">
                        <g id="Group-12" transform="translate(596.660882, 0.000000)">
                            <path d="M32.5939428,0 C50.5950803,0 65.1878855,15.6092564 65.1878855,34.86425 C65.1878855,44.2991969 61.684153,52.8588023 55.99253,59.1355701 L55.6413407,59.5169976 L32.5939428,84.1697452 L9.54654481,59.5169976 L9.19535556,59.1355701 C3.50373254,52.8588023 0,44.2991969 0,34.86425 C0,15.6092564 14.5928052,0 32.5939428,0 Z" id="Path" fill="#FF5320"></path>
                            <path d="M34.86425,0 C54.1192436,0 69.7285,15.6092564 69.7285,34.86425 C69.7285,44.2991969 65.9807176,52.8588023 59.8926487,59.1355701 L59.5169976,59.5169976 L34.86425,84.1697452 L10.2115024,59.5169976 L9.83585133,59.1355701 C3.74778247,52.8588023 0,44.2991969 0,34.86425 C0,15.6092564 15.6092564,0 34.86425,0 Z" id="Path-Copy-4" stroke="#000000" stroke-width="1.5" stroke-linecap="round" stroke-linejoin="round"></path>
                            <circle id="Oval" stroke="#000000" stroke-width="1.5" fill="#FFFFFF" stroke-linecap="round" stroke-linejoin="round" cx="34.86425" cy="35.9495422" r="9.58645376"></circle>
                        </g>
                        <g id="Group-11" transform="translate(556.014318, 90.503612)">
                            <polygon id="Rectangle" stroke-opacity="0.85" stroke="#000000" stroke-width="1.5" fill="#FFFFFF" transform="translate(188.540597, 253.291434) rotate(-30.000000) translate(-188.540597, -253.291434) " points="184.791019 236.503952 192.290174 236.503952 192.290174 270.078916 184.791019 270.078916"></polygon>
                            <g id="Group-10">
                                <g id="Path-37" transform="translate(13.753600, 81.712563)">
                                    <mask id="mask-2" fill="white">
                                        <use xlink:href="#path-1"></use>
                                    </mask>
                                    <g id="Mask"></g>
                                    <g id="Group-9-Copy" mask="url(#mask-2)" fill="#FFA320">
                                        <g transform="translate(68.951073, 137.737073) scale(-1, 1) translate(-68.951073, -137.737073) translate(10.951073, 112.737073)">
                                            <path d="M78.8207925,29.6531354 L82.1328518,29.6531354 C83.6126179,29.6531354 84.8122055,30.8527229 84.8122055,32.3324891 L84.8122055,39.5138284 C84.8122055,40.9935946 83.6126179,42.1931821 82.1328518,42.1931821 L78.8207925,42.1931821 C77.3410264,42.1931821 76.1414389,40.9935946 76.1414389,39.5138284 L76.1414389,32.3324891 C76.1414389,30.8527229 77.3410264,29.6531354 78.8207925,29.6531354 Z" id="Rectangle-Copy-12" transform="translate(80.476822, 35.923159) rotate(-45.000000) translate(-80.476822, -35.923159) "></path>
                                            <path d="M5.97538201,35.7842933 L9.28744122,35.7842933 C10.7672074,35.7842933 11.9667949,36.9838808 11.9667949,38.463647 L11.9667949,45.6449863 C11.9667949,47.1247525 10.7672074,48.32434 9.28744122,48.32434 L5.97538201,48.32434 C4.49561582,48.32434 3.29602831,47.1247525 3.29602831,45.6449863 L3.29602831,38.463647 C3.29602831,36.9838808 4.49561582,35.7842933 5.97538201,35.7842933 Z" id="Rectangle-Copy-13" transform="translate(7.631412, 42.054317) rotate(-45.000000) translate(-7.631412, -42.054317) "></path>
                                            <path d="M106.653767,1.36913674 L109.965826,1.36913674 C111.445592,1.36913674 112.64518,2.56872425 112.64518,4.04849044 L112.64518,11.2298298 C112.64518,12.709596 111.445592,13.9091835 109.965826,13.9091835 L106.653767,13.9091835 C105.174001,13.9091835 103.974413,12.709596 103.974413,11.2298298 L103.974413,4.04849044 C103.974413,2.56872425 105.174001,1.36913674 106.653767,1.36913674 Z" id="Rectangle-Copy-14" transform="translate(108.309796, 7.639160) rotate(-45.000000) translate(-108.309796, -7.639160) "></path>
                                        </g>
                                    </g>
                                </g>
                                <g id="Group-8">
                                    <g id="Rectangle-2" transform="translate(105.762057, 219.996234)">
                                        <mask id="mask-4" fill="white">
                                            <use xlink:href="#path-3"></use>
                                        </mask>
                                        <use id="Mask" fill="#113283" xlink:href="#path-3"></use>
                                        <polygon id="Path-8" fill="#052166" mask="url(#mask-4)" points="27.3562633 24.0068732 23.4766963 220.626364 34.8103583 216.821453"></polygon>
                                        <polygon id="Path-10" fill="#052166" mask="url(#mask-4)" points="0.607119531 108.302836 82.7785392 108.302836 80.078458 89.4140382 -4.5602788 89.4140382"></polygon>
                                    </g>
                                    <path d="M96.7535645,143.397373 L92.3191939,217.994171 C111.48165,222.478049 125.493301,224.719989 134.354149,224.719989 C143.214996,224.719989 155.762332,223.31315 171.996157,220.499471" id="Shape" stroke="#000000" stroke-width="1.5" stroke-linecap="round" stroke-linejoin="round"></path>
                                    <path d="M139.447507,67.4022517 L139.447507,83.7996501 C139.447507,89.5172301 134.812493,94.1522445 129.094913,94.1522445 C123.377333,94.1522445 118.742318,89.5172301 118.742318,83.7996501 L118.742318,77.5030922" id="Path" stroke="#000000" stroke-width="1.5" stroke-linecap="round" stroke-linejoin="round"></path>
                                    <path d="M128.259421,74.4663184 C125.114935,76.3926456 121.416523,77.5030922 117.458753,77.5030922 C106.023593,77.5030922 96.7535645,68.2330634 96.7535645,56.7979033 L96.7535645,36.8987515" id="Path" stroke="#000000" stroke-width="1.5" stroke-linecap="round" stroke-linejoin="round"></path>
                                    <path d="M141.371351,51.1281105 C146.717863,35.616109 145.025169,27.8601083 136.293271,27.8601083 C137.054222,15.5901155 132.188269,9.08544749 121.695413,8.34610421 C105.956128,7.23708929 96.681635,2.82996358 89.9472544,6.39016233 C77.1388077,13.1614779 79.3458203,34.6063191 94.5600827,34.6063191 C117.773647,34.6063191 131.564802,32.4608443 132.75948,37.4295517 C133.954158,42.3982592 127.22895,55.7122567 131.828794,57.5798029 C133.699825,58.3394455 133.133908,55.9739457 134.859055,52.9164131 C135.593932,51.6139672 137.764698,51.0178663 141.371351,51.1281105 Z" id="Path-7" fill="#000000" transform="translate(113.003497, 31.374580) rotate(-9.000000) translate(-113.003497, -31.374580) "></path>
                                    <path d="M139.447507,68.6491043 L139.447507,57.2406938 L142.697534,57.2009219 C145.836897,57.2009219 148.381853,54.6559654 148.381853,51.5166026 C148.381853,48.3772398 145.836897,45.8322833 142.697534,45.8322833" id="Path" stroke="#000000" stroke-width="1.5" stroke-linecap="round" stroke-linejoin="round"></path>
                                    <path d="M139.653762,80.2179122 L166.29909,87.4007958 C173.259034,89.2770148 178.770281,94.5918459 180.89773,101.479152 L196.985902,153.562281 C198.636947,158.907299 199.001431,164.566847 198.049639,170.079492 L189.431203,219.996234 L167.598209,218.031348 L171.309233,176.115026 C171.623039,172.570559 171.386612,168.998879 170.608338,165.526703 L159.620632,116.506356" id="Path" stroke="#000000" stroke-width="1.5" stroke-linecap="round" stroke-linejoin="round"></path>
                                    <polyline id="Path-31" stroke="#000000" stroke-width="1.5" stroke-linecap="round" stroke-linejoin="round" points="100.213558 220.499471 112.506493 436.601906 143.91468 436.601906"></polyline>
                                    <polyline id="Path-32" stroke="#000000" stroke-width="1.5" stroke-linecap="round" stroke-linejoin="round" points="171.996157 219.996234 171.745652 436.601906 139.40102 436.601906 133.118321 241.454783"></polyline>
                                    <path d="M116.674964,436.601906 C116.674964,440.765297 113.299869,444.140392 109.136478,444.140392 L92.8816652,444.140392 C88.2904367,444.140392 84.5685107,447.862318 84.5685107,452.453547 L84.5685107,458.266701 C84.5685107,459.647413 85.6877988,460.766701 87.0685107,460.766701 L137.149921,460.766701 L137.149921,436.601906 L116.674964,436.601906 Z" id="Path-33" stroke="#000000" stroke-width="1.5" fill="#FFFFFF" stroke-linecap="round" stroke-linejoin="round"></path>
                                    <path d="M149.164077,436.601906 C149.164077,440.765297 145.788982,444.140392 141.625591,444.140392 L124.101899,444.140392 C119.51067,444.140392 115.788744,447.862318 115.788744,452.453547 L115.788744,458.266701 C115.788744,459.647413 116.908032,460.766701 118.288744,460.766701 L174.117992,460.766701 L170.448225,436.601906 L149.164077,436.601906 Z" id="Path-33-Copy" stroke="#000000" stroke-width="1.5" fill="#FFFFFF" stroke-linecap="round" stroke-linejoin="round"></path>
                                    <path d="M118.742318,81.2475053 L102.306353,88.1383184 C97.0731827,90.3323362 92.7014704,94.1781532 89.858271,99.0889582 L65.8458382,140.563493 L31.4926527,91.5199508 L12.9493582,106.907713 C43.6649647,159.619613 63.0258062,184.49657 71.0318828,181.538582 C79.0379594,178.580593 87.6118532,165.866857 96.7535645,143.397373" id="Path-30" stroke="#000000" stroke-width="1.5" stroke-linecap="round" stroke-linejoin="round"></path>
                                    <polygon id="Rectangle-Copy-19" stroke-opacity="0.85" stroke="#000000" stroke-width="1.5" fill="#FFFFFF" transform="translate(164.269538, 253.291434) scale(-1, 1) rotate(-30.000000) translate(-164.269538, -253.291434) " points="160.519961 236.503952 168.019116 236.503952 168.019116 270.078916 160.519961 270.078916"></polygon>
                                    <path d="M169.575657,218.212305 C164.304969,229.97747 162.574648,236.945228 164.384695,239.115578 C167.099765,242.371103 185.618337,242.945808 189.129958,241.694065 C191.471039,240.85957 190.558712,237.38507 186.392977,231.270566 L186.392977,219.786976 L169.575657,218.212305 Z" id="Path-34" stroke="#000000" stroke-width="1.5" fill="#FFFFFF" stroke-linecap="round" stroke-linejoin="round"></path>
                                    <path d="M30.6148864,92.3817338 C29.8699368,80.599427 28.0215746,74.7082736 25.0697996,74.7082736 C20.6421371,74.7082736 6.28268994,55.0576614 3.90196291,60.5364257 C1.52123587,66.01519 -1.7220048,76.0059188 1.08997905,80.5897252 C2.96463496,83.6455961 8.99454609,90.7765351 19.1797125,101.982542 L30.6148864,92.3817338 Z" id="Path-35" stroke="#000000" stroke-width="1.5" stroke-linecap="round" stroke-linejoin="round"></path>
                                </g>
                            </g>
                            <path d="M107.061534,261.318393 L223.234488,261.318393 C229.475119,261.318393 231.738123,261.968173 234.019604,263.188322 C236.301086,264.408472 238.091606,266.198992 239.311755,268.480473 C240.531905,270.761955 241.181684,273.024959 241.181684,279.26559 L241.181684,315.250198 C241.181684,317.033235 240.996033,317.679808 240.647419,318.33166 C240.298805,318.983512 239.787228,319.495089 239.135376,319.843703 C238.483524,320.192317 237.836951,320.377968 236.053914,320.377968 L97.4469643,320.377968 C95.6639269,320.377968 95.0173544,320.192317 94.3655025,319.843703 C93.7136507,319.495089 93.2020735,318.983512 92.8534593,318.33166 C92.5048452,317.679808 92.3191939,317.033235 92.3191939,315.250198 L92.3191939,276.060733 C92.3191939,270.9345 92.8529412,269.075605 93.855207,267.201531 C94.8574728,265.327456 96.3282571,263.856672 98.2023311,262.854406 C100.076405,261.852141 101.935301,261.318393 107.061534,261.318393 Z" id="Rectangle-Copy-16" stroke-opacity="0.85" stroke="#000000" stroke-width="1.5" fill="#FFFFFF"></path>
                            <path d="M142.813168,261.318393 L201.134438,261.318393 C212.975111,261.318393 222.573873,270.917155 222.573873,282.757828 L222.573873,300.197263 C222.573873,302.406402 220.783012,304.197263 218.573873,304.197263 L158.61491,304.197263 C156.405771,304.197263 154.61491,302.406402 154.61491,300.197263 L154.61491,283.450733 C154.61491,274.56759 150.189416,266.268262 142.813168,261.318393 L142.813168,261.318393 Z" id="Rectangle-Copy-18" fill="#FFA320"></path>
                            <path d="M137.149921,261.318393 L195.471191,261.318393 C207.311864,261.318393 216.910626,270.917155 216.910626,282.757828 L216.910626,300.197263 C216.910626,302.406402 215.119765,304.197263 212.910626,304.197263 L152.951663,304.197263 C150.742524,304.197263 148.951663,302.406402 148.951663,300.197263 L148.951663,283.450733 C148.951663,274.56759 144.526169,266.268262 137.149921,261.318393 L137.149921,261.318393 Z" id="Rectangle-Copy-17" stroke-opacity="0.85" stroke="#000000" stroke-width="1.5"></path>
                            <rect id="Rectangle" fill="#FFA320" x="106.369177" y="261.318393" width="8.81959379" height="46.1150106"></rect>
                            <path d="M110.778974,261.318393 C120.974029,261.318393 129.238754,269.583118 129.238754,279.778173 L129.238754,316.377968 C129.238754,318.587107 127.447893,320.377968 125.238754,320.377968 L96.3191939,320.377968 C94.1100549,320.377968 92.3191939,318.587107 92.3191939,316.377968 L92.3191939,279.778173 C92.3191939,269.583118 100.583919,261.318393 110.778974,261.318393 Z" id="Rectangle" stroke-opacity="0.85" stroke="#000000" stroke-width="1.5"></path>
                            <rect id="Rectangle" fill="#FFFFFF" x="175.560654" y="290.848181" width="14.8327462" height="6.87679982" rx="2.125"></rect>
                        </g>
                        <g id="Group-2" transform="translate(0.000000, 237.744053)">
                            <path d="M148.014846,185.755561 L218.279934,14.3680457 C220.511877,8.92398895 225.812373,5.3684141 231.696191,5.3684141 L435.767844,5.3684141 C442.188972,5.3684141 447.845407,9.59157816 449.670079,15.7479937 L511.533172,224.473119 L148.014846,185.755561 Z" id="Path-Copy-3" fill="#FFD9A3"></path>
                            <path d="M113.810379,147.751186 L132.356145,144.897992 C140.745823,143.607272 148.593336,149.362115 149.884056,157.751793 C150.003031,158.525126 150.062778,159.306416 150.062778,160.088848 C150.062778,169.983003 137.147814,178.003801 127.253659,178.003801 L113.810379,147.751186 Z" id="Path" stroke-opacity="0.85" stroke="#000000" stroke-width="1.5" fill="#FFFFFF" transform="translate(131.936579, 161.360454) scale(-1, 1) translate(-131.936579, -161.360454) "></path>
                            <ellipse id="Oval-Copy-2" stroke-opacity="0.85" stroke="#000000" stroke-width="1.5" fill="#FFFFFF" cx="272.784604" cy="265.74536" rx="43.8607484" ry="46.640655"></ellipse>
                            <g id="Group" transform="translate(53.639261, 219.104705)" fill="#FFFFFF" stroke="#000000" stroke-opacity="0.85" stroke-width="1.5">
                                <ellipse id="Oval-Copy-3" cx="43.8607484" cy="46.640655" rx="43.8607484" ry="46.640655"></ellipse>
                                <ellipse id="Oval-Copy" cx="52.2004682" cy="46.640655" rx="35.5210286" ry="46.640655"></ellipse>
                            </g>
                            <g id="Group-Copy" transform="translate(286.684137, 219.104705)" fill="#FFFFFF" stroke="#000000" stroke-opacity="0.85" stroke-width="1.5">
                                <ellipse id="Oval-Copy-3" cx="43.8607484" cy="46.640655" rx="43.8607484" ry="46.640655"></ellipse>
                                <ellipse id="Oval-Copy" cx="52.2004682" cy="46.640655" rx="35.5210286" ry="46.640655"></ellipse>
                            </g>
                            <path d="M136.050053,180.387147 L209.95107,8.76531174 C212.241532,3.44612529 217.477484,-1.13706406e-14 223.268853,0 L438.977879,0 C445.325833,2.38661348e-15 450.935784,4.12912602 452.822574,10.1901938 L517.856948,219.104705 L136.050053,180.387147 Z" id="Path" stroke-opacity="0.85" stroke="#000000" stroke-width="1.5"></path>
                            <path d="M142.227624,191.506773 L216.12864,19.8849381 C218.419102,14.5657517 223.655054,11.1196264 229.446423,11.1196264 L309.544855,11.1196264 C313.963133,11.1196264 317.544855,14.7013484 317.544855,19.1196264 C317.544855,19.8065059 317.456393,20.4905256 317.281653,21.1548066 L263.912315,224.039923 L142.227624,191.506773 Z" id="Path-Copy" stroke-opacity="0.85" stroke="#000000" stroke-width="1.5" fill="#FFFFFF"></path>
                            <path d="M300.438496,190.687314 L282.850722,27.170292 C281.994313,19.2080881 287.754698,12.0591898 295.716902,11.2027808 C296.231934,11.1473843 296.749565,11.1196264 297.267568,11.1196264 L376.664387,11.1196264 C383.353254,11.1196264 389.174176,15.6951054 390.754096,22.1947049 L437.725728,215.430274 L300.438496,190.687314 Z" id="Path-Copy-2" stroke-opacity="0.85" stroke="#000000" stroke-width="1.5" fill="#FFFFFF" transform="translate(359.425026, 113.274950) scale(-1, 1) translate(-359.425026, -113.274950) "></path>
                            <ellipse id="Oval-Copy-6" stroke-opacity="0.85" stroke="#000000" stroke-width="1.5" fill="#FFFFFF" cx="451.93414" cy="265.74536" rx="43.8607484" ry="46.640655"></ellipse>
                            <path d="M107.838813,165.977602 L107.838813,165.977602 L525.697553,165.977602 C535.248506,165.977602 543.651551,172.285752 546.317626,181.457051 L564.720793,244.763945 C568.031302,256.152097 561.483079,268.067716 550.094928,271.378225 C548.1472,271.944425 546.129076,272.231809 544.100721,272.231809 L76.5862806,272.231809 C62.1826403,272.231809 50.0639194,261.440589 48.4002866,247.133347 L41.7489072,189.931484" id="Path" stroke-opacity="0.85" stroke="#000000" stroke-width="1.5" fill="#FFFFFF"></path>
                            <path d="M47.016644,173.646765 L523.63885,173.646765 C529.865704,173.646765 535.344167,177.759436 537.082346,183.738771 L559.830662,261.992979 C561.988987,269.417617 557.719797,277.186143 550.295159,279.344468 C549.025316,279.713609 547.709576,279.900972 546.387166,279.900972 L60.1230343,279.900972 C50.7324136,279.900972 42.8314726,272.865511 41.7468478,263.537738 L33.1103407,189.263777 C32.2172896,181.583537 37.7193927,174.633512 45.399632,173.740461 C45.9363761,173.678049 46.4762834,173.646765 47.016644,173.646765 Z" id="Rectangle" fill="#FFA320"></path>
                            <rect id="Rectangle" fill="#FFFFFF" x="372.721322" y="198.631322" width="26.5864317" height="12.2706608" rx="4"></rect>
                            <path d="M405.990431,176.954302 L415.343156,215.430274 M281.124324,11.2471713 C281.914297,11.1622024 282.708256,11.1196264 283.502785,11.1196264" id="Shape" stroke-opacity="0.85" stroke="#000000" stroke-width="1.5" transform="translate(348.233740, 113.115107) scale(-1, 1) translate(-348.233740, -113.115107) "></path>
                            <path d="M420.564406,165.977602 L409.428924,243.491321 C408.650975,248.906603 404.011579,252.927139 398.540704,252.927139 L295.990612,252.927139" id="Path-3" stroke-opacity="0.85" stroke="#000000" stroke-width="1.5"></path>
                            <path d="M32.1221695,173.646765 L219.488981,173.646765 C226.523082,173.646765 232.46504,178.866077 233.372095,185.841449 L243.548022,264.095656 C244.545071,271.763088 239.137657,278.787037 231.470225,279.784085 C230.871602,279.861928 230.268572,279.900972 229.664909,279.900972 L47.3156026,279.900972 C38.1193801,279.900972 30.3192978,273.146019 29.0053963,264.044142 L18.2657972,189.647001 C17.161097,181.994338 22.4692698,174.895092 30.1219329,173.790392 C30.7843878,173.694764 31.4528478,173.646765 32.1221695,173.646765 Z" id="Rectangle-Copy-6" fill="#F68B0F"></path>
                            <g id="Group-4" transform="translate(511.856571, 183.892555)">
                                <path d="M8.58810782,0 L46.166358,0 C48.375497,3.51840692e-15 50.166358,1.790861 50.166358,4 L50.166358,24.4168229 C50.166358,26.6259619 48.375497,28.4168229 46.166358,28.4168229 L12.1294161,28.4168229 C10.184026,28.4168229 8.52072665,27.0171888 8.1882618,25.1004181 L4.64695348,4.68359523 C4.26941426,2.50695579 5.72787315,0.436384874 7.9045126,0.0588456556 C8.13027168,0.019687627 8.35897791,-8.46087938e-16 8.58810782,0 Z" id="Rectangle-Copy-7" fill="#FEDB3D"></path>
                                <path d="M4.75352632,0 L42.3317765,0 C44.5409155,-4.33003142e-15 46.3317765,1.790861 46.3317765,4 L46.3317765,24.4168229 C46.3317765,26.6259619 44.5409155,28.4168229 42.3317765,28.4168229 L8.29483464,28.4168229 C6.34944452,28.4168229 4.68614515,27.0171888 4.3536803,25.1004181 L0.812371975,4.68359523 C0.434832756,2.50695579 1.89329165,0.436384874 4.06993109,0.0588456556 C4.29569018,0.019687627 4.52439641,-8.46087938e-16 4.75352632,0 Z" id="Rectangle" stroke-opacity="0.85" stroke="#000000" stroke-width="1.5"></path>
                                <path d="M18.8415891,7.62913442 L46.3317765,7.62913442" id="Path-5" stroke-opacity="0.85" stroke="#000000" stroke-width="1.5"></path>
                                <path d="M33.4129988,15.2982974 L45.5648602,15.2982974" id="Path-5-Copy" stroke-opacity="0.85" stroke="#000000" stroke-width="1.5"></path>
                            </g>
                            <path d="M23.9345053,165.977602 L90.2705807,165.977602 L203.93515,165.977602 C211.066843,165.977602 217.058735,171.338588 217.848944,178.426367 L227.082394,261.245772 C227.939117,268.930149 222.40421,275.854078 214.719834,276.710801 C214.20475,276.768227 213.686875,276.797007 213.168599,276.797007 L37.1941351,276.797007 C27.7701122,276.797007 19.8522547,269.712847 18.8080498,260.346853 L10.020711,181.528836 C9.16398786,173.84446 14.6988944,166.92053 22.3832708,166.063807 C22.8983547,166.006381 23.4162301,165.977602 23.9345053,165.977602 Z" id="Rectangle-Copy" stroke-opacity="0.85" stroke="#000000" stroke-width="1.5"></path>
                            <g id="Group-6" transform="translate(161.670180, 231.608723)">
                                <rect id="Rectangle-Copy-8" fill="#FEDB3D" x="3.0676652" y="0" width="23.7744053" height="9.20299561" rx="3"></rect>
                                <rect id="Rectangle-Copy-5" stroke-opacity="0.85" stroke="#000000" stroke-width="1.5" x="0" y="0" width="23.7744053" height="9.20299561" rx="3"></rect>
                            </g>
                            <g id="Group-5" transform="translate(38.963572, 231.608723)">
                                <rect id="Rectangle-Copy-9" fill="#FEDB3D" x="3.0676652" y="0" width="23.7744053" height="9.20299561" rx="3"></rect>
                                <rect id="Rectangle" stroke-opacity="0.85" stroke="#000000" stroke-width="1.5" x="0" y="0" width="23.7744053" height="9.20299561" rx="3"></rect>
                            </g>
                            <g id="Group-3" transform="translate(55.835731, 185.150509)" stroke="#000000" stroke-opacity="0.85" stroke-width="1.5">
                                <path d="M9.69826838,-1.0658141e-14 L99.1913698,-1.0658141e-14 C103.057363,-9.59195564e-15 106.19137,3.13400675 106.19137,7 C106.19137,7.65127197 106.100482,8.29935759 105.921335,8.9255058 L99.2745168,32.1572462 C98.4150769,35.1611322 95.6689668,37.2317404 92.5445519,37.2317404 L17.4075887,37.2317404 C14.3911211,37.2317404 11.713897,35.299378 10.7638438,32.4364292 L3.05452341,9.20468882 C1.8369074,5.53544979 3.82434053,1.57387105 7.49357956,0.356255032 C8.2046748,0.120282137 8.94904235,-8.74415361e-15 9.69826838,-1.0658141e-14 Z" id="Rectangle-Copy" fill="#FFFFFF"></path>
                                <path d="M19.6090678,-1.0658141e-14 L99.5252632,-1.0658141e-14 C103.391256,-1.04801341e-14 106.525263,3.13400675 106.525263,7 C106.525263,7.56835128 106.456045,8.13458729 106.319137,8.68620256 L100.553145,31.917943 C99.7783326,35.0397381 96.9757819,37.2317404 93.7592714,37.2317404 L26.2967609,37.2317404 C23.1765635,37.2317404 20.4330899,35.1666158 19.5699349,32.1681837 L12.8822419,8.93644326 C11.8127738,5.22131986 13.9575012,1.34264212 17.6726246,0.273174039 C18.3021436,0.0919551689 18.9539843,-1.32023394e-14 19.6090678,-1.0658141e-14 Z" id="Rectangle-Copy-4" fill="#FFFFFF"></path>
                                <path d="M14.6732811,8.34895973 L105.015805,8.34895973" id="Path-4"></path>
                                <path d="M19.589514,29.8226161 L100.342505,30.2797649" id="Path-4-Copy-2"></path>
                                <path d="M15.4401974,19.0857879 L102.97598,19.0857879" id="Path-4-Copy"></path>
                            </g>
                            <path d="M9,259.195552 L231.352361,259.195552 C236.322923,259.195552 240.352361,263.224989 240.352361,268.195552 L240.352361,272.434805 C240.352361,277.405367 236.322923,281.434805 231.352361,281.434805 L9,281.434805 C4.02943725,281.434805 -2.78129911e-14,277.405367 -2.84217094e-14,272.434805 L-2.84217094e-14,268.195552 C-2.90304278e-14,263.224989 4.02943725,259.195552 9,259.195552 Z" id="Rectangle" stroke-opacity="0.85" stroke="#000000" stroke-width="1.5" fill="#FFFFFF"></path>
                            <path d="M539.69816,259.195552 L576.678535,259.195552 C581.649097,259.195552 585.678535,263.224989 585.678535,268.195552 L585.678535,272.434805 C585.678535,277.405367 581.649097,281.434805 576.678535,281.434805 L539.69816,281.434805 C534.727597,281.434805 530.69816,277.405367 530.69816,272.434805 L530.69816,268.195552 C530.69816,263.224989 534.727597,259.195552 539.69816,259.195552 Z" id="Rectangle-Copy-2" stroke-opacity="0.85" stroke="#000000" stroke-width="1.5" fill="#FFFFFF"></path>
                            <ellipse id="Oval" stroke-opacity="0.85" stroke="#000000" stroke-width="1.5" fill="#FFFFFF" cx="281.124324" cy="265.74536" rx="35.5210286" ry="46.640655"></ellipse>
                            <ellipse id="Oval-Copy-9" stroke-opacity="0.85" stroke="#000000" stroke-width="1.5" fill="#9598B4" cx="281.124324" cy="265.74536" rx="19.8585612" ry="26.0751542"></ellipse>
                            <ellipse id="Oval-Copy-11" stroke-opacity="0.85" stroke="#000000" stroke-width="1.5" fill="#FFFFFF" cx="277.591938" cy="265.74536" rx="16.4887005" ry="26.0751542"></ellipse>
                            <ellipse id="Oval-Copy-5" stroke-opacity="0.85" stroke="#000000" stroke-width="1.5" fill="#FFFFFF" cx="460.27386" cy="265.74536" rx="35.5210286" ry="46.640655"></ellipse>
                            <ellipse id="Oval-Copy-10" stroke-opacity="0.85" stroke="#000000" stroke-width="1.5" fill="#9598B4" cx="461.336369" cy="265.74536" rx="19.8585612" ry="26.0751542"></ellipse>
                            <ellipse id="Oval-Copy-12" stroke-opacity="0.85" stroke="#000000" stroke-width="1.5" fill="#FFFFFF" cx="457.966508" cy="265.74536" rx="16.4887005" ry="26.0751542"></ellipse>
                            <ellipse id="Oval" stroke-opacity="0.85" stroke="#000000" stroke-width="1.5" fill="#FFFFFF" cx="39.3344903" cy="198.100967" rx="14.51729" ry="15.4439255"></ellipse>
                            <ellipse id="Oval-Copy-8" stroke-opacity="0.85" stroke="#000000" stroke-width="1.5" fill="#FFFFFF" cx="43.4984102" cy="198.100967" rx="10.3533701" ry="15.4439255"></ellipse>
                            <ellipse id="Oval-Copy-4" stroke-opacity="0.85" stroke="#000000" stroke-width="1.5" fill="#FFFFFF" cx="186.53358" cy="198.100967" rx="14.51729" ry="15.4439255"></ellipse>
                            <ellipse id="Oval-Copy-7" stroke-opacity="0.85" stroke="#000000" stroke-width="1.5" fill="#FFFFFF" cx="190.6975" cy="198.100967" rx="10.3533701" ry="15.4439255"></ellipse>
                            <path d="M462.355995,93.6574538 L480.388509,151.6573 C480.716443,152.712066 480.127228,153.832967 479.072461,154.1609 C478.880203,154.220675 478.680021,154.251076 478.478685,154.251076 L456.456736,154.251076 C455.352167,154.251076 454.456736,153.355645 454.456736,152.251076 C454.456736,152.205288 454.458309,152.159513 454.461451,152.113833 L458.450885,94.1139874 C458.526682,93.0120216 459.481447,92.1801475 460.583413,92.2559446 C461.406867,92.3125847 462.110943,92.8692694 462.355995,93.6574538 Z" id="Path-2-Copy" fill="#FFFFFF"></path>
                            <path d="M458.307083,93.6574538 L476.339597,151.6573 C476.667531,152.712066 476.078316,153.832967 475.023549,154.1609 C474.831291,154.220675 474.631109,154.251076 474.429773,154.251076 L452.407824,154.251076 C451.303255,154.251076 450.407824,153.355645 450.407824,152.251076 C450.407824,152.205288 450.409397,152.159513 450.412539,152.113833 L454.401972,94.1139874 C454.47777,93.0120216 455.432535,92.1801475 456.534501,92.2559446 C457.357955,92.3125847 458.062031,92.8692694 458.307083,93.6574538 Z" id="Path-2" stroke-opacity="0.85" stroke="#000000" stroke-width="1.5"></path>
                            <path d="M291.241097,147.794292 L332.949074,143.654542 C341.865981,142.769489 349.81204,149.280594 350.697093,158.197501 C350.74995,158.730043 350.776428,159.264873 350.776428,159.800031 C350.776428,169.694187 342.75563,177.714985 332.861474,177.714985 L291.537408,177.714985 C289.880554,177.714985 288.537408,176.371839 288.537408,174.714985 L288.537408,150.779623 C288.537408,149.237522 289.706537,147.946605 291.241097,147.794292 Z" id="Rectangle" stroke-opacity="0.85" stroke="#000000" stroke-width="1.5" fill="#FFFFFF"></path>
                        </g>
                        <g id="Group-7-Copy" transform="translate(228.541058, 42.180397)">
                            <polygon id="Rectangle" stroke-opacity="0.85" stroke="#000000" stroke-width="1.5" points="0 0 128.841938 0 128.841938 47.41009 0 47.41009"></polygon>
                            <path d="M46.7818943,17.1862565 L75.3920963,17.1862565" id="Path-6" stroke="#FFA320" stroke-width="1.5"></path>
                            <circle id="Oval" fill="#FFA320" cx="24.140651" cy="23.705045" r="12.6369065"></circle>
                            <path d="M46.7818943,30.2238336 L106.068748,30.2238336" id="Path-6-Copy" stroke="#FFA320" stroke-width="1.5"></path>
                        </g>
                        <g id="Group-7-Copy-3" transform="translate(329.390551, 129.608855)">
                            <g id="Group-13">
                                <polygon id="Rectangle-Copy-20" fill="#FFA320" points="4.39517996 3.0676652 162.792574 3.0676652 162.792574 61.353304 4.39517996 61.353304"></polygon>
                                <polygon id="Rectangle" stroke-opacity="0.85" stroke="#000000" stroke-width="1.5" fill="#FFFFFF" points="0.560598461 0 158.957992 0 158.957992 58.2856388 0.560598461 58.2856388"></polygon>
                                <g id="Uber_logo_2018" transform="translate(41.030022, 15.721784)" fill="#010202" fill-rule="nonzero">
                                    <path d="M4.44544701,19.1569857 C4.77196996,20.0235177 5.22403377,20.7644256 5.80172181,21.3797092 C6.37940985,21.9950761 7.06379929,22.4659794 7.85489013,22.7925024 C8.64606432,23.1190253 9.50626099,23.2822451 10.4355635,23.2822451 C11.3397745,23.2822451 12.1873837,23.1126899 12.9785579,22.7735795 C13.7697321,22.4344692 14.4603736,21.9573138 15.0505657,21.3420302 C15.6407578,20.7266633 16.099157,19.9920908 16.4256799,19.1381462 C16.7522029,18.2842016 16.9154227,17.3298909 16.9154227,16.2749642 L16.9154227,0 L20.871127,0 L20.871127,26.3714173 L16.9531016,26.3714173 L16.9531016,23.9226202 C16.0740655,24.8518394 15.0379782,25.5676557 13.8450066,26.0700692 C12.6519516,26.572316 11.364866,26.8234811 9.98349966,26.8234811 C8.5769585,26.8234811 7.26469802,26.5785681 6.04655151,26.0888253 C4.82848836,25.5990826 3.77356164,24.9021891 2.88202144,23.9979781 C1.99048124,23.0937671 1.28716898,22.0076636 0.772334731,20.7392507 C0.257417123,19.4709212 0,18.0582113 0,16.5009544 L0,0 L3.95570426,0 L3.95570426,16.2749642 C3.95570426,17.3298909 4.11892406,18.2904536 4.44544701,19.1569857 Z" id="Path"></path>
                                    <path d="M27.6896797,0 L27.6896797,9.60671035 C28.5687159,8.72767422 29.5859637,8.03078071 30.7412564,7.51586311 C31.8965491,7.0009455 33.1523745,6.74352837 34.508566,6.74352837 C35.9151072,6.74352837 37.2335363,7.00719753 38.4642702,7.53461921 C39.6949208,8.06204089 40.7622683,8.77785722 41.6664792,9.68206821 C42.5706902,10.5862792 43.2865066,11.6536266 43.8139282,12.8842772 C44.3413499,14.1150111 44.6050191,15.4210196 44.6050191,16.8023859 C44.6050191,18.1836688 44.3413499,19.4834253 43.8139282,20.7014884 C43.2865066,21.9196349 42.5706902,22.9808137 41.6664792,23.8848579 C40.7622683,24.7890689 39.6949208,25.5048853 38.4642702,26.0323069 C37.2335363,26.5597286 35.9150238,26.8233978 34.508566,26.8233978 C33.1522912,26.8233978 31.8902971,26.5659806 30.7224169,26.051063 C29.5545368,25.5362288 28.5310369,24.8392519 27.6520008,23.9602158 L27.6520008,26.371334 L23.8846912,26.371334 L23.8846912,0 L27.6896797,0 Z M28.1229041,19.4018154 C28.4619311,20.205577 28.9329178,20.9088059 29.5356973,21.5115854 C30.1384768,22.114365 30.8417057,22.5916036 31.645384,22.9432181 C32.4491456,23.2948325 33.3155943,23.4706398 34.2448968,23.4706398 C35.1491078,23.4706398 36.0029691,23.2948325 36.8066474,22.9432181 C37.6103256,22.5916036 38.3072191,22.1144483 38.897578,21.5115854 C39.4877701,20.9088892 39.9586733,20.205577 40.3102878,19.4018154 C40.6619023,18.5981371 40.8377095,17.7316884 40.8377095,16.8023859 C40.8377095,15.8730834 40.6619023,15.0002993 40.3102878,14.1840336 C39.9586733,13.3677679 39.4877701,12.658287 38.897578,12.0555074 C38.3073025,11.4528113 37.610409,10.9818246 36.8066474,10.6427976 C36.0028857,10.3037706 35.1490245,10.134132 34.2448968,10.134132 C33.3407692,10.134132 32.4868246,10.3036872 31.6831463,10.6427976 C30.879468,10.981908 30.1762391,11.4528113 29.5733762,12.0555074 C28.9706801,12.658287 28.4934414,13.3677679 28.1418269,14.1840336 C27.7902125,15.0002993 27.6144052,15.8730834 27.6144052,16.8023859 C27.6144052,17.7316884 27.7838771,18.5981371 28.1229041,19.4018154 Z" id="Shape"></path>
                                    <path d="M46.7520513,12.9220395 C47.2542981,11.7164804 47.9451063,10.655385 48.8240591,9.73866997 C49.7030118,8.82195491 50.7454345,8.09988654 51.9509936,7.57246486 C53.1565526,7.04504318 54.4625611,6.78137403 55.8690189,6.78137403 C57.2503852,6.78137403 58.5313021,7.03253911 59.7117697,7.53478593 C60.8921539,8.03711611 61.9093184,8.73409298 62.763263,9.62571654 C63.6172076,10.5172567 64.2828409,11.5721835 64.7599129,12.7902466 C65.2371516,14.0083931 65.4757292,15.333241 65.4757292,16.7648737 L65.4757292,18.0081117 L49.8413068,18.0081117 C49.9669311,18.7866985 50.2180962,19.5087668 50.5948021,20.1742334 C50.9715914,20.8397834 51.4424113,21.4174715 52.007512,21.9072142 C52.5726126,22.3970403 53.213071,22.7800817 53.9288874,23.0562549 C54.6447037,23.3325115 55.4043676,23.4707231 56.2081293,23.4707231 C58.4937066,23.4707231 60.3397241,22.5288332 61.7461819,20.6451367 L64.4963271,22.6794656 C63.5419331,23.9603825 62.3615489,24.9650429 60.9550911,25.6933633 C59.5485499,26.4216837 57.9662849,26.7858856 56.2082126,26.7858856 C54.77658,26.7858856 53.439228,26.5346371 52.19599,26.0323903 C50.952752,25.5301435 49.8728171,24.8268312 48.956102,23.9226202 C48.039387,23.0184092 47.3173186,21.9573138 46.7898969,20.7392507 C46.2624753,19.5211875 45.9987227,18.1962563 45.9987227,16.764707 C45.9987227,15.4085155 46.2498045,14.1275986 46.7520513,12.9220395 Z M52.0451909,11.4338884 C50.9777601,12.325512 50.2682792,13.5122316 49.9166647,14.9940473 L61.6331451,14.9940473 C61.3066222,13.5122316 60.6096453,12.325512 59.5422145,11.4338884 C58.4747837,10.5423482 57.2252937,10.0965365 55.7937444,10.0965365 C54.3621117,10.0965365 53.1126217,10.5423482 52.0451909,11.4338884 Z" id="Shape"></path>
                                    <path d="M72.5957968,11.8671128 C71.7921186,12.7461489 71.3902378,13.9391206 71.3902378,15.4461111 L71.3902378,26.3715007 L67.5851659,26.3715007 L67.5851659,7.15799662 L71.3524755,7.15799662 L71.3524755,9.53143585 C71.8297141,8.75284908 72.4513331,8.13748211 73.2173325,7.6854183 C73.9833318,7.23327112 74.8937948,7.00719753 75.9487216,7.00719753 L77.2672341,7.00719753 L77.2672341,10.5485169 L75.684969,10.5485169 C74.429227,10.5486003 73.3994751,10.9880767 72.5957968,11.8671128 Z" id="Path"></path>
                                </g>
                            </g>
                        </g>
                        <g id="Group-7-Copy-2" transform="translate(95.097621, 149.548679)">
                            <polygon id="Rectangle" stroke-opacity="0.85" stroke="#000000" stroke-width="1.5" points="0.38345815 0.38345815 84.7442512 0.38345815 84.7442512 82.4435023 0.38345815 82.4435023"></polygon>
                            <g id="Group-7" transform="translate(12.654119, 14.379681)">
                                <circle id="Oval" fill="#FFA320" cx="29.643427" cy="12.6369065" r="12.6369065"></circle>
                                <path d="M15.338326,48.6991851 L43.948528,48.6991851" id="Path-6" stroke="#FFA320" stroke-width="1.5"></path>
                                <path d="M-5.68434189e-14,38.7292732 L59.286854,38.7292732" id="Path-6-Copy" stroke="#FFA320" stroke-width="1.5"></path>
                            </g>
                        </g>
                    </g>
                    <path d="M0.904243359,552 L1033.26669,552" id="Path-20" stroke-opacity="0.85" stroke="#000000" stroke-width="1.5"></path>
                </g>
            </g>
        </g>
    </g>
</svg>