<?xml version="1.0" encoding="UTF-8"?>
<svg width="824px" height="521px" viewBox="0 0 824 521" version="1.1" xmlns="http://www.w3.org/2000/svg" xmlns:xlink="http://www.w3.org/1999/xlink">
    <!-- Generator: Sketch 55.1 (78136) - https://sketchapp.com -->
    <title>pi-icon-4</title>
    <desc>Created with Sketch.</desc>
    <defs>
        <path d="M109.050076,2.84217094e-14 L135.970114,142.505184 C123.732873,149.321862 112.093824,152.7302 101.052967,152.7302 C84.4916814,152.7302 84.712087,145.055632 67.9850572,142.505184 C51.2580274,139.954736 50.790449,152.7302 33.7941847,152.7302 C22.4633418,152.7302 11.1986136,149.321862 2.4158453e-13,142.505184 L24.9386351,2.84217094e-14 L109.050076,2.84217094e-14 Z" id="path-1"></path>
        <circle id="path-3" cx="31.4898329" cy="31.4898329" r="31.4898329"></circle>
    </defs>
    <g id="Page-1" stroke="none" stroke-width="1" fill="none" fill-rule="evenodd">
        <g id="Carve---Everything---1-November-2019" transform="translate(-271.000000, -363.000000)">
            <g id="pi-icon-4" transform="translate(272.000000, 364.000000)">
                <path d="M51.0366106,520 C39.9821313,362.482094 73.9294483,291.188588 152.878562,306.119482 C271.302232,328.515824 405.335212,353.828528 528.051928,174.542265 C650.768645,-4.74399812 811.289752,144.037422 811.289752,280.611578 C811.289752,371.661015 797.977159,450.500512 771.351974,517.130068 L51.0366106,520 Z" id="Path-47" fill="#FFD9A3" opacity="0.100000001"></path>
                <g id="Group-3">
                    <g id="Group-2" transform="translate(0.406852, 181.744053)">
                        <path d="M188.388733,155.187747 L188.388733,155.187747 L208.281256,156.409452 C216.311261,156.902618 222.571237,163.558847 222.571237,171.603982 C222.571237,179.510991 216.16134,185.920888 208.254332,185.920888 L156.901666,185.920888 C155.064956,185.920888 153.576008,184.43194 153.576008,182.59523 L153.576008,156.585882 C153.576008,154.749172 155.064956,153.260224 156.901666,153.260224 C156.969668,153.260224 157.037654,153.26231 157.105529,153.266478" id="Path" stroke-opacity="0.85" stroke="#000000" stroke-width="1.5" fill="#FFFFFF" transform="translate(188.073623, 169.590556) scale(-1, 1) translate(-188.073623, -169.590556) "></path>
                        <path d="M186.2533,194.834289 L263.927942,110.40369 C266.673625,107.419194 270.543671,105.720906 274.599037,105.720906 L508.634321,105.720906 C513.941412,105.720906 518.824504,108.620243 521.365009,113.279754 L589.232497,237.754741 L186.2533,194.834289 Z" id="Path-Copy-3" fill="#FFD9A3"></path>
                        <ellipse id="Oval-Copy-2" stroke-opacity="0.85" stroke="#000000" stroke-width="1.5" fill="#FFFFFF" cx="324.567143" cy="283.507192" rx="48.6219481" ry="51.7036208"></ellipse>
                        <g id="Group" transform="translate(81.632997, 231.803571)" fill="#FFFFFF" stroke="#000000" stroke-opacity="0.85" stroke-width="1.5">
                            <ellipse id="Oval-Copy-3" cx="48.6219481" cy="51.7036208" rx="48.6219481" ry="51.7036208"></ellipse>
                            <ellipse id="Oval-Copy" cx="57.8669664" cy="51.7036208" rx="39.3769298" ry="51.7036208"></ellipse>
                        </g>
                        <g id="Group-Copy" transform="translate(339.975507, 231.803571)" fill="#FFFFFF" stroke="#000000" stroke-opacity="0.85" stroke-width="1.5">
                            <ellipse id="Oval-Copy-3" cx="48.6219481" cy="51.7036208" rx="48.6219481" ry="51.7036208"></ellipse>
                            <ellipse id="Oval-Copy" cx="57.8669664" cy="51.7036208" rx="39.3769298" ry="51.7036208"></ellipse>
                        </g>
                        <path d="M172.989697,188.88312 L254.757642,93.733667 C257.51227,90.5282376 261.528353,88.6842105 265.754788,88.6842105 L511.893455,88.6842105 C517.268904,88.6842105 522.203255,91.6580019 524.714248,96.4109332 L596.242736,231.803571 L172.989697,188.88312 Z" id="Path" stroke-opacity="0.85" stroke="#000000" stroke-width="1.5"></path>
                        <path d="M179.837859,201.209811 L261.605803,106.060358 C264.360432,102.854929 268.376514,101.010902 272.60295,101.010902 L364.384218,101.010902 C368.802496,101.010902 372.384218,104.592624 372.384218,109.010902 C372.384218,110.155385 372.138655,111.286547 371.664107,112.328011 L314.731744,237.27452 L179.837859,201.209811 Z" id="Path-Copy" stroke-opacity="0.85" stroke="#000000" stroke-width="1.5" fill="#FFFFFF"></path>
                        <path d="M355.222939,200.301398 L337.598004,118.567393 C335.90995,110.7392 340.887516,103.024758 348.715709,101.336705 C349.720118,101.120116 350.744704,101.010902 351.772201,101.010902 L442.848508,101.010902 C448.622759,101.010902 453.846656,104.436936 456.147577,109.732947 L507.413061,227.730271 L355.222939,200.301398 Z" id="Path-Copy-2" stroke-opacity="0.85" stroke="#000000" stroke-width="1.5" fill="#FFFFFF" transform="translate(420.612611, 164.370586) scale(-1, 1) translate(-420.612611, -164.370586) "></path>
                        <ellipse id="Oval-Copy-6" stroke-opacity="0.85" stroke="#000000" stroke-width="1.5" fill="#FFFFFF" cx="523.163833" cy="283.507192" rx="48.6219481" ry="51.7036208"></ellipse>
                        <path d="M141.716053,172.909381 L141.716053,172.909381 L604.934459,172.909381 C615.522192,172.909381 624.83741,179.902297 627.792895,190.069165 L648.193774,260.248189 C651.863648,272.872555 644.604598,286.081646 631.980232,289.75152 C629.821074,290.379182 627.583876,290.697762 625.335338,290.697762 L107.070976,290.697762 C91.1037822,290.697762 77.6695423,278.735127 75.8253177,262.874796 L68.4519135,199.46352" id="Path" stroke-opacity="0.85" stroke="#000000" stroke-width="1.5" fill="#FFFFFF"></path>
                        <path d="M72.5847871,181.411051 L603.793141,181.411051 C610.019996,181.411051 615.498459,185.523723 617.236638,191.503058 L643.337911,281.29144 C645.496236,288.716078 641.227046,296.484604 633.802408,298.642929 C632.532565,299.01207 631.216825,299.199433 629.894415,299.199433 L87.0323604,299.199433 C77.6417397,299.199433 69.7407986,292.163972 68.6561739,282.836199 L58.6784838,197.028064 C57.7854327,189.347824 63.2875358,182.397799 70.9677751,181.504748 C71.5045192,181.442336 72.0444265,181.411051 72.5847871,181.411051 Z" id="Rectangle" fill="#FFA320"></path>
                        <path d="M472.232813,185.077631 L482.600802,227.730271 M333.812162,1.38255507 C334.687888,1.28836252 335.568034,1.24116475 336.448811,1.24116475" id="Shape" stroke-opacity="0.85" stroke="#000000" stroke-width="1.5" transform="translate(408.206482, 114.308524) scale(-1, 1) translate(-408.206482, -114.308524) "></path>
                        <path d="M488.388831,172.909381 L475.897417,259.861702 C475.119468,265.276983 470.480073,269.297519 465.009197,269.297519 L350.292225,269.297519" id="Path-3" stroke-opacity="0.85" stroke="#000000" stroke-width="1.5"></path>
                        <path d="M71.2327972,181.411051 L237.22028,181.411051 C257.102531,181.411051 273.22028,197.5288 273.22028,217.411051 C273.22028,219.225636 273.083083,221.037624 272.809864,222.831521 L262.989869,287.307393 C261.948238,294.146512 256.067462,299.199433 249.149476,299.199433 L44.834021,299.199433 C34.6167531,299.199433 26.334021,290.916701 26.334021,280.699433 C26.334021,279.853523 26.3920396,279.008609 26.5076684,278.170639 L35.5707056,212.490155 C38.0285214,194.678187 53.2520559,181.411051 71.2327972,181.411051 Z" id="Rectangle-Copy-6" fill="#F68B0F"></path>
                        <g id="Group-4" transform="translate(589.591001, 192.769050)">
                            <path d="M20.2367832,0 L51.6120482,0 C53.8211872,-4.05812251e-16 55.6120482,1.790861 55.6120482,4 L55.6120482,27.5015438 C55.6120482,29.7106828 53.8211872,31.5015438 51.6120482,31.5015438 L25.700742,31.5015438 C16.4614006,31.5015438 8.56180725,24.8541896 6.98281482,15.7507719 C5.71316323,8.43080729 10.617911,1.46754753 17.9378757,0.197895944 C18.6970958,0.0662088219 19.4662271,-1.63480798e-15 20.2367832,0 Z" id="Rectangle-Copy-7" fill="#FEDB3D"></path>
                            <path d="M15.9859478,0 L47.3612128,0 C49.5703518,-4.05812251e-16 51.3612128,1.790861 51.3612128,4 L51.3612128,27.5015438 C51.3612128,29.7106828 49.5703518,31.5015438 47.3612128,31.5015438 L21.4499066,31.5015438 C12.2105652,31.5015438 4.31097183,24.8541896 2.7319794,15.7507719 C1.46232781,8.43080729 6.36707562,1.46754753 13.6870402,0.197895944 C14.4462604,0.0662088219 15.2153917,1.41548864e-16 15.9859478,0 Z" id="Rectangle" stroke-opacity="0.85" stroke="#000000" stroke-width="1.5"></path>
                        </g>
                        <path d="M62.0790288,172.909381 L219.944058,172.909381 C239.826309,172.909381 255.944058,189.02713 255.944058,208.909381 C255.944058,210.805122 255.794315,212.697901 255.496227,214.570059 L242.569257,295.758524 L11.7972841,295.758524 L26.5268598,203.248702 C29.3095552,185.771847 44.3820274,172.909381 62.0790288,172.909381 Z" id="Rectangle-Copy" stroke-opacity="0.85" stroke="#000000" stroke-width="1.5"></path>
                        <g id="Group-6" transform="translate(201.390956, 245.664933)">
                            <rect id="Rectangle-Copy-8" fill="#FEDB3D" x="3.40066833" y="0" width="26.3551796" height="10.202005" rx="3"></rect>
                            <rect id="Rectangle-Copy-5" stroke-opacity="0.85" stroke="#000000" stroke-width="1.5" x="0" y="0" width="26.3551796" height="10.202005" rx="3"></rect>
                        </g>
                        <g id="Group-5" transform="translate(65.364223, 245.664933)">
                            <rect id="Rectangle-Copy-9" fill="#FEDB3D" x="3.40066833" y="0" width="26.3551796" height="10.202005" rx="3"></rect>
                            <rect id="Rectangle" stroke-opacity="0.85" stroke="#000000" stroke-width="1.5" x="0" y="0" width="26.3551796" height="10.202005" rx="3"></rect>
                        </g>
                        <g id="Group-3" transform="translate(84.067899, 194.163558)" stroke="#000000" stroke-opacity="0.85" stroke-width="1.5">
                            <path d="M15.240136,-1.0658141e-14 L105.661682,-1.0658141e-14 C111.736815,2.57019167e-15 116.661682,4.92486775 116.661682,11 C116.661682,12.0234274 116.518858,13.0418476 116.237342,14.0257948 L110.723058,33.2991386 C109.37251,38.019531 105.057194,41.2733438 100.147399,41.2733438 L21.6358851,41.2733438 C16.8957216,41.2733438 12.6886552,38.2367744 11.1957144,33.7378548 L4.79996536,14.464511 C2.88656877,8.69856396 6.00967798,2.47322593 11.775625,0.559829336 C12.8930604,0.189014787 14.0627808,-8.66550756e-15 15.240136,-1.0658141e-14 Z" id="Rectangle-Copy" fill="#FFFFFF"></path>
                            <path d="M26.0421287,-1.0658141e-14 L106.186372,-1.0658141e-14 C112.261504,-1.53268384e-14 117.186372,4.92486775 117.186372,11 C117.186372,11.8931234 117.0776,12.7829229 116.862459,13.6497469 L112.07892,32.9230907 C110.861358,37.8287688 106.457349,41.2733438 101.402833,41.2733438 L31.5903229,41.2733438 C26.6871555,41.2733438 22.3759828,38.028148 21.0195964,33.3163261 L15.4714022,14.0429823 C13.7908095,8.20493121 17.1610954,2.10986619 22.9991464,0.429273489 C23.9883906,0.14450098 25.0127117,-1.2245397e-14 26.0421287,-1.0658141e-14 Z" id="Rectangle-Copy-4" fill="#FFFFFF"></path>
                            <path d="M16.2661044,9.25526127 L116.415547,9.25526127" id="Path-4"></path>
                            <path d="M21.7160072,33.0599396 L111.234948,33.5667131" id="Path-4-Copy-2"></path>
                            <path d="M17.1162715,21.1576004 L114.154294,21.1576004" id="Path-4-Copy"></path>
                        </g>
                        <path d="M9,276.246385 L257.443242,276.246385 C262.413805,276.246385 266.443242,280.275822 266.443242,285.246385 L266.443242,291.899767 C266.443242,296.87033 262.413805,300.899767 257.443242,300.899767 L9,300.899767 C4.02943725,300.899767 6.08718376e-16,296.87033 0,291.899767 L0,285.246385 C-6.08718376e-16,280.275822 4.02943725,276.246385 9,276.246385 Z" id="Rectangle" stroke-opacity="0.85" stroke="#000000" stroke-width="1.5" fill="#FFFFFF"></path>
                        <path d="M619.477894,276.246385 L662.426534,276.246385 C667.397096,276.246385 671.426534,280.275822 671.426534,285.246385 L671.426534,291.899767 C671.426534,296.87033 667.397096,300.899767 662.426534,300.899767 L619.477894,300.899767 C614.507332,300.899767 610.477894,296.87033 610.477894,291.899767 L610.477894,285.246385 C610.477894,280.275822 614.507332,276.246385 619.477894,276.246385 Z" id="Rectangle-Copy-2" stroke-opacity="0.85" stroke="#000000" stroke-width="1.5" fill="#FFFFFF"></path>
                        <ellipse id="Oval" stroke-opacity="0.85" stroke="#000000" stroke-width="1.5" fill="#FFFFFF" cx="333.812162" cy="283.507192" rx="39.3769298" ry="51.7036208"></ellipse>
                        <ellipse id="Oval-Copy-9" stroke-opacity="0.85" stroke="#000000" stroke-width="1.5" fill="#9598B4" cx="333.812162" cy="283.507192" rx="22.0142602" ry="28.9056808"></ellipse>
                        <ellipse id="Oval-Copy-11" stroke-opacity="0.85" stroke="#000000" stroke-width="1.5" fill="#FFFFFF" cx="329.896326" cy="283.507192" rx="18.2785923" ry="28.9056808"></ellipse>
                        <ellipse id="Oval-Copy-5" stroke-opacity="0.85" stroke="#000000" stroke-width="1.5" fill="#FFFFFF" cx="532.408851" cy="283.507192" rx="39.3769298" ry="51.7036208"></ellipse>
                        <ellipse id="Oval-Copy-10" stroke-opacity="0.85" stroke="#000000" stroke-width="1.5" fill="#9598B4" cx="533.586699" cy="283.507192" rx="22.0142602" ry="28.9056808"></ellipse>
                        <ellipse id="Oval-Copy-12" stroke-opacity="0.85" stroke="#000000" stroke-width="1.5" fill="#FFFFFF" cx="529.851031" cy="283.507192" rx="18.2785923" ry="28.9056808"></ellipse>
                        <ellipse id="Oval" stroke-opacity="0.85" stroke="#000000" stroke-width="1.5" fill="#FFFFFF" cx="65.7754053" cy="208.519822" rx="16.09318" ry="17.1204043"></ellipse>
                        <ellipse id="Oval-Copy-8" stroke-opacity="0.85" stroke="#000000" stroke-width="1.5" fill="#FFFFFF" cx="70.3913297" cy="208.519822" rx="11.4772556" ry="17.1204043"></ellipse>
                        <ellipse id="Oval-Copy-4" stroke-opacity="0.85" stroke="#000000" stroke-width="1.5" fill="#FFFFFF" cx="228.953344" cy="208.519822" rx="16.09318" ry="17.1204043"></ellipse>
                        <ellipse id="Oval-Copy-7" stroke-opacity="0.85" stroke="#000000" stroke-width="1.5" fill="#FFFFFF" cx="233.569268" cy="208.519822" rx="11.4772556" ry="17.1204043"></ellipse>
                        <path d="M523.112976,124.675904 L542.92398,161.394454 C543.448466,162.366559 543.085599,163.579786 542.113494,164.104272 C541.821712,164.261699 541.49537,164.34412 541.163828,164.34412 L516.969925,164.34412 C515.865356,164.34412 514.969925,163.44869 514.969925,162.34412 C514.969925,162.264895 514.974633,162.18574 514.984023,162.107074 L519.366922,125.388523 C519.497839,124.29174 520.493087,123.50875 521.589871,123.639667 C522.235898,123.71678 522.804043,124.103314 523.112976,124.675904 Z" id="Path-2-Copy" fill="#FFFFFF"></path>
                        <path d="M518.624544,124.675904 L538.435547,161.394454 C538.960034,162.366559 538.597167,163.579786 537.625062,164.104272 C537.33328,164.261699 537.006938,164.34412 536.675396,164.34412 L512.481493,164.34412 C511.376924,164.34412 510.481493,163.44869 510.481493,162.34412 C510.481493,162.264895 510.486201,162.18574 510.495591,162.107074 L514.87849,125.388523 C515.009407,124.29174 516.004655,123.50875 517.101439,123.639667 C517.747466,123.71678 518.315611,124.103314 518.624544,124.675904 Z" id="Path-2" stroke-opacity="0.85" stroke="#000000" stroke-width="1.5"></path>
                        <path d="M345.213855,153.245252 L396.735203,156.409452 C404.765208,156.902618 411.025185,163.558847 411.025185,171.603982 C411.025185,179.510991 404.615288,185.920888 396.708279,185.920888 L345.029956,185.920888 C343.373101,185.920888 342.029956,184.577742 342.029956,182.920888 L342.029956,156.23961 C342.029956,154.582756 343.373101,153.23961 345.029956,153.23961 C345.091299,153.23961 345.152627,153.241492 345.213855,153.245252 Z" id="Rectangle" stroke-opacity="0.85" stroke="#000000" stroke-width="1.5" fill="#FFFFFF"></path>
                    </g>
                    <g id="Group-31" transform="translate(641.535044, 164.000000)">
                        <polygon id="Rectangle-Copy-29" fill="#FF5320" points="23.7178442 25.8823529 155.069885 25.8823529 180.952238 67.9411765 155.069885 110 23.7178442 110"></polygon>
                        <path d="M108.999091,73.6581445 L97.3643746,81.0339999 L97.1287145,64.1793505 L88.838917,64.1793505 C86.0774932,64.1793505 83.838917,61.9407742 83.838917,59.1793505 L83.838917,48.0028799 C83.838917,45.8587156 85.5771056,44.120527 87.7212699,44.120527 C89.8654343,44.120527 91.6036229,45.8587156 91.6036229,48.0028799 L91.6036229,53.297479 C91.6036229,54.4020485 92.4990534,55.297479 93.6036229,55.297479 L97.3643746,55.297479 L97.4287411,43.236528 C97.4457733,40.0450437 100.037782,37.466831 103.229312,37.466831 C106.415873,37.466831 108.999091,40.0500491 108.999091,43.2366102 L108.999091,73.6581445 Z" id="Path-Copy-6" fill="#FFFFFF"></path>
                        <polygon id="Path-29-Copy" fill="#FFFFFF" points="54.5408622 104.823529 162.411765 36.7947608 178.718508 62.7647059 153.775767 104.823529"></polygon>
                        <polygon id="Rectangle" stroke="#000000" stroke-width="1.5" points="18.5413736 20.7058824 149.893414 20.7058824 175.775767 62.7647059 149.893414 104.823529 18.5413736 104.823529"></polygon>
                        <path d="M50.6585092,104.823529 L158.529412,36.7947608" id="Path-29" stroke="#000000" stroke-width="1.5" fill="#FFFFFF"></path>
                        <path d="M155.82906,79.6436285 L155.82906,82.8235294 C155.82906,84.2529723 154.670268,85.4117647 153.240825,85.4117647 L146.235294,85.4117647 C144.805851,85.4117647 143.647059,84.2529723 143.647059,82.8235294 L143.647059,79.8828406 L143.647059,78.9411765" id="Path" stroke="#000000" stroke-width="1.5" fill="#FFFFFF"></path>
                        <path d="M165.033374,80.0246219 L146.235294,80.0246219 C142.661687,80.0246219 139.764706,77.1276408 139.764706,73.5540336 L139.764706,66.495732 C139.764706,62.9221248 142.661687,60.0251437 146.235294,60.0251437 L173.187532,60.0251437" id="Path" stroke="#000000" stroke-width="1.5"></path>
                        <path d="M168.841574,73.7647059 L157.105882,73.7647059 C155.676439,73.7647059 154.517647,72.6059135 154.517647,71.1764706 L154.517647,69.2352941 C154.517647,67.8058512 155.676439,66.6470588 157.105882,66.6470588 L173.487914,66.6470588" id="Path" stroke="#000000" stroke-width="1.5"></path>
                        <path d="M174.836155,60.0251437 L149.77257,60.0251437 L153.033083,51.5616152 C154.187497,48.5650247 157.067447,46.5882353 160.278713,46.5882353 L166.486181,46.5882353 L166.486181,46.5882353" id="Path" stroke="#000000" stroke-width="1.5"></path>
                        <path d="M151.032177,59.5294118 L147.56816,59.5294118 C146.240151,59.5294118 145.163587,58.452848 145.163587,57.1248392 C145.163587,55.7968305 146.240151,54.7202667 147.56816,54.7202667 L152.360805,54.7202667" id="Path" stroke="#000000" stroke-width="1.5"></path>
                        <path d="M139.777231,67.4457646 L145.557136,67.4457646 C146.885145,67.4457646 147.961709,68.5223284 147.961709,69.8503372 C147.961709,71.1783459 146.885145,72.2549097 145.557136,72.2549097 L139.777231,72.2549097 L139.777231,67.4457646 Z" id="Rectangle" stroke="#000000" stroke-width="1.5"></path>
                        <g id="Group-29" transform="translate(81.250682, 38.328118)" stroke="#000000" stroke-width="1.5">
                            <path d="M13.8669654,38.4460686 C13.8669654,32.282801 13.8669654,27.9734746 13.8669654,25.5180893 M13.8669654,16.5658671 C13.8669654,14.3224718 13.8669654,10.9573789 13.8669654,6.47058824 C13.8669654,2.89698103 16.7639464,0 20.3375536,0 C23.9111608,0 26.8081418,2.89698103 26.8081418,6.47058824 L26.8081418,30.4117647" id="Shape"></path>
                            <path d="M14.8823529,25.8512329 L5,25.8512329 C2.23857625,25.8512329 2.11453371e-15,23.6126567 0,20.8512329 L0,9.67476233 C0,7.53059801 1.73818862,5.79240939 3.88235294,5.79240939 C6.02651726,5.79240939 7.76470588,7.53059801 7.76470588,9.67476233 L7.76470588,14.9693615 C7.76470588,16.073931 8.66013638,16.9693615 9.76470588,16.9693615 L14.8823529,16.9693615" id="Path"></path>
                        </g>
                        <path d="M104.593961,57.1248392 L110.400709,57.1248392" id="Path-39" stroke="#000000" stroke-width="1.5" fill="#FFFFFF"></path>
                        <path d="M91.652784,46.771898 L97.4595327,46.771898" id="Path-39-Copy" stroke="#000000" stroke-width="1.5" fill="#FFFFFF"></path>
                        <path d="M77.4174899,58.4189569 L83.2242385,58.4189569" id="Path-39-Copy-2" stroke="#000000" stroke-width="1.5" fill="#FFFFFF"></path>
                        <path d="M92.9469017,70.0660157 L98.7536503,70.0660157" id="Path-39-Copy-3" stroke="#000000" stroke-width="1.5" fill="#FFFFFF"></path>
                        <path d="M139.764706,85.4117647 L119.869154,104.823529" id="Path-40" stroke="#000000" stroke-width="1.5" fill="#FFFFFF"></path>
                        <g id="Group-30">
                            <circle id="Oval-Copy-15" fill="#FFD9A3" cx="29.219141" cy="25.336788" r="25.336788"></circle>
                            <circle id="Oval" stroke="#000000" stroke-width="1.5" cx="25.336788" cy="25.336788" r="25.336788"></circle>
                            <polyline id="Path" stroke-opacity="0.85" stroke="#000000" stroke-width="1.5" stroke-linecap="round" stroke-linejoin="round" transform="translate(25.636254, 22.134010) rotate(-315.000000) translate(-25.636254, -22.134010) " points="30.165666 13.0751867 30.165666 31.1928338 21.1068425 31.1928338"></polyline>
                        </g>
                    </g>
                    <g id="Group-2" transform="translate(572.035044, 0.000000)">
                        <g id="Group-7-Copy-3" transform="translate(0.000000, 25.500000)">
                            <g id="Group-13">
                                <polygon id="Rectangle-Copy-20" fill="#FFA320" points="4.39517996 3.0676652 162.792574 3.0676652 162.792574 61.353304 4.39517996 61.353304"></polygon>
                                <polyline id="Path" stroke-opacity="0.85" stroke="#000000" stroke-width="1.5" fill="#FFFFFF" points="158.957992 0 158.957992 58.2856388 0.560598461 58.2856388 0.560598461 0 134.313445 0"></polyline>
                                <g id="Uber_logo_2018" transform="translate(41.030022, 15.721784)" fill="#010202" fill-rule="nonzero">
                                    <path d="M4.44544701,19.1569857 C4.77196996,20.0235177 5.22403377,20.7644256 5.80172181,21.3797092 C6.37940985,21.9950761 7.06379929,22.4659794 7.85489013,22.7925024 C8.64606432,23.1190253 9.50626099,23.2822451 10.4355635,23.2822451 C11.3397745,23.2822451 12.1873837,23.1126899 12.9785579,22.7735795 C13.7697321,22.4344692 14.4603736,21.9573138 15.0505657,21.3420302 C15.6407578,20.7266633 16.099157,19.9920908 16.4256799,19.1381462 C16.7522029,18.2842016 16.9154227,17.3298909 16.9154227,16.2749642 L16.9154227,0 L20.871127,0 L20.871127,26.3714173 L16.9531016,26.3714173 L16.9531016,23.9226202 C16.0740655,24.8518394 15.0379782,25.5676557 13.8450066,26.0700692 C12.6519516,26.572316 11.364866,26.8234811 9.98349966,26.8234811 C8.5769585,26.8234811 7.26469802,26.5785681 6.04655151,26.0888253 C4.82848836,25.5990826 3.77356164,24.9021891 2.88202144,23.9979781 C1.99048124,23.0937671 1.28716898,22.0076636 0.772334731,20.7392507 C0.257417123,19.4709212 0,18.0582113 0,16.5009544 L0,0 L3.95570426,0 L3.95570426,16.2749642 C3.95570426,17.3298909 4.11892406,18.2904536 4.44544701,19.1569857 Z" id="Path"></path>
                                    <path d="M27.6896797,0 L27.6896797,9.60671035 C28.5687159,8.72767422 29.5859637,8.03078071 30.7412564,7.51586311 C31.8965491,7.0009455 33.1523745,6.74352837 34.508566,6.74352837 C35.9151072,6.74352837 37.2335363,7.00719753 38.4642702,7.53461921 C39.6949208,8.06204089 40.7622683,8.77785722 41.6664792,9.68206821 C42.5706902,10.5862792 43.2865066,11.6536266 43.8139282,12.8842772 C44.3413499,14.1150111 44.6050191,15.4210196 44.6050191,16.8023859 C44.6050191,18.1836688 44.3413499,19.4834253 43.8139282,20.7014884 C43.2865066,21.9196349 42.5706902,22.9808137 41.6664792,23.8848579 C40.7622683,24.7890689 39.6949208,25.5048853 38.4642702,26.0323069 C37.2335363,26.5597286 35.9150238,26.8233978 34.508566,26.8233978 C33.1522912,26.8233978 31.8902971,26.5659806 30.7224169,26.051063 C29.5545368,25.5362288 28.5310369,24.8392519 27.6520008,23.9602158 L27.6520008,26.371334 L23.8846912,26.371334 L23.8846912,0 L27.6896797,0 Z M28.1229041,19.4018154 C28.4619311,20.205577 28.9329178,20.9088059 29.5356973,21.5115854 C30.1384768,22.114365 30.8417057,22.5916036 31.645384,22.9432181 C32.4491456,23.2948325 33.3155943,23.4706398 34.2448968,23.4706398 C35.1491078,23.4706398 36.0029691,23.2948325 36.8066474,22.9432181 C37.6103256,22.5916036 38.3072191,22.1144483 38.897578,21.5115854 C39.4877701,20.9088892 39.9586733,20.205577 40.3102878,19.4018154 C40.6619023,18.5981371 40.8377095,17.7316884 40.8377095,16.8023859 C40.8377095,15.8730834 40.6619023,15.0002993 40.3102878,14.1840336 C39.9586733,13.3677679 39.4877701,12.658287 38.897578,12.0555074 C38.3073025,11.4528113 37.610409,10.9818246 36.8066474,10.6427976 C36.0028857,10.3037706 35.1490245,10.134132 34.2448968,10.134132 C33.3407692,10.134132 32.4868246,10.3036872 31.6831463,10.6427976 C30.879468,10.981908 30.1762391,11.4528113 29.5733762,12.0555074 C28.9706801,12.658287 28.4934414,13.3677679 28.1418269,14.1840336 C27.7902125,15.0002993 27.6144052,15.8730834 27.6144052,16.8023859 C27.6144052,17.7316884 27.7838771,18.5981371 28.1229041,19.4018154 Z" id="Shape"></path>
                                    <path d="M46.7520513,12.9220395 C47.2542981,11.7164804 47.9451063,10.655385 48.8240591,9.73866997 C49.7030118,8.82195491 50.7454345,8.09988654 51.9509936,7.57246486 C53.1565526,7.04504318 54.4625611,6.78137403 55.8690189,6.78137403 C57.2503852,6.78137403 58.5313021,7.03253911 59.7117697,7.53478593 C60.8921539,8.03711611 61.9093184,8.73409298 62.763263,9.62571654 C63.6172076,10.5172567 64.2828409,11.5721835 64.7599129,12.7902466 C65.2371516,14.0083931 65.4757292,15.333241 65.4757292,16.7648737 L65.4757292,18.0081117 L49.8413068,18.0081117 C49.9669311,18.7866985 50.2180962,19.5087668 50.5948021,20.1742334 C50.9715914,20.8397834 51.4424113,21.4174715 52.007512,21.9072142 C52.5726126,22.3970403 53.213071,22.7800817 53.9288874,23.0562549 C54.6447037,23.3325115 55.4043676,23.4707231 56.2081293,23.4707231 C58.4937066,23.4707231 60.3397241,22.5288332 61.7461819,20.6451367 L64.4963271,22.6794656 C63.5419331,23.9603825 62.3615489,24.9650429 60.9550911,25.6933633 C59.5485499,26.4216837 57.9662849,26.7858856 56.2082126,26.7858856 C54.77658,26.7858856 53.439228,26.5346371 52.19599,26.0323903 C50.952752,25.5301435 49.8728171,24.8268312 48.956102,23.9226202 C48.039387,23.0184092 47.3173186,21.9573138 46.7898969,20.7392507 C46.2624753,19.5211875 45.9987227,18.1962563 45.9987227,16.764707 C45.9987227,15.4085155 46.2498045,14.1275986 46.7520513,12.9220395 Z M52.0451909,11.4338884 C50.9777601,12.325512 50.2682792,13.5122316 49.9166647,14.9940473 L61.6331451,14.9940473 C61.3066222,13.5122316 60.6096453,12.325512 59.5422145,11.4338884 C58.4747837,10.5423482 57.2252937,10.0965365 55.7937444,10.0965365 C54.3621117,10.0965365 53.1126217,10.5423482 52.0451909,11.4338884 Z" id="Shape"></path>
                                    <path d="M72.5957968,11.8671128 C71.7921186,12.7461489 71.3902378,13.9391206 71.3902378,15.4461111 L71.3902378,26.3715007 L67.5851659,26.3715007 L67.5851659,7.15799662 L71.3524755,7.15799662 L71.3524755,9.53143585 C71.8297141,8.75284908 72.4513331,8.13748211 73.2173325,7.6854183 C73.9833318,7.23327112 74.8937948,7.00719753 75.9487216,7.00719753 L77.2672341,7.00719753 L77.2672341,10.5485169 L75.684969,10.5485169 C74.429227,10.5486003 73.3994751,10.9880767 72.5957968,11.8671128 Z" id="Path"></path>
                                </g>
                            </g>
                        </g>
                        <g id="Group-30" transform="translate(134.500000, 0.000000)">
                            <circle id="Oval-Copy-15" fill="#FFD9A3" cx="29.219141" cy="25.336788" r="25.336788"></circle>
                            <circle id="Oval" stroke="#000000" stroke-width="1.5" cx="25.336788" cy="25.336788" r="25.336788"></circle>
                            <polyline id="Path" stroke-opacity="0.85" stroke="#000000" stroke-width="1.5" stroke-linecap="round" stroke-linejoin="round" transform="translate(25.636254, 22.134010) rotate(-315.000000) translate(-25.636254, -22.134010) " points="30.165666 13.0751867 30.165666 31.1928338 21.1068425 31.1928338"></polyline>
                        </g>
                    </g>
                    <g id="Group-19" transform="translate(402.868044, 42.500000)">
                        <g id="Group-22" transform="translate(26.189646, 338.577696)">
                            <polygon id="Path-5" fill="#FFFFFF" points="23.5 11.3810825 29.031166 108.303497 43.5359273 108.303497 54.8683958 0.241942711"></polygon>
                            <path d="M41.0005419,108.303497 L50.0386365,9 M23.0168361,19.2147199 L27.2427459,108.303497" id="Shape" stroke="#000000" stroke-width="1.5" fill="#FFFFFF" stroke-linecap="round" stroke-linejoin="round"></path>
                            <path d="M25.5996635,23.6467866 L34.4626685,23.6467866" id="Path-21" stroke="#000000" stroke-width="1.5" fill="#FFFFFF" stroke-linecap="round" stroke-linejoin="round"></path>
                            <g id="Group-18" transform="translate(0.000000, 108.303497)" stroke="#000000" stroke-linecap="round" stroke-linejoin="round" stroke-width="1.5">
                                <path d="M27.2427459,0 L1.72980373,22.9542475 C0.554754586,24.0114508 0.459221721,25.8210491 1.51642511,26.9960982 C2.0591921,27.5993671 2.8325416,27.9438622 3.6440398,27.9438622 L40.4433571,27.9438622 C42.0239961,27.9438622 43.3053571,26.6625011 43.3053571,25.0818622 C43.3053571,24.9939678 43.3013082,24.9061202 43.2932231,24.8185985 L41.0005419,0 L41.0005419,0" id="Path"></path>
                                <path d="M10.9160538,15.8882534 L30.9988428,15.8882534 C34.732589,15.8882534 37.9698156,13.3054851 38.7990492,9.66498616 L41.0005419,5.68434189e-14" id="Path-22"></path>
                            </g>
                        </g>
                        <g id="Group-23" transform="translate(88.112340, 338.245878)">
                            <polygon id="Path-5-Copy" fill="#FFFFFF" transform="translate(16.261504, 54.604538) scale(-1, 1) translate(-16.261504, -54.604538) " points="0.577306047 11.7129003 6.10847205 108.635315 20.6132334 108.635315 31.9457018 0.573760523"></polygon>
                            <path d="M21.9231919,108.635315 L30.446156,13 M4,19.5465377 L8.16539595,108.635315" id="Shape" stroke="#000000" stroke-width="1.5" stroke-linecap="round" stroke-linejoin="round" transform="translate(17.223078, 60.817657) scale(-1, 1) translate(-17.223078, -60.817657) "></path>
                            <g id="Group-18-Copy" transform="translate(31.701914, 122.635315) scale(-1, 1) translate(-31.701914, -122.635315) translate(9.701914, 108.635315)">
                                <path d="M27.2427459,0 L1.72980373,22.9542475 C0.554754586,24.0114508 0.459221721,25.8210491 1.51642511,26.9960982 C2.0591921,27.5993671 2.8325416,27.9438622 3.6440398,27.9438622 C17.2629366,27.9438622 26.2391747,27.9438622 30.572754,27.9438622 C31.5892327,27.9438622 32.5451705,27.9438622 33.4405675,27.9438622 C34.996743,27.9438622 37.3310062,27.9438622 40.4433571,27.9438622 C42.0239961,27.9438622 43.3053571,26.6625011 43.3053571,25.0818622 C43.3053571,25.0232659 42.5370854,16.6626452 41.0005419,0" id="Path-Copy-4" fill="#FFFFFF"></path>
                                <path d="M27.2427459,0 L1.72980373,22.9542475 C0.554754586,24.0114508 0.459221721,25.8210491 1.51642511,26.9960982 C2.0591921,27.5993671 2.8325416,27.9438622 3.6440398,27.9438622 C17.2629366,27.9438622 26.2391747,27.9438622 30.572754,27.9438622 C31.5892327,27.9438622 32.5451705,27.9438622 33.4405675,27.9438622 C34.996743,27.9438622 37.3310062,27.9438622 40.4433571,27.9438622 C42.0239961,27.9438622 43.3053571,26.6625011 43.3053571,25.0818622 C43.3053571,25.0232659 42.5370854,16.6626452 41.0005419,0" id="Path" stroke="#000000" stroke-width="1.5" stroke-linecap="round" stroke-linejoin="round"></path>
                                <path d="M10.9160538,15.8882534 L30.9988428,15.8882534 C34.732589,15.8882534 37.9698156,13.3054851 38.7990492,9.66498616 L41.0005419,0" id="Path-22" stroke="#000000" stroke-width="1.5" stroke-linecap="round" stroke-linejoin="round"></path>
                            </g>
                            <path d="M19.0089696,23.9786045 L27.8719745,23.9786045" id="Path-21" stroke="#000000" stroke-width="1.5" fill="#FFFFFF" stroke-linecap="round" stroke-linejoin="round"></path>
                        </g>
                        <path d="M122.406943,205.208535 L149.326981,347.713719 C137.08974,354.530396 125.45069,357.938735 114.409834,357.938735 C97.8485481,357.938735 98.0689537,350.264167 81.3419239,347.713719 C64.6148941,345.163271 64.1473157,357.938735 47.1510514,357.938735 C35.8202085,357.938735 24.5554803,354.530396 13.3568667,347.713719 L38.2955018,205.208535" id="Path" stroke="#000000" stroke-width="1.5" fill="#FFFFFF" stroke-linecap="round" stroke-linejoin="round"></path>
                        <g id="Group-21" transform="translate(13.356867, 205.208535)">
                            <mask id="mask-2" fill="white">
                                <use xlink:href="#path-1"></use>
                            </mask>
                            <g id="Mask"></g>
                            <g id="Group-20" mask="url(#mask-2)" fill="#FF5320">
                                <g transform="translate(14.309133, 6.331746)">
                                    <polygon id="Rectangle" transform="translate(20.009109, 5.971719) rotate(-315.000000) translate(-20.009109, -5.971719) " points="18.1011094 0.247719142 21.9171094 0.247719142 21.9171094 11.6957191 18.1011094 11.6957191"></polygon>
                                    <polygon id="Rectangle-Copy-22" transform="translate(30.802387, 64.628678) rotate(-315.000000) translate(-30.802387, -64.628678) " points="28.8943874 58.9046776 32.7103874 58.9046776 32.7103874 70.3526776 28.8943874 70.3526776"></polygon>
                                    <polygon id="Rectangle-Copy-23" transform="translate(62.487000, 71.320719) rotate(-315.000000) translate(-62.487000, -71.320719) " points="60.579 65.5967191 64.395 65.5967191 64.395 77.0447191 60.579 77.0447191"></polygon>
                                    <polygon id="Rectangle-Copy-24" transform="translate(78.228000, 37.453719) rotate(-315.000000) translate(-78.228000, -37.453719) " points="76.32 31.7297191 80.136 31.7297191 80.136 43.1777191 76.32 43.1777191"></polygon>
                                    <polygon id="Rectangle-Copy-25" transform="translate(54.392042, 29.358761) rotate(-315.000000) translate(-54.392042, -29.358761) " points="52.4840416 23.6347607 56.3000416 23.6347607 56.3000416 35.0827607 52.4840416 35.0827607"></polygon>
                                    <polygon id="Rectangle-Copy-26" transform="translate(5.724000, 106.141719) rotate(-315.000000) translate(-5.724000, -106.141719) " points="3.816 100.417719 7.632 100.417719 7.632 111.865719 3.816 111.865719"></polygon>
                                    <polygon id="Rectangle-Copy-27" transform="translate(105.894000, 123.313719) rotate(-315.000000) translate(-105.894000, -123.313719) " points="103.986 117.589719 107.802 117.589719 107.802 129.037719 103.986 129.037719"></polygon>
                                    <polygon id="Rectangle-Copy-28" transform="translate(105.894000, 56.533719) rotate(-315.000000) translate(-105.894000, -56.533719) " points="103.986 50.8097191 107.802 50.8097191 107.802 62.2577191 103.986 62.2577191"></polygon>
                                </g>
                            </g>
                            <g id="Group-20-Copy" mask="url(#mask-2)" fill="#FF5320">
                                <g transform="translate(59.147133, 77.404746) scale(-1, 1) translate(-59.147133, -77.404746) translate(9.539133, 7.285746)">
                                    <polygon id="Rectangle" transform="translate(6.186958, 5.494719) rotate(-315.000000) translate(-6.186958, -5.494719) " points="4.27895843 -0.229280858 8.09495843 -0.229280858 8.09495843 11.2187191 4.27895843 11.2187191"></polygon>
                                    <polygon id="Rectangle-Copy-22" transform="translate(8.586000, 93.739719) rotate(-315.000000) translate(-8.586000, -93.739719) " points="6.678 88.0157191 10.494 88.0157191 10.494 99.4637191 6.678 99.4637191"></polygon>
                                    <polygon id="Rectangle-Copy-23" transform="translate(55.332000, 104.532997) rotate(-315.000000) translate(-55.332000, -104.532997) " points="53.424 98.808997 57.24 98.808997 57.24 110.256997 53.424 110.256997"></polygon>
                                    <polygon id="Rectangle-Copy-24" transform="translate(68.524319, 31.252719) rotate(-315.000000) translate(-68.524319, -31.252719) " points="66.6163195 25.5287191 70.4323195 25.5287191 70.4323195 36.9767191 66.6163195 36.9767191"></polygon>
                                    <polygon id="Rectangle-Copy-25" transform="translate(11.284319, 61.168122) rotate(-315.000000) translate(-11.284319, -61.168122) " points="9.37631948 55.4441218 13.1923195 55.4441218 13.1923195 66.8921218 9.37631948 66.8921218"></polygon>
                                    <polygon id="Rectangle-Copy-26" transform="translate(16.980236, 120.928719) rotate(-315.000000) translate(-16.980236, -120.928719) " points="15.0722363 115.204719 18.8882363 115.204719 18.8882363 126.652719 15.0722363 126.652719"></polygon>
                                    <polygon id="Rectangle-Copy-27" transform="translate(82.698722, 134.598039) rotate(-315.000000) translate(-82.698722, -134.598039) " points="80.7907221 128.874039 84.6067221 128.874039 84.6067221 140.322039 80.7907221 140.322039"></polygon>
                                    <polygon id="Rectangle-Copy-28" transform="translate(93.492000, 74.659719) rotate(-315.000000) translate(-93.492000, -74.659719) " points="91.584 68.9357191 95.4 68.9357191 95.4 80.3837191 91.584 80.3837191"></polygon>
                                </g>
                            </g>
                        </g>
                        <path d="M86.2086353,244.334201 L90.5744999,349.958779" id="Path-18" stroke="#000000" stroke-width="1.5" stroke-linecap="round" stroke-linejoin="round"></path>
                        <path d="M62.5566186,282.470473 L58.194,355.397733" id="Path-19" stroke="#000000" stroke-width="1.5" stroke-linecap="round" stroke-linejoin="round"></path>
                        <path d="M43.1297838,91.0415709 C46.7428116,74.1144026 48.2696027,53.7337941 47.7101569,29.8997453 C47.7101569,17.178965 62.4881046,0 72.429028,0 C79.0563102,0 84.2455436,2.52252748 87.9967281,7.56758245 C100.717508,7.56758245 107.128647,17.178965 107.128647,29.8997453 C107.469359,52.2565681 109.778133,71.9710402 114.054968,89.0431616 C120.470221,114.651344 37.7102421,116.432323 43.1297838,91.0415709 Z" id="Path" fill="#000000"></path>
                        <path d="M20.5844092,123.540935 L32.3106702,104.739104 C37.2646283,96.7959516 45.0453418,91.0258971 54.0847316,88.5918037 L83.958258,80.5475709 L114.693563,88.961815 C122.48541,91.0949482 128.681292,97.0050182 131.179763,104.687516 L145.08101,147.432182 L119.179834,158.434322 L127.176943,206.162535 C109.162081,210.257875 95.4737408,212.305546 86.1119239,212.305546 C76.750107,212.305546 62.3529959,210.257875 42.9205906,206.162535 L52.5846376,150.028634 L20.5844092,123.540935 Z" id="Path-Copy-5" fill="#FFA320"></path>
                        <path d="M39.1991355,141.446458 L15.8144092,122.586935 L27.8952614,103.216555 C32.6213375,95.6387868 40.0441382,90.1341548 48.6677159,87.8120296 L79.188258,79.5935709 L110.497799,88.1650204 C117.93122,90.2000295 123.842092,95.8382363 126.225633,103.167339 L140.31101,146.478182 L114.409834,157.480322 L122.406943,205.208535 C104.392081,209.303875 90.7037408,211.351546 81.3419239,211.351546 C71.980107,211.351546 57.5829959,209.303875 38.1505906,205.208535 L45.597896,161.950643" id="Path" stroke="#000000" stroke-width="1.5" stroke-linecap="round" stroke-linejoin="round"></path>
                        <g id="Group-17" transform="translate(63.388437, 82.940703)" stroke="#000000" stroke-linecap="round" stroke-linejoin="round" stroke-width="1.5">
                            <path d="M2.87414787,0 L14.6742727,10.8594006 C7.43187607,18.0518671 2.88732719,20.7983608 1.04062605,19.0988815 C-0.806075096,17.3994022 -0.194901156,11.0331084 2.87414787,0 Z" id="Path-17"></path>
                            <path d="M16.905113,0 L28.7052378,10.8594006 C21.4628412,18.0518671 16.9182923,20.7983608 15.0715912,19.0988815 C13.22489,17.3994022 13.836064,11.0331084 16.905113,0 Z" id="Path-17-Copy" transform="translate(21.368101, 9.793051) scale(-1, 1) translate(-21.368101, -9.793051) "></path>
                        </g>
                        <rect id="Rectangle" stroke="#000000" stroke-width="1.5" fill="#FFFFFF" stroke-linecap="round" stroke-linejoin="round" x="66.8420757" y="55.1733248" width="21.1546524" height="40.068" rx="10.5773262"></rect>
                        <circle id="Oval" stroke="#000000" stroke-width="1.5" fill="#FFFFFF" stroke-linecap="round" stroke-linejoin="round" cx="98.7765422" cy="51.2568856" r="6.23015052"></circle>
                        <circle id="Oval-Copy-13" stroke="#000000" stroke-width="1.5" fill="#FFFFFF" stroke-linecap="round" stroke-linejoin="round" cx="56.8005422" cy="51.2568856" r="6.23015052"></circle>
                        <path d="M77.4194019,18.7917351 C88.8185377,18.7917351 98.0593631,28.0325605 98.0593631,39.4316963 C98.0593631,39.6688492 98.0552758,39.9059844 98.047103,40.1429964 L97.3906083,59.1813414 C97.1583532,65.9167413 93.2522222,71.9826683 87.2165081,74.9809525 L83.6478436,76.7537121 C79.724269,78.7027759 75.1145348,78.7027759 71.1909602,76.7537121 L67.6222957,74.9809525 C61.5865816,71.9826683 57.6804506,65.9167413 57.4481955,59.1813414 L56.7917008,40.1429964 C56.3988606,28.7506316 65.3157371,19.1968354 76.7081019,18.8039952 C76.9451138,18.7958224 77.1822491,18.7917351 77.4194019,18.7917351 Z" id="Rectangle" stroke="#000000" stroke-width="1.5" fill="#FFFFFF" stroke-linecap="round" stroke-linejoin="round"></path>
                        <path d="M90.1294524,19.9523542 C85.861633,29.1957108 81.6249495,35.1860392 77.4194019,37.9233393 C73.2138543,40.6606395 64.833895,42.8822115 52.2795239,44.5880555 L52.2795239,19.9523542 L79.188258,13.2785429 L90.1294524,19.9523542 Z" id="Path-11" fill="#000000"></path>
                        <path d="M100.684542,18.2606387 C91.621038,28.8126184 85.5725473,35.2316188 82.5390703,37.51764 C80.7214479,38.887396 77.4288105,41.3904277 72.6611581,45.0267351 L72.429028,18.2606387 L92.5167838,13.2785429 L100.684542,18.2606387 Z" id="Path-11-Copy" fill="#000000" transform="translate(86.556785, 29.152639) scale(-1, 1) translate(-86.556785, -29.152639) "></path>
                        <path d="M134.231823,149.13852 L136.667492,155.801877 C138.381261,158.856495 141.771083,165.222185 146.836958,174.898949 C151.902833,184.575712 159.553817,197.791439 169.789912,214.54613 C176.104293,221.442727 179.261484,226.219997 179.261484,228.87794 C179.261484,229.904939 179.450052,246.079576 176.61411,244.179123 C175.419714,243.378722 174.389805,232.404248 172.283038,228.87794 C170.17627,225.351631 168.763206,225.353122 166.977926,225.9263 C165.192646,226.499477 169.299284,235.601243 165.708202,235.601243 C163.314148,235.601243 161.715727,230.972661 160.91294,221.715498 C147.981569,208.22871 138.420832,197.688635 132.230729,190.095274 C126.040626,182.501913 121.883807,176.214745 119.76027,171.233771 L114.409834,157.480322 L134.231823,149.13852 Z" id="Path-13" stroke="#000000" stroke-width="1.5" fill="#FFFFFF" stroke-linecap="round" stroke-linejoin="round"></path>
                        <path d="M126.523065,160.83616 L132.150588,157.602255" id="Path-14" stroke="#000000" stroke-width="1.5" stroke-linecap="round" stroke-linejoin="round"></path>
                        <path d="M80.9501917,96.3519351 L97.1910789,96.3519351 C98.8479331,96.3519351 100.191079,97.6950808 100.191079,99.3519351 L100.191079,115.971897 L100.191079,136.145973 L100.191079,138.189935 C100.191079,139.846789 98.8479331,141.189935 97.1910789,141.189935 L85.5605075,141.189935 L80.9501917,141.189935 C79.2933375,141.189935 77.9501917,139.846789 77.9501917,138.189935 L77.9501917,99.3519351 C77.9501917,97.6950808 79.2933375,96.3519351 80.9501917,96.3519351 Z" id="Rectangle-Copy-21" fill="#FFFFFF"></path>
                        <path d="M75.0881917,114.176859 L75.0881917,114.176859 L75.0881917,99.2139351 C75.0881917,97.6332961 76.3695528,96.3519351 77.9501917,96.3519351 L94.4670789,96.3519351 C96.0477178,96.3519351 97.3290789,97.6332961 97.3290789,99.2139351 L97.3290789,115.971897 L97.3290789,115.971897 M97.3290789,136.145973 L97.3290789,138.327935 C97.3290789,139.908574 96.0477178,141.189935 94.4670789,141.189935 L82.6985075,141.189935 L82.6985075,141.189935" id="Shape" stroke="#000000" stroke-width="1.5" stroke-linecap="round" stroke-linejoin="round"></path>
                        <rect id="Rectangle" stroke="#000000" stroke-width="1.5" fill="#FFFFFF" stroke-linecap="round" stroke-linejoin="round" x="86.7912825" y="99.6648056" width="7.56643481" height="7.632" rx="2"></rect>
                        <path d="M18.8512356,125.167136 C9.51211986,140.726176 3.81991723,151.537883 1.77462771,157.602255 C-1.29330657,166.698813 -0.119918827,170.10066 3.28011183,175.038403 C5.243834,177.890246 10.0859946,178.628146 17.8065935,177.252102 C20.1291125,176.838158 22.3542311,175.995306 24.3681467,174.766653 L71.2287404,146.177862 C75.0969988,143.817908 79.3216691,142.099489 83.7389312,141.08924 C92.5647203,139.07074 97.4998806,137.003749 98.5444121,134.888267 C100.452412,131.02401 102.358702,118.444914 98.5444121,116.283203 C95.8785154,114.772333 79.3257325,123.362586 78.6422005,123.254735 C72.5959636,122.300729 77.1957745,112.902711 74.1373236,114.285798 C72.4293238,115.058187 70.9765315,119.050572 69.7789466,126.262952 C69.3077638,129.100621 67.3493996,131.466866 64.649868,132.460296 L6.7722361,153.759324" id="Path-16" stroke="#000000" stroke-width="1.5" fill="#FFFFFF" stroke-linecap="round" stroke-linejoin="round"></path>
                        <polygon id="Path-15" stroke="#000000" stroke-width="1.5" stroke-linecap="round" stroke-linejoin="round" points="67.3693567 131.343549 75.0881917 143.875998 70.7255731 146.575326 63.3884368 133.135829"></polygon>
                        <circle id="Oval" stroke="#000000" stroke-width="1.5" fill="#FFFFFF" stroke-linecap="round" stroke-linejoin="round" cx="69.0203859" cy="138.938129" r="4.71239415"></circle>
                    </g>
                    <g id="Group-27" transform="translate(191.000000, 0.000000)">
                        <polyline id="Path" stroke-opacity="0.85" stroke="#000000" stroke-width="1.5" fill="#FFFFFF" points="114.15484 26 114.15484 188.367254 0 188.367254 0 26 90.0713342 26"></polyline>
                        <text id="ADD-A-DRIVER" font-family="Helvetica" font-size="9" font-weight="normal" letter-spacing="0.15000005" fill="#000000">
                            <tspan x="24.6275941" y="54.3978296">ADD A DRIVER</tspan>
                        </text>
                        <g id="Group-25" transform="translate(23.912918, 69.043290)">
                            <g id="Oval-Copy-16" transform="translate(2.419295, 0.000000)">
                                <mask id="mask-4" fill="white">
                                    <use xlink:href="#path-3"></use>
                                </mask>
                                <use id="Mask" fill="#FFA320" xlink:href="#path-3"></use>
                                <g id="Group-24" mask="url(#mask-4)">
                                    <g transform="translate(7.901707, 10.270213)">
                                        <path d="M15.9612439,32.5748516 L20.9528227,31.5456601 L25.9444014,32.5748516 C35.2378915,34.4910351 41.9056454,42.6738398 41.9056454,52.1628185 L41.9056454,66.1070171 L0,66.1070171 L0,52.1628185 C-1.16206474e-15,42.6738398 6.66775387,34.4910351 15.9612439,32.5748516 Z" id="Rectangle" stroke="#000000" stroke-width="1.5" fill="#FFFFFF" stroke-linecap="round" stroke-linejoin="round"></path>
                                        <rect id="Rectangle" stroke="#000000" stroke-width="1.5" fill="#FFFFFF" stroke-linecap="round" stroke-linejoin="round" x="16.8486615" y="23.9853632" width="8.20832229" height="12.5284919" rx="4.10416114"></rect>
                                        <circle id="Oval" stroke="#000000" stroke-width="1.5" fill="#FFFFFF" stroke-linecap="round" stroke-linejoin="round" cx="30.2411874" cy="17.9371257" r="2.80811026"></circle>
                                        <circle id="Oval-Copy-14" stroke="#000000" stroke-width="1.5" fill="#FFFFFF" stroke-linecap="round" stroke-linejoin="round" cx="11.664458" cy="17.9371257" r="2.80811026"></circle>
                                        <path d="M12.3124834,21.7562321 C10.6816233,13.5003345 9.95090065,8.67730644 10.1203153,7.28714798 C10.3744374,5.20191028 11.2568698,4.42317524 12.3124834,4.06734979 C13.0162259,3.83013282 13.7362541,4.00253729 14.4725682,4.58456319 C15.8767724,1.81211731 18.7745406,0.293514654 23.1658729,0.0287552231 C29.7528712,-0.368383924 32.1650337,3.45133588 34.0276561,5.1157696 C35.2694043,6.22539207 35.2694043,7.7650728 34.0276561,9.73481178 L31.276981,13.3998955 L29.5931619,22.6189833 L12.3124834,21.7562321 Z" id="Path-23" stroke="none" fill="#000000"></path>
                                        <path d="M29.5931619,8.62019843 L29.5931619,22.6189833 C29.5931619,27.3909109 25.7247503,31.2593226 20.9528227,31.2593226 C16.1808951,31.2593226 12.3124834,27.3909109 12.3124834,22.6189833 L12.3124834,14.2362509 C13.4356261,13.3674628 14.1556544,12.7158717 14.4725682,12.2814776 C14.7894821,11.8470836 15.0201955,11.1954925 15.1647084,10.3267044 C19.5264847,11.1934687 22.410888,11.5210645 23.8179184,11.3094917 C25.2249487,11.0979189 27.1500299,10.2014878 29.5931619,8.62019843 Z" id="Path" stroke="#000000" stroke-width="1.5" fill="#FFFFFF" stroke-linecap="round" stroke-linejoin="round"></path>
                                        <path d="M16.8486615,31.2593226 L20.9528227,36.5138551 C17.3204773,39.1272934 15.1603925,39.9937039 14.4725682,39.1130867 C13.784744,38.2324695 14.5767751,35.6145482 16.8486615,31.2593226 Z" id="Path-24" stroke="#000000" stroke-width="1.5" fill="#FFFFFF" stroke-linecap="round" stroke-linejoin="round"></path>
                                        <path d="M23.5686871,31.2593226 L27.6728483,36.5138551 C24.0405029,39.1272934 21.8804181,39.9937039 21.1925939,39.1130867 C20.5047696,38.2324695 21.2968007,35.6145482 23.5686871,31.2593226 Z" id="Path-24-Copy" stroke="#000000" stroke-width="1.5" fill="#FFFFFF" stroke-linecap="round" stroke-linejoin="round" transform="translate(24.312835, 35.352663) scale(-1, 1) translate(-24.312835, -35.352663) "></path>
                                        <path d="M20.9528227,36.5138551 L20.9528227,56.3383951" id="Path-25" stroke="#000000" stroke-width="1.5" fill="#FFFFFF" stroke-linecap="round" stroke-linejoin="round"></path>
                                        <circle id="Oval" stroke="#000000" stroke-width="1.5" fill="#FFFFFF" stroke-linecap="round" stroke-linejoin="round" cx="20.9528227" cy="45.5934923" r="1"></circle>
                                    </g>
                                </g>
                            </g>
                            <circle id="Oval" stroke="#000000" stroke-width="1.5" stroke-linecap="round" stroke-linejoin="round" cx="31.4898329" cy="31.4898329" r="31.4898329"></circle>
                        </g>
                        <g id="Group-30" transform="translate(89.912918, 0.397830)">
                            <circle id="Oval-Copy-15" fill="#FFD9A3" cx="29.219141" cy="25.336788" r="25.336788"></circle>
                            <circle id="Oval" stroke="#000000" stroke-width="1.5" cx="25.336788" cy="25.336788" r="25.336788"></circle>
                            <path d="M25.336788,16.2779645 L25.336788,34.3956116" id="Path" stroke-opacity="0.85" stroke="#000000" stroke-width="1.5" stroke-linecap="round" stroke-linejoin="round" transform="translate(25.336788, 25.336788) rotate(-360.000000) translate(-25.336788, -25.336788) "></path>
                            <path d="M34.3956116,25.336788 L16.2779645,25.336788" id="Path-Copy" stroke-opacity="0.85" stroke="#000000" stroke-width="1.5" stroke-linecap="round" stroke-linejoin="round"></path>
                        </g>
                        <g id="Group-26" transform="translate(30.540778, 153.860816)" fill="#FFFFFF" stroke="#FFA320" stroke-width="1.5">
                            <rect id="Rectangle" x="-4.54747351e-13" y="0" width="52.4854288" height="18.3463203" rx="9.17316017"></rect>
                            <path d="M19.0664879,9.17316017 L33.4189409,9.17316017" id="Path-26"></path>
                        </g>
                        <path d="M41.719404,142.215356 L72.4354359,142.215356" id="Path-27" stroke="#FFA320" stroke-width="1.5" fill="#FFFFFF" stroke-linecap="round"></path>
                    </g>
                    <g id="Group-32" transform="translate(121.000000, 217.744053)">
                        <g id="Group-28">
                            <polyline id="Path" stroke="#000000" stroke-width="1.5" fill="#FFFFFF" points="82.1368009 19.5784271 82.1368009 121.078427 0 121.078427 0 19.5784271 62.4247952 19.5784271"></polyline>
                            <text id="INSURANCE" font-family="Helvetica" font-size="9" font-weight="normal" letter-spacing="0.15000005" fill="#000000">
                                <tspan x="13.8215818" y="51.5">INSURANCE</tspan>
                            </text>
                            <path d="M13.9634553,87.4451096 L62.3269681,87.4451096" id="Path-28-Copy" stroke-opacity="0.85" stroke="#000000" stroke-width="1.5" fill="#FFFFFF"></path>
                            <path d="M13.5,76.5784271 L51.8635128,76.5784271" id="Path-28" stroke-opacity="0.85" stroke="#000000" stroke-width="1.5" fill="#FFFFFF"></path>
                            <path d="M13.9634553,101.078427 L42.3269681,101.078427" id="Path-28-Copy-2" stroke-opacity="0.85" stroke="#000000" stroke-width="1.5" fill="#FFFFFF"></path>
                            <g id="Group-30" transform="translate(62.326968, 0.000000)">
                                <circle id="Oval-Copy-15" fill="#FFD9A3" cx="22.5784271" cy="19.5784271" r="19.5784271"></circle>
                                <circle id="Oval" stroke="#000000" stroke-width="1.5" cx="19.5784271" cy="19.5784271" r="19.5784271"></circle>
                                <polyline id="Path" stroke-opacity="0.85" stroke="#000000" stroke-width="1.5" stroke-linecap="round" stroke-linejoin="round" transform="translate(19.809833, 17.103553) rotate(-315.000000) translate(-19.809833, -17.103553) " points="23.3098328 10.1035534 23.3098328 24.1035534 16.3098328 24.1035534"></polyline>
                            </g>
                        </g>
                    </g>
                    <g id="Group" transform="translate(667.000000, 310.158068)">
                        <polygon id="Rectangle" stroke="#000000" stroke-width="1.5" stroke-linecap="round" stroke-linejoin="round" points="3.8206881 128.934387 91.8088419 128.934387 77.2653454 207.265792 18.3641846 207.265792"></polygon>
                        <path d="M31.397065,146.461663 L88.1126177,146.461663" id="Path-41" stroke="#000000" stroke-width="1.5" stroke-linecap="round" stroke-linejoin="round"></path>
                        <path d="M37.2144636,128.934387 C6.99012402,108.19545 -0.0623078497,94.1446529 16.057168,86.7819965 C40.2363818,75.738012 0.595750044,52.3119196 6.40712931,43.9009835 C12.2185086,35.4900474 28.2685282,41.8442225 37.2144636,48.160675 C46.160399,54.4771275 42.8423519,2.64265062 72.9978024,0.0960739589 C103.153253,-2.45050271 66.6682511,46.3711054 70.0853409,58.2983105 C73.5024307,70.2255157 117.774692,50.1779439 93.9300163,73.1590672 C70.0853409,96.1401905 91.5418899,92.3118197 97.6262405,96.1401905 C101.682474,98.6924378 96.9558379,109.623836 83.4463315,128.934387 L37.2144636,128.934387 Z" id="Path-42-Copy" fill="#FFD9A3"></path>
                        <path d="M31.397065,128.934387 C1.17272542,108.19545 -5.87970645,94.1446529 10.2397694,86.7819965 C34.4189832,75.738012 -5.22164856,52.3119196 0.589730713,43.9009835 C6.40110998,35.4900474 22.4511296,41.8442225 31.397065,48.160675 C40.3430004,54.4771275 37.0249533,2.64265062 67.1804038,0.0960739589 C97.3358543,-2.45050271 60.8508525,46.3711054 64.2679423,58.2983105 C67.6850321,70.2255157 111.957293,50.1779439 88.1126177,73.1590672 C64.2679423,96.1401905 85.7244913,92.3118197 91.8088419,96.1401905 C95.8650757,98.6924378 91.1384393,109.623836 77.6289329,128.934387 L31.397065,128.934387 Z" id="Path-42" stroke="#000000" stroke-width="1.5" stroke-linecap="round" stroke-linejoin="round"></path>
                        <path d="M51.6758007,43.9009835 L46.7491759,128.934387" id="Path-43" stroke="#000000" stroke-width="1.5" stroke-linecap="round" stroke-linejoin="round"></path>
                        <path d="M49.1401181,85.3285425 L77.6289329,72.9879765" id="Path-44" stroke="#000000" stroke-width="1.5" stroke-linecap="round" stroke-linejoin="round"></path>
                        <path d="M27.5594642,98.9167433 L47.5660557,110.430176" id="Path-45" stroke="#000000" stroke-width="1.5" stroke-linecap="round" stroke-linejoin="round"></path>
                    </g>
                    <path d="M73,517.130068 L793.187828,517.220184" id="Path-46" stroke-opacity="0.85" stroke="#000000" stroke-width="1.5"></path>
                </g>
            </g>
        </g>
    </g>
</svg>