<svg fill="none" height="27" viewBox="0 0 32 27" width="32" xmlns="http://www.w3.org/2000/svg"><path clip-rule="evenodd" d="m28.229 4.112c1.356-.813 2.397-2.099 2.887-3.632-1.268.752-2.674 1.298-4.169 1.593-1.198-1.276-2.904-2.073-4.792-2.073-3.626 0-6.565 2.939-6.565 6.565 0 .514.058 1.015.17 1.496-5.457-.274-10.294-2.888-13.532-6.86-.565.97-.889 2.098-.889 3.301 0 2.277 1.159 4.287 2.92 5.464-1.076-.034-2.088-.329-2.973-.821-.001.028-.001.055-.001.083 0 3.181 2.263 5.834 5.267 6.437-.551.15-1.131.23-1.73.23-.423 0-.834-.041-1.235-.117.835 2.608 3.26 4.506 6.133 4.559-2.247 1.761-5.078 2.81-8.154 2.81-.53 0-1.052-.031-1.566-.091 2.905 1.862 6.356 2.949 10.064 2.949 12.076 0 18.679-10.004 18.679-18.679 0-.285-.006-.568-.019-.85 1.283-.925 2.396-2.081 3.276-3.398-1.177.522-2.443.875-3.771 1.034z" fill="#000" fill-rule="evenodd"/></svg>